<?xml version="1.0" encoding="UTF-8" standalone="no"?>
<!-- Created with Inkscape (http://www.inkscape.org/) -->

<svg
   xmlns:osb="http://www.openswatchbook.org/uri/2009/osb"
   xmlns:dc="http://purl.org/dc/elements/1.1/"
   xmlns:cc="http://creativecommons.org/ns#"
   xmlns:rdf="http://www.w3.org/1999/02/22-rdf-syntax-ns#"
   xmlns:svg="http://www.w3.org/2000/svg"
   xmlns="http://www.w3.org/2000/svg"
   xmlns:sodipodi="http://sodipodi.sourceforge.net/DTD/sodipodi-0.dtd"
   xmlns:inkscape="http://www.inkscape.org/namespaces/inkscape"
   version="1.1"
   width="16"
   height="16"
   id="svg7384"
   inkscape:version="0.48.4 r9939"
   sodipodi:docname="align-vertical-center.svg">
  <metadata
     id="metadata90">
    <rdf:RDF>
      <cc:Work
         rdf:about="">
        <dc:format>image/svg+xml</dc:format>
        <dc:type
           rdf:resource="http://purl.org/dc/dcmitype/StillImage" />
        <dc:title>MuseScore Icon Theme</dc:title>
      </cc:Work>
    </rdf:RDF>
  </metadata>
  <sodipodi:namedview
     pagecolor="#222222"
     bordercolor="#666666"
     borderopacity="1"
     objecttolerance="10"
     gridtolerance="10"
     guidetolerance="10"
     inkscape:pageopacity="1"
     inkscape:pageshadow="2"
     inkscape:window-width="960"
     inkscape:window-height="1020"
     id="namedview88"
     showgrid="false"
     inkscape:zoom="1"
     inkscape:cx="62.62788"
     inkscape:cy="15.966973"
     inkscape:window-x="1"
     inkscape:window-y="27"
     inkscape:window-maximized="0"
     inkscape:current-layer="actions"
     showborder="false"
     inkscape:snap-nodes="false"
     inkscape:snap-bbox="true"
     inkscape:bbox-paths="true"
     showguides="true"
     inkscape:guide-bbox="true"
     inkscape:snap-to-guides="true"
     inkscape:snap-grids="true"
     inkscape:snap-global="false"
     inkscape:object-nodes="false"
     inkscape:snap-bbox-midpoints="false"
     inkscape:object-paths="false"
     inkscape:snap-others="false"
     inkscape:bbox-nodes="false"
     fit-margin-top="6"
     fit-margin-left="6"
     fit-margin-right="6"
     fit-margin-bottom="6">
    <inkscape:grid
       type="xygrid"
       id="grid4866"
       empspacing="2"
       visible="true"
       enabled="true"
       snapvisiblegridlinesonly="true"
       spacingx="1px"
       spacingy="1px"
       originx="-257.99981px"
       originy="-174.00001px" />
  </sodipodi:namedview>
  <title
     id="title9167">MuseScore Icon Theme</title>
  <defs
     id="defs7386">
    <linearGradient
       id="linearGradient19282"
       osb:paint="solid"
       gradientTransform="matrix(-2.7365795,0.40810354,-0.18908311,-1.4468561,239.54008,-1703.6896)">
      <stop
         style="stop-color:#666666;stop-opacity:1;"
         offset="0"
         id="stop19284" />
    </linearGradient>
    <linearGradient
       id="linearGradient12335"
       osb:paint="solid"
       gradientTransform="matrix(-2.7365795,0.40810354,-0.18908311,-1.4468561,239.54008,-1703.6896)">
      <stop
         style="stop-color:#666666;stop-opacity:1;"
         offset="0"
         id="stop12337" />
    </linearGradient>
    <linearGradient
       id="linearGradient12339"
       osb:paint="solid"
       gradientTransform="matrix(-2.7365795,0.40810354,-0.18908311,-1.4468561,239.54008,-1703.6896)">
      <stop
         style="stop-color:#666666;stop-opacity:1;"
         offset="0"
         id="stop12341" />
    </linearGradient>
    <linearGradient
       id="linearGradient19282-9"
       osb:paint="solid"
       gradientTransform="matrix(-2.7365795,0.40810354,-0.18908311,-1.4468561,263.493,-969.46532)">
      <stop
         style="stop-color:#ffffff;stop-opacity:1;"
         offset="0"
         id="stop19284-8" />
    </linearGradient>
    <linearGradient
       id="linearGradient21935"
       osb:paint="solid"
       gradientTransform="matrix(-2.7365795,0.40810354,-0.18908311,-1.4468561,239.54008,-1703.6896)">
      <stop
         style="stop-color:#666666;stop-opacity:1;"
         offset="0"
         id="stop21937" />
    </linearGradient>
    <linearGradient
       id="linearGradient21939"
       osb:paint="solid"
       gradientTransform="matrix(-2.7365795,0.40810354,-0.18908311,-1.4468561,239.54008,-1703.6896)">
      <stop
         style="stop-color:#666666;stop-opacity:1;"
         offset="0"
         id="stop21941" />
    </linearGradient>
  </defs>
  <g
     inkscape:groupmode="layer"
     id="actions"
     inkscape:label="actions"
     transform="translate(-292.99981,-178.99999)"
     style="display:inline">
    <rect
       style="font-size:12px;fill:none;stroke:none"
       id="rect4278"
       width="16"
       height="16"
       x="179"
       y="-308.99982"
       transform="matrix(0,1,-1,0,0,0)" />
    <rect
       transform="matrix(0,1,-1,0,0,0)"
       y="-308.99982"
       x="179"
       height="16"
       width="16"
       id="rect4280"
       style="font-size:12px;fill:none;stroke:none" />
    <path
       inkscape:connector-curvature="0"
       id="path4282"
       d="m 293.99981,188.01281 0.5,0 1,0 0.5,0 0,-1 -0.5,0 -1,0 -0.5,0 z m 3,0 0.5,0 1,0 0.5,0 0,-1 -0.5,0 -1,0 -0.5,0 z m 3,0 0.5,0 1,0 0.5,0 0,-1 -0.5,0 -1,0 -0.5,0 z m 3,0 0.5,0 1,0 0.5,0 0,-1 -0.5,0 -1,0 -0.5,0 z m 3,0 0.5,0 1,0 0.5,0 0,-1 -0.5,0 -1,0 -0.5,0 z"
       style="font-size:medium;font-style:normal;font-variant:normal;font-weight:normal;font-stretch:normal;text-indent:0;text-align:start;text-decoration:none;line-height:normal;letter-spacing:normal;word-spacing:normal;text-transform:none;direction:ltr;block-progression:tb;writing-mode:lr-tb;text-anchor:start;baseline-shift:baseline;color:#000000;fill:#ffffff;fill-opacity:1;stroke:none;stroke-width:1;marker:none;visibility:visible;display:inline;overflow:visible;enable-background:accumulate;font-family:Sans;-inkscape-font-specification:Sans" />
    <path
       sodipodi:nodetypes="ccsscsscsscccssczccszz"
       inkscape:connector-curvature="0"
       id="path4284"
       d="m 297.99941,184 0,0.99988 4.3439,0 c 0.2684,0 0.6561,0.4174 0.6562,0.65625 l 0,1.06262 -3.3746,0 c -0.6559,0 -1.2245,0.26766 -1.5938,0.6875 -0.3693,0.41984 -0.5358,0.95329 -0.5312,1.46875 0,0.51546 0.1636,1.02234 0.5312,1.4375 0.3676,0.41516 0.9452,0.6875 1.5938,0.6875 l 3.7183,0 0.6562,0 0,-0.75 0,-4.1875 c 0,-1.17527 -0.855,-2.0625 -2.0625,-2.0625 z m 1.25,4 c 0.4139,0 3.75,0 3.75,0 l 0,2 -3.75,0 c -0.3177,0 -0.7499,-0.34493 -0.7499,-1 0,-0.65507 0.336,-1 0.7499,-1 z"
       style="font-size:medium;font-style:normal;font-variant:normal;font-weight:normal;font-stretch:normal;text-indent:0;text-align:start;text-decoration:none;line-height:normal;letter-spacing:normal;word-spacing:normal;text-transform:none;direction:ltr;block-progression:tb;writing-mode:lr-tb;text-anchor:start;baseline-shift:baseline;color:#000000;fill:#ffffff;fill-opacity:1;stroke:none;stroke-width:1.5;marker:none;visibility:visible;display:inline;overflow:visible;enable-background:accumulate;font-family:Sans;-inkscape-font-specification:Sans" />
  </g>
</svg>
