<?xml version="1.0" encoding="UTF-8" standalone="no"?>
<!-- Created with Inkscape (http://www.inkscape.org/) -->

<svg
   xmlns:dc="http://purl.org/dc/elements/1.1/"
   xmlns:cc="http://creativecommons.org/ns#"
   xmlns:rdf="http://www.w3.org/1999/02/22-rdf-syntax-ns#"
   xmlns:svg="http://www.w3.org/2000/svg"
   xmlns="http://www.w3.org/2000/svg"
   xmlns:inkscape="http://www.inkscape.org/namespaces/inkscape"
   version="1.1"
   width="16"
   height="16"
   id="svg7384">
  <title
     id="title9167">MuseScore Icon Theme</title>
  <metadata
     id="metadata90">
    <rdf:RDF>
      <cc:Work
         rdf:about="">
        <dc:format>image/svg+xml</dc:format>
        <dc:type
           rdf:resource="http://purl.org/dc/dcmitype/StillImage" />
        <dc:title>MuseScore Icon Theme</dc:title>
      </cc:Work>
    </rdf:RDF>
  </metadata>
  <defs
     id="defs7386" />
  <g
     transform="translate(-229.99981,-158.99999)"
     id="instruments" />
  <g
     transform="translate(-264.99981,-178.99999)"
     id="actions"
     style="display:inline">
    <path
       d="m 265.99981,188.01281 0.5,0 1,0 0.5,0 0,-1 -0.5,0 -1,0 -0.5,0 z m 3,0 0.5,0 1,0 0.5,0 0,-1 -0.5,0 -1,0 -0.5,0 z m 3,0 0.5,0 1,0 0.5,0 0,-1 -0.5,0 -1,0 -0.5,0 z m 3,0 0.5,0 1,0 0.5,0 0,-1 -0.5,0 -1,0 -0.5,0 z m 3,0 0.5,0 1,0 0.5,0 0,-1 -0.5,0 -1,0 -0.5,0 z"
       inkscape:connector-curvature="0"
       id="path4272"
       style="font-size:medium;font-style:normal;font-variant:normal;font-weight:normal;font-stretch:normal;text-indent:0;text-align:start;text-decoration:none;line-height:normal;letter-spacing:normal;word-spacing:normal;text-transform:none;direction:ltr;block-progression:tb;writing-mode:lr-tb;text-anchor:start;baseline-shift:baseline;color:#000000;fill:#666666;fill-opacity:1;stroke:none;stroke-width:1;marker:none;visibility:visible;display:inline;overflow:visible;enable-background:accumulate;font-family:Sans;-inkscape-font-specification:Sans" />
    <path
       d="m 269.99941,179.99999 0,0.99988 4.3439,0 c 0.2684,0 0.6561,0.4174 0.6562,0.65625 l 0,1.06262 -3.3746,0 c -0.6559,0 -1.2245,0.26766 -1.5938,0.6875 -0.3693,0.41984 -0.5358,0.95329 -0.5312,1.46875 0,0.51546 0.1636,1.02234 0.5312,1.4375 0.3676,0.41516 0.9452,0.6875 1.5938,0.6875 l 3.7183,0 0.6562,0 0,-0.75 0,-4.1875 c 0,-1.17527 -0.855,-2.0625 -2.0625,-2.0625 z m 1.25,4 c 0.4139,0 3.75,0 3.75,0 l 0,2 -3.75,0 c -0.3177,0 -0.7499,-0.34493 -0.7499,-1 0,-0.65507 0.336,-1 0.7499,-1 z"
       inkscape:connector-curvature="0"
       id="path4274"
       style="font-size:medium;font-style:normal;font-variant:normal;font-weight:normal;font-stretch:normal;text-indent:0;text-align:start;text-decoration:none;line-height:normal;letter-spacing:normal;word-spacing:normal;text-transform:none;direction:ltr;block-progression:tb;writing-mode:lr-tb;text-anchor:start;baseline-shift:baseline;color:#000000;fill:#666666;fill-opacity:1;stroke:none;stroke-width:1.5;marker:none;visibility:visible;display:inline;overflow:visible;enable-background:accumulate;font-family:Sans;-inkscape-font-specification:Sans" />
  </g>
</svg>
