<?xml version="1.0" encoding="UTF-8" standalone="no"?>


<svg
 
 
 
 
 xmlns="http://www.w3.org/2000/svg"
 
 version="1.1"
 width="16"
 height="16"
 >
 <title
 >MuseScore Icon Theme</title>
 <metadata
 >
 <rdf:RDF>
 <cc:Work
 rdf:about="">
 <dc:format>image/svg+xml</dc:format>
 <dc:type
 rdf:resource="http://purl.org/dc/dcmitype/StillImage" />
 <dc:title>MuseScore Icon Theme</dc:title>
 </cc:Work>
 </rdf:RDF>
 </metadata>
 <defs
 />
 <g
 transform="translate(-117.99981,-102.99995)"
 />
 <g
 transform="translate(-152.99981,-122.99995)"
 
 style="">
 <path
 d="m 154.99981,126.99995 c -0.5,0 -1,0.5 -1,1 l 0,4 c 0,0.5 0.5,1 1,1 l 1,0 0,-2 10,0 0,2 1,0 c 0.5,0 1,-0.5 1,-1 l 0,-4 c 0,-0.5 -0.5,-1 -1,-1 l -12,0 z"
 
 
 style="fill:#666666" />
 <path
 d="m 156.99981,123.99995 0,2 8,0 0,-2 -8,0 z"
 
 
 style="fill:#666666" />
 <path
 d="m 157,132 0,5 8,0 0,-5 -8,0 z m 1,1 6,0 0,1 -6,0 0,-1 z m 0,2 6,0 0,1 -6,0 0,-1 z"
 
 
 style="fill:#666666" />
 </g>
</svg>
