<?xml version="1.0" encoding="UTF-8" standalone="no"?>


<svg
 
 
 
 
 xmlns="http://www.w3.org/2000/svg"
 
 version="1.1"
 width="16"
 height="16.000017"
 >
 <title
 >MuseScore Icon Theme</title>
 <metadata
 >
 <rdf:RDF>
 <cc:Work
 rdf:about="">
 <dc:format>image/svg+xml</dc:format>
 <dc:type
 rdf:resource="http://purl.org/dc/dcmitype/StillImage" />
 <dc:title>MuseScore Icon Theme</dc:title>
 </cc:Work>
 </rdf:RDF>
 </metadata>
 <defs
 >
 <linearGradient
 
 gradientTransform="matrix(-2.7365795,0.40810354,-0.18908311,-1.4468561,-224.5062,-2986.1897)">
 <stop
 
 style="stop-;stop-opacity:1"
 offset="0" />
 </linearGradient>
 </defs>
 <g
 transform="translate(-6.0004,-102.99998)"
 />
 <g
 transform="translate(-41.0004,-122.99998)"
 
 style="">
 <path
 d="m 55.93006,128.842 c -0.34493,0.2621 -1.48389,-0.9401 -1.91274,-0.9419 -0.43627,0 -1.51201,1.1871 -1.86699,0.9263 -0.34894,-0.2564 0.43961,-1.6511 0.30877,-2.0711 -0.1331,-0.4272 -1.48807,-1.1271 -1.35655,-1.5548 0.12928,-0.4205 1.58587,-0.065 1.93385,-0.3227 0.35401,-0.2622 0.54466,-1.8743 0.98092,-1.8778 0.42884,0 0.58819,1.6014 0.9341,1.8621 0.35189,0.2652 1.90183,-0.047 2.03993,0.379 0.13576,0.4183 -1.29949,1.0701 -1.43369,1.4889 -0.13653,0.4261 0.72331,1.8455 0.3724,2.112 z"
 
 
 style="fill:url(#linearGradient19282-9);fill-rule:nonzero;stroke-width:2" />
 <path
 d="m 42.8129,126 c -0.4584,0.087 -0.82072,0.5334 -0.8125,1 l 0,11 c 5e-5,0.5236 0.47642,0.9999 1,1 l 9,0 c 0.52358,-1e-4 0.99995,-0.4764 1,-1 l 0,-7.4375 c 0.006,-0.2641 -0.0975,-0.529 -0.28125,-0.7188 l -3.5625,-3.5625 c -0.18979,-0.1837 -0.4547,-0.2873 -0.71875,-0.2812 -2.17382,0 -3.36441,0 -5.5312,0 -0.0312,0 -0.0625,0 -0.0937,0 z m 1.1875,2 4,0 0,3 3,0 0,6 -7,0 z"
 
 
 style="fill:url(#linearGradient19282-9);fill-rule:nonzero;stroke-width:1.99999988" />
 </g>
</svg>
