<?xml version="1.0" encoding="UTF-8" standalone="no"?>
<!-- Created with Inkscape (http://www.inkscape.org/) -->

<svg
   xmlns:dc="http://purl.org/dc/elements/1.1/"
   xmlns:cc="http://creativecommons.org/ns#"
   xmlns:rdf="http://www.w3.org/1999/02/22-rdf-syntax-ns#"
   xmlns:svg="http://www.w3.org/2000/svg"
   xmlns="http://www.w3.org/2000/svg"
   xmlns:inkscape="http://www.inkscape.org/namespaces/inkscape"
   version="1.1"
   width="16"
   height="16"
   id="svg7384">
  <title
     id="title9167">MuseScore Icon Theme</title>
  <metadata
     id="metadata90">
    <rdf:RDF>
      <cc:Work
         rdf:about="">
        <dc:format>image/svg+xml</dc:format>
        <dc:type
           rdf:resource="http://purl.org/dc/dcmitype/StillImage" />
        <dc:title>MuseScore Icon Theme</dc:title>
      </cc:Work>
    </rdf:RDF>
  </metadata>
  <defs
     id="defs7386" />
  <g
     transform="translate(-117.99981,-102.99995)"
     id="instruments" />
  <g
     transform="translate(-152.99981,-122.99995)"
     id="actions"
     style="display:inline">
    <path
       d="m 154.99981,126.99995 c -0.5,0 -1,0.5 -1,1 l 0,4 c 0,0.5 0.5,1 1,1 l 1,0 0,-2 10,0 0,2 1,0 c 0.5,0 1,-0.5 1,-1 l 0,-4 c 0,-0.5 -0.5,-1 -1,-1 l -12,0 z"
       inkscape:connector-curvature="0"
       id="path3520"
       style="fill:#666666;fill-opacity:1;stroke:none" />
    <path
       d="m 156.99981,123.99995 0,2 8,0 0,-2 -8,0 z"
       inkscape:connector-curvature="0"
       id="path4804"
       style="fill:#666666;fill-opacity:1;stroke:none" />
    <path
       d="m 157,132 0,5 8,0 0,-5 -8,0 z m 1,1 6,0 0,1 -6,0 0,-1 z m 0,2 6,0 0,1 -6,0 0,-1 z"
       inkscape:connector-curvature="0"
       id="path4806"
       style="fill:#666666;fill-opacity:1;stroke:none" />
  </g>
</svg>
