<?xml version="1.0" encoding="UTF-8" standalone="no"?>


<svg
 
 
 
 
 xmlns="http://www.w3.org/2000/svg"
 
 version="1.1"
 width="16"
 height="16"
 >
 <title
 >MuseScore Icon Theme</title>
 <metadata
 >
 <rdf:RDF>
 <cc:Work
 rdf:about="">
 <dc:format>image/svg+xml</dc:format>
 <dc:type
 rdf:resource="http://purl.org/dc/dcmitype/StillImage" />
 <dc:title>MuseScore Icon Theme</dc:title>
 </cc:Work>
 </rdf:RDF>
 </metadata>
 <defs
 />
 <g
 transform="translate(-61.999819,-102.99995)"
 />
 <g
 transform="translate(-96.999819,-122.99995)"
 
 style="">
 <path
 d="m 99.218748,123.99996 c -0.563484,0 -1.21875,0.53776 -1.21875,1.21875 l 0,11.5625 c 0,0.6811 0.0377,1.21875 0.71875,1.21875 l 0.28125,0 11.031252,0 0.75,0 c 0.1352,-0.003 0.20861,-0.0298 0.21875,-0.0312 0.56853,-0.10508 1,-0.58499 1,-1.1875 l 0,-10.8125 c -0.28484,-0.49346 -1.346,-1.61728 -1.96875,-1.9688 l -1.03125,0 0,3.875 c 0,0.61709 -0.50799,1.125 -1.125,1.125 l -6.75,0 c -0.61702,0 -1.125002,-0.50791 -1.125002,-1.125 l 0,-3.875 -0.78125,0 z m 2.062502,7 7.4375,0 c 0.711,0 1.28125,0.57025 1.28125,1.28125 l 0,2.4375 c 0,0.711 -0.57025,1.28125 -1.28125,1.28125 l -7.4375,0 c -0.711,0 -1.281252,-0.57025 -1.281252,-1.28125 l 0,-2.4375 c 0,-0.711 0.570252,-1.28125 1.281252,-1.28125 z"
 
 
 style="fill:#666666" />
 <rect
 width="1"
 height="2.9996073"
 
 
 x="102.9998"
 y="124.00036"
 
 style="fill:#666666" />
 </g>
</svg>
