<?xml version="1.0" encoding="UTF-8" standalone="no"?>
<!-- Created with Inkscape (http://www.inkscape.org/) -->

<svg
   xmlns:dc="http://purl.org/dc/elements/1.1/"
   xmlns:cc="http://creativecommons.org/ns#"
   xmlns:rdf="http://www.w3.org/1999/02/22-rdf-syntax-ns#"
   xmlns:svg="http://www.w3.org/2000/svg"
   xmlns="http://www.w3.org/2000/svg"
   xmlns:inkscape="http://www.inkscape.org/namespaces/inkscape"
   version="1.1"
   width="16"
   height="16"
   id="svg7384">
  <title
     id="title9167">MuseScore Icon Theme</title>
  <metadata
     id="metadata90">
    <rdf:RDF>
      <cc:Work
         rdf:about="">
        <dc:format>image/svg+xml</dc:format>
        <dc:type
           rdf:resource="http://purl.org/dc/dcmitype/StillImage" />
        <dc:title>MuseScore Icon Theme</dc:title>
      </cc:Work>
    </rdf:RDF>
  </metadata>
  <defs
     id="defs7386" />
  <g
     transform="translate(-89.999819,-102.99995)"
     id="instruments" />
  <g
     transform="translate(-124.99982,-122.99995)"
     id="actions"
     style="display:inline">
    <rect
       width="1"
       height="2.9996073"
       rx="0"
       ry="0"
       x="130.9998"
       y="124.00036"
       id="rect26227"
       style="fill:#666666;fill-opacity:1;stroke:none;display:inline" />
    <rect
       width="12"
       height="2"
       rx="0"
       ry="0"
       x="126.99982"
       y="-137.99991"
       transform="scale(1,-1)"
       id="rect26229"
       style="fill:#666666;fill-opacity:1;stroke:none;display:inline" />
    <rect
       width="6"
       height="1"
       rx="0"
       ry="0"
       x="129.99953"
       y="-133"
       transform="scale(1,-1)"
       id="rect26231"
       style="fill:#666666;fill-opacity:1;stroke:none;display:inline" />
    <path
       d="m 127.21827,123.9999 c -0.56349,0 -1.21876,0.53779 -1.21876,1.21878 l 0,11.56247 c 0,0.6811 0.0377,1.21878 0.71876,1.21878 l 0.28125,0 11.03125,0 0.74999,0 c 0.13521,0 0.20862,-0.0292 0.21875,-0.0315 0.56854,-0.10462 1.00001,-0.58504 1.00001,-1.18751 l 0,-10.81254 c -0.28484,-0.49347 -1.346,-1.61731 -1.96875,-1.96883 l -1.03126,0 0,3.87501 c 0,0.61709 -0.50798,1.12508 -1.125,1.12508 l -6.74999,0 c -0.61702,0 -1.12501,-0.50799 -1.12501,-1.12508 l 0,-3.87501 -0.78124,0 z m 2.06249,7.00007 7.43751,0 c 0.71099,0 1.28125,0.57019 1.28125,1.28121 l 0,2.43756 c 0,0.7109 -0.57026,1.2812 -1.28125,1.2812 l -7.43751,0 c -0.71099,0 -1.28125,-0.5703 -1.28125,-1.2812 l 0,-2.43756 c 0,-0.71102 0.57026,-1.28121 1.28125,-1.28121 z"
       
       id="rect3571-3"
       style="fill:#666666;fill-opacity:1;stroke:none;display:inline" />
    <rect
       width="6"
       height="1"
       rx="0"
       ry="0"
       x="129.99953"
       y="-134.99994"
       transform="scale(1,-1)"
       id="rect4147"
       style="fill:#666666;fill-opacity:1;stroke:none;display:inline" />
  </g>
</svg>
