<?xml version="1.0" encoding="UTF-8" standalone="no"?>


<svg
 
 
 
 
 xmlns="http://www.w3.org/2000/svg"
 
 version="1.1"
 width="16"
 height="16"
 >
 <title
 >MuseScore Icon Theme</title>
 <metadata
 >
 <rdf:RDF>
 <cc:Work
 rdf:about="">
 <dc:format>image/svg+xml</dc:format>
 <dc:type
 rdf:resource="http://purl.org/dc/dcmitype/StillImage" />
 <dc:title>MuseScore Icon Theme</dc:title>
 </cc:Work>
 </rdf:RDF>
 </metadata>
 <defs
 >
 <linearGradient
 
 gradientTransform="matrix(-2.7365795,0.40810354,-0.18908311,-1.4468561,47.49071,-1977.8275)">
 <stop
 
 style="stop-;stop-opacity:1"
 offset="0" />
 </linearGradient>
 </defs>
 <g
 transform="translate(-33.999816,-102.99998)"
 />
 <g
 transform="translate(-68.999816,-122.99998)"
 
 style="">
 <path
 d="m 69.57156,124 c -0.28779,0 -0.52879,0.242 -0.52879,0.5312 l 0,12.9363 c 0,0.2984 0.23158,0.5312 0.52879,0.5312 l 13.74856,0 c 0.29722,0 0.52878,-0.2327 0.52878,-0.5312 l 1.15091,-5.9369 c 0,-0.2891 -0.241,-0.5312 -0.52878,-0.5312 l -11.41567,0 -1.02648,4.4995 c 0,0.277 -0.22196,0.5 -0.49768,0.5 -0.27571,0 -0.49625,-0.223 -0.49769,-0.5 L 70.99981,129 c 2.49276,0 8.34646,0 12,0 0,0 0.23658,-2 -0.48056,-2 l -7.52154,0 0,-2.4686 c 0,-0.2891 -0.241,-0.5312 -0.5288,-0.5312 l -2.4712,-2e-4 -1.92852,0 z"
 
 
 style="fill:url(#linearGradient19282-9);fill-rule:nonzero" />
 </g>
</svg>
