<?xml version="1.0" encoding="UTF-8" standalone="no"?>
<!-- Created with Inkscape (http://www.inkscape.org/) -->

<svg
   xmlns:dc="http://purl.org/dc/elements/1.1/"
   xmlns:cc="http://creativecommons.org/ns#"
   xmlns:rdf="http://www.w3.org/1999/02/22-rdf-syntax-ns#"
   xmlns:svg="http://www.w3.org/2000/svg"
   xmlns="http://www.w3.org/2000/svg"
   xmlns:inkscape="http://www.inkscape.org/namespaces/inkscape"
   version="1.1"
   width="16"
   height="16"
   id="svg7384">
  <title
     id="title9167">MuseScore Icon Theme</title>
  <metadata
     id="metadata90">
    <rdf:RDF>
      <cc:Work
         rdf:about="">
        <dc:format>image/svg+xml</dc:format>
        <dc:type
           rdf:resource="http://purl.org/dc/dcmitype/StillImage" />
        <dc:title>MuseScore Icon Theme</dc:title>
      </cc:Work>
    </rdf:RDF>
  </metadata>
  <defs
     id="defs7386" />
  <g
     transform="translate(-33.999816,-131)"
     id="instruments" />
  <g
     transform="translate(-68.999816,-151)"
     id="actions"
     style="display:inline">
    <rect
       width="6"
       height="4"
       rx="0.53033006"
       ry="0.53033006"
       x="73.999809"
       y="151"
       id="rect13225"
       style="fill:#666666;fill-opacity:1;stroke:none" />
    <path
       d="m 71.53125,152 c -0.292435,0 -0.647518,0.036 -1,0.3125 C 70.178768,152.58897 70,153.08125 70,153.4375 l 0,12.03125 c 0,0.384 0.128379,0.81517 0.4375,1.125 0.284782,0.28544 0.709992,0.38602 1.09375,0.375 l 0,0.0312 0.09375,0 4.375,0 0,-2 -4,0 0,-11 1,0 0,-2 -1.46875,0 z M 81,152 l 0,2 1,0 0,5 2,0 0,-5.625 c 0,-0.33333 -0.119574,-0.72959 -0.40625,-1 C 83.307075,152.10459 82.924184,152 82.625,152 L 81,152 z"
       
       id="path13227"
       style="font-size:medium;font-style:normal;font-variant:normal;font-weight:normal;font-stretch:normal;text-indent:0;text-align:start;text-decoration:none;line-height:normal;letter-spacing:normal;word-spacing:normal;text-transform:none;direction:ltr;block-progression:tb;writing-mode:lr-tb;text-anchor:start;baseline-shift:baseline;color:#000000;fill:#666666;fill-opacity:1;stroke:none;stroke-width:2;marker:none;visibility:visible;display:inline;overflow:visible;enable-background:accumulate;font-family:Sans;-inkscape-font-specification:Sans" />
    <rect
       width="5.99998"
       height="2"
       x="78"
       y="163"
       id="rect3764"
       style="fill:#666666;fill-opacity:1;fill-rule:nonzero;stroke:none;display:inline" />
    <rect
       width="6"
       height="2"
       x="161"
       y="-81.999992"
       transform="matrix(0,1,-1,0,0,0)"
       id="rect3766"
       style="fill:#666666;fill-opacity:1;fill-rule:nonzero;stroke:none;display:inline" />
  </g>
</svg>
