<?xml version="1.0" encoding="UTF-8" standalone="no"?>
<!-- Created with Inkscape (http://www.inkscape.org/) -->

<svg
   xmlns:dc="http://purl.org/dc/elements/1.1/"
   xmlns:cc="http://creativecommons.org/ns#"
   xmlns:rdf="http://www.w3.org/1999/02/22-rdf-syntax-ns#"
   xmlns:svg="http://www.w3.org/2000/svg"
   xmlns="http://www.w3.org/2000/svg"
   xmlns:inkscape="http://www.inkscape.org/namespaces/inkscape"
   version="1.1"
   width="16"
   height="16"
   id="svg7384">
  <title
     id="title9167">MuseScore Icon Theme</title>
  <metadata
     id="metadata90">
    <rdf:RDF>
      <cc:Work
         rdf:about="">
        <dc:format>image/svg+xml</dc:format>
        <dc:type
           rdf:resource="http://purl.org/dc/dcmitype/StillImage" />
        <dc:title>MuseScore Icon Theme</dc:title>
      </cc:Work>
    </rdf:RDF>
  </metadata>
  <defs
     id="defs7386">
    <linearGradient
       id="linearGradient19282"
       gradientTransform="matrix(-2.7365795,0.40810354,-0.18908311,-1.4468561,239.54008,-1703.6896)">
      <stop
         id="stop19284"
         style="stop-color:#666666;stop-opacity:1"
         offset="0" />
    </linearGradient>
    <linearGradient
       id="linearGradient12335"
       gradientTransform="matrix(-2.7365795,0.40810354,-0.18908311,-1.4468561,239.54008,-1703.6896)">
      <stop
         id="stop12337"
         style="stop-color:#666666;stop-opacity:1"
         offset="0" />
    </linearGradient>
    <linearGradient
       id="linearGradient12339"
       gradientTransform="matrix(-2.7365795,0.40810354,-0.18908311,-1.4468561,239.54008,-1703.6896)">
      <stop
         id="stop12341"
         style="stop-color:#666666;stop-opacity:1"
         offset="0" />
    </linearGradient>
    <linearGradient
       id="linearGradient19282-9"
       gradientTransform="matrix(-2.7365795,0.40810354,-0.18908311,-1.4468561,263.493,-969.46532)">
      <stop
         id="stop19284-8"
         style="stop-color:#666666;stop-opacity:1"
         offset="0" />
    </linearGradient>
    <linearGradient
       id="linearGradient21935"
       gradientTransform="matrix(-2.7365795,0.40810354,-0.18908311,-1.4468561,239.54008,-1703.6896)">
      <stop
         id="stop21937"
         style="stop-color:#666666;stop-opacity:1"
         offset="0" />
    </linearGradient>
    <linearGradient
       id="linearGradient21939"
       gradientTransform="matrix(-2.7365795,0.40810354,-0.18908311,-1.4468561,239.54008,-1703.6896)">
      <stop
         id="stop21941"
         style="stop-color:#666666;stop-opacity:1"
         offset="0" />
    </linearGradient>
    <linearGradient
       id="linearGradient19282-9-9"
       gradientTransform="matrix(-2.7365795,0.40810354,-0.18908311,-1.4468561,263.493,-969.46532)">
      <stop
         id="stop19284-8-1"
         style="stop-color:#666666;stop-opacity:1"
         offset="0" />
    </linearGradient>
    <linearGradient
       id="linearGradient8782"
       gradientTransform="matrix(-2.7365795,0.40810354,-0.18908311,-1.4468561,263.493,-969.46532)">
      <stop
         id="stop8784"
         style="stop-color:#666666;stop-opacity:1"
         offset="0" />
    </linearGradient>
  </defs>
  <g
     transform="translate(-61.999819,-131)"
     id="instruments" />
  <g
     transform="translate(-96.999819,-151)"
     id="actions"
     style="display:inline">
    <rect
       width="6"
       height="4"
       rx="0.53033006"
       ry="0.53033006"
       x="101.99981"
       y="151"
       id="rect4899"
       style="fill:#666666;fill-opacity:1;stroke:none" />
    <path
       d="m 99.53125,152 c -0.292435,0 -0.647518,0.036 -1,0.3125 C 98.178768,152.58897 98,153.08125 98,153.4375 l 0,12.03125 c 0,0.384 0.128379,0.81517 0.4375,1.125 0.284782,0.28544 0.709992,0.38602 1.09375,0.375 l 0,0.0312 0.09375,0 4.34375,0 c -0.68921,-0.67853 -1.39176,-1.35298 -2.09375,-2 l -1.875,0 0,-11 1,0 0,-2 -1.46875,0 z m 9.46875,0 0,2 1,0 0,11 -1.90625,0 -2.0625,2 4.4375,0 c 0.36204,0 0.7606,-0.12788 1.0625,-0.40625 0.3019,-0.27832 0.46875,-0.7107 0.46875,-1.125 l 0,-12.09375 c 0,-0.33333 -0.11957,-0.72959 -0.40625,-1 C 111.30707,152.10459 110.92418,152 110.625,152 L 109,152 z"
       inkscape:connector-curvature="0"
       id="path41043"
       style="font-size:medium;font-style:normal;font-variant:normal;font-weight:normal;font-stretch:normal;text-indent:0;text-align:start;text-decoration:none;line-height:normal;letter-spacing:normal;word-spacing:normal;text-transform:none;direction:ltr;block-progression:tb;writing-mode:lr-tb;text-anchor:start;baseline-shift:baseline;color:#000000;fill:#666666;fill-opacity:1;stroke:none;stroke-width:2;marker:none;visibility:visible;display:inline;overflow:visible;enable-background:accumulate;font-family:Sans;-inkscape-font-specification:Sans" />
    <path
       d="m 102.21875,160.1875 a 0.92820872,0.92820872 0 0 0 -0.53125,1.59375 l 2.65625,2.59375 a 0.92820872,0.92820872 0 0 0 1.3125,0 l 2.65625,-2.59375 a 0.92820872,0.92820872 0 1 0 -1.28125,-1.3125 l -2.03125,1.9375 -2.03125,-1.9375 a 0.92820872,0.92820872 0 0 0 -0.75,-0.28125 z"
       inkscape:connector-curvature="0"
       id="path12111"
       style="font-size:medium;font-style:normal;font-variant:normal;font-weight:normal;font-stretch:normal;text-indent:0;text-align:start;text-decoration:none;line-height:normal;letter-spacing:normal;word-spacing:normal;text-transform:none;direction:ltr;block-progression:tb;writing-mode:lr-tb;text-anchor:start;baseline-shift:baseline;color:#000000;fill:#666666;fill-opacity:1;stroke:none;stroke-width:1.85623181;marker:none;visibility:visible;display:inline;overflow:visible;enable-background:new;font-family:Sans;-inkscape-font-specification:Sans" />
    <rect
       width="0.92834491"
       height="0.92834491"
       x="44.513813"
       y="-191.65565"
       transform="matrix(-0.71812392,0.69591525,-0.71812392,-0.69591525,0,0)"
       id="rect12923"
       style="color:#000000;fill:#666666;fill-opacity:1;stroke:none;stroke-width:2;marker:none;visibility:visible;display:inline;overflow:visible;enable-background:new" />
    <path
       d="m 104.90625,156.96875 a 0.92820872,0.92820872 0 0 0 -0.8125,0.9375 l -0.0312,5.8125 a 0.9375,0.9375 0 0 0 1.875,0 l 0,-5.8125 a 0.92820872,0.92820872 0 0 0 -1.03125,-0.9375 z"
       inkscape:connector-curvature="0"
       id="path12925"
       style="font-size:medium;font-style:normal;font-variant:normal;font-weight:normal;font-stretch:normal;text-indent:0;text-align:start;text-decoration:none;line-height:normal;letter-spacing:normal;word-spacing:normal;text-transform:none;direction:ltr;block-progression:tb;writing-mode:lr-tb;text-anchor:start;baseline-shift:baseline;color:#000000;fill:#666666;fill-opacity:1;stroke:none;stroke-width:1.85623181;marker:none;visibility:visible;display:inline;overflow:visible;enable-background:new;font-family:Sans;-inkscape-font-specification:Sans" />
    <rect
       width="0.92834491"
       height="0.92834491"
       x="44.513813"
       y="-187.01393"
       transform="matrix(-0.71812392,0.69591525,-0.71812392,-0.69591525,0,0)"
       id="rect4479-2-9-9-0-8"
       style="color:#000000;fill:#666666;fill-opacity:1;fill-rule:nonzero;stroke:none;stroke-width:2;marker:none;visibility:visible;display:inline;overflow:visible;enable-background:accumulate" />
    <rect
       width="0.92834491"
       height="0.92834491"
       x="39.872089"
       y="-191.65565"
       transform="matrix(-0.71812392,0.69591525,-0.71812392,-0.69591525,0,0)"
       id="rect4479-2-9-9-0-8-1"
       style="color:#000000;fill:#666666;fill-opacity:1;fill-rule:nonzero;stroke:none;stroke-width:2;marker:none;visibility:visible;display:inline;overflow:visible;enable-background:accumulate" />
  </g>
</svg>
