<?xml version="1.0" encoding="UTF-8" standalone="no"?>


<svg
 
 
 
 
 xmlns="http://www.w3.org/2000/svg"
 
 version="1.1"
 width="16"
 height="16"
 >
 <title
 >MuseScore Icon Theme</title>
 <metadata
 >
 <rdf:RDF>
 <cc:Work
 rdf:about="">
 <dc:format>image/svg+xml</dc:format>
 <dc:type
 rdf:resource="http://purl.org/dc/dcmitype/StillImage" />
 <dc:title>MuseScore Icon Theme</dc:title>
 </cc:Work>
 </rdf:RDF>
 </metadata>
 <defs
 />
 <g
 transform="translate(-173.99981,-102.99995)"
 />
 <g
 transform="translate(-208.99981,-122.99995)"
 
 style="">
 <path
 d="m 213,129 0,2 6.5,0 c 0.84027,0 1.5,0.65973 1.5,1.5 0,0.84027 -0.65973,1.5 -1.5,1.5 l -0.5,0 0,2 0.5,0 c 1.92115,0 3.5,-1.57885 3.5,-3.5 0,-1.92115 -1.57885,-3.5 -3.5,-3.5 l -6.5,0 z"
 
 
 style="fill:#666666;stroke-width:2" />
 <path
 d="m 215.99966,126.02205 0,1 c 0,0.25689 -0.12983,0.52846 -0.3125,0.71875 l -2.28125,2.28125 2.28125,2.28125 c 0.18267,0.19029 0.3125,0.46186 0.3125,0.71875 l 0,1 -1,0 c -0.30945,0 -0.55232,-0.0903 -0.75,-0.28125 l -3.65625,-3.71875 3.65625,-3.71875 c 0.19768,-0.19095 0.44055,-0.28125 0.75,-0.28125 z"
 
 
 style="fill:#666666;stroke-width:2;Vera Sans;Vera Sans" />
 </g>
</svg>
