<?xml version="1.0" encoding="UTF-8" standalone="no"?>
<!-- Created with Inkscape (http://www.inkscape.org/) -->

<svg
   xmlns:dc="http://purl.org/dc/elements/1.1/"
   xmlns:cc="http://creativecommons.org/ns#"
   xmlns:rdf="http://www.w3.org/1999/02/22-rdf-syntax-ns#"
   xmlns:svg="http://www.w3.org/2000/svg"
   xmlns="http://www.w3.org/2000/svg"
   xmlns:inkscape="http://www.inkscape.org/namespaces/inkscape"
   version="1.1"
   width="16.000622"
   height="16"
   id="svg7384">
  <title
     id="title9167">MuseScore Icon Theme</title>
  <metadata
     id="metadata90">
    <rdf:RDF>
      <cc:Work
         rdf:about="">
        <dc:format>image/svg+xml</dc:format>
        <dc:type
           rdf:resource="http://purl.org/dc/dcmitype/StillImage" />
        <dc:title>MuseScore Icon Theme</dc:title>
      </cc:Work>
    </rdf:RDF>
  </metadata>
  <defs
     id="defs7386" />
  <g
     transform="translate(-61.999998,-299.00001)"
     id="instruments" />
  <g
     transform="translate(-96.999998,-319.00001)"
     id="actions"
     style="display:inline">
    <path
       d="m 110.09375,319.00001 c -0.67774,0.68734 -1.36184,1.36746 -2.0625,2.03125 1.08315,0.87351 2.0987,1.85145 2.96875,2.9375 l 2,-1.96875 c 0,-0.0317 0.001,-0.062 0,-0.0937 0,-0.15017 -0.0396,-0.28893 -0.0625,-0.4375 -0.17645,-1.1446 -0.98803,-2.18357 -2.3125,-2.4063 -0.1789,-0.0451 -0.34943,-0.0625 -0.53125,-0.0625 z m -3.125,3.09375 -9.968753,9.90625 0,3 3,0 9.906253,-9.9375 c -0.8582,-1.10346 -1.83763,-2.10619 -2.9375,-2.96875 z"
       
       id="path18952"
       style="fill:#666666;fill-opacity:1;fill-rule:evenodd;stroke:none" />
  </g>
</svg>
