<?xml version="1.0" encoding="UTF-8" standalone="no"?>
<!-- Created with Inkscape (http://www.inkscape.org/) -->

<svg
   xmlns:dc="http://purl.org/dc/elements/1.1/"
   xmlns:cc="http://creativecommons.org/ns#"
   xmlns:rdf="http://www.w3.org/1999/02/22-rdf-syntax-ns#"
   xmlns:svg="http://www.w3.org/2000/svg"
   xmlns="http://www.w3.org/2000/svg"
   xmlns:inkscape="http://www.inkscape.org/namespaces/inkscape"
   version="1.1"
   width="16"
   height="16"
   id="svg7384">
  <title
     id="title9167">MuseScore Icon Theme</title>
  <metadata
     id="metadata90">
    <rdf:RDF>
      <cc:Work
         rdf:about="">
        <dc:format>image/svg+xml</dc:format>
        <dc:type
           rdf:resource="http://purl.org/dc/dcmitype/StillImage" />
        <dc:title>MuseScore Icon Theme</dc:title>
      </cc:Work>
    </rdf:RDF>
  </metadata>
  <defs
     id="defs7386" />
  <g
     transform="translate(-33.999814,-158.99999)"
     id="instruments" />
  <g
     transform="translate(-68.999814,-178.99999)"
     id="actions"
     style="display:inline">
    <path
       d="m 72.999996,182 0,2 1,0 4,0 c 0.42816,0 1,0.61414 1,1 l 0,1 -3,0 -2,0 c -0.91927,0 -1.7356,0.38396 -2.25,0.96875 -0.5144,0.58479 -0.75639,1.31063 -0.75,2.03125 0.006,0.72062 0.26893,1.45271 0.78125,2.03125 0.51232,0.57854 1.31047,0.96875 2.21875,0.96875 l 2,0 4,0 1,0 1,0 1,0 0,-1 0,-6 c 0,-1.63434 -1.3198,-3 -3,-3 l -2,0 -4,0 z m 4,6 2,0 0,2 -2,0 c -0.39787,0 -0.56691,-0.10979 -0.71875,-0.28125 -0.15184,-0.17146 -0.27877,-0.43937 -0.28125,-0.71875 -0.002,-0.27938 0.10467,-0.55354 0.25,-0.71875 0.14533,-0.16521 0.32764,-0.28125 0.75,-0.28125 z"
       inkscape:connector-curvature="0"
       id="path11643-3-1"
       style="font-size:medium;font-style:normal;font-variant:normal;font-weight:normal;font-stretch:normal;text-indent:0;text-align:start;text-decoration:none;line-height:normal;letter-spacing:normal;word-spacing:normal;text-transform:none;direction:ltr;block-progression:tb;writing-mode:lr-tb;text-anchor:start;baseline-shift:baseline;color:#000000;fill:#666666;fill-opacity:1;stroke:none;stroke-width:2;marker:none;visibility:visible;display:inline;overflow:visible;enable-background:accumulate;font-family:Sans;-inkscape-font-specification:Sans" />
  </g>
</svg>
