<?xml version="1.0" encoding="UTF-8" standalone="no"?>


<svg
 
 
 
 
 xmlns="http://www.w3.org/2000/svg"
 
 version="1.1"
 width="16"
 height="16"
 >
 <title
 >MuseScore Icon Theme</title>
 <metadata
 >
 <rdf:RDF>
 <cc:Work
 rdf:about="">
 <dc:format>image/svg+xml</dc:format>
 <dc:type
 rdf:resource="http://purl.org/dc/dcmitype/StillImage" />
 <dc:title>MuseScore Icon Theme</dc:title>
 </cc:Work>
 </rdf:RDF>
 </metadata>
 <defs
 />
 <g
 transform="translate(-565.99978,-158.99999)"
 />
 <g
 transform="translate(-600.99978,-178.99999)"
 
 style="">
 <rect
 width="5"
 height="2.0002136"
 x="-615"
 y="181.99977"
 transform="scale(-1,1)"
 
 style="fill:#666666;stroke-width:1" />
 <rect
 width="6"
 height="2.0002136"
 x="-615"
 y="185.99977"
 transform="scale(-1,1)"
 
 style="fill:#666666;stroke-width:1" />
 <rect
 width="6.9996033"
 height="2.0002136"
 x="-611.99957"
 y="189.99977"
 transform="scale(-1,1)"
 
 style="fill:#666666;stroke-width:1" />
 <path
 d="m 602.59373,181.99999 0,1 c 0,0.25689 0.12983,0.52846 0.3125,0.71875 l 1.28125,1.28125 -1.28125,1.28125 c -0.18267,0.19029 -0.3125,0.46186 -0.3125,0.71875 l 0,1 1,0 c 0.30945,0 0.55232,-0.0903 0.75,-0.28125 l 2.65625,-2.71875 -2.65625,-2.71875 c -0.19768,-0.19095 -0.44055,-0.28125 -0.75,-0.28125 l -1,0 z"
 
 
 style="fill:#666666;stroke-width:2;Vera Sans;Vera Sans" />
 </g>
</svg>
