<?xml version="1.0" encoding="UTF-8" standalone="no"?>
<!-- Created with Inkscape (http://www.inkscape.org/) -->

<svg
   xmlns:dc="http://purl.org/dc/elements/1.1/"
   xmlns:cc="http://creativecommons.org/ns#"
   xmlns:rdf="http://www.w3.org/1999/02/22-rdf-syntax-ns#"
   xmlns:svg="http://www.w3.org/2000/svg"
   xmlns="http://www.w3.org/2000/svg"
   xmlns:inkscape="http://www.inkscape.org/namespaces/inkscape"
   version="1.1"
   width="16.000124"
   height="16.000023"
   id="svg7384">
  <title
     id="title9167">MuseScore Icon Theme</title>
  <metadata
     id="metadata90">
    <rdf:RDF>
      <cc:Work
         rdf:about="">
        <dc:format>image/svg+xml</dc:format>
        <dc:type
           rdf:resource="http://purl.org/dc/dcmitype/StillImage" />
        <dc:title>MuseScore Icon Theme</dc:title>
      </cc:Work>
    </rdf:RDF>
  </metadata>
  <defs
     id="defs7386" />
  <g
     transform="translate(-313.99967,-158.99998)"
     id="instruments" />
  <g
     transform="translate(-348.99967,-178.99998)"
     id="actions"
     style="display:inline">
    <path
       d="m 359.99939,179 0,0.99988 2.3439,0 c 0.4809,0 0.6562,0.32853 0.6562,1.00037 l -1.3746,-4.8e-4 c -1.6567,-0.006 -2.125,-0.11602 -2.125,1.37472 0,1.49074 0.4074,1.62549 2.125,1.62549 1.7176,0 1.7183,0 1.7183,0 l 0.6562,0 0,-0.75 0,-2.1875 c 0,-1.17527 -0.855,-2.06251 -2.0625,-2.0625 z m 1.25,3 c 0.4691,0 1.75,0 1.75,0 l 0,1 c 0,0 -1.2652,0 -1.75,0 -0.4848,0 -0.7499,-0.0222 -0.7499,-0.50049 0,-0.47829 0.2808,-0.49951 0.7499,-0.49951 z"
       inkscape:connector-curvature="0"
       id="path4304"
       style="font-size:medium;font-style:normal;font-variant:normal;font-weight:normal;font-stretch:normal;text-indent:0;text-align:start;text-decoration:none;line-height:normal;letter-spacing:normal;word-spacing:normal;text-transform:none;direction:ltr;block-progression:tb;writing-mode:lr-tb;text-anchor:start;baseline-shift:baseline;color:#000000;fill:#666666;fill-opacity:1;stroke:none;stroke-width:1.5;marker:none;visibility:visible;display:inline;overflow:visible;enable-background:accumulate;font-family:Sans;-inkscape-font-specification:Sans" />
    <path
       d="m 350,182 0,2 6,0 c 0.4282,0 1,0.61413 1,1 l 0,1 -5,0 c -0.91926,0 -1.73561,0.38397 -2.25,0.96875 -0.51439,0.58478 -0.75639,1.31063 -0.75,2.03125 0.006,0.72062 0.26893,1.45271 0.78125,2.03125 C 350.29357,191.60979 351.09172,192 352,192 l 6,0 1,0 0,-1 0,-6 c 0,-1.63433 -1.3198,-3 -3,-3 l -6,0 z m 2,6 5,0 0,2 -5,0 c -0.39787,0 -0.56692,-0.10979 -0.71875,-0.28125 C 351.12942,189.54729 351.00248,189.27938 351,189 c -0.002,-0.27938 0.10467,-0.55353 0.25,-0.71875 C 351.39533,188.11603 351.57766,188 352,188 z"
       inkscape:connector-curvature="0"
       id="path11643-3-2-9-8"
       style="font-size:medium;font-style:normal;font-variant:normal;font-weight:normal;font-stretch:normal;text-indent:0;text-align:start;text-decoration:none;line-height:normal;letter-spacing:normal;word-spacing:normal;text-transform:none;direction:ltr;block-progression:tb;writing-mode:lr-tb;text-anchor:start;baseline-shift:baseline;color:#000000;fill:#666666;fill-opacity:1;stroke:none;stroke-width:2;marker:none;visibility:visible;display:inline;overflow:visible;enable-background:accumulate;font-family:Sans;-inkscape-font-specification:Sans" />
  </g>
</svg>
