<?xml version="1.0" encoding="UTF-8" standalone="no"?>


<svg
 
 
 
 
 xmlns="http://www.w3.org/2000/svg"
 
 version="1.1"
 width="16"
 height="15.999979"
 >
 <title
 >MuseScore Icon Theme</title>
 <metadata
 >
 <rdf:RDF>
 <cc:Work
 rdf:about="">
 <dc:format>image/svg+xml</dc:format>
 <dc:type
 rdf:resource="http://purl.org/dc/dcmitype/StillImage" />
 <dc:title>MuseScore Icon Theme</dc:title>
 </cc:Work>
 </rdf:RDF>
 </metadata>
 <defs
 />
 <g
 transform="translate(-5.9998138,-271)"
 />
 <g
 transform="translate(-40.999814,-291)"
 
 style="">
 <g
 transform="matrix(1,0,0,0.99999871,-116.38021,-468.90212)"
 >
 <title
 >go-home</title>
 <g
 transform="matrix(0.02603569,0,0,0.02603569,345.96663,902.07624)"
 
 style="fill:#bebebe">
 <g
 
 style="fill:#bebebe" />
 <g
 
 style="fill:#bebebe" />
 </g>
 <g
 transform="matrix(0,1,1,0,-360.61998,639.9031)"
 />
 </g>
 <path
 d="m 48.99981,294 c -0.17669,0 -0.40743,0.0571 -0.53125,0.125 L 41.62481,298 c -0.53652,0.21937 -0.78018,0.96309 -0.5,1.46875 0.28018,0.50564 1.02752,0.64744 1.5,0.3125 l 0.375,-0.21875 0,5.75 c -0.002,0.35662 0.32697,0.68952 0.6875,0.6875 l 2.625,0 c 0.36053,0.002 0.68954,-0.33088 0.6875,-0.6875 l 0,-4.3125 4,0 0,4.28125 c -0.002,0.34649 0.30624,0.70487 0.65625,0.71875 1.50295,0.0171 0.88853,0 2.65625,0 0.36053,0.002 0.68954,-0.33088 0.6875,-0.6875 l 0,-5.78125 0.4375,0.25 c 0.47021,0.26638 1.16997,0.0931 1.4375,-0.375 0.26753,-0.46819 0.064,-1.13985 -0.40625,-1.40625 l -6.84375,-3.875 C 49.43789,294.02131 49.1765,294 48.99981,294 z"
 
 
 style="fill:#666666;stroke-width:1.3671602" />
 </g>
</svg>
