<?xml version="1.0" encoding="UTF-8" standalone="no"?>


<svg
 
 
 
 
 xmlns="http://www.w3.org/2000/svg"
 
 version="1.1"
 width="16"
 height="16"
 >
 <title
 >MuseScore Icon Theme</title>
 <metadata
 >
 <rdf:RDF>
 <cc:Work
 rdf:about="">
 <dc:format>image/svg+xml</dc:format>
 <dc:type
 rdf:resource="http://purl.org/dc/dcmitype/StillImage" />
 <dc:title>MuseScore Icon Theme</dc:title>
 </cc:Work>
 </rdf:RDF>
 </metadata>
 <defs
 />
 <g
 transform="translate(-61.99981,-270.99999)"
 />
 <g
 transform="translate(-96.99981,-290.99999)"
 
 style="">
 <path
 d="m 105.00296,304.99999 1,0 c 0.0104,1.2e-4 0.0208,4.6e-4 0.0313,0 0.25495,-0.0112 0.50987,-0.12858 0.6875,-0.3125 l 5.28125,-5.21875 -5.28125,-5.1875 c -0.18821,-0.18819 -0.45351,-0.28125 -0.7188,-0.28125 l -1,0 0,1 c 0,0.26529 0.0931,0.53058 0.28125,0.71875 l 3.8125,3.75 -3.8125,3.78125 c -0.21074,0.19463 -0.30316,0.46925 -0.28125,0.75 l 0,1 z"
 
 
 style="fill:#666666;fill-rule:nonzero;stroke-width:1.78124988;enable-background:new;Mono;Mono" />
 <path
 d="m 269.05412,-13.455417 a 1.5247,1.5247 0 1 1 -3.0494,0 1.5247,1.5247 0 1 1 3.0494,0 z"
 
 transform="matrix(0,-1,1,0,116.99981,566.99999)"
 
 style="fill:#666666;fill-rule:evenodd;stroke-width:1;enable-background:new" />
 <path
 d="m 269.05412,-13.455417 a 1.5247,1.5247 0 1 1 -3.0494,0 1.5247,1.5247 0 1 1 3.0494,0 z"
 
 transform="matrix(0,-1,1,0,112.99981,566.99999)"
 
 style="fill:#666666;fill-rule:evenodd;stroke-width:1;enable-background:new" />
 </g>
</svg>
