<?xml version="1.0" encoding="UTF-8" standalone="no"?>
<!-- Created with Inkscape (http://www.inkscape.org/) -->

<svg
   xmlns:dc="http://purl.org/dc/elements/1.1/"
   xmlns:cc="http://creativecommons.org/ns#"
   xmlns:rdf="http://www.w3.org/1999/02/22-rdf-syntax-ns#"
   xmlns:svg="http://www.w3.org/2000/svg"
   xmlns="http://www.w3.org/2000/svg"
   xmlns:inkscape="http://www.inkscape.org/namespaces/inkscape"
   version="1.1"
   width="16"
   height="16"
   id="svg7384">
  <title
     id="title9167">MuseScore Icon Theme</title>
  <metadata
     id="metadata90">
    <rdf:RDF>
      <cc:Work
         rdf:about="">
        <dc:format>image/svg+xml</dc:format>
        <dc:type
           rdf:resource="http://purl.org/dc/dcmitype/StillImage" />
        <dc:title>MuseScore Icon Theme</dc:title>
      </cc:Work>
    </rdf:RDF>
  </metadata>
  <defs
     id="defs7386" />
  <g
     transform="translate(-33.99981,-270.99999)"
     id="instruments" />
  <g
     transform="translate(-68.99981,-290.99999)"
     id="actions"
     style="display:inline">
    <path
       d="m 76.99666,304.99999 -1,0 c -0.0104,1.2e-4 -0.0208,4.6e-4 -0.0313,0 -0.25495,-0.0112 -0.50987,-0.12858 -0.6875,-0.3125 l -5.28125,-5.21875 5.28125,-5.1875 c 0.18821,-0.18819 0.45351,-0.28125 0.7188,-0.28125 l 1,0 0,1 c 0,0.26529 -0.0931,0.53058 -0.28125,0.71875 l -3.8125,3.75 3.8125,3.78125 c 0.21074,0.19463 0.30316,0.46925 0.28125,0.75 l 0,1 z"
       
       id="path11142"
       style="font-size:medium;font-style:normal;font-variant:normal;font-weight:normal;font-stretch:normal;text-indent:0;text-align:start;text-decoration:none;line-height:normal;letter-spacing:normal;word-spacing:normal;text-transform:none;direction:ltr;block-progression:tb;writing-mode:lr-tb;text-anchor:start;color:#bebebe;fill:#666666;fill-opacity:1;fill-rule:nonzero;stroke:none;stroke-width:1.78124988;marker:none;visibility:visible;display:inline;overflow:visible;enable-background:new;font-family:Andale Mono;-inkscape-font-specification:Andale Mono" />
    <path
       d="m 269.05412,-13.455417 a 1.5247,1.5247 0 1 1 -3.0494,0 1.5247,1.5247 0 1 1 3.0494,0 z"
       
       transform="matrix(0,-1,-1,0,64.99981,566.99999)"
       id="path11168"
       style="color:#000000;fill:#666666;fill-opacity:1;fill-rule:evenodd;stroke:none;stroke-width:1;marker:none;visibility:visible;display:inline;overflow:visible;enable-background:new" />
    <path
       d="m 269.05412,-13.455417 a 1.5247,1.5247 0 1 1 -3.0494,0 1.5247,1.5247 0 1 1 3.0494,0 z"
       
       transform="matrix(0,-1,-1,0,68.99981,566.99999)"
       id="path11170"
       style="color:#000000;fill:#666666;fill-opacity:1;fill-rule:evenodd;stroke:none;stroke-width:1;marker:none;visibility:visible;display:inline;overflow:visible;enable-background:new" />
  </g>
</svg>
