<?xml version="1.0" encoding="UTF-8" standalone="no"?>
<!-- Created with Inkscape (http://www.inkscape.org/) -->

<svg
   xmlns:osb="http://www.openswatchbook.org/uri/2009/osb"
   xmlns:dc="http://purl.org/dc/elements/1.1/"
   xmlns:cc="http://creativecommons.org/ns#"
   xmlns:rdf="http://www.w3.org/1999/02/22-rdf-syntax-ns#"
   xmlns:svg="http://www.w3.org/2000/svg"
   xmlns="http://www.w3.org/2000/svg"
   xmlns:sodipodi="http://sodipodi.sourceforge.net/DTD/sodipodi-0.dtd"
   xmlns:inkscape="http://www.inkscape.org/namespaces/inkscape"
   version="1.1"
   width="16"
   height="16"
   id="svg7384"
   inkscape:version="0.48.4 r9939"
   sodipodi:docname="help-contents.svg">
  <metadata
     id="metadata90">
    <rdf:RDF>
      <cc:Work
         rdf:about="">
        <dc:format>image/svg+xml</dc:format>
        <dc:type
           rdf:resource="http://purl.org/dc/dcmitype/StillImage" />
        <dc:title>MuseScore Icon Theme</dc:title>
      </cc:Work>
    </rdf:RDF>
  </metadata>
  <sodipodi:namedview
     pagecolor="#222222"
     bordercolor="#666666"
     borderopacity="1"
     objecttolerance="10"
     gridtolerance="10"
     guidetolerance="10"
     inkscape:pageopacity="0"
     inkscape:pageshadow="2"
     inkscape:window-width="1920"
     inkscape:window-height="1021"
     id="namedview88"
     showgrid="false"
     inkscape:zoom="1"
     inkscape:cx="53.03392"
     inkscape:cy="123.19997"
     inkscape:window-x="0"
     inkscape:window-y="27"
     inkscape:window-maximized="1"
     inkscape:current-layer="actions"
     showborder="false"
     inkscape:snap-nodes="false"
     inkscape:snap-bbox="true"
     inkscape:bbox-paths="true"
     showguides="true"
     inkscape:guide-bbox="true"
     inkscape:snap-to-guides="true"
     inkscape:snap-grids="true"
     inkscape:snap-global="false"
     inkscape:object-nodes="false"
     inkscape:snap-bbox-midpoints="false"
     inkscape:object-paths="false"
     inkscape:snap-others="false"
     inkscape:bbox-nodes="false"
     fit-margin-top="6"
     fit-margin-left="6"
     fit-margin-right="6"
     fit-margin-bottom="6">
    <inkscape:grid
       type="xygrid"
       id="grid4866"
       empspacing="2"
       visible="true"
       enabled="true"
       snapvisiblegridlinesonly="true"
       spacingx="1px"
       spacingy="1px"
       originx="-173.99981px"
       originy="-62.00001px" />
  </sodipodi:namedview>
  <title
     id="title9167">MuseScore Icon Theme</title>
  <defs
     id="defs7386">
    <linearGradient
       id="linearGradient19282"
       osb:paint="solid"
       gradientTransform="matrix(-2.7365795,0.40810354,-0.18908311,-1.4468561,239.54008,-1703.6896)">
      <stop
         style="stop-color:#666666;stop-opacity:1;"
         offset="0"
         id="stop19284" />
    </linearGradient>
    <linearGradient
       id="linearGradient12335"
       osb:paint="solid"
       gradientTransform="matrix(-2.7365795,0.40810354,-0.18908311,-1.4468561,239.54008,-1703.6896)">
      <stop
         style="stop-color:#666666;stop-opacity:1;"
         offset="0"
         id="stop12337" />
    </linearGradient>
    <linearGradient
       id="linearGradient12339"
       osb:paint="solid"
       gradientTransform="matrix(-2.7365795,0.40810354,-0.18908311,-1.4468561,239.54008,-1703.6896)">
      <stop
         style="stop-color:#666666;stop-opacity:1;"
         offset="0"
         id="stop12341" />
    </linearGradient>
    <linearGradient
       id="linearGradient19282-9"
       osb:paint="solid"
       gradientTransform="matrix(-2.7365795,0.40810354,-0.18908311,-1.4468561,263.493,-969.46532)">
      <stop
         style="stop-color:#666666;stop-opacity:1;"
         offset="0"
         id="stop19284-8" />
    </linearGradient>
    <linearGradient
       id="linearGradient21935"
       osb:paint="solid"
       gradientTransform="matrix(-2.7365795,0.40810354,-0.18908311,-1.4468561,239.54008,-1703.6896)">
      <stop
         style="stop-color:#666666;stop-opacity:1;"
         offset="0"
         id="stop21937" />
    </linearGradient>
    <linearGradient
       id="linearGradient21939"
       osb:paint="solid"
       gradientTransform="matrix(-2.7365795,0.40810354,-0.18908311,-1.4468561,239.54008,-1703.6896)">
      <stop
         style="stop-color:#666666;stop-opacity:1;"
         offset="0"
         id="stop21941" />
    </linearGradient>
    <linearGradient
       id="linearGradient19282-9-9"
       osb:paint="solid"
       gradientTransform="matrix(-2.7365795,0.40810354,-0.18908311,-1.4468561,263.493,-969.46532)">
      <stop
         style="stop-color:#666666;stop-opacity:1;"
         offset="0"
         id="stop19284-8-1" />
    </linearGradient>
    <linearGradient
       id="linearGradient8782"
       osb:paint="solid"
       gradientTransform="matrix(-2.7365795,0.40810354,-0.18908311,-1.4468561,263.493,-969.46532)">
      <stop
         style="stop-color:#666666;stop-opacity:1;"
         offset="0"
         id="stop8784" />
    </linearGradient>
  </defs>
  <g
     inkscape:groupmode="layer"
     id="instruments"
     inkscape:label="instruments"
     transform="translate(-173.99981,-270.99999)" />
  <g
     inkscape:groupmode="layer"
     id="actions"
     inkscape:label="actions"
     transform="translate(-208.99981,-290.99999)"
     style="display:inline">
    <rect
       transform="matrix(0,-1,1,0,0,0)"
       style="color:#bebebe;fill:none;stroke:none;stroke-width:1;marker:none;visibility:visible;display:inline;overflow:visible;enable-background:new"
       id="rect26002"
       y="208.99982"
       x="-307"
       height="16"
       width="16" />
    <path
       inkscape:connector-curvature="0"
       id="path9470"
       d="m 216.99981,291.49999 c -4.13722,0 -7.5,3.36279 -7.5,7.5 0,4.13722 3.36278,7.5 7.5,7.5 4.13721,0 7.5,-3.36278 7.5,-7.5 0,-4.13721 -3.36279,-7.5 -7.5,-7.5 z m 0,2.01562 c 3.03646,0 5.48437,2.44793 5.48437,5.48438 0,3.03646 -2.44792,5.48437 -5.48437,5.48437 -3.03647,0 -5.48438,-2.44791 -5.48438,-5.48437 0,-3.03645 2.44791,-5.48438 5.48438,-5.48438 z"
       style="fill:#666666;stroke:none;display:inline" />
    <path
       d="m 216.00981,300.02374 c -0.0375,-0.24 -0.03,-0.46125 0.0225,-0.66375 0.0525,-0.2025 0.1275,-0.38625 0.225,-0.55125 0.10496,-0.1725 0.22124,-0.33 0.34875,-0.4725 0.13499,-0.14251 0.25874,-0.27751 0.37125,-0.405 0.1125,-0.1275 0.20625,-0.2475 0.28125,-0.36 0.0825,-0.12001 0.12374,-0.24 0.12375,-0.36 -1e-5,-0.2025 -0.0638,-0.345 -0.19125,-0.4275 -0.12,-0.09 -0.26625,-0.135 -0.43875,-0.135 -0.19501,0 -0.36001,0.045 -0.495,0.135 -0.13501,0.09 -0.2775,0.2025 -0.4275,0.3375 l -1.0575,-0.9675 c 0.2625,-0.315 0.57375,-0.57 0.93375,-0.765 0.35999,-0.195 0.75374,-0.2925 1.18125,-0.2925 0.32249,0 0.62624,0.0375 0.91125,0.1125 0.285,0.075 0.5325,0.19125 0.7425,0.34875 0.2175,0.1575 0.38625,0.36375 0.50625,0.61875 0.11999,0.2475 0.17999,0.5475 0.18,0.9 -10e-6,0.225 -0.0413,0.4275 -0.12375,0.6075 -0.0825,0.17249 -0.18376,0.33375 -0.30375,0.48375 -0.11251,0.14999 -0.24001,0.2925 -0.3825,0.4275 -0.13501,0.135 -0.25876,0.27374 -0.37125,0.41625 -0.11251,0.1425 -0.20626,0.29624 -0.28125,0.46125 -0.0675,0.165 -0.09,0.34875 -0.0675,0.55125 l -1.6875,0 m -0.2925,1.71 c -1e-5,-0.33001 0.10496,-0.6075 0.315,-0.8325 0.20999,-0.225 0.47999,-0.3375 0.81,-0.3375 0.33,0 0.6,0.1125 0.81,0.3375 0.20999,0.225 0.31499,0.50249 0.315,0.8325 -1e-5,0.32999 -0.10496,0.6075 -0.315,0.8325 -0.21,0.225 -0.48,0.3375 -0.81,0.3375 -0.33001,0 -0.60001,-0.1125 -0.81,-0.3375 -0.21,-0.225 -0.31501,-0.50251 -0.315,-0.8325"
       style="font-size:10px;font-style:normal;font-variant:normal;font-weight:900;font-stretch:normal;text-align:start;line-height:125%;letter-spacing:0px;word-spacing:0px;writing-mode:lr-tb;text-anchor:start;fill:#666666;stroke:none;display:inline;font-family:Source Sans Pro;-inkscape-font-specification:Source Sans Pro Heavy"
       id="path9484"
       inkscape:connector-curvature="0" />
  </g>
</svg>
