<?xml version="1.0" encoding="UTF-8" standalone="no"?>
<!-- Created with Inkscape (http://www.inkscape.org/) -->

<svg
   xmlns:dc="http://purl.org/dc/elements/1.1/"
   xmlns:cc="http://creativecommons.org/ns#"
   xmlns:rdf="http://www.w3.org/1999/02/22-rdf-syntax-ns#"
   xmlns:svg="http://www.w3.org/2000/svg"
   xmlns="http://www.w3.org/2000/svg"
   xmlns:inkscape="http://www.inkscape.org/namespaces/inkscape"
   version="1.1"
   width="16"
   height="16"
   id="svg7384">
  <title
     id="title9167">MuseScore Icon Theme</title>
  <metadata
     id="metadata90">
    <rdf:RDF>
      <cc:Work
         rdf:about="">
        <dc:format>image/svg+xml</dc:format>
        <dc:type
           rdf:resource="http://purl.org/dc/dcmitype/StillImage" />
        <dc:title>MuseScore Icon Theme</dc:title>
      </cc:Work>
    </rdf:RDF>
  </metadata>
  <defs
     id="defs7386" />
  <g
     transform="translate(-5.9998138,-158.99999)"
     id="instruments" />
  <g
     transform="translate(-40.999814,-178.99999)"
     id="actions"
     style="display:inline">
    <path
       d="m 53.09375,181.46875 -0.25,0.4375 c -0.09796,0.15237 -0.168118,0.26169 -0.25,0.46875 -0.08188,0.20706 -0.174877,0.48255 -0.28125,0.78125 -0.118944,0.334 -0.240715,0.75717 -0.375,1.15625 -0.335518,-0.52492 -0.638457,-1.0785 -1.09375,-1.46875 -0.711777,-0.61009 -1.599787,-1 -2.625,-1 -2.871279,0 -5.09375,2.46873 -5.09375,5.375 0,2.76282 2.318743,4.9375 5.09375,4.9375 1.613093,0 2.788837,-1.00729 3.6875,-2.25 0.290917,0.80826 0.57067,1.64459 0.9375,2.1875 l 0.28125,0.4375 1.960938,-1.3164 -0.273438,-0.40235 c -0.642248,-0.9559 -1.05922,-2.30177 -1.46875,-3.59375 0.237693,-0.72818 0.509749,-1.58433 0.78125,-2.34375 0.289967,-0.81107 0.604275,-1.56464 0.6875,-1.6875 l 0.28125,-0.40625 -0.4375,-0.28125 -1.125,-0.75 z m -4.875,2.65625 c 0.703978,0 1.223274,0.34171 1.6875,0.9375 0.43132,0.55356 0.728489,1.35632 1,2.15625 -0.260528,0.70125 -0.565978,1.37555 -1,1.84375 -0.471698,0.50884 -1.015922,0.8125 -1.6875,0.8125 -1.485626,0 -2.71875,-1.18357 -2.71875,-2.65625 0,-1.68206 1.185222,-3.09375 2.71875,-3.09375 z"
       
       id="text11012"
       style="font-size:40px;font-style:normal;font-variant:normal;font-weight:normal;font-stretch:normal;text-indent:0;text-align:start;text-decoration:none;line-height:125%;letter-spacing:0px;word-spacing:0px;text-transform:none;direction:ltr;block-progression:tb;writing-mode:lr-tb;text-anchor:start;baseline-shift:baseline;color:#000000;fill:#666666;fill-opacity:1;fill-rule:nonzero;stroke:none;stroke-width:1;marker:none;visibility:visible;display:inline;overflow:visible;enable-background:accumulate;font-family:Sans;-inkscape-font-specification:Sans" />
  </g>
</svg>
