<?xml version="1.0" encoding="UTF-8" standalone="no"?>


<svg
 
 
 
 
 xmlns="http://www.w3.org/2000/svg"
 
 version="1.1"
 width="16.000185"
 height="16.000017"
 >
 <title
 >MuseScore Icon Theme</title>
 <metadata
 >
 <rdf:RDF>
 <cc:Work
 rdf:about="">
 <dc:format>image/svg+xml</dc:format>
 <dc:type
 rdf:resource="http://purl.org/dc/dcmitype/StillImage" />
 <dc:title>MuseScore Icon Theme</dc:title>
 </cc:Work>
 </rdf:RDF>
 </metadata>
 <defs
 />
 <g
 transform="translate(-5.9998157,-331.31368)"
 >
 <path
 d="m 6,331.3137 0,16 16,0 0,-16 -16,0 z m 1,1 3,0 0,9 1,0 0,5 -4,0 0,-14 z m 6,0 2,0 0,9 1,0 0,5 -4,0 0,-5 1,0 0,-9 z m 5,0 3,0 0,14 -4,0 0,-5 1,0 0,-9 z"
 
 
 style="fill:#666666;fill-rule:nonzero;stroke-width:1" />
 </g>
 <g
 transform="translate(-40.999816,-351.31368)"
 
 style="" />
</svg>
