<?xml version="1.0" encoding="UTF-8" standalone="no"?>


<svg
 
 
 
 
 xmlns="http://www.w3.org/2000/svg"
 
 version="1.1"
 width="16"
 height="16"
 >
 <title
 >MuseScore Icon Theme</title>
 <metadata
 >
 <rdf:RDF>
 <cc:Work
 rdf:about="">
 <dc:format>image/svg+xml</dc:format>
 <dc:type
 rdf:resource="http://purl.org/dc/dcmitype/StillImage" />
 <dc:title>MuseScore Icon Theme</dc:title>
 </cc:Work>
 </rdf:RDF>
 </metadata>
 <defs
 />
 <g
 transform="translate(-61.999821,-331.31373)"
 >
 <path
 d="m 70.517709,332.57891 c -3.343529,0 -6.021329,2.94051 -6.021329,6.4945 0,3.554 2.6778,6.49451 6.021329,6.49451 3.34353,0 6.02133,-2.94051 6.02133,-6.49451 0,-3.55399 -2.6778,-6.4945 -6.02133,-6.4945 z m 0,1.00468 c 2.746522,0 5.005684,2.42506 5.005684,5.48982 0,3.06477 -2.259162,5.48983 -5.005684,5.48983 -2.746521,0 -5.005683,-2.42506 -5.005683,-5.48983 0,-3.06476 2.259162,-5.48982 5.005683,-5.48982 z"
 
 
 style="fill:#666666;stroke-width:1.73242414" />
 <path
 d="m 70.32966,334.09414 c -3.517393,0 -6.33587,2.99042 -6.33587,6.60687 0,3.61646 2.818477,6.60688 6.33587,6.60688 3.517393,0 6.33587,-2.99042 6.33587,-6.60688 0,-3.61645 -2.818477,-6.60687 -6.33587,-6.60687 z m 0,0.98829 c 2.910148,0 5.302224,2.48311 5.302224,5.61858 0,3.13548 -2.392076,5.61859 -5.302224,5.61859 -2.910148,0 -5.302223,-2.48311 -5.302223,-5.61859 0,-3.13547 2.392075,-5.61858 5.302223,-5.61858 z"
 
 
 style="fill:#666666;stroke-width:1.66961586" />
 <path
 d="m 69.855279,331.35544 c -3.968833,0 -7.15381,2.8709 -7.15381,6.34229 0,3.47139 3.184977,6.34228 7.15381,6.34228 3.968833,0 7.15381,-2.87089 7.15381,-6.34228 0,-3.47139 -3.184977,-6.34229 -7.15381,-6.34229 z m 0,0.91611 c 3.310474,0 6.026543,2.39803 6.026543,5.42618 0,3.02815 -2.716069,5.42617 -6.026543,5.42617 -3.310475,0 -6.026543,-2.39802 -6.026543,-5.42617 0,-3.02815 2.716068,-5.42618 6.026543,-5.42618 z"
 
 
 style="fill:#666666;stroke-width:1.59833443" />
 <path
 d="m 69.62176,332.35811 c -4.185329,0 -7.542552,2.90258 -7.542552,6.41692 0,3.51434 3.357223,6.41693 7.542552,6.41693 4.185329,0 7.542552,-2.90259 7.542552,-6.41693 0,-3.51434 -3.357223,-6.41692 -7.542552,-6.41692 z m 0,0.89372 c 3.512869,0 6.396268,2.4432 6.396268,5.5232 0,3.08 -2.883399,5.5232 -6.396268,5.5232 -3.512869,0 -6.396267,-2.4432 -6.396267,-5.5232 0,-3.08 2.883398,-5.5232 6.396267,-5.5232 z"
 
 
 style="fill:#666666;stroke-width:1.54373443" />
 <path
 d="m 76.46875,336.53125 -1,0.125 1.375,9.6875 1,-0.125 -1.375,-9.6875 z"
 
 
 style="fill:#666666;stroke-width:1" />
 <path
 d="m 76.65625,332.03125 -5.5,0.5 0.09375,0.96875 5.5,-0.5 -0.09375,-0.96875 z"
 
 
 style="fill:#666666;stroke-width:1" />
 </g>
 <g
 transform="translate(-96.999821,-351.31373)"
 
 style="" />
</svg>
