<?xml version="1.0" encoding="UTF-8" standalone="no"?>


<svg
 
 
 
 
 xmlns="http://www.w3.org/2000/svg"
 
 version="1.1"
 width="16"
 height="16"
 >
 <title
 >MuseScore Icon Theme</title>
 <metadata
 >
 <rdf:RDF>
 <cc:Work
 rdf:about="">
 <dc:format>image/svg+xml</dc:format>
 <dc:type
 rdf:resource="http://purl.org/dc/dcmitype/StillImage" />
 <dc:title>MuseScore Icon Theme</dc:title>
 </cc:Work>
 </rdf:RDF>
 </metadata>
 <defs
 />
 <g
 transform="translate(-228,-331.31375)"
 >
 <path
 d="m 240.32654,331.39478 c 2.30791,0.3787 3.8219,2.53681 3.46072,4.73795 -0.36119,2.20114 -2.48545,3.76225 -4.79337,3.38355 -2.30791,-0.37871 -3.8219,-2.53681 -3.46072,-4.73795 0.36118,-2.20114 2.48545,-3.76225 4.79337,-3.38355 z m -0.18312,1.11593 c -1.56115,-0.25617 -3.08804,0.80456 -3.36173,2.47248 -0.27369,1.66793 0.83416,3.16099 2.39531,3.41716 1.56116,0.25616 3.08805,-0.80457 3.36174,-2.47249 0.27369,-1.66793 -0.83416,-3.16098 -2.39532,-3.41715 z"
 
 
 style="fill:#666666;stroke-width:1.11282957" />
 <path
 d="m 234.625,337.81375 c 0.64156,1.24405 1.76298,2.25749 3.21875,2.75 l -6.78125,5.625 -1.75,-1.75 5.3125,-6.625 z"
 
 
 style="fill:#666666" />
 <path
 d="m 230.34375,344.40625 -2,2 0.78125,0.75 1.96875,-2 -0.75,-0.75 z"
 
 
 style="fill:#666666;stroke-width:1.07307911" />
 </g>
 <g
 transform="translate(-263,-351.31375)"
 
 style="" />
</svg>
