<?xml version="1.0" encoding="UTF-8" standalone="no"?>


<svg
 
 
 
 
 xmlns="http://www.w3.org/2000/svg"
 
 version="1.1"
 width="16"
 height="16"
 >
 <title
 >MuseScore Icon Theme</title>
 <metadata
 >
 <rdf:RDF>
 <cc:Work
 rdf:about="">
 <dc:format>image/svg+xml</dc:format>
 <dc:type
 rdf:resource="http://purl.org/dc/dcmitype/StillImage" />
 <dc:title>MuseScore Icon Theme</dc:title>
 </cc:Work>
 </rdf:RDF>
 </metadata>
 <defs
 />
 <g
 transform="translate(-145.99982,-331.31368)"
 >
 <rect
 width="4"
 height="8"
 x="151.99982"
 y="339.31369"
 
 style="fill:#666666" />
 <path
 d="m 153.99982,331.3137 c -1.49536,0 -2,1 -2,1 l 0,7 4,0 0,-7 c 0,0 -0.50464,-1 -2,-1 z m 0,1 c 0.52477,0 0.77594,0.1524 0.9375,0.2813 0.0646,0.052 0.0375,0.036 0.0625,0.062 l 0,7.6562 -2,0 0,-7.6562 c 0.0249,-0.026 -0.002,-0.01 0.0625,-0.062 0.16128,-0.1288 0.41273,-0.2813 0.9375,-0.2813 z"
 
 
 style="fill:#666666" />
 <path
 d="m 151.99982,334.3762 0,4.9375 4,0 0,-4.9375 c -0.0645,1.3902 -0.28953,3.1055 -1,3.9375 -0.26278,0.3077 -0.59049,0.5 -1,0.5 -0.40951,0 -0.73726,-0.1923 -1,-0.5 -0.71037,-0.832 -0.93565,-2.5474 -1,-3.9375 z"
 
 
 style="fill:#666666" />
 </g>
 <g
 transform="translate(-180.99982,-351.31368)"
 
 style="" />
</svg>
