<?xml version="1.0" encoding="UTF-8" standalone="no"?>
<!-- Created with Inkscape (http://www.inkscape.org/) -->

<svg
   xmlns:dc="http://purl.org/dc/elements/1.1/"
   xmlns:cc="http://creativecommons.org/ns#"
   xmlns:rdf="http://www.w3.org/1999/02/22-rdf-syntax-ns#"
   xmlns:svg="http://www.w3.org/2000/svg"
   xmlns="http://www.w3.org/2000/svg"
   xmlns:inkscape="http://www.inkscape.org/namespaces/inkscape"
   version="1.1"
   width="16.000008"
   height="16"
   id="svg7384">
  <title
     id="title9167">MuseScore Icon Theme</title>
  <metadata
     id="metadata90">
    <rdf:RDF>
      <cc:Work
         rdf:about="">
        <dc:format>image/svg+xml</dc:format>
        <dc:type
           rdf:resource="http://purl.org/dc/dcmitype/StillImage" />
        <dc:title>MuseScore Icon Theme</dc:title>
      </cc:Work>
    </rdf:RDF>
  </metadata>
  <defs
     id="defs7386" />
  <g
     transform="translate(-172,-331.3137)"
     id="instruments">
    <path
       d="m 188,336.8137 c 0,0 -8.09069,0.50005 -12.03125,0.50005 l -3.96875,0 0,4 4.03125,0 c 4.06529,0 11.96875,-0.50005 11.96875,-0.50005 z m -14,1.50005 c 0.55228,0 1,0.44772 1,1 0,0.55228 -0.44772,1 -1,1 -0.55228,0 -1,-0.44772 -1,-1 0,-0.55228 0.44772,-1 1,-1 z"
       
       id="rect4755"
       style="fill:#666666;fill-opacity:1;stroke:none;display:inline" />
    <rect
       width="4"
       height="1"
       x="172.00018"
       y="336.31375"
       id="rect4864"
       style="fill:#666666;fill-opacity:1;stroke:none" />
    <rect
       width="4"
       height="1"
       x="172.00018"
       y="341.31375"
       id="rect4866"
       style="fill:#666666;fill-opacity:1;stroke:none" />
  </g>
  <g
     transform="translate(-207,-351.3137)"
     id="actions"
     style="display:inline" />
</svg>
