<?xml version="1.0" encoding="UTF-8" standalone="no"?>


<svg
 
 
 
 
 xmlns="http://www.w3.org/2000/svg"
 
 version="1.1"
 width="16.000008"
 height="16"
 >
 <title
 >MuseScore Icon Theme</title>
 <metadata
 >
 <rdf:RDF>
 <cc:Work
 rdf:about="">
 <dc:format>image/svg+xml</dc:format>
 <dc:type
 rdf:resource="http://purl.org/dc/dcmitype/StillImage" />
 <dc:title>MuseScore Icon Theme</dc:title>
 </cc:Work>
 </rdf:RDF>
 </metadata>
 <defs
 />
 <g
 transform="translate(-172,-331.3137)"
 >
 <path
 d="m 188,336.8137 c 0,0 -8.09069,0.50005 -12.03125,0.50005 l -3.96875,0 0,4 4.03125,0 c 4.06529,0 11.96875,-0.50005 11.96875,-0.50005 z m -14,1.50005 c 0.55228,0 1,0.44772 1,1 0,0.55228 -0.44772,1 -1,1 -0.55228,0 -1,-0.44772 -1,-1 0,-0.55228 0.44772,-1 1,-1 z"
 
 
 style="fill:#666666" />
 <rect
 width="4"
 height="1"
 x="172.00018"
 y="336.31375"
 
 style="fill:#666666" />
 <rect
 width="4"
 height="1"
 x="172.00018"
 y="341.31375"
 
 style="fill:#666666" />
 </g>
 <g
 transform="translate(-207,-351.3137)"
 
 style="" />
</svg>
