<?xml version="1.0" encoding="UTF-8" standalone="no"?>


<svg
 
 
 
 
 xmlns="http://www.w3.org/2000/svg"
 
 version="1.1"
 width="16"
 height="16"
 >
 <title
 >MuseScore Icon Theme</title>
 <metadata
 >
 <rdf:RDF>
 <cc:Work
 rdf:about="">
 <dc:format>image/svg+xml</dc:format>
 <dc:type
 rdf:resource="http://purl.org/dc/dcmitype/StillImage" />
 <dc:title>MuseScore Icon Theme</dc:title>
 </cc:Work>
 </rdf:RDF>
 </metadata>
 <defs
 />
 <g
 transform="translate(-397.99978,-159)"
 />
 <g
 transform="translate(-432.99978,-179)"
 
 style="">
 <rect
 width="4"
 height="2.0002136"
 x="-445.99979"
 y="188.99973"
 transform="scale(-1,1)"
 
 style="fill:#666666;stroke-width:1" />
 <rect
 width="6"
 height="2.0002136"
 x="-447.99979"
 y="182.99979"
 transform="scale(-1,1)"
 
 style="fill:#666666;stroke-width:1" />
 <path
 d="m 406.76317,163.959 a 1.5468,1.2816342 0 1 1 -3.0936,0 1.5468,1.2816342 0 1 1 3.0936,0 z"
 
 transform="matrix(0.96974644,0,0,1.1703837,44.54287,-7.89504)"
 
 style="fill:#666666" />
 <path
 d="m 406.76317,163.959 a 1.5468,1.2816342 0 1 1 -3.0936,0 1.5468,1.2816342 0 1 1 3.0936,0 z"
 
 transform="matrix(0.96974644,0,0,1.1703837,44.54287,-1.89495)"
 
 style="fill:#666666" />
 </g>
</svg>
