<?xml version="1.0" encoding="UTF-8" standalone="no"?>
<!-- Created with Inkscape (http://www.inkscape.org/) -->

<svg
   xmlns:dc="http://purl.org/dc/elements/1.1/"
   xmlns:cc="http://creativecommons.org/ns#"
   xmlns:rdf="http://www.w3.org/1999/02/22-rdf-syntax-ns#"
   xmlns:svg="http://www.w3.org/2000/svg"
   xmlns="http://www.w3.org/2000/svg"
   xmlns:inkscape="http://www.inkscape.org/namespaces/inkscape"
   version="1.1"
   width="16"
   height="16"
   id="svg7384">
  <title
     id="title9167">MuseScore Icon Theme</title>
  <metadata
     id="metadata90">
    <rdf:RDF>
      <cc:Work
         rdf:about="">
        <dc:format>image/svg+xml</dc:format>
        <dc:type
           rdf:resource="http://purl.org/dc/dcmitype/StillImage" />
        <dc:title>MuseScore Icon Theme</dc:title>
      </cc:Work>
    </rdf:RDF>
  </metadata>
  <defs
     id="defs7386" />
  <g
     transform="translate(-397.99978,-159)"
     id="instruments" />
  <g
     transform="translate(-432.99978,-179)"
     id="actions"
     style="display:inline">
    <rect
       width="4"
       height="2.0002136"
       x="-445.99979"
       y="188.99973"
       transform="scale(-1,1)"
       id="rect5747"
       style="color:#bebebe;fill:#666666;fill-opacity:1;stroke:none;stroke-width:1;marker:none;visibility:visible;display:inline;overflow:visible" />
    <rect
       width="6"
       height="2.0002136"
       x="-447.99979"
       y="182.99979"
       transform="scale(-1,1)"
       id="rect5749"
       style="color:#bebebe;fill:#666666;fill-opacity:1;stroke:none;stroke-width:1;marker:none;visibility:visible;display:inline;overflow:visible" />
    <path
       d="m 406.76317,163.959 a 1.5468,1.2816342 0 1 1 -3.0936,0 1.5468,1.2816342 0 1 1 3.0936,0 z"
       inkscape:connector-curvature="0"
       transform="matrix(0.96974644,0,0,1.1703837,44.54287,-7.89504)"
       id="path4807"
       style="fill:#666666;fill-opacity:1;stroke:none" />
    <path
       d="m 406.76317,163.959 a 1.5468,1.2816342 0 1 1 -3.0936,0 1.5468,1.2816342 0 1 1 3.0936,0 z"
       inkscape:connector-curvature="0"
       transform="matrix(0.96974644,0,0,1.1703837,44.54287,-1.89495)"
       id="path4809"
       style="fill:#666666;fill-opacity:1;stroke:none" />
  </g>
</svg>
