<?xml version="1.0" encoding="UTF-8" standalone="no"?>


<svg
 
 
 
 
 xmlns="http://www.w3.org/2000/svg"
 
 version="1.1"
 width="16"
 height="16"
 >
 <title
 >MuseScore Icon Theme</title>
 <metadata
 >
 <rdf:RDF>
 <cc:Work
 rdf:about="">
 <dc:format>image/svg+xml</dc:format>
 <dc:type
 rdf:resource="http://purl.org/dc/dcmitype/StillImage" />
 <dc:title>MuseScore Icon Theme</dc:title>
 </cc:Work>
 </rdf:RDF>
 </metadata>
 <defs
 />
 <g
 transform="translate(-5.9998138,-187)"
 />
 <g
 transform="translate(-40.999814,-207)"
 
 style="">
 <path
 d="m 55.999612,211 c -0.177384,0.008 -0.351174,0.0592 -0.5,0.15625 l -5,3 c -0.282396,0.17971 -0.4375,0.51173 -0.4375,0.84375 0,0.33202 0.155104,0.66404 0.4375,0.84375 l 5,3 c 0.148826,0.097 0.322616,0.14825 0.5,0.15625 l 0.15625,0 0.84375,0 0,-8 -0.84375,0 z"
 
 
 style="fill:#666666;fill-rule:nonzero;stroke-width:2;Vera Sans;Vera Sans" />
 <path
 d="m 42.999862,211 0,8 -2,0 0,-8 z"
 
 
 style="fill:#666666;stroke-width:2" />
 <path
 d="m 48.999612,211 c -0.177384,0.008 -0.351174,0.0592 -0.5,0.15625 l -5,3 c -0.282396,0.17971 -0.4375,0.51173 -0.4375,0.84375 0,0.33202 0.155104,0.66404 0.4375,0.84375 l 5,3 c 0.148826,0.097 0.322616,0.14825 0.5,0.15625 l 0.15625,0 0.84375,0 0,-8 -0.84375,0 z"
 
 
 style="fill:#666666;fill-rule:nonzero;stroke-width:2;Vera Sans;Vera Sans" />
 </g>
</svg>
