<?xml version="1.0" encoding="UTF-8" standalone="no"?>


<svg
 
 
 
 
 xmlns="http://www.w3.org/2000/svg"
 
 version="1.1"
 width="16"
 height="16"
 >
 <title
 >MuseScore Icon Theme</title>
 <metadata
 >
 <rdf:RDF>
 <cc:Work
 rdf:about="">
 <dc:format>image/svg+xml</dc:format>
 <dc:type
 rdf:resource="http://purl.org/dc/dcmitype/StillImage" />
 <dc:title>MuseScore Icon Theme</dc:title>
 </cc:Work>
 </rdf:RDF>
 </metadata>
 <defs
 />
 <g
 transform="translate(-89.999814,-186.99999)"
 />
 <g
 transform="translate(-124.99981,-206.99999)"
 
 style="">
 <path
 d="m 132.99981,207.99999 0,14 2,0 0,-14 -2,0 z"
 
 
 style="fill:#666666;stroke-width:2;Mono" />
 <path
 d="m 130.99981,207.99999 0,14 1,0 0,-14 -1,0 z"
 
 
 style="fill:#666666;stroke-width:2;Mono" />
 <path
 d="m -42.75,-13.625 a 1.875,1.875 0 1 1 -3.75,0 1.875,1.875 0 1 1 3.75,0 z"
 
 transform="matrix(0.53333333,0,0,0.53333333,150.8,224.26665)"
 
 style="fill:#666666" />
 <path
 d="m -42.75,-13.625 a 1.875,1.875 0 1 1 -3.75,0 1.875,1.875 0 1 1 3.75,0 z"
 
 transform="matrix(0.53333333,0,0,0.53333333,150.8,220.26666)"
 
 style="fill:#666666" />
 </g>
</svg>
