<?xml version="1.0" encoding="UTF-8" standalone="no"?>


<svg
 
 
 
 
 xmlns="http://www.w3.org/2000/svg"
 
 version="1.1"
 width="16"
 height="16.000004"
 >
 <title
 >MuseScore Icon Theme</title>
 <metadata
 >
 <rdf:RDF>
 <cc:Work
 rdf:about="">
 <dc:format>image/svg+xml</dc:format>
 <dc:type
 rdf:resource="http://purl.org/dc/dcmitype/StillImage" />
 <dc:title>MuseScore Icon Theme</dc:title>
 </cc:Work>
 </rdf:RDF>
 </metadata>
 <defs
 />
 <g
 transform="translate(-209,-179)"
 
 style="">
 <path
 d="m 214.34375,178.99999 -2.875,16 10.625,0 -1.03125,-5.46875 -1.28125,2.21875 0.21875,1.25 -6.40625,0 2.17752,-12 2.05186,0 0.20812,1.28125 c 0.41232,-0.47912 0.94173,-0.84347 1.5625,-1.0625 l -0.375,-2.21875 z"
 
 
 style="fill:#666666;stroke-width:2" />
 <path
 d="m 221.40625,182.34374 -5,8.65625 1.5,0 4.625,-8 -1.125,-0.65625 z"
 
 
 style="fill:#666666" />
 <path
 d="m 241.07921,216.08603 a 2.0550292,2.0550292 0 1 1 -4.11005,0 2.0550292,2.0550292 0 1 1 4.11005,0 z"
 
 transform="matrix(0.2159042,0.80576608,-0.80576544,0.21590437,343.33145,-54.579685)"
 
 style="fill:#666666" />
 </g>
</svg>
