<?xml version="1.0" encoding="UTF-8" standalone="no"?>


<svg
 
 
 
 
 xmlns="http://www.w3.org/2000/svg"
 
 version="1.1"
 width="16"
 height="16"
 >
 <title
 >MuseScore Icon Theme</title>
 <metadata
 >
 <rdf:RDF>
 <cc:Work
 rdf:about="">
 <dc:format>image/svg+xml</dc:format>
 <dc:type
 rdf:resource="http://purl.org/dc/dcmitype/StillImage" />
 <dc:title>MuseScore Icon Theme</dc:title>
 </cc:Work>
 </rdf:RDF>
 </metadata>
 <defs
 />
 <g
 transform="translate(-117.99981,-186.99999)"
 />
 <g
 transform="translate(-152.99981,-206.99999)"
 
 style="">
 <path
 d="m 165,207.99504 0,4.6875 0.96875,0.5625 0.0312,0 0,-5.25 -1,0 z m 1,8.71875 c -0.0135,0.008 -0.0174,0.0232 -0.0312,0.0312 l -0.9688,0.56255 0,4.6875 1,0 0,-5.28125 z"
 
 
 style="fill:#666666" />
 <path
 d="m 163,207.99504 0,3.53125 1,0.59375 0,-4.125 -1,0 z m 0,5.875 0,2.25 1,-0.5625 0,-1.125 -1,-0.5625 z m 1,4 -1,0.59375 0,3.53125 1,0 0,-4.125 z"
 
 
 style="fill:#666666" />
 <path
 d="m 156.99986,209.99999 0,10 0.90625,0 0.0937,0 c 0.17491,0.001 0.34778,-0.0388 0.5,-0.125 l 7,-4 c 0.3107,-0.17189 0.46875,-0.52345 0.46875,-0.875 0,-0.35155 -0.15805,-0.70311 -0.46875,-0.875 l -7,-4 c -0.15222,-0.0863 -0.32509,-0.12631 -0.5,-0.125 l -0.0937,0 z"
 
 
 style="fill:#666666;fill-rule:nonzero;stroke-width:2;Vera Sans;Vera Sans" />
 <rect
 width="2"
 height="14"
 x="166.99982"
 y="207.99998"
 
 style="fill:#666666" />
 <rect
 width="1"
 height="10"
 x="154.99986"
 y="209.99998"
 
 style="fill:#666666" />
 <rect
 width="1"
 height="10"
 x="152.99986"
 y="209.99998"
 
 style="fill:#666666" />
 </g>
</svg>
