<?xml version="1.0" encoding="UTF-8" standalone="no"?>
<!-- Created with Inkscape (http://www.inkscape.org/) -->

<svg
   xmlns:dc="http://purl.org/dc/elements/1.1/"
   xmlns:cc="http://creativecommons.org/ns#"
   xmlns:rdf="http://www.w3.org/1999/02/22-rdf-syntax-ns#"
   xmlns:svg="http://www.w3.org/2000/svg"
   xmlns="http://www.w3.org/2000/svg"
   xmlns:inkscape="http://www.inkscape.org/namespaces/inkscape"
   version="1.1"
   width="16.000212"
   height="16.000011"
   id="svg7384">
  <title
     id="title9167">MuseScore Icon Theme</title>
  <metadata
     id="metadata90">
    <rdf:RDF>
      <cc:Work
         rdf:about="">
        <dc:format>image/svg+xml</dc:format>
        <dc:type
           rdf:resource="http://purl.org/dc/dcmitype/StillImage" />
        <dc:title>MuseScore Icon Theme</dc:title>
      </cc:Work>
    </rdf:RDF>
  </metadata>
  <defs
     id="defs7386" />
  <g
     transform="translate(-341.99968,-103.99999)"
     id="instruments" />
  <g
     transform="translate(-376.99968,-123.99999)"
     id="actions"
     style="display:inline">
    <path
       d="m 384.99988,124.00001 c -4.41827,0 -8,3.58172 -8,7.99999 0,4.41828 3.58173,8 8,8 4.41828,0 8,-3.58172 8,-8 0,-4.41827 -3.58172,-7.99999 -8,-7.99999 z m 0,1.5 c 3.58986,0 6.5,2.91014 6.5,6.49999 0,3.58985 -2.91014,6.5 -6.5,6.5 -3.58985,0 -6.5,-2.91015 -6.5,-6.5 0,-3.58985 2.91015,-6.49999 6.5,-6.49999 z"
       
       id="path5822"
       style="fill:#666666;fill-opacity:1;stroke:none" />
    <path
       d="m 430.62804,43.793491 a 1.016466,1.016466 0 1 1 -2.03293,0 1.016466,1.016466 0 1 1 2.03293,0 z"
       
       transform="matrix(0.98380071,0,0,0.98380071,-41.65209,88.915945)"
       id="path4340"
       style="fill:#666666;stroke:none" />
    <path
       d="m 430.62804,43.793491 a 1.016466,1.016466 0 1 1 -2.03293,0 1.016466,1.016466 0 1 1 2.03293,0 z"
       
       transform="matrix(-0.98380071,0,0,0.98380071,811.65225,88.915945)"
       id="path13789"
       style="fill:#666666;stroke:none" />
    <path
       d="m 430.62804,43.793491 a 1.016466,1.016466 0 1 1 -2.03293,0 1.016466,1.016466 0 1 1 2.03293,0 z"
       
       transform="matrix(0.98380071,0,0,0.98380071,-37.652505,84.915955)"
       id="path5826"
       style="fill:#666666;stroke:none" />
    <path
       d="m 430.62804,43.793491 a 1.016466,1.016466 0 1 1 -2.03293,0 1.016466,1.016466 0 1 1 2.03293,0 z"
       
       transform="matrix(-0.98380071,0,0,0.98380071,810.65226,85.915945)"
       id="path5828"
       style="fill:#666666;stroke:none" />
    <path
       d="m 430.62804,43.793491 a 1.016466,1.016466 0 1 1 -2.03293,0 1.016466,1.016466 0 1 1 2.03293,0 z"
       
       transform="matrix(-0.98380071,0,0,0.98380071,804.65228,85.915945)"
       id="path5830"
       style="fill:#666666;stroke:none" />
    <rect
       width="4"
       height="3"
       x="382.99988"
       y="136"
       id="rect5836"
       style="fill:#666666;fill-opacity:1;stroke:none" />
  </g>
</svg>
