<?xml version="1.0" encoding="UTF-8" standalone="no"?>


<svg
 
 
 
 
 xmlns="http://www.w3.org/2000/svg"
 
 version="1.1"
 width="16.000212"
 height="16.000011"
 >
 <title
 >MuseScore Icon Theme</title>
 <metadata
 >
 <rdf:RDF>
 <cc:Work
 rdf:about="">
 <dc:format>image/svg+xml</dc:format>
 <dc:type
 rdf:resource="http://purl.org/dc/dcmitype/StillImage" />
 <dc:title>MuseScore Icon Theme</dc:title>
 </cc:Work>
 </rdf:RDF>
 </metadata>
 <defs
 />
 <g
 transform="translate(-341.99968,-103.99999)"
 />
 <g
 transform="translate(-376.99968,-123.99999)"
 
 style="">
 <path
 d="m 384.99988,124.00001 c -4.41827,0 -8,3.58172 -8,7.99999 0,4.41828 3.58173,8 8,8 4.41828,0 8,-3.58172 8,-8 0,-4.41827 -3.58172,-7.99999 -8,-7.99999 z m 0,1.5 c 3.58986,0 6.5,2.91014 6.5,6.49999 0,3.58985 -2.91014,6.5 -6.5,6.5 -3.58985,0 -6.5,-2.91015 -6.5,-6.5 0,-3.58985 2.91015,-6.49999 6.5,-6.49999 z"
 
 
 style="fill:#666666" />
 <path
 d="m 430.62804,43.793491 a 1.016466,1.016466 0 1 1 -2.03293,0 1.016466,1.016466 0 1 1 2.03293,0 z"
 
 transform="matrix(0.98380071,0,0,0.98380071,-41.65209,88.915945)"
 
 style="fill:#666666" />
 <path
 d="m 430.62804,43.793491 a 1.016466,1.016466 0 1 1 -2.03293,0 1.016466,1.016466 0 1 1 2.03293,0 z"
 
 transform="matrix(-0.98380071,0,0,0.98380071,811.65225,88.915945)"
 
 style="fill:#666666" />
 <path
 d="m 430.62804,43.793491 a 1.016466,1.016466 0 1 1 -2.03293,0 1.016466,1.016466 0 1 1 2.03293,0 z"
 
 transform="matrix(0.98380071,0,0,0.98380071,-37.652505,84.915955)"
 
 style="fill:#666666" />
 <path
 d="m 430.62804,43.793491 a 1.016466,1.016466 0 1 1 -2.03293,0 1.016466,1.016466 0 1 1 2.03293,0 z"
 
 transform="matrix(-0.98380071,0,0,0.98380071,810.65226,85.915945)"
 
 style="fill:#666666" />
 <path
 d="m 430.62804,43.793491 a 1.016466,1.016466 0 1 1 -2.03293,0 1.016466,1.016466 0 1 1 2.03293,0 z"
 
 transform="matrix(-0.98380071,0,0,0.98380071,804.65228,85.915945)"
 
 style="fill:#666666" />
 <rect
 width="4"
 height="3"
 x="382.99988"
 y="136"
 
 style="fill:#666666" />
 </g>
</svg>
