<?xml version="1.0" encoding="UTF-8" standalone="no"?>


<svg
 
 
 
 
 xmlns="http://www.w3.org/2000/svg"
 
 version="1.1"
 width="16"
 height="16"
 >
 <title
 >MuseScore Icon Theme</title>
 <metadata
 >
 <rdf:RDF>
 <cc:Work
 rdf:about="">
 <dc:format>image/svg+xml</dc:format>
 <dc:type
 rdf:resource="http://purl.org/dc/dcmitype/StillImage" />
 <dc:title>MuseScore Icon Theme</dc:title>
 </cc:Work>
 </rdf:RDF>
 </metadata>
 <defs
 />
 <g
 transform="translate(-61.999793,-214.99995)"
 />
 <g
 transform="translate(-96.999793,-234.99995)"
 
 style="">
 <path
 d="m 101.81782,238.51352 3.18198,-3.18199 3.18197,3.18196 c 0,0 -0.35801,0.358 -0.53032,0.53032 -0.27944,0.27467 -0.78136,0.27503 -1.06067,0 l -1.59098,-1.59098 -1.59097,1.59098 c -0.25967,0.25967 -0.7774,0.28342 -1.06068,3e-5 -0.17299,-0.17616 -0.53033,-0.53032 -0.53033,-0.53032 z"
 
 
 style="fill:#666666;stroke-width:1.33360577;enable-background:new" />
 <path
 d="m 108.18177,247.48637 -3.18199,3.18199 -3.18196,-3.18195 c 0,0 0.358,-0.35801 0.53032,-0.53032 0.27944,-0.27467 0.78135,-0.27503 1.06066,0 l 1.59098,1.59097 1.59098,-1.59097 c 0.25967,-0.25967 0.77739,-0.28342 1.06067,-4e-5 0.17299,0.17617 0.53034,0.53032 0.53034,0.53032 z"
 
 
 style="fill:#666666;stroke-width:1.33360577;enable-background:new" />
 <path
 d="m 106.00573,240.48786 c -0.97331,0 -1.88428,0.35634 -2.73294,1.06898 -0.84867,0.71265 -1.273,1.47875 -1.273,2.29829 0,0.49886 0.18398,0.89972 0.55193,1.2026 0.36795,0.30287 0.84866,0.45431 1.44214,0.45431 0.9733,0 1.88426,-0.35632 2.73293,-1.06897 0.84867,-0.71265 1.273,-1.47875 1.273,-2.29829 0,-0.49886 -0.18397,-0.89972 -0.55193,-1.20259 -0.36795,-0.30288 -0.84867,-0.45433 -1.44213,-0.45433"
 
 
 style="fill:#666666;fill-rule:nonzero" />
 </g>
</svg>
