<?xml version="1.0" encoding="UTF-8" standalone="no"?>


<svg
 
 
 
 
 xmlns="http://www.w3.org/2000/svg"
 
 version="1.1"
 width="16"
 height="16"
 >
 <title
 >MuseScore Icon Theme</title>
 <metadata
 >
 <rdf:RDF>
 <cc:Work
 rdf:about="">
 <dc:format>image/svg+xml</dc:format>
 <dc:type
 rdf:resource="http://purl.org/dc/dcmitype/StillImage" />
 <dc:title>MuseScore Icon Theme</dc:title>
 </cc:Work>
 </rdf:RDF>
 </metadata>
 <defs
 />
 <g
 transform="translate(-5.9998176,-214.99996)"
 />
 <g
 transform="translate(-40.999818,-234.99996)"
 
 style="">
 <path
 d="m 46.007124,244.98167 c -0.973191,0 -1.884046,0.35628 -2.732604,1.06884 -0.848559,0.71256 -1.272838,1.47856 -1.272837,2.29801 0,0.49879 0.183953,0.8996 0.551861,1.20244 0.367906,0.30283 0.848556,0.45426 1.441954,0.45426 0.973179,0 1.884024,-0.35628 2.732589,-1.06884 0.848565,-0.71256 1.272848,-1.47856 1.272848,-2.29801 0,-0.49879 -0.183954,-0.8996 -0.551863,-1.20244 -0.367908,-0.30284 -0.848565,-0.45426 -1.441948,-0.45426"
 
 
 style="fill:#666666;fill-rule:nonzero" />
 <path
 d="m 47.999828,241.49344 0,5.09864 -1.999999,0 0,-9.59212 1.999999,0 5.999998,7.675 0,-7.675 2,0 0,12 -1.912632,0"
 
 
 style="0px;0px;fill:#666666" />
 </g>
</svg>
