<?xml version="1.0" encoding="UTF-8" standalone="no"?>


<svg
 
 
 
 
 xmlns="http://www.w3.org/2000/svg"
 
 version="1.1"
 width="16.000004"
 height="16"
 >
 <title
 >MuseScore Icon Theme</title>
 <metadata
 >
 <rdf:RDF>
 <cc:Work
 rdf:about="">
 <dc:format>image/svg+xml</dc:format>
 <dc:type
 rdf:resource="http://purl.org/dc/dcmitype/StillImage" />
 <dc:title>MuseScore Icon Theme</dc:title>
 </cc:Work>
 </rdf:RDF>
 </metadata>
 <defs
 />
 <g
 transform="translate(-285.99978,-104)"
 />
 <g
 transform="translate(-320.99978,-124)"
 
 style="">
 <path
 d="m 322.56228,127.00001 c -0.86563,0 -1.5625,0.69688 -1.5625,1.5625 l 0,7.875 c 0,0.86563 0.69687,1.5625 1.5625,1.5625 l 12.875,0 c 0.86563,0 1.5625,-0.69687 1.5625,-1.5625 l 0,-7.875 c 0,-0.86562 -0.69687,-1.5625 -1.5625,-1.5625 l -12.875,0 z m 1.4375,2 2,0 0,2 -2,0 0,-2 z m 7,0.5 c 1.933,0 3.5,1.567 3.5,3.5 0,1.933 -1.567,3.5 -3.5,3.5 -1.933,0 -3.5,-1.567 -3.5,-3.5 0,-1.933 1.567,-3.5 3.5,-3.5 z"
 
 
 style="fill:#666666" />
 <path
 d="m -73.8125,-9.5625 a 4.1875,4.1875 0 1 1 -8.375,0 4.1875,4.1875 0 1 1 8.375,0 z"
 
 transform="matrix(0.47761194,0,0,0.47761194,368.25351,137.56717)"
 
 style="fill:#666666" />
 <rect
 width="2"
 height="1"
 
 
 x="332.99979"
 y="126.00002"
 
 style="fill:#666666" />
 </g>
</svg>
