<?xml version="1.0" encoding="UTF-8" standalone="no"?>
<!-- Created with Inkscape (http://www.inkscape.org/) -->

<svg
   xmlns:dc="http://purl.org/dc/elements/1.1/"
   xmlns:cc="http://creativecommons.org/ns#"
   xmlns:rdf="http://www.w3.org/1999/02/22-rdf-syntax-ns#"
   xmlns:svg="http://www.w3.org/2000/svg"
   xmlns="http://www.w3.org/2000/svg"
   xmlns:inkscape="http://www.inkscape.org/namespaces/inkscape"
   version="1.1"
   width="16.000004"
   height="16"
   id="svg7384">
  <title
     id="title9167">MuseScore Icon Theme</title>
  <metadata
     id="metadata90">
    <rdf:RDF>
      <cc:Work
         rdf:about="">
        <dc:format>image/svg+xml</dc:format>
        <dc:type
           rdf:resource="http://purl.org/dc/dcmitype/StillImage" />
        <dc:title>MuseScore Icon Theme</dc:title>
      </cc:Work>
    </rdf:RDF>
  </metadata>
  <defs
     id="defs7386" />
  <g
     transform="translate(-285.99978,-104)"
     id="instruments" />
  <g
     transform="translate(-320.99978,-124)"
     id="actions"
     style="display:inline">
    <path
       d="m 322.56228,127.00001 c -0.86563,0 -1.5625,0.69688 -1.5625,1.5625 l 0,7.875 c 0,0.86563 0.69687,1.5625 1.5625,1.5625 l 12.875,0 c 0.86563,0 1.5625,-0.69687 1.5625,-1.5625 l 0,-7.875 c 0,-0.86562 -0.69687,-1.5625 -1.5625,-1.5625 l -12.875,0 z m 1.4375,2 2,0 0,2 -2,0 0,-2 z m 7,0.5 c 1.933,0 3.5,1.567 3.5,3.5 0,1.933 -1.567,3.5 -3.5,3.5 -1.933,0 -3.5,-1.567 -3.5,-3.5 0,-1.933 1.567,-3.5 3.5,-3.5 z"
       
       id="rect3454"
       style="fill:#666666;fill-opacity:1;stroke:none" />
    <path
       d="m -73.8125,-9.5625 a 4.1875,4.1875 0 1 1 -8.375,0 4.1875,4.1875 0 1 1 8.375,0 z"
       
       transform="matrix(0.47761194,0,0,0.47761194,368.25351,137.56717)"
       id="path5970"
       style="fill:#666666;fill-opacity:1;stroke:none" />
    <rect
       width="2"
       height="1"
       rx="0"
       ry="0"
       x="332.99979"
       y="126.00002"
       id="rect3466"
       style="fill:#666666;fill-opacity:1;stroke:none" />
  </g>
</svg>
