<?xml version="1.0" encoding="UTF-8" standalone="no"?>
<!-- Created with Inkscape (http://www.inkscape.org/) -->

<svg
   xmlns:dc="http://purl.org/dc/elements/1.1/"
   xmlns:cc="http://creativecommons.org/ns#"
   xmlns:rdf="http://www.w3.org/1999/02/22-rdf-syntax-ns#"
   xmlns:svg="http://www.w3.org/2000/svg"
   xmlns="http://www.w3.org/2000/svg"
   xmlns:inkscape="http://www.inkscape.org/namespaces/inkscape"
   version="1.1"
   width="16"
   height="16.007347"
   id="svg7384">
  <title
     id="title9167">MuseScore Icon Theme</title>
  <metadata
     id="metadata90">
    <rdf:RDF>
      <cc:Work
         rdf:about="">
        <dc:format>image/svg+xml</dc:format>
        <dc:type
           rdf:resource="http://purl.org/dc/dcmitype/StillImage" />
        <dc:title>MuseScore Icon Theme</dc:title>
      </cc:Work>
    </rdf:RDF>
  </metadata>
  <defs
     id="defs7386" />
  <g
     transform="translate(-173.99979,-215)"
     id="instruments" />
  <g
     transform="translate(-208.99979,-235)"
     id="actions"
     style="display:inline">
    <path
       d="m 216.00593,245.98316 c -0.97331,0 -1.88428,0.35634 -2.73294,1.06898 -0.84867,0.71265 -1.273,1.47875 -1.273,2.29829 0,0.49886 0.18398,0.89972 0.55193,1.2026 0.36795,0.30287 0.84866,0.45431 1.44214,0.45431 0.9733,0 1.88426,-0.35632 2.73293,-1.06897 0.84867,-0.71265 1.273,-1.47875 1.273,-2.29829 0,-0.49886 -0.18397,-0.89972 -0.55193,-1.20259 -0.36795,-0.30288 -0.84867,-0.45433 -1.44213,-0.45433"
       
       id="path3633"
       style="font-size:83.33329773px;font-style:normal;font-weight:400;fill:#666666;fill-opacity:1;fill-rule:nonzero;stroke:none;font-family:MScore" />
    <path
       d="m 216.00082,235.00745 1.99918,0 0,12.83131 -1.99918,0 z"
       
       id="use4354-0-5"
       style="color:#000000;fill:#666666;fill-opacity:1;fill-rule:nonzero;stroke:none;stroke-width:1.50800002;marker:none;visibility:visible;display:inline;overflow:visible;enable-background:new" />
    <path
       d="m 217.99978,235.00745 0,3.90624 c 0.45209,0.42698 0.85394,0.83722 1.15626,1.15626 0.33244,0.3508 0.69793,0.94872 1.03125,1.53125 0.10293,0.17991 0.17909,0.35716 0.24999,0.53124 0.0169,0.0414 0.0474,0.084 0.0626,0.125 l 0.71875,1.03126 c 0.15809,0.22584 0.29914,0.45298 0.4375,0.68749 0.0324,-0.24348 0.0625,-0.47871 0.0625,-0.71874 0,-0.58302 -0.12074,-1.18236 -0.37501,-1.78125 -0.25139,-0.59211 -0.57254,-1.13493 -0.9375,-1.65626 l -1.03125,-1.53124 c -0.3422,-0.49475 -0.69478,-1.01527 -0.9375,-1.59375 -0.18108,-0.58651 -0.25571,-0.56925 -0.4375,-1.6875 z"
       
       id="path7291"
       style="font-size:83.33329773px;font-style:normal;font-weight:400;fill:#666666;fill-opacity:1;fill-rule:nonzero;stroke:none;display:inline;font-family:MScore" />
    <path
       d="m 217.99937,239.06402 0,3.91586 c 0.45209,0.42695 0.84613,0.84513 1.14844,1.16415 0.33243,0.35082 0.69792,0.92031 1.03123,1.50285 0.32627,0.57025 0.49216,1.14697 0.49219,1.60866 -3e-5,0.93261 -0.22914,1.96552 -0.70313,2.96335 -0.10979,0.28852 -0.29862,0.53215 -0.47167,0.78845 0,0 0.25268,-0.0793 0.28418,-0.0899 0.47941,-0.16127 0.8198,-0.29248 1.05468,-0.508 0.25034,-0.22971 0.41134,-0.54223 0.5625,-0.99485 0.21264,-0.71574 0.32812,-1.40606 0.32812,-2.0955 0,-0.58303 -0.14416,-1.20028 -0.39843,-1.79917 -0.2514,-0.59209 -0.54912,-1.12967 -0.91406,-1.651 l -1.05468,-1.52401 c -0.3422,-0.49473 -0.67135,-1.00902 -0.91406,-1.5875 -0.18107,-0.58649 -0.26354,-0.57508 -0.44531,-1.69334 z"
       
       id="path6210"
       style="font-size:83.33329773px;font-style:normal;font-weight:400;fill:#666666;fill-opacity:1;fill-rule:nonzero;stroke:none;display:inline;font-family:MScore" />
  </g>
</svg>
