<?xml version="1.0" encoding="UTF-8" standalone="no"?>
<!-- Created with Inkscape (http://www.inkscape.org/) -->

<svg
   xmlns:dc="http://purl.org/dc/elements/1.1/"
   xmlns:cc="http://creativecommons.org/ns#"
   xmlns:rdf="http://www.w3.org/1999/02/22-rdf-syntax-ns#"
   xmlns:svg="http://www.w3.org/2000/svg"
   xmlns="http://www.w3.org/2000/svg"
   xmlns:inkscape="http://www.inkscape.org/namespaces/inkscape"
   version="1.1"
   width="16"
   height="16.007448"
   id="svg7384">
  <title
     id="title9167">MuseScore Icon Theme</title>
  <metadata
     id="metadata90">
    <rdf:RDF>
      <cc:Work
         rdf:about="">
        <dc:format>image/svg+xml</dc:format>
        <dc:type
           rdf:resource="http://purl.org/dc/dcmitype/StillImage" />
        <dc:title>MuseScore Icon Theme</dc:title>
      </cc:Work>
    </rdf:RDF>
  </metadata>
  <defs
     id="defs7386" />
  <g
     transform="translate(-145.9998,-215)"
     id="instruments" />
  <g
     transform="translate(-180.9998,-235)"
     id="actions"
     style="display:inline">
    <path
       d="m 188.00612,245.98326 c -0.97331,0 -1.88428,0.35634 -2.73294,1.06898 -0.84867,0.71265 -1.273,1.47875 -1.273,2.29829 0,0.49886 0.18398,0.89972 0.55193,1.2026 0.36795,0.30287 0.84866,0.45431 1.44214,0.45431 0.9733,0 1.88426,-0.35632 2.73293,-1.06897 0.84867,-0.71265 1.273,-1.47875 1.273,-2.29829 0,-0.49886 -0.18397,-0.89972 -0.55193,-1.20259 -0.36795,-0.30288 -0.84867,-0.45433 -1.44213,-0.45433"
       inkscape:connector-curvature="0"
       id="path3633"
       style="font-size:83.33329773px;font-style:normal;font-weight:400;fill:#666666;fill-opacity:1;fill-rule:nonzero;stroke:none;font-family:MScore" />
    <path
       d="m 188.00101,235.00745 1.99918,0 0,12.83131 -1.99918,0 z"
       inkscape:connector-curvature="0"
       id="use4354-8"
       style="color:#000000;fill:#666666;fill-opacity:1;fill-rule:nonzero;stroke:none;stroke-width:1.50800002;marker:none;visibility:visible;display:inline;overflow:visible;enable-background:new" />
    <path
       d="m 189.99956,241.47542 0,3.12526 c 0.45209,0.34076 0.84613,0.67451 1.14843,0.92913 0.33244,0.27998 0.69793,0.7345 1.03124,1.19941 0.32627,0.45513 0.49216,0.91541 0.49218,1.28389 -2e-5,0.74432 -0.22913,1.56869 -0.70312,2.36506 -0.1098,0.23027 -0.29863,0.42472 -0.47167,0.62928 0,0 0.25268,-0.0633 0.28418,-0.0718 0.47941,-0.12871 0.8198,-0.23341 1.05468,-0.40544 0.25034,-0.18331 0.41133,-0.43275 0.5625,-0.79398 0.21263,-0.57123 0.32812,-1.12218 0.32812,-1.67243 0,-0.46531 -0.14416,-0.95795 -0.39843,-1.43592 -0.2514,-0.47255 -0.54912,-0.9016 -0.91406,-1.31768 l -1.05468,-1.21631 c -0.3422,-0.39485 -0.67135,-0.80529 -0.91406,-1.267 -0.18108,-0.46807 -0.26354,-0.45897 -0.44531,-1.35145 z"
       inkscape:connector-curvature="0"
       id="path7314"
       style="font-size:83.33329773px;font-style:normal;font-weight:400;fill:#666666;fill-opacity:1;fill-rule:nonzero;stroke:none;display:inline;font-family:MScore" />
    <path
       d="m 189.99979,238.24405 0,3.12267 c 0.45209,0.34076 0.85395,0.65488 1.15626,0.90951 0.33243,0.27999 0.69793,0.74777 1.03125,1.21267 0.0728,0.10159 0.098,0.20434 0.15625,0.30318 l 0.8125,0.87919 c 0.17714,0.20198 0.34405,0.42356 0.49999,0.63667 0.0209,-0.16621 0.0626,-0.32359 0.0626,-0.48508 0,-0.46532 -0.12073,-0.97724 -0.375,-1.45522 -0.25141,-0.47254 -0.57257,-0.88756 -0.93751,-1.30363 l -1.03124,-1.21269 c -0.3422,-0.39485 -0.69479,-0.81161 -0.9375,-1.27332 -0.18108,-0.46808 -0.25572,-0.44147 -0.4375,-1.33395 z"
       inkscape:connector-curvature="0"
       id="path7366"
       style="font-size:83.33329773px;font-style:normal;font-weight:400;fill:#666666;fill-opacity:1;fill-rule:nonzero;stroke:none;display:inline;font-family:MScore" />
    <path
       d="m 189.99979,235.00745 0,3.12265 c 0.45209,0.34076 0.85395,0.65489 1.15626,0.90952 0.33243,0.27999 0.69793,0.74776 1.03125,1.21269 0.0728,0.10147 0.098,0.20432 0.15625,0.30315 l 0.8125,0.87921 c 0.17714,0.20197 0.34405,0.42356 0.49999,0.63665 0.0209,-0.16619 0.0626,-0.32359 0.0626,-0.48506 0,-0.46532 -0.12073,-0.97726 -0.375,-1.45524 -0.25141,-0.47253 -0.57257,-0.88755 -0.93751,-1.30363 l -1.03124,-1.21268 c -0.3422,-0.39485 -0.69479,-0.81162 -0.9375,-1.27331 -0.18108,-0.46808 -0.25572,-0.44147 -0.4375,-1.33395 z"
       inkscape:connector-curvature="0"
       id="path26053"
       style="font-size:83.33329773px;font-style:normal;font-weight:400;fill:#666666;fill-opacity:1;fill-rule:nonzero;stroke:none;display:inline;font-family:MScore" />
  </g>
</svg>
