<?xml version="1.0" encoding="UTF-8" standalone="no"?>


<svg
 
 
 
 
 xmlns="http://www.w3.org/2000/svg"
 
 version="1.1"
 width="16"
 height="16"
 >
 <title
 >MuseScore Icon Theme</title>
 <metadata
 >
 <rdf:RDF>
 <cc:Work
 rdf:about="">
 <dc:format>image/svg+xml</dc:format>
 <dc:type
 rdf:resource="http://purl.org/dc/dcmitype/StillImage" />
 <dc:title>MuseScore Icon Theme</dc:title>
 </cc:Work>
 </rdf:RDF>
 </metadata>
 <defs
 >
 <linearGradient
 
 gradientTransform="matrix(-2.7365795,0.40810354,-0.18908311,-1.4468561,239.54008,-1703.6896)">
 <stop
 
 style="stop-;stop-opacity:1"
 offset="0" />
 </linearGradient>
 <linearGradient
 
 gradientTransform="matrix(-2.7365795,0.40810354,-0.18908311,-1.4468561,239.54008,-1703.6896)">
 <stop
 
 style="stop-;stop-opacity:1"
 offset="0" />
 </linearGradient>
 <linearGradient
 
 gradientTransform="matrix(-2.7365795,0.40810354,-0.18908311,-1.4468561,239.54008,-1703.6896)">
 <stop
 
 style="stop-;stop-opacity:1"
 offset="0" />
 </linearGradient>
 <linearGradient
 
 gradientTransform="matrix(-2.7365795,0.40810354,-0.18908311,-1.4468561,263.493,-969.46532)">
 <stop
 
 style="stop-;stop-opacity:1"
 offset="0" />
 </linearGradient>
 <linearGradient
 
 gradientTransform="matrix(-2.7365795,0.40810354,-0.18908311,-1.4468561,239.54008,-1703.6896)">
 <stop
 
 style="stop-;stop-opacity:1"
 offset="0" />
 </linearGradient>
 <linearGradient
 
 gradientTransform="matrix(-2.7365795,0.40810354,-0.18908311,-1.4468561,239.54008,-1703.6896)">
 <stop
 
 style="stop-;stop-opacity:1"
 offset="0" />
 </linearGradient>
 <linearGradient
 
 gradientTransform="matrix(-2.7365795,0.40810354,-0.18908311,-1.4468561,263.493,-969.46532)">
 <stop
 
 style="stop-;stop-opacity:1"
 offset="0" />
 </linearGradient>
 <linearGradient
 
 gradientTransform="matrix(-2.7365795,0.40810354,-0.18908311,-1.4468561,263.493,-969.46532)">
 <stop
 
 style="stop-;stop-opacity:1"
 offset="0" />
 </linearGradient>
 </defs>
 <g
 transform="translate(-425.99977,-215)"
 />
 <g
 transform="translate(-460.99977,-235)"
 
 style="">
 <path
 d="m 471.99359,244.02418 c 0.97331,0 1.88428,-0.35634 2.73294,-1.06898 0.84867,-0.71265 1.273,-1.47875 1.273,-2.29829 0,-0.49886 -0.18398,-0.89972 -0.55193,-1.2026 C 475.07965,239.15144 474.59894,239 474.00546,239 c -0.9733,0 -1.88426,0.35632 -2.73293,1.06897 -0.84867,0.71265 -1.273,1.47875 -1.273,2.29829 0,0.49886 0.18397,0.89972 0.55193,1.20259 0.36795,0.30288 0.84867,0.45433 1.44213,0.45433"
 
 
 style="fill:#666666;fill-rule:nonzero" />
 <path
 d="m 471.99868,250.99192 -1.99918,0 0,-8.831 1.99918,0 z"
 
 
 style="fill:#666666;fill-rule:nonzero;stroke-width:1.50800002;enable-background:new" />
 <path
 d="m 462.98809,237.55465 c 0,0 -0.21409,-2.55465 4.63668,-2.55465 4.85077,0 5.38668,2.55465 5.38668,2.55465 l -0.77343,0.14062 c 0,0 -0.65391,-1.20701 -4.61319,-1.20701 -3.95928,0 -3.86319,1.20701 -3.86319,1.20701 z"
 
 
 style="fill:#666666;stroke-width:0.66666669" />
 </g>
</svg>
