<?xml version="1.0" encoding="UTF-8" standalone="no"?>
<!-- Created with Inkscape (http://www.inkscape.org/) -->

<svg
   xmlns:dc="http://purl.org/dc/elements/1.1/"
   xmlns:cc="http://creativecommons.org/ns#"
   xmlns:rdf="http://www.w3.org/1999/02/22-rdf-syntax-ns#"
   xmlns:svg="http://www.w3.org/2000/svg"
   xmlns="http://www.w3.org/2000/svg"
   xmlns:inkscape="http://www.inkscape.org/namespaces/inkscape"
   version="1.1"
   width="16"
   height="16.000011"
   id="svg7384">
  <title
     id="title9167">MuseScore Icon Theme</title>
  <metadata
     id="metadata90">
    <rdf:RDF>
      <cc:Work
         rdf:about="">
        <dc:format>image/svg+xml</dc:format>
        <dc:type
           rdf:resource="http://purl.org/dc/dcmitype/StillImage" />
        <dc:title>MuseScore Icon Theme</dc:title>
      </cc:Work>
    </rdf:RDF>
  </metadata>
  <defs
     id="defs7386">
    <linearGradient
       id="linearGradient19282"
       gradientTransform="matrix(-2.7365795,0.40810354,-0.18908311,-1.4468561,239.54008,-1703.6896)">
      <stop
         id="stop19284"
         style="stop-color:#666666;stop-opacity:1"
         offset="0" />
    </linearGradient>
    <linearGradient
       id="linearGradient12335"
       gradientTransform="matrix(-2.7365795,0.40810354,-0.18908311,-1.4468561,239.54008,-1703.6896)">
      <stop
         id="stop12337"
         style="stop-color:#666666;stop-opacity:1"
         offset="0" />
    </linearGradient>
    <linearGradient
       id="linearGradient12339"
       gradientTransform="matrix(-2.7365795,0.40810354,-0.18908311,-1.4468561,239.54008,-1703.6896)">
      <stop
         id="stop12341"
         style="stop-color:#666666;stop-opacity:1"
         offset="0" />
    </linearGradient>
    <linearGradient
       id="linearGradient19282-9"
       gradientTransform="matrix(-2.7365795,0.40810354,-0.18908311,-1.4468561,263.493,-969.46532)">
      <stop
         id="stop19284-8"
         style="stop-color:#666666;stop-opacity:1"
         offset="0" />
    </linearGradient>
    <linearGradient
       id="linearGradient21935"
       gradientTransform="matrix(-2.7365795,0.40810354,-0.18908311,-1.4468561,239.54008,-1703.6896)">
      <stop
         id="stop21937"
         style="stop-color:#666666;stop-opacity:1"
         offset="0" />
    </linearGradient>
    <linearGradient
       id="linearGradient21939"
       gradientTransform="matrix(-2.7365795,0.40810354,-0.18908311,-1.4468561,239.54008,-1703.6896)">
      <stop
         id="stop21941"
         style="stop-color:#666666;stop-opacity:1"
         offset="0" />
    </linearGradient>
    <linearGradient
       id="linearGradient19282-9-9"
       gradientTransform="matrix(-2.7365795,0.40810354,-0.18908311,-1.4468561,263.493,-969.46532)">
      <stop
         id="stop19284-8-1"
         style="stop-color:#666666;stop-opacity:1"
         offset="0" />
    </linearGradient>
    <linearGradient
       id="linearGradient8782"
       gradientTransform="matrix(-2.7365795,0.40810354,-0.18908311,-1.4468561,263.493,-969.46532)">
      <stop
         id="stop8784"
         style="stop-color:#666666;stop-opacity:1"
         offset="0" />
    </linearGradient>
  </defs>
  <g
     transform="translate(-341.99976,-214.99998)"
     id="instruments" />
  <g
     transform="translate(-376.99976,-234.99998)"
     id="actions"
     style="display:inline">
    <path
       d="m 384.99976,245.99999 c -1.20773,0 -2.25627,0.24192 -3.15,0.72501 -0.89371,0.47102 -1.32499,1.06244 -1.32499,1.775 0,0.67632 0.43042,1.25483 1.3,1.74999 0.86956,0.49518 1.91895,0.75 3.17499,0.75 1.20772,0 2.26835,-0.22898 3.15,-0.69999 0.8937,-0.4831 1.32498,-1.08744 1.325,-1.8 -2e-5,-0.67632 -0.41751,-1.25484 -1.27499,-1.75001 -0.85751,-0.49516 -1.9319,-0.75 -3.20001,-0.75 z m -0.55,0.6 c 0.30042,1e-5 0.64168,0.0756 0.97501,0.22501 0.31676,0.13108 0.62274,0.36876 0.89999,0.75 l 0,0.025 c 0.27902,0.35718 0.425,0.79844 0.425,1.32501 0,0.45909 -0.10822,0.79426 -0.29999,1.05 -0.17626,0.24879 -0.42704,0.37499 -0.8,0.37499 -0.3024,0 -0.64099,-0.0867 -0.975,-0.225 -0.3212,-0.14397 -0.61007,-0.37889 -0.90001,-0.75 -0.26906,-0.36995 -0.39999,-0.82225 -0.39999,-1.34999 0,-0.46042 0.11891,-0.79436 0.3,-1.05 0.18837,-0.25116 0.402,-0.37499 0.77499,-0.375 z"
       
       id="path26441"
       style="font-size:20px;font-style:normal;font-variant:normal;font-weight:normal;font-stretch:normal;text-align:start;line-height:125%;writing-mode:lr-tb;text-anchor:start;fill:#666666;fill-opacity:1;stroke:none;display:inline;font-family:MScore1;-inkscape-font-specification:MScore1" />
    <path
       d="m 384.38728,246.2 c -0.47547,1e-5 -0.85975,0.17133 -1.125,0.525 l 0,0.025 c -0.24514,0.34607 -0.35,0.75583 -0.35,1.275 0,0.60038 0.14815,1.17556 0.475,1.625 0.32337,0.41393 0.67884,0.69743 1.075,0.87501 0.37794,0.1564 0.76028,0.22499 1.125,0.22499 0.46252,0 0.84288,-0.17701 1.1,-0.525 l 0.025,0 c 0.25079,-0.34454 0.37501,-0.78702 0.37501,-1.3 0,-0.60586 -0.18484,-1.16457 -0.525,-1.6 -0.30874,-0.42451 -0.61637,-0.73091 -1.025,-0.9 -0.38342,-0.17187 -0.78606,-0.22499 -1.15001,-0.225 z m 0,0.2 c 0.33954,0 0.6991,0.0677 1.05,0.225 0.35878,0.14846 0.67881,0.44275 0.97499,0.85 0.30948,0.39613 0.475,0.88676 0.475,1.44999 0,0.49209 -0.0994,0.8743 -0.32499,1.17501 l 0,0.025 c -0.21246,0.29994 -0.54959,0.42501 -0.975,0.42501 -0.33488,0 -0.67004,-0.0781 -1.025,-0.22501 -0.36247,-0.16246 -0.72049,-0.43522 -1.02499,-0.82499 -0.29446,-0.40487 -0.42501,-0.90859 -0.42501,-1.475 0,-0.4825 0.0951,-0.85131 0.3,-1.15 0.22757,-0.30341 0.55392,-0.47499 0.975,-0.47499 z m 0,0.10001 c -0.3966,1e-5 -0.64849,0.13133 -0.84999,0.39999 l 0,0.025 c -0.19368,0.27341 -0.32501,0.62121 -0.32501,1.09998 0,0.54537 0.1413,1.0349 0.425,1.42501 0.29766,0.38097 0.58607,0.62306 0.925,0.775 0.34298,0.14194 0.7022,0.225 1.025,0.225 0.38786,0 0.65589,-0.16326 0.84999,-0.42501 l 0.025,0 c 0.19905,-0.27389 0.325,-0.6339 0.325,-1.09999 0,-0.51691 -0.16101,-0.95945 -0.42501,-1.325 -0.005,-0.006 0.005,-0.0189 0,-0.025 l 0,-0.025 -0.025,-0.025 0,-0.025 c -0.28682,-0.39436 -0.58856,-0.63577 -0.925,-0.77499 -0.34586,-0.15503 -0.7067,-0.22499 -1.02501,-0.225 z m 0,0.2 c 0.28252,0 0.60423,0.0812 0.925,0.225 0.28789,0.11916 0.58928,0.35195 0.85,0.69999 0.008,0.0112 0.0166,0.0136 0.025,0.025 l 0,0.025 c 0.26389,0.33779 0.4,0.74314 0.4,1.24999 0,0.44233 -0.0985,0.73965 -0.27499,0.975 l 0,0.025 c -0.1585,0.22372 -0.3761,0.32499 -0.72501,0.32499 -0.28199,0 -0.59994,-0.0904 -0.92499,-0.22499 -0.30346,-0.13603 -0.59278,-0.36378 -0.875,-0.72501 -0.25443,-0.34982 -0.375,-0.7649 -0.375,-1.275 0,-0.43177 0.11304,-0.73941 0.275,-0.97499 0.17525,-0.23365 0.35062,-0.35 0.69999,-0.35 z"
       
       id="path26443"
       style="font-size:20px;font-style:normal;font-variant:normal;font-weight:normal;font-stretch:normal;text-indent:0;text-align:start;text-decoration:none;line-height:125%;letter-spacing:normal;word-spacing:normal;text-transform:none;direction:ltr;block-progression:tb;writing-mode:lr-tb;text-anchor:start;baseline-shift:baseline;color:#000000;fill:#666666;fill-opacity:1;fill-rule:nonzero;stroke:none;stroke-width:0.26666668;marker:none;visibility:visible;display:inline;overflow:visible;enable-background:accumulate;font-family:MScore1;-inkscape-font-specification:MScore1" />
    <path
       d="m 388.99997,234.99999 2,0 0,16 -2,0 z"
       
       id="use26445"
       style="color:#000000;fill:#666666;fill-opacity:1;fill-rule:nonzero;stroke:none;stroke-width:1.50800002;marker:none;visibility:visible;display:inline;overflow:visible;enable-background:new" />
    <path
       d="m 378.99998,245.99999 2,0 0,5 -2,0 z"
       
       id="use26447"
       style="color:#000000;fill:#666666;fill-opacity:1;fill-rule:nonzero;stroke:none;stroke-width:1.50800002;marker:none;visibility:visible;display:inline;overflow:visible;enable-background:new" />
  </g>
</svg>
