<?xml version="1.0" encoding="UTF-8" standalone="no"?>


<svg
 
 
 
 
 xmlns="http://www.w3.org/2000/svg"
 
 version="1.1"
 width="16"
 height="16"
 >
 <title
 >MuseScore Icon Theme</title>
 <metadata
 >
 <rdf:RDF>
 <cc:Work
 rdf:about="">
 <dc:format>image/svg+xml</dc:format>
 <dc:type
 rdf:resource="http://purl.org/dc/dcmitype/StillImage" />
 <dc:title>MuseScore Icon Theme</dc:title>
 </cc:Work>
 </rdf:RDF>
 </metadata>
 <defs
 >
 <linearGradient
 
 gradientTransform="matrix(-2.7365795,0.40810354,-0.18908311,-1.4468561,239.54008,-1703.6896)">
 <stop
 
 style="stop-;stop-opacity:1"
 offset="0" />
 </linearGradient>
 <linearGradient
 
 gradientTransform="matrix(-2.7365795,0.40810354,-0.18908311,-1.4468561,239.54008,-1703.6896)">
 <stop
 
 style="stop-;stop-opacity:1"
 offset="0" />
 </linearGradient>
 <linearGradient
 
 gradientTransform="matrix(-2.7365795,0.40810354,-0.18908311,-1.4468561,239.54008,-1703.6896)">
 <stop
 
 style="stop-;stop-opacity:1"
 offset="0" />
 </linearGradient>
 <linearGradient
 
 gradientTransform="matrix(-2.7365795,0.40810354,-0.18908311,-1.4468561,263.493,-969.46532)">
 <stop
 
 style="stop-;stop-opacity:1"
 offset="0" />
 </linearGradient>
 <linearGradient
 
 gradientTransform="matrix(-2.7365795,0.40810354,-0.18908311,-1.4468561,239.54008,-1703.6896)">
 <stop
 
 style="stop-;stop-opacity:1"
 offset="0" />
 </linearGradient>
 <linearGradient
 
 gradientTransform="matrix(-2.7365795,0.40810354,-0.18908311,-1.4468561,239.54008,-1703.6896)">
 <stop
 
 style="stop-;stop-opacity:1"
 offset="0" />
 </linearGradient>
 <linearGradient
 
 gradientTransform="matrix(-2.7365795,0.40810354,-0.18908311,-1.4468561,263.493,-969.46532)">
 <stop
 
 style="stop-;stop-opacity:1"
 offset="0" />
 </linearGradient>
 <linearGradient
 
 gradientTransform="matrix(-2.7365795,0.40810354,-0.18908311,-1.4468561,263.493,-969.46532)">
 <stop
 
 style="stop-;stop-opacity:1"
 offset="0" />
 </linearGradient>
 </defs>
 <g
 transform="translate(-565.99976,-215)"
 />
 <g
 transform="translate(-600.99976,-235)"
 
 style="">
 <path
 d="m 604.50006,237.00003 -1.7e-4,11.99992 c 0,0 0.74788,-9e-4 1.37948,-0.0873 0.84415,-0.0826 1.43957,-0.73389 1.9914,-1.20784 0.67066,-0.61951 1.27244,-1.31405 1.77037,-2.07804 0.34469,-0.52906 0.58782,-1.16368 0.44732,-1.80121 -0.0806,-0.75388 -0.65828,-1.43878 -1.42863,-1.53953 -0.98715,-0.0693 -1.94628,0.37335 -2.65974,0.714 l 0,-5.99996 z m 3.00014,6.74996 c 0.4587,-0.0573 0.99247,0.18467 1.02291,0.6988 0.12141,0.44184 -0.0624,0.88125 -0.36739,1.20088 -0.62438,0.71695 -1.38632,1.29809 -2.15551,1.85029 0,-0.99999 0,-1.99997 0,-2.99997 0.41362,-0.37786 0.923,-0.72247 1.49999,-0.75 z"
 
 
 style="fill:#666666" />
 <path
 d="m 608.50006,237.00003 -1.7e-4,11.99992 c 0,0 0.74788,-9e-4 1.37948,-0.0873 0.84415,-0.0826 1.43957,-0.73389 1.9914,-1.20784 0.67066,-0.61951 1.27244,-1.31405 1.77037,-2.07804 0.34469,-0.52906 0.58782,-1.16368 0.44732,-1.80121 -0.0806,-0.75388 -0.65828,-1.43878 -1.42863,-1.53953 -0.98714,-0.0693 -1.94628,0.37335 -2.65974,0.714 l 0,-5.99996 z m 3.00014,6.74996 c 0.45871,-0.0573 0.99247,0.18467 1.02291,0.6988 0.12141,0.44184 -0.0624,0.88125 -0.36739,1.20088 -0.62438,0.71695 -1.38631,1.29809 -2.1555,1.85029 0,-0.99999 0,-1.99997 0,-2.99997 0.41361,-0.37786 0.923,-0.72247 1.49998,-0.75 z"
 
 
 style="fill:#666666" />
 </g>
</svg>
