<?xml version="1.0" encoding="UTF-8" standalone="no"?>
<!-- Created with Inkscape (http://www.inkscape.org/) -->

<svg
   xmlns:dc="http://purl.org/dc/elements/1.1/"
   xmlns:cc="http://creativecommons.org/ns#"
   xmlns:rdf="http://www.w3.org/1999/02/22-rdf-syntax-ns#"
   xmlns:svg="http://www.w3.org/2000/svg"
   xmlns="http://www.w3.org/2000/svg"
   xmlns:inkscape="http://www.inkscape.org/namespaces/inkscape"
   version="1.1"
   width="16"
   height="16"
   id="svg7384">
  <title
     id="title9167">MuseScore Icon Theme</title>
  <metadata
     id="metadata90">
    <rdf:RDF>
      <cc:Work
         rdf:about="">
        <dc:format>image/svg+xml</dc:format>
        <dc:type
           rdf:resource="http://purl.org/dc/dcmitype/StillImage" />
        <dc:title>MuseScore Icon Theme</dc:title>
      </cc:Work>
    </rdf:RDF>
  </metadata>
  <defs
     id="defs7386" />
  <g
     transform="translate(-89.999791,-215)"
     id="instruments" />
  <g
     transform="translate(-124.99979,-235)"
     id="actions"
     style="display:inline">
    <path
       d="m 132.00008,235 1.9999,0 0,12.83599 -1.9999,0 z"
       inkscape:connector-curvature="0"
       id="rect7032-8"
       style="color:#000000;fill:#666666;fill-opacity:1;fill-rule:nonzero;stroke:none;stroke-width:1.50800002;marker:none;visibility:visible;display:inline;overflow:visible;enable-background:new" />
    <path
       d="m 132.00591,245.97582 c -0.97331,0 -1.88428,0.35634 -2.73294,1.06898 -0.84867,0.71265 -1.273,1.47875 -1.273,2.29829 0,0.49886 0.18398,0.89972 0.55193,1.2026 0.36795,0.30287 0.84866,0.45431 1.44214,0.45431 0.9733,0 1.88426,-0.35632 2.73293,-1.06897 0.84867,-0.71265 1.273,-1.47875 1.273,-2.29829 0,-0.49886 -0.18397,-0.89972 -0.55193,-1.20259 -0.36795,-0.30288 -0.84867,-0.45433 -1.44213,-0.45433"
       inkscape:connector-curvature="0"
       id="path3619"
       style="font-size:83.33329773px;font-style:normal;font-weight:400;fill:#666666;fill-opacity:1;fill-rule:nonzero;stroke:none;font-family:MScore" />
    <path
       d="m 133.99997,244.21335 0,2.22513 c 0.45209,0.24262 0.84613,0.48025 1.14844,0.66153 0.33243,0.19934 0.69792,0.52294 1.03123,0.85396 0.32627,0.32406 0.49216,0.65177 0.49219,0.91413 -3e-5,0.52994 -0.22914,1.11687 -0.70313,1.68389 -0.10979,0.16394 -0.29862,0.30237 -0.47167,0.44801 0,0 0.25268,-0.0451 0.28418,-0.0511 0.47941,-0.0917 0.8198,-0.16621 1.05468,-0.28867 0.25034,-0.13053 0.41134,-0.30812 0.5625,-0.56531 0.21264,-0.40671 0.32812,-0.79898 0.32812,-1.19075 0,-0.33129 -0.14416,-0.68205 -0.39843,-1.02235 -0.2514,-0.33645 -0.54912,-0.64192 -0.91406,-0.93817 l -1.05468,-0.86599 c -0.3422,-0.28114 -0.67135,-0.57337 -0.91406,-0.90209 -0.18107,-0.33327 -0.26354,-0.32678 -0.44531,-0.96222 z"
       inkscape:connector-curvature="0"
       id="path3484"
       style="font-size:83.33329773px;font-style:normal;font-weight:400;fill:#666666;fill-opacity:1;fill-rule:nonzero;stroke:none;display:inline;font-family:MScore" />
    <path
       d="m 134.00008,239.60303 0,2.24999 c 0.45209,0.24261 0.85395,0.47498 1.15626,0.65626 0.24414,0.14641 0.49603,0.3632 0.75,0.59375 0.0918,0.0834 0.19273,0.16208 0.28124,0.24999 l 0.78125,0.625 c 0.26593,0.21588 0.50289,0.44715 0.71875,0.68751 0.023,-0.12292 0.0313,-0.25353 0.0313,-0.37501 0,-0.33129 -0.15198,-0.65969 -0.40625,-0.99999 -0.2514,-0.33645 -0.54131,-0.64126 -0.90625,-0.9375 l -1.0625,-0.875 c -0.3422,-0.28113 -0.66354,-0.57755 -0.90625,-0.90625 -0.18108,-0.33328 -0.25573,-0.33332 -0.43751,-0.96875 z"
       inkscape:connector-curvature="0"
       id="path25963"
       style="font-size:83.33329773px;font-style:normal;font-weight:400;fill:#666666;fill-opacity:1;fill-rule:nonzero;stroke:none;display:inline;font-family:MScore" />
    <path
       d="m 134.00008,237.29786 0,2.25 c 0.45209,0.2426 0.85395,0.47497 1.15626,0.65625 0.24414,0.14642 0.49603,0.3632 0.75,0.59375 0.0918,0.0834 0.19273,0.16209 0.28124,0.24999 l 0.78125,0.62501 c 0.26593,0.21587 0.50289,0.44715 0.71875,0.6875 0.023,-0.12292 0.0313,-0.25353 0.0313,-0.375 0,-0.33129 -0.15198,-0.6597 -0.40625,-1 -0.2514,-0.33645 -0.54131,-0.64126 -0.90625,-0.9375 l -1.0625,-0.875 c -0.3422,-0.28112 -0.66354,-0.57755 -0.90625,-0.90625 -0.18108,-0.33328 -0.25573,-0.33332 -0.43751,-0.96875 z"
       inkscape:connector-curvature="0"
       id="path25968"
       style="font-size:83.33329773px;font-style:normal;font-weight:400;fill:#666666;fill-opacity:1;fill-rule:nonzero;stroke:none;display:inline;font-family:MScore" />
    <path
       d="m 134.00008,235 0,2.25 c 0.45209,0.24261 0.85395,0.47497 1.15626,0.65626 0.24414,0.14641 0.49603,0.3632 0.75,0.59374 0.0918,0.0834 0.19273,0.16209 0.28124,0.25 l 0.78125,0.625 c 0.26593,0.21588 0.50289,0.44715 0.71875,0.68751 0.023,-0.12292 0.0313,-0.25353 0.0313,-0.37501 0,-0.33129 -0.15198,-0.65969 -0.40625,-0.99999 -0.2514,-0.33646 -0.54131,-0.64126 -0.90625,-0.93751 l -1.0625,-0.87499 c -0.3422,-0.28113 -0.66354,-0.57755 -0.90625,-0.90625 -0.18108,-0.33328 -0.25573,-0.33333 -0.43751,-0.96876 z"
       inkscape:connector-curvature="0"
       id="path25970"
       style="font-size:83.33329773px;font-style:normal;font-weight:400;fill:#666666;fill-opacity:1;fill-rule:nonzero;stroke:none;display:inline;font-family:MScore" />
    <path
       d="m 134.00008,241.90625 0,2.24999 c 0.45209,0.24261 0.85395,0.47498 1.15626,0.65626 0.24414,0.14641 0.49603,0.3632 0.75,0.59375 0.0918,0.0834 0.19273,0.16208 0.28124,0.24999 l 0.78125,0.625 c 0.26593,0.21588 0.50289,0.44715 0.71875,0.68751 0.023,-0.12292 0.0313,-0.25353 0.0313,-0.37501 0,-0.33128 -0.15198,-0.65969 -0.40625,-0.99999 -0.2514,-0.33645 -0.54131,-0.64126 -0.90625,-0.9375 l -1.0625,-0.875 c -0.3422,-0.28112 -0.66354,-0.57755 -0.90625,-0.90625 -0.18108,-0.33328 -0.25573,-0.33332 -0.43751,-0.96875 z"
       inkscape:connector-curvature="0"
       id="path25982"
       style="font-size:83.33329773px;font-style:normal;font-weight:400;fill:#666666;fill-opacity:1;fill-rule:nonzero;stroke:none;display:inline;font-family:MScore" />
  </g>
</svg>
