<?xml version="1.0" encoding="UTF-8" standalone="no"?>
<!-- Created with Inkscape (http://www.inkscape.org/) -->

<svg
   xmlns:dc="http://purl.org/dc/elements/1.1/"
   xmlns:cc="http://creativecommons.org/ns#"
   xmlns:rdf="http://www.w3.org/1999/02/22-rdf-syntax-ns#"
   xmlns:svg="http://www.w3.org/2000/svg"
   xmlns="http://www.w3.org/2000/svg"
   xmlns:inkscape="http://www.inkscape.org/namespaces/inkscape"
   version="1.1"
   width="16.000002"
   height="16"
   id="svg7384">
  <title
     id="title9167">MuseScore Icon Theme</title>
  <metadata
     id="metadata90">
    <rdf:RDF>
      <cc:Work
         rdf:about="">
        <dc:format>image/svg+xml</dc:format>
        <dc:type
           rdf:resource="http://purl.org/dc/dcmitype/StillImage" />
        <dc:title>MuseScore Icon Theme</dc:title>
      </cc:Work>
    </rdf:RDF>
  </metadata>
  <defs
     id="defs7386">
    <linearGradient
       id="linearGradient19282"
       gradientTransform="matrix(-2.7365795,0.40810354,-0.18908311,-1.4468561,239.54008,-1703.6896)">
      <stop
         id="stop19284"
         style="stop-color:#666666;stop-opacity:1"
         offset="0" />
    </linearGradient>
    <linearGradient
       id="linearGradient12335"
       gradientTransform="matrix(-2.7365795,0.40810354,-0.18908311,-1.4468561,239.54008,-1703.6896)">
      <stop
         id="stop12337"
         style="stop-color:#666666;stop-opacity:1"
         offset="0" />
    </linearGradient>
    <linearGradient
       id="linearGradient12339"
       gradientTransform="matrix(-2.7365795,0.40810354,-0.18908311,-1.4468561,239.54008,-1703.6896)">
      <stop
         id="stop12341"
         style="stop-color:#666666;stop-opacity:1"
         offset="0" />
    </linearGradient>
    <linearGradient
       id="linearGradient19282-9"
       gradientTransform="matrix(-2.7365795,0.40810354,-0.18908311,-1.4468561,263.493,-969.46532)">
      <stop
         id="stop19284-8"
         style="stop-color:#666666;stop-opacity:1"
         offset="0" />
    </linearGradient>
    <linearGradient
       id="linearGradient21935"
       gradientTransform="matrix(-2.7365795,0.40810354,-0.18908311,-1.4468561,239.54008,-1703.6896)">
      <stop
         id="stop21937"
         style="stop-color:#666666;stop-opacity:1"
         offset="0" />
    </linearGradient>
    <linearGradient
       id="linearGradient21939"
       gradientTransform="matrix(-2.7365795,0.40810354,-0.18908311,-1.4468561,239.54008,-1703.6896)">
      <stop
         id="stop21941"
         style="stop-color:#666666;stop-opacity:1"
         offset="0" />
    </linearGradient>
    <linearGradient
       id="linearGradient19282-9-9"
       gradientTransform="matrix(-2.7365795,0.40810354,-0.18908311,-1.4468561,263.493,-969.46532)">
      <stop
         id="stop19284-8-1"
         style="stop-color:#666666;stop-opacity:1"
         offset="0" />
    </linearGradient>
    <linearGradient
       id="linearGradient8782"
       gradientTransform="matrix(-2.7365795,0.40810354,-0.18908311,-1.4468561,263.493,-969.46532)">
      <stop
         id="stop8784"
         style="stop-color:#666666;stop-opacity:1"
         offset="0" />
    </linearGradient>
  </defs>
  <g
     transform="translate(-145.99981,-102.99995)"
     id="instruments" />
  <g
     transform="translate(-180.99981,-122.99995)"
     id="actions"
     style="display:inline">
    <path
       d="m 195.13618,124.40911 c -1.47638,0 -2.65909,1.20544 -2.65909,2.68182 0,1.47638 1.18271,2.6591 2.65909,2.6591 0.72639,0 1.38183,-0.27981 1.86363,-0.75001 l 0,-3.84091 c -0.4818,-0.47019 -1.13724,-0.75 -1.86363,-0.75 z"
       
       id="path12099"
       style="fill:#666666;fill-opacity:1;stroke:none" />
    <path
       d="m 192.07709,131.20354 a 0.89116271,0.89116271 0 0 1 0.16707,0.0278 0.89116271,0.89116271 0 0 1 0.58477,1.36446 l -2.25553,3.36937 c -0.0477,-0.12068 -0.0915,-0.24867 -0.16708,-0.362 l -0.86322,-1.28091 1.78214,-2.72892 a 0.89116271,0.89116271 0 0 1 0.75185,-0.38984 z"
       
       id="path12103"
       style="font-size:medium;font-style:normal;font-variant:normal;font-weight:normal;font-stretch:normal;text-indent:0;text-align:start;text-decoration:none;line-height:normal;letter-spacing:normal;word-spacing:normal;text-transform:none;direction:ltr;block-progression:tb;writing-mode:lr-tb;text-anchor:start;baseline-shift:baseline;color:#000000;fill:#666666;fill-opacity:1;fill-rule:nonzero;stroke:none;stroke-width:1.33333337;marker:none;visibility:visible;display:inline;overflow:visible;enable-background:accumulate;font-family:Sans;-inkscape-font-specification:Sans" />
    <path
       d="m 182.84072,124.40911 c -0.71547,0 -1.36113,0.26952 -1.84091,0.72728 l 0,3.88636 c 0.47978,0.45776 1.12544,0.72728 1.84091,0.72728 1.47638,0 2.68182,-1.18272 2.68182,-2.6591 0,-1.47638 -1.20544,-2.68182 -2.68182,-2.68182 z"
       
       id="path18635"
       style="fill:#666666;fill-opacity:1;stroke:none" />
    <path
       d="m 185.24981,130.75002 c -0.68608,0.40469 -1.47687,0.68182 -2.38636,0.68182 -0.68212,0 -1.30679,-0.16423 -1.86364,-0.40909 l 0,4.97727 5.36364,0 -0.90909,-1.36363 c -0.56226,-0.84341 -0.34338,-1.96048 0.5,-2.52273 0.12993,-0.0866 0.24714,-0.13175 0.38636,-0.18182 0.12753,-0.0701 0.2593,-0.14201 0.40909,-0.18181 -0.3787,-0.4746 -0.90797,-0.82647 -1.5,-1.00001 z"
       
       id="path18637"
       style="color:#bebebe;fill:#666666;fill-opacity:1;fill-rule:nonzero;stroke:none;stroke-width:2;marker:none;visibility:visible;display:inline;overflow:visible;enable-background:accumulate" />
    <path
       d="m 185.8125,131.21875 a 0.89116269,0.89116269 0 0 0 -0.65625,1.40625 l 3,4.46875 a 0.89281529,0.89281529 0 1 0 1.5,-0.96875 l -3,-4.5 a 0.89116269,0.89116269 0 0 0 -0.84375,-0.40625 z"
       
       id="path18639"
       style="font-size:medium;font-style:normal;font-variant:normal;font-weight:normal;font-stretch:normal;text-indent:0;text-align:start;text-decoration:none;line-height:normal;letter-spacing:normal;word-spacing:normal;text-transform:none;direction:ltr;block-progression:tb;writing-mode:lr-tb;text-anchor:start;baseline-shift:baseline;color:#000000;fill:#666666;fill-opacity:1;fill-rule:nonzero;stroke:none;stroke-width:1.78214717;marker:none;visibility:visible;display:inline;overflow:visible;enable-background:accumulate;font-family:Sans;-inkscape-font-specification:Sans" />
    <path
       d="m 192.74981,130.75002 c -0.59202,0.17354 -1.12129,0.52541 -1.5,1.00001 0.14979,0.0398 0.28157,0.11158 0.40909,0.18181 0.13923,0.0499 0.25644,0.0952 0.38637,0.18182 0.84338,0.56225 1.06226,1.67935 0.5,2.52273 l -0.90909,1.36363 5.36363,0 0,-4.97727 c -0.55684,0.24486 -1.18152,0.40909 -1.86363,0.40909 -0.90949,0 -1.70029,-0.27713 -2.38637,-0.68182 z"
       
       id="path18691"
       style="color:#bebebe;fill:#666666;fill-opacity:1;fill-rule:nonzero;stroke:none;stroke-width:2;marker:none;visibility:visible;display:inline;overflow:visible;enable-background:accumulate" />
  </g>
</svg>
