<?xml version="1.0" encoding="UTF-8" standalone="no"?>


<svg
 
 
 
 
 xmlns="http://www.w3.org/2000/svg"
 
 version="1.1"
 width="15.99999"
 height="15.99999"
 >
 <title
 >MuseScore Icon Theme</title>
 <metadata
 >
 <rdf:RDF>
 <cc:Work
 rdf:about="">
 <dc:format>image/svg+xml</dc:format>
 <dc:type
 rdf:resource="http://purl.org/dc/dcmitype/StillImage" />
 <dc:title>MuseScore Icon Theme</dc:title>
 </cc:Work>
 </rdf:RDF>
 </metadata>
 <defs
 >
 <linearGradient
 
 gradientTransform="matrix(-2.7365795,0.40810354,-0.18908311,-1.4468561,239.54008,-1703.6896)">
 <stop
 
 style="stop-;stop-opacity:1"
 offset="0" />
 </linearGradient>
 <linearGradient
 
 gradientTransform="matrix(-2.7365795,0.40810354,-0.18908311,-1.4468561,239.54008,-1703.6896)">
 <stop
 
 style="stop-;stop-opacity:1"
 offset="0" />
 </linearGradient>
 <linearGradient
 
 gradientTransform="matrix(-2.7365795,0.40810354,-0.18908311,-1.4468561,239.54008,-1703.6896)">
 <stop
 
 style="stop-;stop-opacity:1"
 offset="0" />
 </linearGradient>
 <linearGradient
 
 gradientTransform="matrix(-2.7365795,0.40810354,-0.18908311,-1.4468561,263.493,-969.46532)">
 <stop
 
 style="stop-;stop-opacity:1"
 offset="0" />
 </linearGradient>
 <linearGradient
 
 gradientTransform="matrix(-2.7365795,0.40810354,-0.18908311,-1.4468561,239.54008,-1703.6896)">
 <stop
 
 style="stop-;stop-opacity:1"
 offset="0" />
 </linearGradient>
 <linearGradient
 
 gradientTransform="matrix(-2.7365795,0.40810354,-0.18908311,-1.4468561,239.54008,-1703.6896)">
 <stop
 
 style="stop-;stop-opacity:1"
 offset="0" />
 </linearGradient>
 <linearGradient
 
 gradientTransform="matrix(-2.7365795,0.40810354,-0.18908311,-1.4468561,263.493,-969.46532)">
 <stop
 
 style="stop-;stop-opacity:1"
 offset="0" />
 </linearGradient>
 <linearGradient
 
 gradientTransform="matrix(-2.7365795,0.40810354,-0.18908311,-1.4468561,263.493,-969.46532)">
 <stop
 
 style="stop-;stop-opacity:1"
 offset="0" />
 </linearGradient>
 </defs>
 <g
 transform="translate(-173.99979,-242.99999)"
 />
 <g
 transform="translate(-208.99979,-262.99999)"
 
 style="">
 <path
 d="m 216.4375,264.5 0,0.0312 c -0.55432,0.12157 -1.03264,0.50376 -1.21875,1.03125 a 0.3636725,0.3636725 0 0 0 0,0.0312 c -0.0411,0.15314 -0.0312,0.24745 -0.0312,0.4375 0,0.26641 0.0495,0.5346 0.1875,0.78125 0.003,0.006 -0.003,0.0255 0,0.0312 0.23429,0.43799 0.6531,0.75261 1.15625,0.875 0.47391,0.13471 1.10555,-0.0325 1.78125,-0.21875 -0.0685,0.22437 -0.16484,0.47323 -0.25,0.75 -0.099,0.32179 -0.20394,0.62644 -0.28125,0.875 -0.0386,0.12428 -0.0696,0.23603 -0.0937,0.3125 -0.0242,0.0765 -0.0485,0.1697 -0.0312,0.125 -0.0433,0.10942 -0.34274,0.55926 -0.5625,0.78125 -0.0843,0.0846 -0.10584,0.0804 -0.125,0.0937 -0.0186,-0.0428 -0.0778,-0.16458 -0.125,-0.375 -0.0868,-0.34182 -0.17757,-0.60407 -0.375,-0.8125 -0.007,-0.007 -0.0246,0.007 -0.0312,0 -0.4939,-0.52234 -1.29735,-0.61372 -1.90625,-0.21875 -0.30135,0.20588 -0.53167,0.52325 -0.65625,0.84375 a 0.3636725,0.3636725 0 0 0 0,0.0312 c -0.0419,0.15187 -0.0625,0.27958 -0.0625,0.46875 0,0.26608 0.055,0.50659 0.1875,0.75 0.007,0.0133 0.0242,0.0182 0.0312,0.0312 0.2342,0.43722 0.6525,0.78371 1.15625,0.90625 l 0,-0.0312 c 0.17291,0.0489 0.32779,0.0625 0.53125,0.0625 0.20346,0 0.4325,2.4e-4 0.625,-0.0312 0.18045,-0.0337 0.38889,-0.10032 0.59375,-0.15625 -0.13192,0.4292 -0.32543,1.05088 -0.65625,2.125 -0.21394,0.69463 -0.4302,1.40887 -0.59375,1.9375 -0.0818,0.26431 -0.13809,0.49793 -0.1875,0.65625 -0.0247,0.0792 -0.0485,0.14346 -0.0625,0.1875 -0.007,0.022 -0.0276,0.0199 -0.0312,0.0312 A 0.3636725,0.3636725 0 0 0 215.375,277 c 0,5.4e-4 0.031,0.12429 0.0312,0.125 2.6e-4,7.1e-4 0.0224,0.0475 0.0312,0.0625 0.0178,0.03 0.0199,0.0182 0.0312,0.0312 0.0226,0.0262 0.0461,0.0484 0.0625,0.0625 0.0328,0.0283 0.0554,0.0693 0.0937,0.0937 0.0609,0.0388 0.15936,0.0634 0.25,0.0937 0.0236,0.008 0.0362,0.0248 0.0625,0.0312 l 0,-0.0312 c 0.19179,0.0602 0.40435,0.0669 0.59375,0 l 0,0.0312 c 0.0146,-0.004 0.0172,-0.0271 0.0312,-0.0312 0.0909,-0.0267 0.17289,-0.0457 0.25,-0.0937 0.0445,-0.0278 0.10916,-0.075 0.15625,-0.125 0.004,-0.005 -0.005,-0.0261 0,-0.0312 3e-5,-3e-5 0.0176,-0.0138 0.0312,-0.0312 0.007,-0.009 0.024,-0.021 0.0312,-0.0312 9e-5,-1.5e-4 -0.003,-0.0242 0,-0.0312 0.007,-0.0142 0.0289,-0.0252 0.0312,-0.0312 0.005,-0.012 -0.002,-0.0251 0,-0.0312 0.004,-0.0122 -0.004,-0.0189 0,-0.0312 0.005,-0.0172 0.0242,-0.0378 0.0312,-0.0625 0.003,-0.0106 -0.003,-0.0191 0,-0.0312 0.0228,-0.0812 0.0534,-0.19499 0.0937,-0.34375 0.0808,-0.29752 0.20324,-0.72467 0.34375,-1.25 0.28103,-1.05066 0.67033,-2.47947 1.09375,-4.0625 L 220.15625,265.5 a 0.3636725,0.3636725 0 0 0 -0.0312,-0.28125 l -0.0312,-0.0625 c -0.007,-0.0105 -0.0239,0.01 -0.0312,0 -0.18664,-0.24968 -0.5191,-0.28474 -0.75,-0.1875 a 0.3636725,0.3636725 0 0 0 -0.0312,0 c -0.0343,0.0169 -0.16206,0.0851 -0.21875,0.15625 -0.0567,0.0712 -0.0843,0.15671 -0.1875,0.3125 -0.15191,0.24427 -0.39061,0.54685 -0.5,0.65625 -0.0329,0.0247 -0.0527,0.0255 -0.0625,0.0312 -0.0164,-0.0325 -0.0761,-0.14976 -0.125,-0.375 -0.11318,-0.50044 -0.29778,-0.84324 -0.625,-1.0625 -0.26614,-0.17198 -0.59381,-0.18419 -0.90625,-0.15625 l 0,-0.0312 a 0.3636725,0.3636725 0 0 0 -0.125,0 c -0.0312,0.006 -0.0628,-0.008 -0.0937,0 z m 0.1875,0.6875 c 0.17502,-0.0447 0.38056,-0.004 0.53125,0.0937 0.18822,0.12612 0.24693,0.19692 0.34375,0.625 0.0526,0.24248 0.0811,0.41302 0.15625,0.5625 0.0752,0.14948 0.2044,0.25335 0.3125,0.3125 a 0.3636725,0.3636725 0 0 0 0.0625,0.0312 c 0.0456,0.0178 0.10236,-0.01 0.15625,0 -0.62619,0.16637 -1.22717,0.28742 -1.46875,0.21875 -0.31645,-0.077 -0.60217,-0.32877 -0.71875,-0.5625 -0.0932,-0.15738 -0.0937,-0.19162 -0.0937,-0.4375 0,-0.19005 -0.002,-0.12546 0.0312,-0.25 0.1151,-0.28522 0.32888,-0.49863 0.625,-0.5625 a 0.3636725,0.3636725 0 0 0 0.0312,0 0.3636725,0.3636725 0 0 0 0.0312,-0.0312 z m 2.625,0.9375 -0.1875,0.6875 c -0.0107,-0.0144 -0.0311,-0.0312 -0.0312,-0.0312 -3.9e-4,-3.4e-4 -0.0932,-0.0623 -0.0937,-0.0625 -5.7e-4,-2.3e-4 -0.042,-0.0275 -0.0625,-0.0312 -0.0658,-0.0119 -0.102,-0.004 -0.125,0 0.0291,-0.0217 0.0653,-0.0392 0.0937,-0.0625 a 0.3636725,0.3636725 0 0 0 0.0312,-0.0312 c 0.10561,-0.10562 0.24059,-0.29103 0.375,-0.46875 z m -4.3125,3.53125 c 0.3461,-0.2245 0.76628,-0.19526 1,0.0625 a 0.3636725,0.3636725 0 0 0 0,0.0312 c 0.0561,0.0547 0.11087,0.17671 0.1875,0.46875 0.003,0.0121 -0.003,0.0196 0,0.0312 0.0501,0.22145 0.11706,0.38986 0.1875,0.53125 0.0742,0.14883 0.20257,0.28386 0.3125,0.34375 a 0.3636725,0.3636725 0 0 0 0.0312,0 c 0.0783,0.0363 0.17996,0.026 0.28125,0.0312 -0.25664,0.0762 -0.51118,0.14874 -0.71875,0.1875 -0.13639,0.0223 -0.33162,0.0312 -0.5,0.0312 -0.16838,0 -0.32662,-0.0264 -0.34375,-0.0312 -0.316,-0.0769 -0.60219,-0.29811 -0.71875,-0.53125 a 0.3636725,0.3636725 0 0 0 0,-0.0312 c -0.0923,-0.16037 -0.0937,-0.16733 -0.0937,-0.40625 0,-0.16815 -0.0215,-0.17195 0,-0.25 0.003,-0.01 -0.004,-0.018 0,-0.0312 0.0797,-0.19209 0.22786,-0.33698 0.375,-0.4375 z m 3.25,0.375 -0.28125,1.0625 c -0.026,0.0972 -0.0368,0.15394 -0.0625,0.25 -0.0111,-0.0426 -0.0623,-0.12465 -0.0625,-0.125 -2.4e-4,-4.2e-4 -0.0933,-0.12468 -0.0937,-0.125 -4.7e-4,-3.2e-4 -0.0682,-0.054 -0.0937,-0.0625 -0.0256,-0.009 -0.0457,0.003 -0.0625,0 -0.0672,-0.0103 -0.10169,-0.003 -0.125,0 -0.0155,0.002 -0.019,-0.002 -0.0312,0 0.0801,-0.0576 0.17305,-0.11028 0.25,-0.1875 0.23245,-0.2348 0.4098,-0.53605 0.5625,-0.8125 z m -0.46875,1.75 c -0.33916,1.26939 -0.64181,2.50318 -0.875,3.375 -0.14042,0.525 -0.2635,0.95442 -0.34375,1.25 -0.0401,0.14779 -0.0721,0.26655 -0.0937,0.34375 -0.003,10e-4 0.003,0.0299 0,0.0312 -0.018,0.008 -0.0465,-0.004 -0.0625,0 a 0.3636725,0.3636725 0 0 0 -0.0312,0.0312 c -0.0491,0.0194 -0.0844,0.0116 -0.125,0 0.0492,-0.15767 0.10924,-0.37204 0.1875,-0.625 0.16373,-0.52921 0.37977,-1.24272 0.59375,-1.9375 0.38387,-1.24639 0.67568,-2.2269 0.75,-2.46875 z"
 
 
 style="fill:#666666;stroke-width:0.72727227" />
 <path
 d="m 216.52466,264.84965 c -0.45038,0.085 -0.79662,0.39657 -0.94848,0.82699 -0.0373,0.13884 -0.0373,0.17268 -0.0373,0.36273 0,0.26119 0.0165,0.40004 0.13884,0.60657 0.17269,0.34624 0.53542,0.62393 0.95282,0.72546 0.43041,0.12235 1.12116,0.0338 1.95248,-0.24038 0.12149,-0.0512 0.22302,-0.0885 0.22302,-0.0711 0,0.0199 -0.77579,2.54257 -0.80963,2.63021 -0.0885,0.22389 -0.38356,0.63782 -0.64128,0.89815 -0.24038,0.24124 -0.36273,0.29504 -0.55191,0.2074 -0.1562,-0.0851 -0.20739,-0.17356 -0.31239,-0.64129 -0.0877,-0.34537 -0.15534,-0.53541 -0.29418,-0.67079 -0.36273,-0.40004 -0.98666,-0.45124 -1.46827,-0.13884 -0.22736,0.15533 -0.40004,0.39657 -0.50157,0.65777 -0.0373,0.13537 -0.0373,0.17269 -0.0373,0.36186 0,0.25773 0.02,0.39744 0.13885,0.60397 0.17268,0.34538 0.53541,0.62393 0.95281,0.72546 0.19004,0.0538 0.67426,0.0538 1.00315,0 0.27421,-0.0512 0.6031,-0.13624 0.93198,-0.24124 0.13885,-0.0503 0.2612,-0.0842 0.2612,-0.0677 0,0 -1.69476,5.51556 -1.7286,5.59974 0,0.0174 0.13537,0.12235 0.27422,0.1562 0.13884,0.0547 0.27855,0.0547 0.41739,0 0.13538,-0.0339 0.27422,-0.11889 0.27422,-0.17269 0.0174,-0.0174 0.70897,-2.62675 1.55592,-5.79325 l 1.53942,-5.75593 -0.0338,-0.0503 c -0.0685,-0.105 -0.2074,-0.12236 -0.32888,-0.0712 -0.0686,0.0338 -0.0686,0.0338 -0.27509,0.34537 -0.17269,0.27769 -0.41653,0.56926 -0.55537,0.70811 -0.19004,0.15619 -0.29157,0.19004 -0.46513,0.12235 -0.15533,-0.085 -0.21,-0.17269 -0.31153,-0.64041 -0.105,-0.46426 -0.22736,-0.67513 -0.48508,-0.84782 -0.24038,-0.15533 -0.55191,-0.20653 -0.83046,-0.13537 z"
 
 
 style="fill:#666666;fill-rule:evenodd" />
 </g>
</svg>
