<?xml version="1.0" encoding="UTF-8" standalone="no"?>


<svg
 
 
 
 
 xmlns="http://www.w3.org/2000/svg"
 
 version="1.1"
 width="15.99999"
 height="15.99999"
 >
 <title
 >MuseScore Icon Theme</title>
 <metadata
 >
 <rdf:RDF>
 <cc:Work
 rdf:about="">
 <dc:format>image/svg+xml</dc:format>
 <dc:type
 rdf:resource="http://purl.org/dc/dcmitype/StillImage" />
 <dc:title>MuseScore Icon Theme</dc:title>
 </cc:Work>
 </rdf:RDF>
 </metadata>
 <defs
 >
 <linearGradient
 
 gradientTransform="matrix(-2.7365795,0.40810354,-0.18908311,-1.4468561,239.54008,-1703.6896)">
 <stop
 
 style="stop-;stop-opacity:1"
 offset="0" />
 </linearGradient>
 <linearGradient
 
 gradientTransform="matrix(-2.7365795,0.40810354,-0.18908311,-1.4468561,239.54008,-1703.6896)">
 <stop
 
 style="stop-;stop-opacity:1"
 offset="0" />
 </linearGradient>
 <linearGradient
 
 gradientTransform="matrix(-2.7365795,0.40810354,-0.18908311,-1.4468561,239.54008,-1703.6896)">
 <stop
 
 style="stop-;stop-opacity:1"
 offset="0" />
 </linearGradient>
 <linearGradient
 
 gradientTransform="matrix(-2.7365795,0.40810354,-0.18908311,-1.4468561,263.493,-969.46532)">
 <stop
 
 style="stop-;stop-opacity:1"
 offset="0" />
 </linearGradient>
 <linearGradient
 
 gradientTransform="matrix(-2.7365795,0.40810354,-0.18908311,-1.4468561,239.54008,-1703.6896)">
 <stop
 
 style="stop-;stop-opacity:1"
 offset="0" />
 </linearGradient>
 <linearGradient
 
 gradientTransform="matrix(-2.7365795,0.40810354,-0.18908311,-1.4468561,239.54008,-1703.6896)">
 <stop
 
 style="stop-;stop-opacity:1"
 offset="0" />
 </linearGradient>
 <linearGradient
 
 gradientTransform="matrix(-2.7365795,0.40810354,-0.18908311,-1.4468561,263.493,-969.46532)">
 <stop
 
 style="stop-;stop-opacity:1"
 offset="0" />
 </linearGradient>
 <linearGradient
 
 gradientTransform="matrix(-2.7365795,0.40810354,-0.18908311,-1.4468561,263.493,-969.46532)">
 <stop
 
 style="stop-;stop-opacity:1"
 offset="0" />
 </linearGradient>
 </defs>
 <g
 transform="translate(-201.99979,-242.99999)"
 />
 <g
 transform="translate(-236.99979,-262.99999)"
 
 style="">
 <path
 d="m 243.71875,266.625 c -0.58066,0.10937 -1.02183,0.51986 -1.21875,1.0625 a 0.3636725,0.3636725 0 0 0 0,0.0312 c -0.0373,0.15319 -0.0625,0.27714 -0.0625,0.46875 0,0.27864 0.035,0.52383 0.1875,0.78125 0.23022,0.4616 0.6689,0.77905 1.1875,0.90625 0.46658,0.13158 1.10308,-0.0455 1.75,-0.21875 l -0.8125,2.25 -1.03125,2.84375 a 0.3636725,0.3636725 0 0 0 0.1875,0.4375 c 0,0 0.0217,0.003 0.0625,0.0312 0.19017,0.12669 0.36885,0.1875 0.59375,0.1875 0.17389,0 0.32858,-0.0308 0.46875,-0.0937 0.14017,-0.063 0.28644,-0.10022 0.375,-0.375 a 0.3636725,0.3636725 0 0 0 0.0312,-0.0312 c 2.4e-4,-10e-4 -0.001,-0.0243 0,-0.0312 0.003,-0.0104 -0.007,-0.006 0,-0.0312 a 0.3636725,0.3636725 0 0 0 0,-0.0312 c 0.0137,-0.049 0.0388,-0.10519 0.0625,-0.1875 0.0546,-0.18967 0.15213,-0.48051 0.25,-0.8125 0.19573,-0.66398 0.45444,-1.5475 0.75,-2.53125 a 0.3636725,0.3636725 0 0 0 0,-0.0312 l 1.03125,-3.59375 a 0.3636725,0.3636725 0 0 0 -0.0312,-0.3125 l -0.0312,-0.0312 a 0.3636725,0.3636725 0 0 0 -0.0312,-0.0312 c -0.21281,-0.26537 -0.58037,-0.3593 -0.875,-0.125 a 0.3636725,0.3636725 0 0 0 -0.0312,0.0312 c -0.078,0.078 -0.10969,0.14823 -0.15625,0.21875 -0.11576,0.19357 -0.54958,0.69718 -0.6875,0.8125 -0.0753,0.0619 -0.10882,0.0657 -0.0937,0.0625 -0.017,-0.034 -0.0738,-0.1468 -0.125,-0.375 -0.11039,-0.50477 -0.29132,-0.87314 -0.625,-1.09375 -0.23961,-0.15428 -0.53253,-0.13041 -0.8125,-0.125 a 0.3636725,0.3636725 0 0 0 -0.0625,-0.0312 0.3636725,0.3636725 0 0 0 -0.15625,-0.0312 c -0.0208,0.004 -0.0418,-0.005 -0.0625,0 a 0.3636725,0.3636725 0 0 0 -0.0312,0 z m 0.125,0.71875 a 0.3636725,0.3636725 0 0 0 0.0312,0 c 0.17061,-0.0443 0.4085,-0.005 0.5625,0.0937 0.1755,0.11927 0.25293,0.20973 0.34375,0.625 0.0546,0.24339 0.0816,0.38172 0.15625,0.53125 0.0747,0.14953 0.20239,0.28376 0.3125,0.34375 a 0.3636725,0.3636725 0 0 0 0.0312,0.0312 c -0.52169,0.11511 -1.07711,0.27632 -1.28125,0.21875 a 0.3636725,0.3636725 0 0 0 0,-0.0312 c -0.31608,-0.0775 -0.60075,-0.29467 -0.71875,-0.53125 a 0.3636725,0.3636725 0 0 0 -0.0312,-0.0312 c -0.0942,-0.15906 -0.0937,-0.15817 -0.0937,-0.40625 0,-0.17058 0.0107,-0.16523 0.0312,-0.25 0.11497,-0.31681 0.34015,-0.5257 0.65625,-0.59375 z m 2.78125,0.875 -0.21875,0.75 a 0.3636725,0.3636725 0 0 0 -0.375,-0.125 c 0.0315,-0.0224 0.0636,-0.0377 0.0937,-0.0625 a 0.3636725,0.3636725 0 0 0 0.0312,0 c 0.15588,-0.13033 0.30248,-0.35972 0.46875,-0.5625 z m -0.9375,3.21875 c -0.24485,0.81697 -0.48896,1.62 -0.65625,2.1875 -0.0981,0.33285 -0.16336,0.58893 -0.21875,0.78125 -0.0277,0.0962 -0.0473,0.1952 -0.0625,0.25 -0.008,0.0274 -0.0265,0.0439 -0.0312,0.0625 0.0544,-0.16892 0.0521,-0.0859 0,-0.0625 -0.0521,0.0234 -0.12191,0.0312 -0.15625,0.0312 -0.003,0 -0.0226,0.002 -0.0312,0 l 0.90625,-2.53125 0.25,-0.71875 z"
 
 
 style="fill:#666666;stroke-width:0.72727227" />
 <path
 d="m 243.79894,266.98112 c -0.45497,0.0857 -0.80319,0.39984 -0.96067,0.8338 -0.0341,0.13999 -0.0341,0.17411 -0.0341,0.36572 0,0.26336 0.0166,0.40334 0.13998,0.61158 0.17411,0.34909 0.53983,0.62907 0.95717,0.73143 0.43746,0.12337 1.1689,0.0175 2.00621,-0.25985 l 0.20823,-0.0717 -1.02891,2.8435 -1.01142,2.84001 c 0,0 0.0341,0.0175 0.0892,0.0551 0.10237,0.0682 0.27648,0.11987 0.39985,0.11987 0.20823,0 0.47158,-0.11987 0.5057,-0.22573 0,-0.0341 0.48821,-1.69211 1.07966,-3.66069 l 1.04554,-3.60907 -0.0341,-0.0507 c -0.0849,-0.10587 -0.25897,-0.13999 -0.36572,-0.0551 -0.0341,0.0341 -0.0884,0.10586 -0.12248,0.15748 -0.15749,0.26335 -0.55733,0.73144 -0.76556,0.90555 -0.19161,0.15749 -0.29748,0.17411 -0.47159,0.10587 -0.15749,-0.0858 -0.20911,-0.17411 -0.31497,-0.6457 -0.10237,-0.46808 -0.22486,-0.68069 -0.48821,-0.8548 -0.24323,-0.15661 -0.55733,-0.20823 -0.8338,-0.13649 z"
 
 
 style="fill:#666666;fill-rule:evenodd" />
 </g>
</svg>
