<?xml version="1.0" encoding="UTF-8" standalone="no"?>


<svg
 
 
 
 
 xmlns="http://www.w3.org/2000/svg"
 
 version="1.1"
 width="17.999887"
 height="17.999887"
 >
 <title
 >MuseScore Icon Theme</title>
 <metadata
 >
 <rdf:RDF>
 <cc:Work
 rdf:about="">
 <dc:format>image/svg+xml</dc:format>
 <dc:type
 rdf:resource="http://purl.org/dc/dcmitype/StillImage" />
 <dc:title>MuseScore Icon Theme</dc:title>
 </cc:Work>
 </rdf:RDF>
 </metadata>
 <defs
 >
 <linearGradient
 
 gradientTransform="matrix(-2.7365795,0.40810354,-0.18908311,-1.4468561,239.54008,-1703.6896)">
 <stop
 
 style="stop-;stop-opacity:1"
 offset="0" />
 </linearGradient>
 <linearGradient
 
 gradientTransform="matrix(-2.7365795,0.40810354,-0.18908311,-1.4468561,239.54008,-1703.6896)">
 <stop
 
 style="stop-;stop-opacity:1"
 offset="0" />
 </linearGradient>
 <linearGradient
 
 gradientTransform="matrix(-2.7365795,0.40810354,-0.18908311,-1.4468561,239.54008,-1703.6896)">
 <stop
 
 style="stop-;stop-opacity:1"
 offset="0" />
 </linearGradient>
 <linearGradient
 
 gradientTransform="matrix(-2.7365795,0.40810354,-0.18908311,-1.4468561,263.493,-969.46532)">
 <stop
 
 style="stop-;stop-opacity:1"
 offset="0" />
 </linearGradient>
 <linearGradient
 
 gradientTransform="matrix(-2.7365795,0.40810354,-0.18908311,-1.4468561,239.54008,-1703.6896)">
 <stop
 
 style="stop-;stop-opacity:1"
 offset="0" />
 </linearGradient>
 <linearGradient
 
 gradientTransform="matrix(-2.7365795,0.40810354,-0.18908311,-1.4468561,239.54008,-1703.6896)">
 <stop
 
 style="stop-;stop-opacity:1"
 offset="0" />
 </linearGradient>
 <linearGradient
 
 gradientTransform="matrix(-2.7365795,0.40810354,-0.18908311,-1.4468561,263.493,-969.46532)">
 <stop
 
 style="stop-;stop-opacity:1"
 offset="0" />
 </linearGradient>
 <linearGradient
 
 gradientTransform="matrix(-2.7365795,0.40810354,-0.18908311,-1.4468561,263.493,-969.46532)">
 <stop
 
 style="stop-;stop-opacity:1"
 offset="0" />
 </linearGradient>
 </defs>
 <g
 transform="translate(-33.999816,-214.00001)"
 />
 <g
 transform="translate(-68.999816,-234.00001)"
 
 style="">
 <rect
 width="17.999887"
 height="17.999887"
 x="68.999817"
 y="234.00002"
 
 style="fill:none;stroke-width:2" />
 <path
 d="m 77.647896,236.53126 c -0.735993,0.21114 -0.279685,1.10077 0.08179,1.46119 0.353641,0.42292 0.495346,1.03229 0.211454,1.53069 -0.437386,0.83694 -1.344378,1.28038 -1.850895,2.06887 -0.504762,0.50587 -0.320916,1.1474 0.118507,1.62167 0.418666,0.58296 0.93938,1.08048 1.41577,1.6144 0.163427,0.23814 0.232074,0.47466 -0.151559,0.31095 -0.548862,-0.10609 -1.235547,-0.30322 -1.674778,0.16716 -0.51519,0.50123 -0.494141,1.30343 -0.225111,1.92123 0.239826,0.63057 0.656029,1.16975 0.970329,1.76198 0.04286,0.72448 1.114542,0.43207 0.846985,-0.23279 -0.102487,-0.54963 -0.572846,-1.24945 0.04613,-1.67975 0.518385,-0.40796 1.304215,-0.46458 1.829677,-0.0365 0.622976,0.48661 1.118524,-0.39322 0.714044,-0.90317 -0.217258,-0.53502 -0.813032,-0.71571 -1.12857,-1.16924 -0.589238,-0.74959 -0.642326,-2.02632 0.183464,-2.62668 0.662834,-0.52652 1.446651,-1.10809 1.563549,-2.01088 0.07987,-0.46377 -0.185332,-0.87399 -0.484906,-1.19861 -0.731729,-0.91116 -1.484529,-1.82217 -2.359391,-2.59618 l -0.106537,-0.005 4.5e-5,-1.2e-4 z"
 
 
 style="fill:#666666" />
 </g>
</svg>
