<?xml version="1.0" encoding="UTF-8" standalone="no"?>


<svg
 
 
 
 
 xmlns="http://www.w3.org/2000/svg"
 
 version="1.1"
 width="15.99999"
 height="15.99999"
 >
 <title
 >MuseScore Icon Theme</title>
 <metadata
 >
 <rdf:RDF>
 <cc:Work
 rdf:about="">
 <dc:format>image/svg+xml</dc:format>
 <dc:type
 rdf:resource="http://purl.org/dc/dcmitype/StillImage" />
 <dc:title>MuseScore Icon Theme</dc:title>
 </cc:Work>
 </rdf:RDF>
 </metadata>
 <defs
 >
 <linearGradient
 
 gradientTransform="matrix(-2.7365795,0.40810354,-0.18908311,-1.4468561,239.54008,-1703.6896)">
 <stop
 
 style="stop-;stop-opacity:1"
 offset="0" />
 </linearGradient>
 <linearGradient
 
 gradientTransform="matrix(-2.7365795,0.40810354,-0.18908311,-1.4468561,239.54008,-1703.6896)">
 <stop
 
 style="stop-;stop-opacity:1"
 offset="0" />
 </linearGradient>
 <linearGradient
 
 gradientTransform="matrix(-2.7365795,0.40810354,-0.18908311,-1.4468561,239.54008,-1703.6896)">
 <stop
 
 style="stop-;stop-opacity:1"
 offset="0" />
 </linearGradient>
 <linearGradient
 
 gradientTransform="matrix(-2.7365795,0.40810354,-0.18908311,-1.4468561,263.493,-969.46532)">
 <stop
 
 style="stop-;stop-opacity:1"
 offset="0" />
 </linearGradient>
 <linearGradient
 
 gradientTransform="matrix(-2.7365795,0.40810354,-0.18908311,-1.4468561,239.54008,-1703.6896)">
 <stop
 
 style="stop-;stop-opacity:1"
 offset="0" />
 </linearGradient>
 <linearGradient
 
 gradientTransform="matrix(-2.7365795,0.40810354,-0.18908311,-1.4468561,239.54008,-1703.6896)">
 <stop
 
 style="stop-;stop-opacity:1"
 offset="0" />
 </linearGradient>
 <linearGradient
 
 gradientTransform="matrix(-2.7365795,0.40810354,-0.18908311,-1.4468561,263.493,-969.46532)">
 <stop
 
 style="stop-;stop-opacity:1"
 offset="0" />
 </linearGradient>
 <linearGradient
 
 gradientTransform="matrix(-2.7365795,0.40810354,-0.18908311,-1.4468561,263.493,-969.46532)">
 <stop
 
 style="stop-;stop-opacity:1"
 offset="0" />
 </linearGradient>
 </defs>
 <g
 transform="translate(-229.99979,-242.99999)"
 />
 <g
 transform="translate(-264.99979,-262.99999)"
 
 style="">
 <path
 d="m 272.65856,264.75478 c -0.71369,0.20474 -0.27121,1.06742 0.0793,1.41693 0.34293,0.4101 0.48034,1.001 0.20505,1.48431 -0.42414,0.81158 -1.30365,1.24158 -1.79482,2.00618 -0.48947,0.49055 -0.31119,1.11264 0.11492,1.57254 0.40598,0.5653 0.91092,1.04775 1.37287,1.56549 0.15848,0.23092 0.22505,0.46028 -0.14696,0.30153 -0.53224,-0.10288 -1.19812,-0.29404 -1.62404,0.1621 -0.49958,0.48604 -0.47917,1.26393 -0.21829,1.86302 0.23256,0.61146 0.63615,1.1343 0.94093,1.70859 0.0416,0.70253 1.08077,0.41898 0.82132,-0.22573 -0.0994,-0.53299 -0.55549,-1.2116 0.0447,-1.62886 0.50268,-0.39561 1.2647,-0.45051 1.77424,-0.0353 0.6041,0.47187 1.08464,-0.3813 0.69241,-0.87581 -0.21067,-0.5188 -0.7884,-0.69402 -1.09437,-1.13381 -0.57139,-0.72688 -0.62287,-1.96493 0.1779,-2.5471 0.64275,-0.51057 1.40282,-1.07451 1.51618,-1.94996 0.0774,-0.44971 -0.17972,-0.8475 -0.47022,-1.16229 -0.70955,-0.88355 -1.43955,-1.76696 -2.2879,-2.51752 l -0.10331,-0.004 4e-5,-1.1e-4 z"
 
 
 style="fill:#666666" />
 </g>
</svg>
