<?xml version="1.0" encoding="UTF-8" standalone="no"?>
<!-- Created with Inkscape (http://www.inkscape.org/) -->

<svg
   xmlns:dc="http://purl.org/dc/elements/1.1/"
   xmlns:cc="http://creativecommons.org/ns#"
   xmlns:rdf="http://www.w3.org/1999/02/22-rdf-syntax-ns#"
   xmlns:svg="http://www.w3.org/2000/svg"
   xmlns="http://www.w3.org/2000/svg"
   xmlns:inkscape="http://www.inkscape.org/namespaces/inkscape"
   version="1.1"
   width="16"
   height="16.000013"
   id="svg7384">
  <title
     id="title9167">MuseScore Icon Theme</title>
  <metadata
     id="metadata90">
    <rdf:RDF>
      <cc:Work
         rdf:about="">
        <dc:format>image/svg+xml</dc:format>
        <dc:type
           rdf:resource="http://purl.org/dc/dcmitype/StillImage" />
        <dc:title>MuseScore Icon Theme</dc:title>
      </cc:Work>
    </rdf:RDF>
  </metadata>
  <defs
     id="defs7386">
    <linearGradient
       id="linearGradient19282"
       gradientTransform="matrix(-2.7365795,0.40810354,-0.18908311,-1.4468561,239.54008,-1703.6896)">
      <stop
         id="stop19284"
         style="stop-color:#666666;stop-opacity:1"
         offset="0" />
    </linearGradient>
    <linearGradient
       id="linearGradient12335"
       gradientTransform="matrix(-2.7365795,0.40810354,-0.18908311,-1.4468561,239.54008,-1703.6896)">
      <stop
         id="stop12337"
         style="stop-color:#666666;stop-opacity:1"
         offset="0" />
    </linearGradient>
    <linearGradient
       id="linearGradient12339"
       gradientTransform="matrix(-2.7365795,0.40810354,-0.18908311,-1.4468561,239.54008,-1703.6896)">
      <stop
         id="stop12341"
         style="stop-color:#666666;stop-opacity:1"
         offset="0" />
    </linearGradient>
    <linearGradient
       id="linearGradient19282-9"
       gradientTransform="matrix(-2.7365795,0.40810354,-0.18908311,-1.4468561,263.493,-969.46532)">
      <stop
         id="stop19284-8"
         style="stop-color:#666666;stop-opacity:1"
         offset="0" />
    </linearGradient>
    <linearGradient
       id="linearGradient21935"
       gradientTransform="matrix(-2.7365795,0.40810354,-0.18908311,-1.4468561,239.54008,-1703.6896)">
      <stop
         id="stop21937"
         style="stop-color:#666666;stop-opacity:1"
         offset="0" />
    </linearGradient>
    <linearGradient
       id="linearGradient21939"
       gradientTransform="matrix(-2.7365795,0.40810354,-0.18908311,-1.4468561,239.54008,-1703.6896)">
      <stop
         id="stop21941"
         style="stop-color:#666666;stop-opacity:1"
         offset="0" />
    </linearGradient>
    <linearGradient
       id="linearGradient19282-9-9"
       gradientTransform="matrix(-2.7365795,0.40810354,-0.18908311,-1.4468561,263.493,-969.46532)">
      <stop
         id="stop19284-8-1"
         style="stop-color:#666666;stop-opacity:1"
         offset="0" />
    </linearGradient>
    <linearGradient
       id="linearGradient8782"
       gradientTransform="matrix(-2.7365795,0.40810354,-0.18908311,-1.4468561,263.493,-969.46532)">
      <stop
         id="stop8784"
         style="stop-color:#666666;stop-opacity:1"
         offset="0" />
    </linearGradient>
  </defs>
  <g
     transform="translate(-593.99976,-214.99998)"
     id="instruments" />
  <g
     transform="translate(-628.99976,-234.99998)"
     id="actions"
     style="display:inline">
    <path
       d="m 632.99865,251 -1.99918,0 0,-7.831 1.99918,0 z"
       
       id="use26733"
       style="color:#000000;fill:#666666;fill-opacity:1;fill-rule:nonzero;stroke:none;stroke-width:1.50800002;marker:none;visibility:visible;display:inline;overflow:visible;enable-background:new" />
    <path
       d="m 635.00542,240.00777 c -0.97331,0 -1.88429,0.35633 -2.73295,1.06898 -0.84866,0.71265 -1.273,1.47875 -1.273,2.29829 0,0.49886 0.18399,0.89972 0.55194,1.2026 0.36795,0.30287 0.84866,0.45431 1.44213,0.45431 0.97329,0 1.88426,-0.35633 2.73293,-1.06897 0.84867,-0.71265 1.27301,-1.47875 1.27301,-2.2983 0,-0.49884 -0.18398,-0.89971 -0.55193,-1.20258 -0.36796,-0.30288 -0.84868,-0.45433 -1.44213,-0.45433"
       
       id="path44-6-7-6"
       style="font-size:83.33329773px;font-style:normal;font-weight:400;fill:#666666;fill-opacity:1;fill-rule:nonzero;stroke:none;font-family:MScore" />
    <path
       d="m 634.99998,235 0,3.99999 c 0.73908,0 1.43646,0.21559 2,0.65625 l 0,-4.65624 -2,0 z"
       
       id="rect26775"
       style="fill:#666666;fill-opacity:1;stroke:none" />
    <path
       d="m 641.23114,241.32153 a 0.71256681,0.71198687 30 0 1 1.00313,-0.0969 c 1.46521,0.84595 1.78395,2.81633 0.89478,4.35643 -0.57699,0.99937 -1.55923,1.65227 -2.58235,1.75402 l 0.49812,1.85597 -3.24758,-1.87498 0.65572,-1.13573 0.0351,-0.0609 a 0.71256681,0.71198687 30 0 1 0.17562,-0.30421 l 0.2576,-0.44616 0.74939,-1.29799 0.49812,1.85597 c 0.008,5.2e-4 0.0132,0.0115 0.0205,0.0112 0.61235,0.0326 1.30256,-0.3342 1.72209,-1.06088 0.55939,-0.9689 0.30761,-2.03978 -0.37948,-2.43646 a 0.71256681,0.71198687 30 0 1 -0.3006,-1.12006 z"
       
       id="path27449"
       style="fill:#666666;stroke:none;display:inline" />
    <path
       d="m 643.70272,239.93391 -3.74935,0.0687 0.069,3.74623 z"
       
       id="path4266"
       style="fill:#666666;stroke:none;display:inline" />
  </g>
</svg>
