<?xml version="1.0" encoding="UTF-8" standalone="no"?>
<!-- Created with Inkscape (http://www.inkscape.org/) -->

<svg
   xmlns:dc="http://purl.org/dc/elements/1.1/"
   xmlns:cc="http://creativecommons.org/ns#"
   xmlns:rdf="http://www.w3.org/1999/02/22-rdf-syntax-ns#"
   xmlns:svg="http://www.w3.org/2000/svg"
   xmlns="http://www.w3.org/2000/svg"
   xmlns:inkscape="http://www.inkscape.org/namespaces/inkscape"
   version="1.1"
   width="16"
   height="16"
   id="svg7384">
  <title
     id="title9167">MuseScore Icon Theme</title>
  <metadata
     id="metadata90">
    <rdf:RDF>
      <cc:Work
         rdf:about="">
        <dc:format>image/svg+xml</dc:format>
        <dc:type
           rdf:resource="http://purl.org/dc/dcmitype/StillImage" />
        <dc:title>MuseScore Icon Theme</dc:title>
      </cc:Work>
    </rdf:RDF>
  </metadata>
  <defs
     id="defs7386">
    <linearGradient
       id="linearGradient19282"
       gradientTransform="matrix(-2.7365795,0.40810354,-0.18908311,-1.4468561,239.54008,-1703.6896)">
      <stop
         id="stop19284"
         style="stop-color:#666666;stop-opacity:1"
         offset="0" />
    </linearGradient>
    <linearGradient
       id="linearGradient12335"
       gradientTransform="matrix(-2.7365795,0.40810354,-0.18908311,-1.4468561,239.54008,-1703.6896)">
      <stop
         id="stop12337"
         style="stop-color:#666666;stop-opacity:1"
         offset="0" />
    </linearGradient>
    <linearGradient
       id="linearGradient12339"
       gradientTransform="matrix(-2.7365795,0.40810354,-0.18908311,-1.4468561,239.54008,-1703.6896)">
      <stop
         id="stop12341"
         style="stop-color:#666666;stop-opacity:1"
         offset="0" />
    </linearGradient>
    <linearGradient
       id="linearGradient19282-9"
       gradientTransform="matrix(-2.7365795,0.40810354,-0.18908311,-1.4468561,263.493,-969.46532)">
      <stop
         id="stop19284-8"
         style="stop-color:#666666;stop-opacity:1"
         offset="0" />
    </linearGradient>
    <linearGradient
       id="linearGradient21935"
       gradientTransform="matrix(-2.7365795,0.40810354,-0.18908311,-1.4468561,239.54008,-1703.6896)">
      <stop
         id="stop21937"
         style="stop-color:#666666;stop-opacity:1"
         offset="0" />
    </linearGradient>
    <linearGradient
       id="linearGradient21939"
       gradientTransform="matrix(-2.7365795,0.40810354,-0.18908311,-1.4468561,239.54008,-1703.6896)">
      <stop
         id="stop21941"
         style="stop-color:#666666;stop-opacity:1"
         offset="0" />
    </linearGradient>
    <linearGradient
       id="linearGradient19282-9-9"
       gradientTransform="matrix(-2.7365795,0.40810354,-0.18908311,-1.4468561,263.493,-969.46532)">
      <stop
         id="stop19284-8-1"
         style="stop-color:#666666;stop-opacity:1"
         offset="0" />
    </linearGradient>
    <linearGradient
       id="linearGradient8782"
       gradientTransform="matrix(-2.7365795,0.40810354,-0.18908311,-1.4468561,263.493,-969.46532)">
      <stop
         id="stop8784"
         style="stop-color:#666666;stop-opacity:1"
         offset="0" />
    </linearGradient>
  </defs>
  <g
     transform="translate(-145.99981,-270.99999)"
     id="instruments" />
  <g
     transform="translate(-180.99981,-290.99999)"
     id="actions"
     style="display:inline">
    <path
       d="m 193.90606,292.96874 a 1.0001,1.0001 0 0 0 -0.125,0.0312 1.0001,1.0001 0 0 0 -0.78125,1 l 0,1.6875 c -0.38225,-0.57796 -0.84927,-1.08223 -1.40625,-1.5 -1.15563,-0.86677 -2.53199,-1.25227 -3.875,-1.1875 -0.19186,0.009 -0.37223,0.0353 -0.5625,0.0625 -1.52218,0.21741 -2.97815,1.02304 -3.96875,2.34375 -1.98119,2.64144 -1.42267,6.42505 1.21875,8.40625 2.64147,1.98122 6.42504,1.42267 8.40625,-1.21875 a 1.0063276,1.0063276 0 0 0 0.1875,-0.59375 1.0063276,1.0063276 0 0 0 0,-0.15625 l 0,-0.84375 -0.8125,0 -0.0937,0 a 1.0063276,1.0063276 0 0 0 -0.0937,0 1.0063276,1.0063276 0 0 0 -0.8125,0.40625 c -1.33265,1.77674 -3.81702,2.11387 -5.59375,0.78125 -1.77674,-1.33264 -2.1139,-3.81699 -0.78125,-5.59375 1.33265,-1.77674 3.817,-2.11389 5.59375,-0.78125 0.42946,0.32212 0.76954,0.73295 1.03125,1.1875 l -1.4375,0 a 1.0001,1.0001 0 0 0 -1,1 1.0001,1.0001 0 0 0 0,0.21875 l 0,0.78125 0.84375,0 0.15625,0 4,0 1,0 0,-1 0,-4 a 1.0001,1.0001 0 0 0 0,-0.1875 l 0,-0.8125 -0.8125,0 a 1.0001,1.0001 0 0 0 -0.28125,-0.0312 z"
       
       id="path4597-8"
       style="font-size:medium;font-style:normal;font-variant:normal;font-weight:normal;font-stretch:normal;text-indent:0;text-align:start;text-decoration:none;line-height:normal;letter-spacing:normal;word-spacing:normal;text-transform:none;direction:ltr;block-progression:tb;writing-mode:lr-tb;text-anchor:start;baseline-shift:baseline;color:#bebebe;fill:#666666;fill-opacity:1;stroke:none;stroke-width:2;marker:none;visibility:visible;display:inline;overflow:visible;enable-background:accumulate;font-family:Sans;-inkscape-font-specification:Sans" />
  </g>
</svg>
