<?xml version="1.0" encoding="UTF-8" standalone="no"?>
<svg
   xmlns:dc="http://purl.org/dc/elements/1.1/"
   xmlns:cc="http://creativecommons.org/ns#"
   xmlns:rdf="http://www.w3.org/1999/02/22-rdf-syntax-ns#"
   xmlns:svg="http://www.w3.org/2000/svg"
   xmlns="http://www.w3.org/2000/svg"
   xmlns:sodipodi="http://sodipodi.sourceforge.net/DTD/sodipodi-0.dtd"
   xmlns:inkscape="http://www.inkscape.org/namespaces/inkscape"
   height="16"
   version="1.1"
   width="16"
   id="svg2"
   inkscape:version="0.48.4 r9939"
   sodipodi:docname="window-detach.svg">
  <metadata
     id="metadata16">
    <rdf:RDF>
      <cc:Work
         rdf:about="">
        <dc:format>image/svg+xml</dc:format>
        <dc:type
           rdf:resource="http://purl.org/dc/dcmitype/StillImage" />
      </cc:Work>
    </rdf:RDF>
  </metadata>
  <defs
     id="defs14" />
  <sodipodi:namedview
     pagecolor="#ffffff"
     bordercolor="#666666"
     borderopacity="1"
     objecttolerance="10"
     gridtolerance="10"
     guidetolerance="10"
     inkscape:pageopacity="0"
     inkscape:pageshadow="2"
     inkscape:window-width="1920"
     inkscape:window-height="1014"
     id="namedview12"
     showgrid="false"
     inkscape:zoom="1"
     inkscape:cx="8.1535844"
     inkscape:cy="-9.8035624"
     inkscape:window-x="0"
     inkscape:window-y="27"
     inkscape:window-maximized="1"
     inkscape:current-layer="g4" />
  <g
     transform="translate(-96.99981,-290.99999)"
     id="g4">
    <path
       style="font-size:medium;font-style:normal;font-variant:normal;font-weight:normal;font-stretch:normal;text-indent:0;text-align:start;text-decoration:none;line-height:normal;letter-spacing:normal;word-spacing:normal;text-transform:none;direction:ltr;block-progression:tb;writing-mode:lr-tb;text-anchor:start;baseline-shift:baseline;color:#000000;fill:#ffffff;fill-opacity:1;fill-rule:nonzero;stroke:none;stroke-width:2;marker:none;visibility:visible;display:inline;overflow:visible;enable-background:accumulate;font-family:Sans;-inkscape-font-specification:Sans"
       d="m 102.99981,292.99999 c 0.0128,0.76426 -0.0274,1.53145 0.0237,2.29363 0.1406,0.50721 -0.0288,-0.004 -0.11448,-0.20563 -0.0845,-0.18712 -0.39596,-0.0424 -0.57728,-0.088 -1.11065,0 -2.22129,0 -3.33194,0 0,3.33333 0,6.66667 0,10 3.33333,0 6.66667,0 10,0 0,-1.28125 0,-2.5625 0,-3.84375 -0.26005,-0.10723 -0.49671,-0.21156 -0.0192,-0.14645 0.67304,-0.003 1.34609,-0.0146 2.01924,-0.01 0,-2.66667 0,-5.33333 0,-8 -2.66667,0 -5.33333,0 -8,0 z m 5.96875,2 c 0.0209,0.11841 -0.27598,0.29572 -0.38048,0.43549 -0.43567,0.42775 -0.87134,0.85551 -1.30702,1.28326 0.5625,-0.57292 1.125,-1.14583 1.6875,-1.71875 z m -5.71875,0.90625 c 0.15841,0.46417 0.96838,0.66916 1.053,0.91575 -0.15269,0.28694 -0.28603,0.0698 -0.42097,-0.10547 -0.21756,-0.26446 -0.46698,-0.50722 -0.63203,-0.81028 z m 3.96875,3.75 c 0.11664,0.33844 0.47933,0.78917 0.0396,0.339 -0.16089,-0.14509 -0.26262,-0.17928 -0.0396,-0.339 z m -3,0.0937 c 0.096,-0.0161 -0.0161,0.096 0,0 z"
       id="path2993"
       inkscape:connector-curvature="0" />
    <rect
       height="16"
       style="fill:none;stroke-width:2"
       transform="scale(1,-1)"
       width="16"
       x="96.999809"
       y="-307"
       id="rect6" />
    <path
       d="m 100,296 0,1 0,6 0,1 1,0 6,0 1,0 0,-1 0,-1.1875 c -0.36175,-0.15906 -0.65158,-0.40332 -0.9375,-0.65625 -0.31543,0.30393 -0.67721,0.51649 -1.0625,0.65625 l 0,0.1875 -0.84375,0 -3.15625,0 0,-4 0.21875,0 c 0.12999,-0.33972 0.32457,-0.66911 0.59375,-0.96875 -0.26819,-0.29346 -0.48125,-0.64273 -0.625,-1.03125 l -1.1875,0 -1,0 z"
       style="fill:#373b41;stroke-width:2"
       id="path8" />
    <path
       d="m 104,294 c 0,0 0,0.67185 0,1 5e-5,0.52358 0.47642,0.99995 1,1 l 1.5625,0 -3.03125,3.03125 c -0.54282,0.50131 -0.22703,1.58685 0.5,1.71875 0.33272,0.0744 0.70066,-0.036 0.9375,-0.28125 L 108,297.4375 108,299 c -0.011,0.4581 0.3341,0.89986 0.78125,1 0.40517,0.0224 0.79402,0 1.21875,0 l 0,-6 z"
       style="fill:#373b41;stroke-width:2;enable-background:new"
       id="path10" />
  </g>
</svg>
