<?xml version="1.0" encoding="UTF-8" standalone="no"?>
<svg
   xmlns:dc="http://purl.org/dc/elements/1.1/"
   xmlns:cc="http://creativecommons.org/ns#"
   xmlns:rdf="http://www.w3.org/1999/02/22-rdf-syntax-ns#"
   xmlns:svg="http://www.w3.org/2000/svg"
   xmlns="http://www.w3.org/2000/svg"
   xmlns:sodipodi="http://sodipodi.sourceforge.net/DTD/sodipodi-0.dtd"
   xmlns:inkscape="http://www.inkscape.org/namespaces/inkscape"
   height="16"
   version="1.1"
   width="16"
   id="svg2"
   inkscape:version="0.48.4 r9939"
   sodipodi:docname="window-close.svg">
  <metadata
     id="metadata16">
    <rdf:RDF>
      <cc:Work
         rdf:about="">
        <dc:format>image/svg+xml</dc:format>
        <dc:type
           rdf:resource="http://purl.org/dc/dcmitype/StillImage" />
        <dc:title></dc:title>
      </cc:Work>
    </rdf:RDF>
  </metadata>
  <defs
     id="defs14" />
  <sodipodi:namedview
     pagecolor="#ffffff"
     bordercolor="#666666"
     borderopacity="1"
     objecttolerance="10"
     gridtolerance="10"
     guidetolerance="10"
     inkscape:pageopacity="0"
     inkscape:pageshadow="2"
     inkscape:window-width="1920"
     inkscape:window-height="1014"
     id="namedview12"
     showgrid="false"
     inkscape:zoom="1"
     inkscape:cx="12.981107"
     inkscape:cy="9.6612348"
     inkscape:window-x="0"
     inkscape:window-y="27"
     inkscape:window-maximized="1"
     inkscape:current-layer="svg2" />
  <g
     transform="translate(-68.999785,-290.99999)"
     id="g4">
    <path
       id="path3772"
       transform="translate(68.999785,290.99999)"
       d="M 4 4 L 4 5 C 4 5 4 5.5 4.5 6 L 6.5 8 L 4.5 10 C 4 10.5 4 11 4 11 L 4 12 L 5 12 C 5.5 12 6 11.5 6 11.5 L 8 9.5 L 10 11.5 C 10 11.5 10.5 12 11 12 L 12 12 L 12 11 C 12 11 12 10.5 11.5 10 L 9.5 8 L 11.5 6 C 12 5.5 12 5 12 5 L 12 4 L 11 4 C 10.5 4 10 4.5 10 4.5 L 8 6.5 L 6 4.5 C 6 4.5 5.5 4 5 4 L 4 4 z "
       style="fill:#303338;stroke-width:2;stroke-miterlimit:4;stroke-dasharray:none;stroke:#ffffff;stroke-opacity:1" />
    <rect
       height="16"
       style="fill:none;stroke-width:2"
       transform="scale(1,-1)"
       width="16"
       x="68.999786"
       y="-307"
       id="rect6" />
    <path
       style="fill:#373b41;fill-opacity:1"
       d="M 4 4 L 4 5 C 4 5 4 5.5 4.5 6 L 6.5 8 L 4.5 10 C 4 10.5 4 11 4 11 L 4 12 L 5 12 C 5.5 12 6 11.5 6 11.5 L 8 9.5 L 10 11.5 C 10 11.5 10.5 12 11 12 L 12 12 L 12 11 C 12 11 12 10.5 11.5 10 L 9.5 8 L 11.5 6 C 12 5.5 12 5 12 5 L 12 4 L 11 4 C 10.5 4 10 4.5 10 4.5 L 8 6.5 L 6 4.5 C 6 4.5 5.5 4 5 4 L 4 4 z "
       transform="translate(68.999785,290.99999)"
       id="path8" />
  </g>
</svg>
