<?xml version="1.0" encoding="UTF-8" standalone="no"?>
<!-- Created with Inkscape (http://www.inkscape.org/) -->

<svg
   xmlns:osb="http://www.openswatchbook.org/uri/2009/osb"
   xmlns:dc="http://purl.org/dc/elements/1.1/"
   xmlns:cc="http://creativecommons.org/ns#"
   xmlns:rdf="http://www.w3.org/1999/02/22-rdf-syntax-ns#"
   xmlns:svg="http://www.w3.org/2000/svg"
   xmlns="http://www.w3.org/2000/svg"
   xmlns:sodipodi="http://sodipodi.sourceforge.net/DTD/sodipodi-0.dtd"
   xmlns:inkscape="http://www.inkscape.org/namespaces/inkscape"
   version="1.1"
   width="758"
   height="349"
   id="svg7384"
   inkscape:version="0.48.4 r9939"
   sodipodi:docname="src.svg">
  <metadata
     id="metadata90">
    <rdf:RDF>
      <cc:Work
         rdf:about="">
        <dc:format>image/svg+xml</dc:format>
        <dc:type
           rdf:resource="http://purl.org/dc/dcmitype/StillImage" />
        <dc:title>MuseScore Icon Theme</dc:title>
      </cc:Work>
    </rdf:RDF>
  </metadata>
  <sodipodi:namedview
     pagecolor="#222222"
     bordercolor="#373b41"
     borderopacity="1"
     objecttolerance="10"
     gridtolerance="10"
     guidetolerance="10"
     inkscape:pageopacity="0"
     inkscape:pageshadow="2"
     inkscape:window-width="1920"
     inkscape:window-height="1014"
     id="namedview88"
     showgrid="false"
     inkscape:zoom="11.313708"
     inkscape:cx="46.930374"
     inkscape:cy="256.40088"
     inkscape:window-x="0"
     inkscape:window-y="27"
     inkscape:window-maximized="1"
     inkscape:current-layer="window-float"
     showborder="false"
     inkscape:snap-nodes="true"
     inkscape:snap-bbox="true"
     inkscape:bbox-paths="true"
     showguides="true"
     inkscape:guide-bbox="true"
     inkscape:snap-to-guides="true"
     inkscape:snap-grids="true"
     inkscape:snap-global="true"
     inkscape:object-nodes="true"
     inkscape:snap-bbox-midpoints="true"
     inkscape:object-paths="true"
     inkscape:snap-others="false"
     inkscape:bbox-nodes="true"
     fit-margin-top="6"
     fit-margin-left="6"
     fit-margin-right="6"
     fit-margin-bottom="6"
     inkscape:snap-smooth-nodes="true"
     inkscape:snap-bbox-edge-midpoints="true"
     inkscape:snap-intersection-paths="true"
     inkscape:snap-midpoints="true"
     inkscape:snap-object-midpoints="false"
     inkscape:snap-center="false"
     inkscape:snap-page="true">
    <inkscape:grid
       type="xygrid"
       id="grid4866"
       empspacing="2"
       visible="true"
       enabled="true"
       snapvisiblegridlinesonly="true"
       spacingx="1px"
       spacingy="1px"
       originx="0px"
       originy="0px" />
  </sodipodi:namedview>
  <title
     id="title9167">MuseScore Icon Theme</title>
  <defs
     id="defs7386">
    <linearGradient
       id="linearGradient19282"
       osb:paint="solid"
       gradientTransform="matrix(-2.7365795,0.40810354,-0.18908311,-1.4468561,239.54008,-1703.6896)">
      <stop
         style="stop-color:#373b41;stop-opacity:1;"
         offset="0"
         id="stop19284" />
    </linearGradient>
    <linearGradient
       id="linearGradient12335"
       osb:paint="solid"
       gradientTransform="matrix(-2.7365795,0.40810354,-0.18908311,-1.4468561,239.54008,-1703.6896)">
      <stop
         style="stop-color:#373b41;stop-opacity:1;"
         offset="0"
         id="stop12337" />
    </linearGradient>
    <linearGradient
       id="linearGradient12339"
       osb:paint="solid"
       gradientTransform="matrix(-2.7365795,0.40810354,-0.18908311,-1.4468561,239.54008,-1703.6896)">
      <stop
         style="stop-color:#373b41;stop-opacity:1;"
         offset="0"
         id="stop12341" />
    </linearGradient>
    <linearGradient
       id="linearGradient19282-9"
       osb:paint="solid"
       gradientTransform="matrix(-2.7365795,0.40810354,-0.18908311,-1.4468561,263.493,-969.46532)">
      <stop
         style="stop-color:#373b41;stop-opacity:1;"
         offset="0"
         id="stop19284-8" />
    </linearGradient>
    <linearGradient
       id="linearGradient21935"
       osb:paint="solid"
       gradientTransform="matrix(-2.7365795,0.40810354,-0.18908311,-1.4468561,239.54008,-1703.6896)">
      <stop
         style="stop-color:#373b41;stop-opacity:1;"
         offset="0"
         id="stop21937" />
    </linearGradient>
    <linearGradient
       id="linearGradient21939"
       osb:paint="solid"
       gradientTransform="matrix(-2.7365795,0.40810354,-0.18908311,-1.4468561,239.54008,-1703.6896)">
      <stop
         style="stop-color:#373b41;stop-opacity:1;"
         offset="0"
         id="stop21941" />
    </linearGradient>
    <clipPath
       clipPathUnits="userSpaceOnUse"
       id="clipPath6279-7-9-1-0">
      <rect
         style="color:#bebebe;fill:#bebebe;fill-opacity:1;fill-rule:nonzero;stroke:none;stroke-width:2;marker:none;visibility:visible;display:inline;overflow:visible"
         id="rect6281-1-9-1-6"
         width="3.8250003"
         height="6.3750005"
         x="26.85"
         y="220.75" />
    </clipPath>
    <clipPath
       clipPathUnits="userSpaceOnUse"
       id="clipPath6265-3-4-1-7">
      <rect
         style="color:#bebebe;fill:#bebebe;fill-opacity:1;fill-rule:nonzero;stroke:none;stroke-width:2;marker:none;visibility:visible;display:inline;overflow:visible"
         id="rect6267-1-9-4-9"
         width="2.8977277"
         height="5.21591"
         x="26.96591"
         y="221.32954" />
    </clipPath>
    <linearGradient
       id="linearGradient19282-9-9"
       osb:paint="solid"
       gradientTransform="matrix(-2.7365795,0.40810354,-0.18908311,-1.4468561,263.493,-969.46532)">
      <stop
         style="stop-color:#373b41;stop-opacity:1;"
         offset="0"
         id="stop19284-8-1" />
    </linearGradient>
    <linearGradient
       id="linearGradient8782"
       osb:paint="solid"
       gradientTransform="matrix(-2.7365795,0.40810354,-0.18908311,-1.4468561,263.493,-969.46532)">
      <stop
         style="stop-color:#373b41;stop-opacity:1;"
         offset="0"
         id="stop8784" />
    </linearGradient>
  </defs>
  <g
     style="fill:#373b41;stroke:none"
     id="text5841">
    <path
       d="m 33.355502,27.000031 0,-22.1040005 -10.08,17.2440005 -1.152,0 -10.08,-17.2440005 0,22.1040005 -1.836,0 0,-25.5600005 1.836,0 10.656,18.2880005 10.656,-18.2880005 1.836,0 0,25.5600005 -1.836,0"
       id="path3659" />
    <path
       d="m 47.172752,27.360031 c -4.008005,-1e-6 -6.012003,-2.759998 -6.012,-8.28 l 0,-10.8000005 1.8,0 0,10.5480005 c -5e-6,4.608003 1.571994,6.912001 4.716,6.912 0.79199,1e-6 1.559989,-0.131999 2.304,-0.396 0.767987,-0.287999 1.475987,-0.671998 2.124,-1.152 0.647985,-0.503997 1.211985,-1.103997 1.692,-1.8 0.503984,-0.695995 0.899983,-1.463994 1.188,-2.304 l 0,-11.8080005 1.8,0 0,16.2000005 c -1.9e-5,0.600001 0.251981,0.900001 0.756,0.9 l 0,1.62 c -0.144019,0.024 -0.264019,0.036 -0.36,0.036 -0.09602,-1e-6 -0.192019,-1e-6 -0.288,0 -0.504018,-1e-6 -0.924018,-0.144 -1.26,-0.432 -0.312017,-0.312 -0.468017,-0.707999 -0.468,-1.188 l 0,-2.844 c -0.840016,1.512002 -1.968015,2.688001 -3.384,3.528 -1.416012,0.84 -2.952011,1.259999 -4.608,1.26"
       style=""
       id="path3661" />
    <path
       d="m 68.516814,27.360031 c -1.440007,-1e-6 -2.820006,-0.240001 -4.14,-0.72 -1.320003,-0.48 -2.472002,-1.199999 -3.456,-2.16 l 0.9,-1.224 c 1.007997,0.912002 2.051996,1.584002 3.132,2.016 1.079994,0.432001 2.267993,0.648001 3.564,0.648 1.63199,10e-7 2.939988,-0.335999 3.924,-1.008 1.007986,-0.695998 1.511986,-1.655997 1.512,-2.88 -1.4e-5,-0.575995 -0.132014,-1.055994 -0.396,-1.44 -0.240013,-0.407994 -0.612013,-0.743993 -1.116,-1.008 -0.504012,-0.287993 -1.128011,-0.539993 -1.872,-0.756 -0.74401,-0.215992 -1.608009,-0.443992 -2.592,-0.684 -1.056007,-0.239991 -1.980006,-0.479991 -2.772,-0.72 -0.768005,-0.239991 -1.404004,-0.52799 -1.908,-0.864 -0.504003,-0.33599 -0.888003,-0.743989 -1.152,-1.224 -0.240002,-0.479988 -0.360002,-1.091988 -0.36,-1.836 -2e-6,-0.935986 0.179998,-1.751985 0.54,-2.448 0.359997,-0.695984 0.851997,-1.2719833 1.476,-1.7280005 0.647995,-0.4559819 1.379995,-0.7919815 2.196,-1.008 0.839993,-0.2399811 1.727992,-0.3599809 2.664,-0.36 1.46399,1.91e-5 2.759988,0.2520188 3.888,0.756 1.127986,0.4800178 2.003985,1.1040172 2.628,1.8720005 l -1.008,0.972 c -0.624014,-0.719984 -1.440013,-1.259984 -2.448,-1.6200005 -0.984011,-0.3599826 -2.04001,-0.5399824 -3.168,-0.54 -0.696008,1.76e-5 -1.356007,0.072017 -1.98,0.216 -0.600006,0.1440173 -1.128006,0.372017 -1.584,0.6840005 -0.456005,0.312016 -0.816004,0.720016 -1.08,1.224 -0.264004,0.480015 -0.396004,1.056014 -0.396,1.728 -4e-6,0.552013 0.084,0.996012 0.252,1.332 0.191996,0.336012 0.479996,0.624011 0.864,0.864 0.407995,0.240011 0.923994,0.456011 1.548,0.648 0.623993,0.16801 1.367992,0.36001 2.232,0.576 1.17599,0.28801 2.219989,0.564009 3.132,0.828 0.911987,0.264009 1.667987,0.588008 2.268,0.972 0.623985,0.384008 1.091985,0.840007 1.404,1.368 0.335984,0.528006 0.503984,1.200005 0.504,2.016 -1.6e-5,1.680003 -0.660015,3.024002 -1.98,4.032 -1.296013,0.984 -3.036011,1.475999 -5.22,1.476"
       style=""
       id="path3663" />
    <path
       d="m 87.829689,27.360031 c -1.320009,-1e-6 -2.544008,-0.252001 -3.672,-0.756 -1.128006,-0.528 -2.112005,-1.235999 -2.952,-2.124 -0.816003,-0.911997 -1.464003,-1.955996 -1.944,-3.132 -0.456002,-1.175994 -0.684001,-2.435992 -0.684,-3.78 -1e-6,-1.31999 0.227998,-2.555988 0.684,-3.708 0.479997,-1.175986 1.127997,-2.195985 1.944,-3.06 0.815995,-0.8879834 1.787994,-1.5839827 2.916,-2.0880005 1.127992,-0.5039812 2.339991,-0.7559809 3.636,-0.756 1.319988,1.91e-5 2.531987,0.2640188 3.636,0.792 1.127985,0.5040178 2.099984,1.2000171 2.916,2.0880005 0.815982,0.864015 1.451981,1.884014 1.908,3.06 0.47998,1.152011 0.71998,2.37601 0.72,3.672 -2e-5,0.120009 -0.01202,0.276009 -0.036,0.468 -2e-5,0.168008 -2e-5,0.276008 0,0.324 l -16.452,0 c 0.072,1.080007 0.323996,2.088006 0.756,3.024 0.431996,0.912004 0.971995,1.704003 1.62,2.376 0.671994,0.672002 1.439993,1.200002 2.304,1.584 0.863991,0.384001 1.78799,0.576001 2.772,0.576 0.647989,10e-7 1.283988,-0.084 1.908,-0.252 0.647987,-0.191999 1.235986,-0.443999 1.764,-0.756 0.551985,-0.311998 1.031985,-0.683998 1.44,-1.116 0.431984,-0.455997 0.767983,-0.947996 1.008,-1.476 l 1.584,0.432 c -0.288018,0.672003 -0.696018,1.296002 -1.224,1.872 -0.504017,0.552001 -1.104016,1.032001 -1.8,1.44 -0.672015,0.408 -1.416014,0.72 -2.232,0.936 -0.816012,0.239999 -1.656012,0.359999 -2.52,0.36 m 7.344,-10.44 c -0.07202,-1.103989 -0.324018,-2.111988 -0.756,-3.024 -0.408017,-0.911986 -0.948016,-1.691986 -1.62,-2.34 -0.648015,-0.671984 -1.404014,-1.187984 -2.268,-1.548 -0.864013,-0.3839831 -1.788012,-0.5759829 -2.772,-0.5760005 -0.98401,1.76e-5 -1.908009,0.1920174 -2.772,0.5760005 -0.864007,0.360016 -1.632006,0.876016 -2.304,1.548 -0.648005,0.648014 -1.176004,1.440014 -1.584,2.376 -0.384004,0.912012 -0.612003,1.908011 -0.684,2.988 l 14.76,0"
       style=""
       id="path3665" />
    <path
       d="m 116.20219,5.6880305 c -1.65602,-1.8479768 -3.99602,-2.7719759 -7.02,-2.772 -2.49601,2.41e-5 -4.32001,0.4800236 -5.472,1.44 -1.12801,0.9360217 -1.69201,2.2080205 -1.692,3.816 -1e-5,0.816018 0.14399,1.5000173 0.432,2.0520005 0.28799,0.552016 0.73199,1.020015 1.332,1.404 0.62399,0.360015 1.40399,0.684014 2.34,0.972 0.95999,0.264014 2.08799,0.528013 3.384,0.792 1.39199,0.288013 2.63998,0.612013 3.744,0.972 1.10398,0.336012 2.03998,0.768011 2.808,1.296 0.79198,0.52801 1.39198,1.17601 1.8,1.944 0.43198,0.768008 0.64798,1.716007 0.648,2.844 -2e-5,1.128005 -0.22802,2.112004 -0.684,2.952 -0.43202,0.840002 -1.05602,1.548002 -1.872,2.124 -0.79202,0.552 -1.75202,0.972 -2.88,1.26 -1.10402,0.287999 -2.34001,0.431999 -3.708,0.432 -3.98401,-1e-6 -7.35601,-1.271999 -10.116001,-3.816 l 0.972001,-1.476 c 1.08,1.128003 2.39999,2.028003 3.96,2.7 1.55999,0.648001 3.31199,0.972001 5.256,0.972 2.23199,1e-6 3.97198,-0.407999 5.22,-1.224 1.27198,-0.815997 1.90798,-2.051996 1.908,-3.708 -2e-5,-0.839993 -0.16802,-1.547993 -0.504,-2.124 -0.31202,-0.599991 -0.80402,-1.115991 -1.476,-1.548 -0.67202,-0.43199 -1.51202,-0.80399 -2.52,-1.116 -0.98401,-0.311989 -2.14801,-0.611989 -3.492,-0.9 -1.36801,-0.287988 -2.58001,-0.587988 -3.636,-0.9 -1.03201,-0.335987 -1.90801,-0.743987 -2.628,-1.224 -0.72,-0.503986 -1.26,-1.103985 -1.62,-1.8 -0.36,-0.695984 -0.54,-1.571983 -0.54,-2.6280005 0,-1.1519803 0.216,-2.1719792 0.648,-3.06 0.456,-0.8879775 1.08,-1.6319767 1.872,-2.232 0.79199,-0.6239755 1.73999,-1.091975 2.844,-1.404 1.10399,-0.3119744 2.32799,-0.4679742 3.672,-0.468 1.65599,2.58e-5 3.13198,0.2520255 4.428,0.756 1.29598,0.4800245 2.47198,1.2240238 3.528,2.232 l -0.936,1.44"
       style=""
       id="path3667" />
    <path
       d="m 121.398,17.568031 c 0,-1.31999 0.228,-2.567988 0.684,-3.744 0.456,-1.175986 1.092,-2.195985 1.908,-3.06 0.84,-0.8639834 1.824,-1.5479827 2.952,-2.0520005 1.12799,-0.5039812 2.36399,-0.7559809 3.708,-0.756 1.70399,1.91e-5 3.19199,0.3840187 4.464,1.152 1.29599,0.7680171 2.27998,1.8360165 2.952,3.2040005 l -1.764,0.576 c -0.55201,-1.031985 -1.34401,-1.835985 -2.376,-2.412 -1.03201,-0.5999834 -2.16001,-0.8999831 -3.384,-0.9000005 -1.03201,1.74e-5 -1.99201,0.2040172 -2.88,0.6120005 -0.88801,0.408016 -1.668,0.972015 -2.34,1.692 -0.648,0.720014 -1.164,1.572013 -1.548,2.556 -0.36,0.960011 -0.54,2.00401 -0.54,3.132 0,1.128008 0.192,2.196007 0.576,3.204 0.408,0.984005 0.936,1.848004 1.584,2.592 0.672,0.720002 1.45199,1.296002 2.34,1.728 0.88799,0.432001 1.83599,0.648001 2.844,0.648 0.64799,1e-6 1.28399,-0.096 1.908,-0.288 0.64799,-0.191999 1.23599,-0.443998 1.764,-0.756 0.55199,-0.311998 1.01999,-0.671998 1.404,-1.08 0.40799,-0.431997 0.68399,-0.875996 0.828,-1.332 l 1.764,0.504 c -0.24002,0.648003 -0.61202,1.260002 -1.116,1.836 -0.48002,0.552001 -1.05601,1.032001 -1.728,1.44 -0.67201,0.408 -1.41601,0.72 -2.232,0.936 -0.79201,0.239999 -1.62001,0.359999 -2.484,0.36 -1.32001,-1e-6 -2.54401,-0.252001 -3.672,-0.756 -1.128,-0.528 -2.112,-1.235999 -2.952,-2.124 -0.816,-0.911997 -1.464,-1.955996 -1.944,-3.132 -0.48,-1.175994 -0.72,-2.435992 -0.72,-3.78"
       style=""
       id="path3669" />
    <path
       d="m 150.01856,27.360031 c -1.32001,-1e-6 -2.544,-0.252001 -3.672,-0.756 -1.104,-0.528 -2.064,-1.235999 -2.88,-2.124 -0.816,-0.887997 -1.452,-1.919996 -1.908,-3.096 -0.456,-1.175994 -0.684,-2.411992 -0.684,-3.708 0,-1.31999 0.228,-2.567989 0.684,-3.744 0.48,-1.175986 1.128,-2.207985 1.944,-3.096 0.84,-0.8879834 1.812,-1.5839827 2.916,-2.0880005 1.104,-0.5279812 2.30399,-0.7919809 3.6,-0.792 1.29599,1.91e-5 2.49599,0.2640188 3.6,0.792 1.12799,0.5040178 2.09999,1.2000171 2.916,2.0880005 0.83999,0.888015 1.48799,1.920014 1.944,3.096 0.47998,1.176011 0.71998,2.42401 0.72,3.744 -2e-5,1.296008 -0.24002,2.532006 -0.72,3.708 -0.45601,1.176004 -1.09201,2.208003 -1.908,3.096 -0.81601,0.888001 -1.78801,1.596 -2.916,2.124 -1.12801,0.503999 -2.34001,0.755999 -3.636,0.756 m -7.308,-9.612 c 0,1.104008 0.192,2.148007 0.576,3.132 0.384,0.960005 0.9,1.800004 1.548,2.52 0.672,0.720002 1.452,1.296002 2.34,1.728 0.888,0.408001 1.83599,0.612001 2.844,0.612 1.00799,1e-6 1.95599,-0.203999 2.844,-0.612 0.88799,-0.431998 1.65599,-1.019998 2.304,-1.764 0.67199,-0.743996 1.19999,-1.595995 1.584,-2.556 0.40799,-0.983993 0.61199,-2.039992 0.612,-3.168 -1e-5,-1.10399 -0.20401,-2.135989 -0.612,-3.096 -0.38401,-0.983987 -0.91201,-1.835986 -1.584,-2.556 -0.64801,-0.743985 -1.41601,-1.331984 -2.304,-1.764 -0.88801,-0.4319833 -1.83601,-0.6479831 -2.844,-0.6480005 -0.98401,1.74e-5 -1.92,0.2160172 -2.808,0.6480005 -0.888,0.432016 -1.668,1.020015 -2.34,1.764 -0.672,0.744014 -1.2,1.620013 -1.584,2.628 -0.384,0.984011 -0.576,2.02801 -0.576,3.132"
       style=""
       id="path3671" />
    <path
       d="m 172.29525,9.9000305 c -1.70401,0.048017 -3.18001,0.5520165 -4.428,1.5120005 -1.248,0.936014 -2.124,2.232013 -2.628,3.888 l 0,11.7 -1.8,0 0,-18.7200005 1.692,0 0,4.6080005 c 0.648,-1.319985 1.5,-2.387984 2.556,-3.2040005 1.07999,-0.8399818 2.23199,-1.3199813 3.456,-1.44 0.23999,1.88e-5 0.45599,1.88e-5 0.648,0 0.19199,-0.023981 0.35999,-0.035981 0.504,-0.036 l 0,1.692"
       style=""
       id="path3673" />
    <path
       d="m 183.73594,27.360031 c -1.32001,-1e-6 -2.54401,-0.252001 -3.672,-0.756 -1.12801,-0.528 -2.11201,-1.235999 -2.952,-2.124 -0.816,-0.911997 -1.464,-1.955996 -1.944,-3.132 -0.456,-1.175994 -0.684,-2.435992 -0.684,-3.78 0,-1.31999 0.228,-2.555988 0.684,-3.708 0.48,-1.175986 1.128,-2.195985 1.944,-3.06 0.81599,-0.8879834 1.78799,-1.5839827 2.916,-2.0880005 1.12799,-0.5039812 2.33999,-0.7559809 3.636,-0.756 1.31999,1.91e-5 2.53199,0.2640188 3.636,0.792 1.12798,0.5040178 2.09998,1.2000171 2.916,2.0880005 0.81598,0.864015 1.45198,1.884014 1.908,3.06 0.47998,1.152011 0.71998,2.37601 0.72,3.672 -2e-5,0.120009 -0.012,0.276009 -0.036,0.468 -2e-5,0.168008 -2e-5,0.276008 0,0.324 l -16.452,0 c 0.072,1.080007 0.324,2.088006 0.756,3.024 0.43199,0.912004 0.97199,1.704003 1.62,2.376 0.67199,0.672002 1.43999,1.200002 2.304,1.584 0.86399,0.384001 1.78799,0.576001 2.772,0.576 0.64799,10e-7 1.28399,-0.084 1.908,-0.252 0.64799,-0.191999 1.23599,-0.443999 1.764,-0.756 0.55198,-0.311998 1.03198,-0.683998 1.44,-1.116 0.43198,-0.455997 0.76798,-0.947996 1.008,-1.476 l 1.584,0.432 c -0.28802,0.672003 -0.69602,1.296002 -1.224,1.872 -0.50402,0.552001 -1.10402,1.032001 -1.8,1.44 -0.67202,0.408 -1.41602,0.72 -2.232,0.936 -0.81601,0.239999 -1.65601,0.359999 -2.52,0.36 m 7.344,-10.44 c -0.072,-1.103989 -0.32402,-2.111988 -0.756,-3.024 -0.40802,-0.911986 -0.94802,-1.691986 -1.62,-2.34 -0.64802,-0.671984 -1.40402,-1.187984 -2.268,-1.548 -0.86401,-0.3839831 -1.78801,-0.5759829 -2.772,-0.5760005 -0.98401,1.76e-5 -1.90801,0.1920174 -2.772,0.5760005 -0.86401,0.360016 -1.63201,0.876016 -2.304,1.548 -0.64801,0.648014 -1.17601,1.440014 -1.584,2.376 -0.384,0.912012 -0.612,1.908011 -0.684,2.988 l 14.76,0"
       style=""
       id="path3675" />
    <path
       d="m 206.44631,27.000031 0,-25.5240005 2.484,0 0,25.5240005 -2.484,0"
       style=""
       id="path3677" />
    <path
       d="m 213.54,17.568031 c 0,-1.31999 0.228,-2.567988 0.684,-3.744 0.456,-1.175986 1.092,-2.195985 1.908,-3.06 0.84,-0.8879834 1.836,-1.5839827 2.988,-2.0880005 1.15199,-0.5039812 2.42399,-0.7559809 3.816,-0.756 1.77599,1.91e-5 3.32399,0.4080187 4.644,1.224 1.31998,0.7920171 2.31598,1.8720165 2.988,3.2400005 l -2.376,0.756 c -0.52801,-0.959986 -1.26001,-1.703985 -2.196,-2.232 -0.93601,-0.551984 -1.98001,-0.827984 -3.132,-0.828 -0.96001,1.6e-5 -1.86001,0.192016 -2.7,0.576 -0.81601,0.384015 -1.536,0.912015 -2.16,1.584 -0.6,0.648014 -1.08,1.428013 -1.44,2.34 -0.336,0.912011 -0.504,1.90801 -0.504,2.988 0,1.056008 0.18,2.052007 0.54,2.988 0.36,0.936005 0.852,1.752004 1.476,2.448 0.624,0.672003 1.34399,1.212002 2.16,1.62 0.83999,0.384002 1.72799,0.576001 2.664,0.576 0.59999,1e-6 1.18799,-0.084 1.764,-0.252 0.59999,-0.167998 1.15199,-0.395998 1.656,-0.684 0.50399,-0.311997 0.93599,-0.659997 1.296,-1.044 0.35999,-0.383996 0.61199,-0.791996 0.756,-1.224 l 2.376,0.72 c -0.26402,0.672003 -0.64802,1.296003 -1.152,1.872 -0.50402,0.552001 -1.10401,1.044001 -1.8,1.476 -0.67201,0.408 -1.42801,0.72 -2.268,0.936 -0.81601,0.239999 -1.66801,0.359999 -2.556,0.36 -1.36801,-1e-6 -2.62801,-0.252001 -3.78,-0.756 -1.152,-0.528 -2.148,-1.235999 -2.988,-2.124 -0.84,-0.911997 -1.5,-1.955996 -1.98,-3.132 -0.456,-1.175994 -0.684,-2.435992 -0.684,-3.78"
       style=""
       id="path3679" />
    <path
       d="m 242.48119,27.360031 c -1.36801,-1e-6 -2.62801,-0.252001 -3.78,-0.756 -1.12801,-0.528 -2.11201,-1.235999 -2.952,-2.124 -0.816,-0.887997 -1.452,-1.919996 -1.908,-3.096 -0.456,-1.175994 -0.684,-2.411992 -0.684,-3.708 0,-1.31999 0.228,-2.567989 0.684,-3.744 0.48,-1.175986 1.128,-2.207985 1.944,-3.096 0.83999,-0.8879834 1.82399,-1.5959827 2.952,-2.1240005 1.15199,-0.5279812 2.39999,-0.7919809 3.744,-0.792 1.34399,1.91e-5 2.57999,0.2640188 3.708,0.792 1.15198,0.5280178 2.13598,1.2360171 2.952,2.1240005 0.83998,0.888015 1.48798,1.920014 1.944,3.096 0.47998,1.176011 0.71998,2.42401 0.72,3.744 -2e-5,1.296008 -0.24002,2.532006 -0.72,3.708 -0.45602,1.176004 -1.10402,2.208003 -1.944,3.096 -0.81602,0.888001 -1.80002,1.596 -2.952,2.124 -1.12801,0.503999 -2.36401,0.755999 -3.708,0.756 m -6.804,-9.648 c 0,1.056008 0.16799,2.040007 0.504,2.952 0.35999,0.888005 0.83999,1.680004 1.44,2.376 0.62399,0.672003 1.34399,1.200002 2.16,1.584 0.83999,0.384002 1.72799,0.576001 2.664,0.576 0.93599,1e-6 1.81199,-0.191998 2.628,-0.576 0.83998,-0.407998 1.57198,-0.947997 2.196,-1.62 0.62398,-0.695996 1.11598,-1.499995 1.476,-2.412 0.35998,-0.911993 0.53998,-1.895992 0.54,-2.952 -2e-5,-1.03199 -0.18002,-2.003989 -0.54,-2.916 -0.36002,-0.935987 -0.85202,-1.739986 -1.476,-2.412 -0.62402,-0.695985 -1.34402,-1.235985 -2.16,-1.62 -0.81601,-0.407984 -1.69201,-0.611984 -2.628,-0.612 -0.93601,1.6e-5 -1.82401,0.204016 -2.664,0.612 -0.81601,0.384015 -1.53601,0.924015 -2.16,1.62 -0.60001,0.696014 -1.08001,1.512013 -1.44,2.448 -0.36001,0.912011 -0.54,1.89601 -0.54,2.952"
       style=""
       id="path3681" />
    <path
       d="m 271.5945,27.000031 -2.448,0 0,-10.476 c -1e-5,-2.231988 -0.32401,-3.851986 -0.972,-4.86 -0.64801,-1.007984 -1.65601,-1.511984 -3.024,-1.512 -0.72001,1.6e-5 -1.44001,0.132016 -2.16,0.396 -0.72001,0.264016 -1.39201,0.636015 -2.016,1.116 -0.62401,0.480014 -1.17601,1.056014 -1.656,1.728 -0.456,0.648012 -0.804,1.356012 -1.044,2.124 l 0,11.484 -2.448,0 0,-18.7560005 2.232,0 0,4.2480005 c 0.384,-0.671985 0.852,-1.283985 1.404,-1.836 0.57599,-0.575984 1.21199,-1.0679831 1.908,-1.4760005 0.69599,-0.4079818 1.42799,-0.7199814 2.196,-0.936 0.79199,-0.215981 1.60799,-0.3239809 2.448,-0.324 1.05599,1.91e-5 1.93199,0.1920189 2.628,0.576 0.71999,0.3840181 1.29598,0.9240176 1.728,1.6200005 0.43198,0.696016 0.74398,1.548015 0.936,2.556 0.19198,1.008013 0.28798,2.124012 0.288,3.348 l 0,10.98"
       style=""
       id="path3683" />
    <path
       d="m 282.939,27.360031 c -1.46401,-1e-6 -2.892,-0.240001 -4.284,-0.72 -1.392,-0.48 -2.592,-1.175999 -3.6,-2.088 l 1.116,-1.656 c 1.056,0.864003 2.124,1.512002 3.204,1.944 1.104,0.432001 2.27999,0.648001 3.528,0.648 1.51199,1e-6 2.71199,-0.299999 3.6,-0.9 0.91199,-0.623997 1.36799,-1.499997 1.368,-2.628 -10e-6,-0.527995 -0.12001,-0.959994 -0.36,-1.296 -0.24001,-0.359994 -0.60001,-0.671993 -1.08,-0.936 -0.45601,-0.263993 -1.04401,-0.491993 -1.764,-0.684 -0.69601,-0.215992 -1.51201,-0.431992 -2.448,-0.648 -1.08001,-0.263992 -2.016,-0.527991 -2.808,-0.792 -0.792,-0.263991 -1.452,-0.563991 -1.98,-0.9 -0.504,-0.33599 -0.888,-0.743989 -1.152,-1.224 -0.24,-0.503988 -0.36,-1.127988 -0.36,-1.872 0,-0.935986 0.18,-1.763985 0.54,-2.484 0.384,-0.719984 0.888,-1.3079833 1.512,-1.7640005 0.648,-0.4799819 1.392,-0.8399815 2.232,-1.08 0.86399,-0.239981 1.77599,-0.3599809 2.736,-0.36 1.43999,1.91e-5 2.74799,0.2400189 3.924,0.72 1.17599,0.4560179 2.12399,1.0680173 2.844,1.8360005 l -1.188,1.44 c -0.69601,-0.719985 -1.54801,-1.259984 -2.556,-1.62 -0.98401,-0.3599834 -2.01601,-0.5399832 -3.096,-0.5400005 -0.64801,1.73e-5 -1.24801,0.072017 -1.8,0.216 -0.552,0.1200165 -1.044,0.3240165 -1.476,0.6120005 -0.408,0.288016 -0.732,0.660015 -0.972,1.116 -0.24,0.432014 -0.36,0.948014 -0.36,1.548 0,0.504013 0.084,0.912012 0.252,1.224 0.168,0.312012 0.444,0.588011 0.828,0.828 0.384,0.216011 0.864,0.420011 1.44,0.612 0.59999,0.16801 1.31999,0.34801 2.16,0.54 1.19999,0.28801 2.25599,0.576009 3.168,0.864 0.91199,0.288009 1.66799,0.624009 2.268,1.008 0.62399,0.384008 1.09199,0.852007 1.404,1.404 0.31199,0.552006 0.46799,1.224006 0.468,2.016 -1e-5,1.728003 -0.66001,3.096002 -1.98,4.104 -1.32001,1.008 -3.09601,1.511999 -5.328,1.512"
       style=""
       id="path3685" />
    <path
       d="m 294.03881,11.880031 0,-3.5280005 2.052,0 0,3.5280005 -2.052,0 m 0,15.12 0,-3.528 2.052,0 0,3.528 -2.052,0"
       style=""
       id="path3687" />
    <path
       d="m 10.867502,52.295499 c -0.488004,0 -0.9320035,-0.12 -1.3320004,-0.36 -0.4000023,-0.24 -0.716002,-0.551999 -0.948,-0.936 l 0,1.176 -0.936,0 0,-8.76 1.056,0 0,3.744 c 0.2639978,-0.407995 0.5879975,-0.735994 0.972,-0.984 0.3839964,-0.247994 0.8319964,-0.371994 1.3440004,-0.372 0.431995,6e-6 0.819995,0.09201 1.164,0.276 0.343994,0.184006 0.635994,0.428006 0.876,0.732 0.247993,0.296005 0.435993,0.644005 0.564,1.044 0.135993,0.392004 0.203993,0.796004 0.204,1.212 -7e-6,0.440003 -0.07601,0.856002 -0.228,1.248 -0.152007,0.392001 -0.360007,0.736001 -0.624,1.032 -0.264006,0.288001 -0.580006,0.52 -0.948,0.696 -0.360005,0.168 -0.748005,0.252 -1.164,0.252 m -0.264,-0.912 c 0.311995,10e-7 0.599995,-0.064 0.864,-0.192 0.263995,-0.127999 0.491994,-0.299999 0.684,-0.516 0.191994,-0.215998 0.339994,-0.459998 0.444,-0.732 0.103994,-0.279997 0.155994,-0.571997 0.156,-0.876 -6e-6,-0.303997 -0.05201,-0.595996 -0.156,-0.876 -0.09601,-0.287996 -0.236006,-0.539995 -0.42,-0.756 -0.176006,-0.215995 -0.392005,-0.387995 -0.648,-0.516 -0.248005,-0.135995 -0.524005,-0.203995 -0.828,-0.204 -0.224004,5e-6 -0.436004,0.04001 -0.636,0.12 -0.2000035,0.08 -0.3880033,0.188005 -0.5640004,0.324 -0.1680025,0.128005 -0.3200024,0.280005 -0.456,0.456 -0.1280021,0.176004 -0.240002,0.364004 -0.336,0.564 l 0,1.812 c 0.039998,0.200002 0.123998,0.384002 0.252,0.552 0.1359977,0.168001 0.2919976,0.316001 0.468,0.444 0.1839972,0.120001 0.375997,0.216001 0.5760004,0.288 0.207996,0.072 0.407996,0.108001 0.6,0.108"
       style="fill:#373b41;fill-opacity:0.75294118"
       id="path3700" />
    <path
       d="m 16.796627,52.295499 c -0.312003,0 -0.600002,-0.048 -0.864,-0.144 -0.264002,-0.104 -0.492002,-0.24 -0.684,-0.408 -0.192001,-0.175999 -0.344001,-0.379999 -0.456,-0.612 -0.104001,-0.239999 -0.156001,-0.491998 -0.156,-0.756 -1e-6,-0.295998 0.064,-0.563998 0.192,-0.804 0.127999,-0.247997 0.307999,-0.455997 0.54,-0.624 0.239998,-0.175997 0.519998,-0.307996 0.84,-0.396 0.327997,-0.096 0.683997,-0.143996 1.068,-0.144 0.303996,4e-6 0.611996,0.028 0.924,0.084 0.311995,0.056 0.587995,0.132004 0.828,0.228 l 0,-0.504 c -5e-6,-0.511996 -0.144005,-0.911995 -0.432,-1.2 -0.288004,-0.295995 -0.696004,-0.443994 -1.224,-0.444 -0.632003,6e-6 -1.296002,0.244005 -1.992,0.732 l -0.348,-0.684 c 0.407998,-0.271994 0.811998,-0.475994 1.212,-0.612 0.399997,-0.135994 0.815997,-0.203994 1.248,-0.204 0.799996,6e-6 1.431995,0.220006 1.896,0.66 0.463994,0.440005 0.695994,1.060005 0.696,1.86 l 0,2.556 c -6e-6,0.248001 0.111994,0.376001 0.336,0.384 l 0,0.912 c -0.08001,0.016 -0.156006,0.028 -0.228,0.036 -0.07201,0.008 -0.140006,0.012 -0.204,0.012 -0.176006,0 -0.348006,-0.048 -0.516,-0.144 -0.168005,-0.096 -0.260005,-0.26 -0.276,-0.492 l -0.024,-0.444 c -0.144005,0.192001 -0.308005,0.360001 -0.492,0.504 -0.184005,0.144 -0.380004,0.264 -0.588,0.36 -0.208004,0.096 -0.424004,0.168 -0.648,0.216 -0.216003,0.048 -0.432003,0.072 -0.648,0.072 m 0.264,-0.792 c 0.335996,1e-6 0.663996,-0.072 0.984,-0.216 0.319995,-0.143999 0.571995,-0.319999 0.756,-0.528 0.151995,-0.175998 0.227995,-0.339998 0.228,-0.492 l 0,-0.924 c -0.248005,-0.096 -0.512005,-0.167997 -0.792,-0.216 -0.272004,-0.056 -0.536004,-0.084 -0.792,-0.084 -0.544003,3e-6 -0.980003,0.112003 -1.308,0.336 -0.328002,0.216003 -0.492002,0.516002 -0.492,0.9 -2e-6,0.160002 0.032,0.316002 0.096,0.468 0.064,0.144001 0.155998,0.272001 0.276,0.384 0.119998,0.112001 0.267998,0.204001 0.444,0.276 0.175997,0.064 0.375997,0.096 0.6,0.096"
       style="fill:#373b41;fill-opacity:0.75294118;"
       id="path3702" />
    <path
       d="m 24.004314,52.295499 c -0.504002,0 -1.000002,-0.076 -1.488,-0.228 -0.488001,-0.16 -0.908001,-0.388 -1.26,-0.684 l 0.456,-0.708 c 0.367999,0.280001 0.735999,0.492001 1.104,0.636 0.367998,0.136001 0.755997,0.204001 1.164,0.204 0.455997,1e-6 0.815996,-0.088 1.08,-0.264 0.271996,-0.183999 0.407996,-0.439999 0.408,-0.768 -4e-6,-0.151998 -0.036,-0.279998 -0.108,-0.384 -0.072,-0.111998 -0.180004,-0.207998 -0.324,-0.288 -0.144004,-0.08 -0.328004,-0.151997 -0.552,-0.216 -0.224003,-0.064 -0.484003,-0.131997 -0.78,-0.204 -0.376002,-0.096 -0.700002,-0.187997 -0.972,-0.276 -0.272001,-0.088 -0.496001,-0.191997 -0.672,-0.312 -0.176001,-0.119997 -0.304001,-0.263996 -0.384,-0.432 -0.08,-0.167996 -0.120001,-0.375996 -0.12,-0.624 -1e-6,-0.311995 0.06,-0.587995 0.18,-0.828 0.127999,-0.247994 0.299999,-0.451994 0.516,-0.612 0.215999,-0.167994 0.467998,-0.291994 0.756,-0.372 0.295998,-0.08799 0.611997,-0.131994 0.948,-0.132 0.471997,6e-6 0.911996,0.07601 1.32,0.228 0.407995,0.152006 0.751995,0.352006 1.032,0.6 l -0.48,0.636 c -0.264005,-0.231995 -0.560004,-0.403995 -0.888,-0.516 -0.328004,-0.119994 -0.664003,-0.179994 -1.008,-0.18 -0.384003,6e-6 -0.712002,0.08401 -0.984,0.252 -0.264002,0.160005 -0.396002,0.420005 -0.396,0.78 -2e-6,0.144004 0.024,0.264004 0.072,0.36 0.056,0.096 0.143998,0.180004 0.264,0.252 0.119998,0.072 0.271998,0.136004 0.456,0.192 0.191998,0.056 0.419997,0.116004 0.684,0.18 0.415997,0.096 0.775996,0.196003 1.08,0.3 0.311996,0.096 0.567995,0.212003 0.768,0.348 0.207995,0.136003 0.359995,0.296003 0.456,0.48 0.103995,0.184002 0.155995,0.408002 0.156,0.672 -5e-6,0.584001 -0.224005,1.048001 -0.672,1.392 -0.448004,0.344 -1.052004,0.516 -1.812,0.516"
       style="fill:#373b41;fill-opacity:0.75294118;"
       id="path3704" />
    <path
       d="m 30.486564,52.295499 c -0.472003,0 -0.904003,-0.084 -1.296,-0.252 -0.392002,-0.176 -0.728002,-0.411999 -1.008,-0.708 -0.280001,-0.295999 -0.500001,-0.639999 -0.66,-1.032 -0.152,-0.399998 -0.228,-0.819997 -0.228,-1.26 0,-0.439996 0.076,-0.855996 0.228,-1.248 0.159999,-0.391995 0.379999,-0.735995 0.66,-1.032 0.287998,-0.295994 0.627998,-0.527994 1.02,-0.696 0.391997,-0.175994 0.823997,-0.263994 1.296,-0.264 0.471996,6e-6 0.899996,0.08801 1.284,0.264 0.391995,0.176006 0.723994,0.412006 0.996,0.708 0.271994,0.288005 0.479994,0.628005 0.624,1.02 0.151993,0.384004 0.227993,0.784004 0.228,1.2 -7e-6,0.088 -0.004,0.168003 -0.012,0.24 -7e-6,0.072 -0.004,0.128003 -0.012,0.168 l -5.196,0 c 0.024,0.312002 0.096,0.596002 0.216,0.852 0.119998,0.256002 0.275998,0.476001 0.468,0.66 0.191998,0.184001 0.407997,0.328001 0.648,0.432 0.247997,0.104001 0.507997,0.156001 0.78,0.156 0.191996,1e-6 0.379996,-0.024 0.564,-0.072 0.183996,-0.056 0.355996,-0.127999 0.516,-0.216 0.159995,-0.088 0.299995,-0.195999 0.42,-0.324 0.127995,-0.127999 0.223995,-0.271998 0.288,-0.432 l 0.912,0.252 c -0.104006,0.232001 -0.248006,0.444001 -0.432,0.636 -0.176006,0.192001 -0.384005,0.36 -0.624,0.504 -0.232005,0.136 -0.492005,0.244 -0.78,0.324 -0.288004,0.08 -0.588004,0.12 -0.9,0.12 m 2.148,-3.672 c -0.02401,-0.295996 -0.100006,-0.567996 -0.228,-0.816 -0.120005,-0.255995 -0.276005,-0.471995 -0.468,-0.648 -0.184005,-0.175995 -0.400005,-0.311995 -0.648,-0.408 -0.248004,-0.103994 -0.512004,-0.155994 -0.792,-0.156 -0.280003,6e-6 -0.544003,0.05201 -0.792,0.156 -0.248003,0.096 -0.468002,0.236005 -0.66,0.42 -0.184002,0.176005 -0.336002,0.388005 -0.456,0.636 -0.112002,0.248004 -0.180001,0.520004 -0.204,0.816 l 4.248,0"
       style="fill:#373b41;fill-opacity:0.75294118;"
       id="path3706" />
    <path
       d="m 37.384127,52.295499 c -0.432003,0 -0.832003,-0.088 -1.2,-0.264 -0.368002,-0.176 -0.684002,-0.411999 -0.948,-0.708 -0.264001,-0.295999 -0.472001,-0.639999 -0.624,-1.032 -0.144001,-0.391998 -0.216001,-0.803997 -0.216,-1.236 -10e-7,-0.439996 0.068,-0.855996 0.204,-1.248 0.143999,-0.399995 0.339999,-0.747995 0.588,-1.044 0.255998,-0.295994 0.555998,-0.527994 0.9,-0.696 0.351997,-0.175994 0.735997,-0.263994 1.152,-0.264 0.503996,6e-6 0.951995,0.132006 1.344,0.396 0.399995,0.264006 0.715994,0.584005 0.948,0.96 l 0,-3.744 1.056,0 0,7.464 c -7e-6,0.248001 0.111993,0.376001 0.336,0.384 l 0,0.912 c -0.08801,0.016 -0.168007,0.028 -0.24,0.036 -0.06401,0.008 -0.124007,0.012 -0.18,0.012 -0.240007,0 -0.432007,-0.06 -0.576,-0.18 -0.144006,-0.128 -0.220006,-0.28 -0.228,-0.456 l -0.024,-0.588 c -0.248006,0.408001 -0.580006,0.728 -0.996,0.96 -0.408005,0.224 -0.840004,0.336 -1.296,0.336 m 0.252,-0.912 c 0.191996,10e-7 0.387996,-0.036 0.588,-0.108 0.207995,-0.072 0.399995,-0.171999 0.576,-0.3 0.183995,-0.127999 0.339994,-0.275999 0.468,-0.444 0.135994,-0.175998 0.223994,-0.359998 0.264,-0.552 l 0,-1.8 c -0.07201,-0.199996 -0.180006,-0.387996 -0.324,-0.564 -0.144006,-0.183995 -0.308005,-0.339995 -0.492,-0.468 -0.176005,-0.135995 -0.368005,-0.239995 -0.576,-0.312 -0.200004,-0.07999 -0.400004,-0.119995 -0.6,-0.12 -0.312004,5e-6 -0.596003,0.068 -0.852,0.204 -0.248003,0.128005 -0.464003,0.304005 -0.648,0.528 -0.176002,0.216005 -0.312002,0.468004 -0.408,0.756 -0.096,0.280004 -0.144002,0.568003 -0.144,0.864 -2e-6,0.312003 0.056,0.612002 0.168,0.9 0.111998,0.280002 0.263998,0.524002 0.456,0.732 0.191997,0.208001 0.415997,0.376001 0.672,0.504 0.263997,0.120001 0.547996,0.180001 0.852,0.18"
       style="fill:#373b41;fill-opacity:0.75294118;"
       id="path3708" />
    <path
       d="m 48.145877,52.295499 c -0.472004,0 -0.904003,-0.088 -1.296,-0.264 -0.384002,-0.176 -0.716002,-0.411999 -0.996,-0.708 -0.272001,-0.295999 -0.484001,-0.639999 -0.636,-1.032 -0.152001,-0.391998 -0.228001,-0.803997 -0.228,-1.236 -10e-7,-0.439996 0.076,-0.855996 0.228,-1.248 0.159999,-0.391995 0.375999,-0.735995 0.648,-1.032 0.279998,-0.295994 0.611998,-0.531994 0.996,-0.708 0.391997,-0.175994 0.819996,-0.263994 1.284,-0.264 0.463996,6e-6 0.891995,0.08801 1.284,0.264 0.391994,0.176006 0.723994,0.412006 0.996,0.708 0.279993,0.296005 0.495993,0.640005 0.648,1.032 0.159993,0.392004 0.239993,0.808004 0.24,1.248 -7e-6,0.432003 -0.07601,0.844002 -0.228,1.236 -0.152007,0.392001 -0.368007,0.736001 -0.648,1.032 -0.280006,0.296001 -0.616006,0.532 -1.008,0.708 -0.384005,0.176 -0.812004,0.264 -1.284,0.264 m -2.076,-3.228 c -2e-6,0.328003 0.052,0.632002 0.156,0.912 0.111998,0.280002 0.259998,0.524002 0.444,0.732 0.191997,0.208001 0.411997,0.372001 0.66,0.492 0.255997,0.120001 0.527996,0.180001 0.816,0.18 0.287996,10e-7 0.555995,-0.06 0.804,-0.18 0.255995,-0.119999 0.479995,-0.283999 0.672,-0.492 0.191994,-0.215998 0.339994,-0.463998 0.444,-0.744 0.111994,-0.287998 0.167994,-0.595997 0.168,-0.924 -6e-6,-0.319997 -0.05601,-0.619996 -0.168,-0.9 -0.104006,-0.287996 -0.252006,-0.535995 -0.444,-0.744 -0.192005,-0.215995 -0.416005,-0.383995 -0.672,-0.504 -0.248005,-0.119995 -0.516004,-0.179995 -0.804,-0.18 -0.288004,5e-6 -0.560003,0.06401 -0.816,0.192 -0.248003,0.120005 -0.468003,0.288005 -0.66,0.504 -0.184002,0.208005 -0.332002,0.456004 -0.444,0.744 -0.104002,0.280004 -0.156002,0.584003 -0.156,0.912"
       style="fill:#373b41;fill-opacity:0.75294118;"
       id="path3710" />
    <path
       d="m 57.993752,52.175499 -1.056,0 0,-3.504 c -6e-6,-0.671996 -0.104006,-1.159995 -0.312,-1.464 -0.200005,-0.303995 -0.508005,-0.455995 -0.924,-0.456 -0.216004,5e-6 -0.432004,0.044 -0.648,0.132 -0.216004,0.08 -0.420003,0.192005 -0.612,0.336 -0.192003,0.144005 -0.360003,0.316005 -0.504,0.516 -0.144002,0.200004 -0.252002,0.420004 -0.324,0.66 l 0,3.78 -1.056,0 0,-6.264 0.96,0 0,1.344 c 0.247998,-0.439995 0.603997,-0.791994 1.068,-1.056 0.471996,-0.263994 0.983996,-0.395994 1.536,-0.396 0.359995,6e-6 0.659995,0.06801 0.9,0.204 0.239994,0.128006 0.431994,0.312006 0.576,0.552 0.143994,0.232005 0.243993,0.508005 0.3,0.828 0.06399,0.320004 0.09599,0.668004 0.096,1.044 l 0,3.744"
       style="fill:#373b41;fill-opacity:0.75294118;"
       id="path3712" />
    <path
       d="m 68.840439,51.023499 c -0.752006,0.808 -1.616005,1.212 -2.592,1.212 -0.568004,0 -1.096003,-0.124 -1.584,-0.372 -0.480002,-0.247999 -0.896002,-0.571999 -1.248,-0.972 -0.352001,-0.407998 -0.632001,-0.871998 -0.84,-1.392 -0.200001,-0.519997 -0.3,-1.055996 -0.3,-1.608 0,-0.575995 0.1,-1.119995 0.3,-1.632 0.199999,-0.519994 0.475999,-0.975993 0.828,-1.368 0.351998,-0.399992 0.771998,-0.715992 1.26,-0.948 0.487997,-0.231992 1.015996,-0.347991 1.584,-0.348 0.823995,9e-6 1.499994,0.172008 2.028,0.516 0.535993,0.344008 0.943993,0.792007 1.224,1.344 l -0.828,0.576 c -0.256007,-0.495993 -0.596006,-0.863993 -1.02,-1.104 -0.424005,-0.239993 -0.900005,-0.359992 -1.428,-0.36 -0.432004,8e-6 -0.824004,0.09601 -1.176,0.288 -0.352003,0.184007 -0.652003,0.432007 -0.9,0.744 -0.248002,0.304006 -0.440002,0.660006 -0.576,1.068 -0.136002,0.400005 -0.204001,0.816005 -0.204,1.248 -1e-6,0.456004 0.076,0.888003 0.228,1.296 0.151998,0.400003 0.359998,0.756002 0.624,1.068 0.263997,0.304002 0.575997,0.544001 0.936,0.72 0.359996,0.176001 0.751996,0.264001 1.176,0.264 0.927995,10e-7 1.763994,-0.447999 2.508,-1.344 l 0,-1.176 -1.836,0 0,-0.816 2.748,0 0,4.248 -0.912,0 0,-1.152"
       style="fill:#373b41;fill-opacity:0.75294118;"
       id="path3714" />
    <path
       d="m 76.673439,52.175499 -1.056,0 0,-3.504 c -5e-6,-0.671996 -0.104005,-1.159995 -0.312,-1.464 -0.200005,-0.303995 -0.508004,-0.455995 -0.924,-0.456 -0.216004,5e-6 -0.432003,0.044 -0.648,0.132 -0.216003,0.08 -0.420003,0.192005 -0.612,0.336 -0.192002,0.144005 -0.360002,0.316005 -0.504,0.516 -0.144002,0.200004 -0.252002,0.420004 -0.324,0.66 l 0,3.78 -1.056,0 0,-6.264 0.96,0 0,1.344 c 0.247998,-0.439995 0.603998,-0.791994 1.068,-1.056 0.471997,-0.263994 0.983996,-0.395994 1.536,-0.396 0.359995,6e-6 0.659995,0.06801 0.9,0.204 0.239995,0.128006 0.431994,0.312006 0.576,0.552 0.143994,0.232005 0.243994,0.508005 0.3,0.828 0.06399,0.320004 0.09599,0.668004 0.096,1.044 l 0,3.744"
       style="fill:#373b41;fill-opacity:0.75294118;"
       id="path3716" />
    <path
       d="m 81.028689,52.295499 c -0.472003,0 -0.904003,-0.088 -1.296,-0.264 -0.384002,-0.176 -0.716001,-0.411999 -0.996,-0.708 -0.272001,-0.295999 -0.484001,-0.639999 -0.636,-1.032 -0.152,-0.391998 -0.228,-0.803997 -0.228,-1.236 0,-0.439996 0.076,-0.855996 0.228,-1.248 0.159999,-0.391995 0.375999,-0.735995 0.648,-1.032 0.279998,-0.295994 0.611998,-0.531994 0.996,-0.708 0.391997,-0.175994 0.819997,-0.263994 1.284,-0.264 0.463996,6e-6 0.891996,0.08801 1.284,0.264 0.391995,0.176006 0.723994,0.412006 0.996,0.708 0.279994,0.296005 0.495994,0.640005 0.648,1.032 0.159993,0.392004 0.239993,0.808004 0.24,1.248 -7e-6,0.432003 -0.07601,0.844002 -0.228,1.236 -0.152006,0.392001 -0.368006,0.736001 -0.648,1.032 -0.280006,0.296001 -0.616005,0.532 -1.008,0.708 -0.384004,0.176 -0.812004,0.264 -1.284,0.264 m -2.076,-3.228 c -1e-6,0.328003 0.052,0.632002 0.156,0.912 0.111998,0.280002 0.259998,0.524002 0.444,0.732 0.191998,0.208001 0.411998,0.372001 0.66,0.492 0.255997,0.120001 0.527997,0.180001 0.816,0.18 0.287996,10e-7 0.555996,-0.06 0.804,-0.18 0.255995,-0.119999 0.479995,-0.283999 0.672,-0.492 0.191995,-0.215998 0.339995,-0.463998 0.444,-0.744 0.111994,-0.287998 0.167994,-0.595997 0.168,-0.924 -6e-6,-0.319997 -0.05601,-0.619996 -0.168,-0.9 -0.104005,-0.287996 -0.252005,-0.535995 -0.444,-0.744 -0.192005,-0.215995 -0.416005,-0.383995 -0.672,-0.504 -0.248004,-0.119995 -0.516004,-0.179995 -0.804,-0.18 -0.288003,5e-6 -0.560003,0.06401 -0.816,0.192 -0.248002,0.120005 -0.468002,0.288005 -0.66,0.504 -0.184002,0.208005 -0.332002,0.456004 -0.444,0.744 -0.104001,0.280004 -0.156001,0.584003 -0.156,0.912"
       style="fill:#373b41;fill-opacity:0.75294118;"
       id="path3718" />
    <path
       d="m 94.884564,52.175499 -1.056,0 0,-3.504 c -9e-6,-0.655996 -0.108009,-1.139995 -0.324,-1.452 -0.208009,-0.311995 -0.520008,-0.467995 -0.936,-0.468 -0.432007,5e-6 -0.820007,0.156005 -1.164,0.468 -0.336006,0.304005 -0.576006,0.700004 -0.72,1.188 l 0,3.768 -1.056,0 0,-3.504 c -5e-6,-0.671996 -0.104005,-1.159995 -0.312,-1.464 -0.208004,-0.303995 -0.520004,-0.455995 -0.936,-0.456 -0.424003,5e-6 -0.808003,0.152005 -1.152,0.456 -0.344002,0.296005 -0.588002,0.692004 -0.732,1.188 l 0,3.78 -1.056,0 0,-6.264 0.96,0 0,1.344 c 0.255998,-0.463995 0.587998,-0.819994 0.996,-1.068 0.407997,-0.255994 0.867996,-0.383994 1.38,-0.384 0.527995,6e-6 0.943995,0.144006 1.248,0.432 0.311994,0.280006 0.503994,0.644005 0.576,1.092 0.559994,-1.015994 1.355993,-1.523994 2.388,-1.524 0.359991,6e-6 0.659991,0.06801 0.9,0.204 0.247991,0.128006 0.44399,0.312006 0.588,0.552 0.14399,0.232005 0.24799,0.508005 0.312,0.828 0.06399,0.320004 0.09599,0.668004 0.096,1.044 l 0,3.744"
       style="fill:#373b41;fill-opacity:0.75294118;"
       id="path3720" />
    <path
       d="m 99.275627,52.295499 c -0.472004,0 -0.904003,-0.084 -1.296,-0.252 -0.392002,-0.176 -0.728002,-0.411999 -1.008,-0.708 -0.280001,-0.295999 -0.500001,-0.639999 -0.66,-1.032 -0.152001,-0.399998 -0.228001,-0.819997 -0.228,-1.26 -1e-6,-0.439996 0.076,-0.855996 0.228,-1.248 0.159999,-0.391995 0.379999,-0.735995 0.66,-1.032 0.287998,-0.295994 0.627998,-0.527994 1.02,-0.696 0.391997,-0.175994 0.823996,-0.263994 1.296,-0.264 0.471995,6e-6 0.899993,0.08801 1.284003,0.264 0.39199,0.176006 0.72399,0.412006 0.996,0.708 0.27199,0.288005 0.47999,0.628005 0.624,1.02 0.15199,0.384004 0.22799,0.784004 0.228,1.2 -1e-5,0.088 -0.004,0.168003 -0.012,0.24 -1e-5,0.072 -0.004,0.128003 -0.012,0.168 l -5.196003,0 c 0.024,0.312002 0.096,0.596002 0.216,0.852 0.119998,0.256002 0.275998,0.476001 0.468,0.66 0.191997,0.184001 0.407997,0.328001 0.648,0.432 0.247996,0.104001 0.507996,0.156001 0.78,0.156 0.191996,1e-6 0.379996,-0.024 0.564,-0.072 0.183993,-0.056 0.355993,-0.127999 0.516003,-0.216 0.15999,-0.088 0.29999,-0.195999 0.42,-0.324 0.12799,-0.127999 0.22399,-0.271998 0.288,-0.432 l 0.912,0.252 c -0.10401,0.232001 -0.24801,0.444001 -0.432,0.636 -0.17601,0.192001 -0.38401,0.36 -0.624,0.504 -0.23201,0.136 -0.49201,0.244 -0.78,0.324 -0.288008,0.08 -0.588007,0.12 -0.900003,0.12 m 2.148003,-3.672 c -0.024,-0.295996 -0.10001,-0.567996 -0.228,-0.816 -0.12001,-0.255995 -0.27601,-0.471995 -0.468,-0.648 -0.18401,-0.175995 -0.40001,-0.311995 -0.648,-0.408 -0.248008,-0.103994 -0.512007,-0.155994 -0.792003,-0.156 -0.280004,6e-6 -0.544004,0.05201 -0.792,0.156 -0.248003,0.096 -0.468003,0.236005 -0.66,0.42 -0.184002,0.176005 -0.336002,0.388005 -0.456,0.636 -0.112002,0.248004 -0.180002,0.520004 -0.204,0.816 l 4.248003,0"
       style="fill:#373b41;fill-opacity:0.75294118;"
       id="path3722" />
    <path
       d="m 103.17881,45.143499 0,-1.584 0.912,0 0,1.584 -0.912,0"
       style="fill:#373b41;fill-opacity:0.75294118;"
       id="path3724" />
    <path
       d="m 107.72306,52.295499 c -0.504,0 -1,-0.076 -1.488,-0.228 -0.488,-0.16 -0.908,-0.388 -1.26,-0.684 l 0.456,-0.708 c 0.368,0.280001 0.736,0.492001 1.104,0.636 0.368,0.136001 0.756,0.204001 1.164,0.204 0.456,1e-6 0.816,-0.088 1.08,-0.264 0.272,-0.183999 0.408,-0.439999 0.408,-0.768 0,-0.151998 -0.036,-0.279998 -0.108,-0.384 -0.072,-0.111998 -0.18,-0.207998 -0.324,-0.288 -0.144,-0.08 -0.328,-0.151997 -0.552,-0.216 -0.224,-0.064 -0.484,-0.131997 -0.78,-0.204 -0.376,-0.096 -0.7,-0.187997 -0.972,-0.276 -0.272,-0.088 -0.496,-0.191997 -0.672,-0.312 -0.176,-0.119997 -0.304,-0.263996 -0.384,-0.432 -0.08,-0.167996 -0.12,-0.375996 -0.12,-0.624 0,-0.311995 0.06,-0.587995 0.18,-0.828 0.128,-0.247994 0.3,-0.451994 0.516,-0.612 0.216,-0.167994 0.468,-0.291994 0.756,-0.372 0.296,-0.08799 0.612,-0.131994 0.948,-0.132 0.472,6e-6 0.912,0.07601 1.32,0.228 0.408,0.152006 0.752,0.352006 1.032,0.6 l -0.48,0.636 c -0.264,-0.231995 -0.56,-0.403995 -0.888,-0.516 -0.328,-0.119994 -0.664,-0.179994 -1.008,-0.18 -0.384,6e-6 -0.712,0.08401 -0.984,0.252 -0.264,0.160005 -0.396,0.420005 -0.396,0.78 0,0.144004 0.024,0.264004 0.072,0.36 0.056,0.096 0.144,0.180004 0.264,0.252 0.12,0.072 0.272,0.136004 0.456,0.192 0.192,0.056 0.42,0.116004 0.684,0.18 0.416,0.096 0.776,0.196003 1.08,0.3 0.312,0.096 0.568,0.212003 0.768,0.348 0.208,0.136003 0.36,0.296003 0.456,0.48 0.104,0.184002 0.156,0.408002 0.156,0.672 0,0.584001 -0.224,1.048001 -0.672,1.392 -0.448,0.344 -1.052,0.516 -1.812,0.516"
       style="fill:#373b41;fill-opacity:0.75294118;"
       id="path3726" />
    <path
       d="m 114.43275,52.175499 0,-6.264 1.056,0 0,6.264 -1.056,0 m 0,-7.44 0,-1.32 1.056,0 0,1.32 -1.056,0"
       style="fill:#373b41;fill-opacity:0.75294118;"
       id="path3728" />
    <path
       d="m 116.7555,49.031499 c 0,-0.439996 0.076,-0.855996 0.228,-1.248 0.152,-0.391995 0.368,-0.731995 0.648,-1.02 0.28,-0.295994 0.612,-0.527994 0.996,-0.696 0.392,-0.175994 0.828,-0.263994 1.308,-0.264 0.624,6e-6 1.16,0.140006 1.608,0.42 0.456,0.272006 0.8,0.640005 1.032,1.104 l -1.032,0.324 c -0.16,-0.295995 -0.384,-0.523995 -0.672,-0.684 -0.288,-0.167995 -0.608,-0.251995 -0.96,-0.252 -0.288,5e-6 -0.56,0.06 -0.816,0.18 -0.256,0.112005 -0.476,0.272005 -0.66,0.48 -0.184,0.208005 -0.332,0.452004 -0.444,0.732 -0.104,0.280004 -0.156,0.588003 -0.156,0.924 0,0.328003 0.056,0.636003 0.168,0.924 0.112,0.288002 0.26,0.540002 0.444,0.756 0.192,0.208001 0.412,0.372001 0.66,0.492 0.256,0.120001 0.528,0.180001 0.816,0.18 0.184,10e-7 0.364,-0.024 0.54,-0.072 0.184,-0.056 0.348,-0.127999 0.492,-0.216 0.152,-0.088 0.284,-0.187999 0.396,-0.3 0.112,-0.119998 0.192,-0.247998 0.24,-0.384 l 1.032,0.312 c -0.096,0.232001 -0.232,0.444001 -0.408,0.636 -0.168,0.192001 -0.368,0.356 -0.6,0.492 -0.232,0.136 -0.492,0.244 -0.78,0.324 -0.28,0.08 -0.576,0.12 -0.888,0.12 -0.472,0 -0.904,-0.088 -1.296,-0.264 -0.392,-0.176 -0.728,-0.411999 -1.008,-0.708 -0.28,-0.295999 -0.5,-0.639999 -0.66,-1.032 -0.152,-0.399998 -0.228,-0.819997 -0.228,-1.26"
       style="fill:#373b41;fill-opacity:0.75294118;"
       id="path3730" />
    <path
       d="m 126.49744,52.295499 c -0.472,0 -0.904,-0.088 -1.296,-0.264 -0.384,-0.176 -0.716,-0.411999 -0.996,-0.708 -0.272,-0.295999 -0.484,-0.639999 -0.636,-1.032 -0.152,-0.391998 -0.228,-0.803997 -0.228,-1.236 0,-0.439996 0.076,-0.855996 0.228,-1.248 0.16,-0.391995 0.376,-0.735995 0.648,-1.032 0.28,-0.295994 0.612,-0.531994 0.996,-0.708 0.392,-0.175994 0.82,-0.263994 1.284,-0.264 0.464,6e-6 0.89199,0.08801 1.284,0.264 0.39199,0.176006 0.72399,0.412006 0.996,0.708 0.27999,0.296005 0.49599,0.640005 0.648,1.032 0.15999,0.392004 0.23999,0.808004 0.24,1.248 -1e-5,0.432003 -0.076,0.844002 -0.228,1.236 -0.15201,0.392001 -0.36801,0.736001 -0.648,1.032 -0.28001,0.296001 -0.61601,0.532 -1.008,0.708 -0.38401,0.176 -0.812,0.264 -1.284,0.264 m -2.076,-3.228 c 0,0.328003 0.052,0.632002 0.156,0.912 0.112,0.280002 0.26,0.524002 0.444,0.732 0.192,0.208001 0.412,0.372001 0.66,0.492 0.256,0.120001 0.528,0.180001 0.816,0.18 0.288,10e-7 0.55599,-0.06 0.804,-0.18 0.25599,-0.119999 0.47999,-0.283999 0.672,-0.492 0.19199,-0.215998 0.33999,-0.463998 0.444,-0.744 0.11199,-0.287998 0.16799,-0.595997 0.168,-0.924 -1e-5,-0.319997 -0.056,-0.619996 -0.168,-0.9 -0.10401,-0.287996 -0.25201,-0.535995 -0.444,-0.744 -0.19201,-0.215995 -0.41601,-0.383995 -0.672,-0.504 -0.24801,-0.119995 -0.516,-0.179995 -0.804,-0.18 -0.288,5e-6 -0.56,0.06401 -0.816,0.192 -0.248,0.120005 -0.468,0.288005 -0.66,0.504 -0.184,0.208005 -0.332,0.456004 -0.444,0.744 -0.104,0.280004 -0.156,0.584003 -0.156,0.912"
       style="fill:#373b41;fill-opacity:0.75294118;"
       id="path3732" />
    <path
       d="m 136.34531,52.175499 -1.056,0 0,-3.504 c 0,-0.671996 -0.104,-1.159995 -0.312,-1.464 -0.2,-0.303995 -0.508,-0.455995 -0.924,-0.456 -0.216,5e-6 -0.432,0.044 -0.648,0.132 -0.216,0.08 -0.42,0.192005 -0.612,0.336 -0.192,0.144005 -0.36,0.316005 -0.504,0.516 -0.144,0.200004 -0.252,0.420004 -0.324,0.66 l 0,3.78 -1.056,0 0,-6.264 0.96,0 0,1.344 c 0.248,-0.439995 0.604,-0.791994 1.068,-1.056 0.472,-0.263994 0.984,-0.395994 1.536,-0.396 0.36,6e-6 0.66,0.06801 0.9,0.204 0.24,0.128006 0.432,0.312006 0.576,0.552 0.144,0.232005 0.244,0.508005 0.3,0.828 0.064,0.320004 0.096,0.668004 0.096,1.044 l 0,3.744"
       style="fill:#373b41;fill-opacity:0.75294118;"
       id="path3734" />
    <path
       d="m 143.184,52.295499 c -0.504,0 -1,-0.076 -1.488,-0.228 -0.488,-0.16 -0.908,-0.388 -1.26,-0.684 l 0.456,-0.708 c 0.368,0.280001 0.736,0.492001 1.104,0.636 0.368,0.136001 0.756,0.204001 1.164,0.204 0.456,1e-6 0.816,-0.088 1.08,-0.264 0.272,-0.183999 0.408,-0.439999 0.408,-0.768 0,-0.151998 -0.036,-0.279998 -0.108,-0.384 -0.072,-0.111998 -0.18,-0.207998 -0.324,-0.288 -0.144,-0.08 -0.328,-0.151997 -0.552,-0.216 -0.224,-0.064 -0.484,-0.131997 -0.78,-0.204 -0.376,-0.096 -0.7,-0.187997 -0.972,-0.276 -0.272,-0.088 -0.496,-0.191997 -0.672,-0.312 -0.176,-0.119997 -0.304,-0.263996 -0.384,-0.432 -0.08,-0.167996 -0.12,-0.375996 -0.12,-0.624 0,-0.311995 0.06,-0.587995 0.18,-0.828 0.128,-0.247994 0.3,-0.451994 0.516,-0.612 0.216,-0.167994 0.468,-0.291994 0.756,-0.372 0.296,-0.08799 0.612,-0.131994 0.948,-0.132 0.472,6e-6 0.912,0.07601 1.32,0.228 0.408,0.152006 0.752,0.352006 1.032,0.6 l -0.48,0.636 c -0.264,-0.231995 -0.56,-0.403995 -0.888,-0.516 -0.328,-0.119994 -0.664,-0.179994 -1.008,-0.18 -0.384,6e-6 -0.712,0.08401 -0.984,0.252 -0.264,0.160005 -0.396,0.420005 -0.396,0.78 0,0.144004 0.024,0.264004 0.072,0.36 0.056,0.096 0.144,0.180004 0.264,0.252 0.12,0.072 0.272,0.136004 0.456,0.192 0.192,0.056 0.42,0.116004 0.684,0.18 0.416,0.096 0.776,0.196003 1.08,0.3 0.312,0.096 0.568,0.212003 0.768,0.348 0.208,0.136003 0.36,0.296003 0.456,0.48 0.104,0.184002 0.156,0.408002 0.156,0.672 0,0.584001 -0.224,1.048001 -0.672,1.392 -0.448,0.344 -1.052,0.516 -1.812,0.516"
       style="fill:#373b41;fill-opacity:0.75294118;"
       id="path3736" />
    <path
       d="m 149.66625,52.295499 c -0.472,0 -0.904,-0.084 -1.296,-0.252 -0.392,-0.176 -0.728,-0.411999 -1.008,-0.708 -0.28,-0.295999 -0.5,-0.639999 -0.66,-1.032 -0.152,-0.399998 -0.228,-0.819997 -0.228,-1.26 0,-0.439996 0.076,-0.855996 0.228,-1.248 0.16,-0.391995 0.38,-0.735995 0.66,-1.032 0.288,-0.295994 0.628,-0.527994 1.02,-0.696 0.392,-0.175994 0.824,-0.263994 1.296,-0.264 0.472,6e-6 0.9,0.08801 1.284,0.264 0.392,0.176006 0.724,0.412006 0.996,0.708 0.272,0.288005 0.48,0.628005 0.624,1.02 0.15199,0.384004 0.22799,0.784004 0.228,1.2 -1e-5,0.088 -0.004,0.168003 -0.012,0.24 -1e-5,0.072 -0.004,0.128003 -0.012,0.168 l -5.196,0 c 0.024,0.312002 0.096,0.596002 0.216,0.852 0.12,0.256002 0.276,0.476001 0.468,0.66 0.192,0.184001 0.408,0.328001 0.648,0.432 0.248,0.104001 0.508,0.156001 0.78,0.156 0.192,1e-6 0.38,-0.024 0.564,-0.072 0.184,-0.056 0.356,-0.127999 0.516,-0.216 0.16,-0.088 0.3,-0.195999 0.42,-0.324 0.128,-0.127999 0.224,-0.271998 0.288,-0.432 l 0.912,0.252 c -0.104,0.232001 -0.248,0.444001 -0.432,0.636 -0.176,0.192001 -0.384,0.36 -0.624,0.504 -0.232,0.136 -0.492,0.244 -0.78,0.324 -0.288,0.08 -0.588,0.12 -0.9,0.12 m 2.148,-3.672 c -0.024,-0.295996 -0.1,-0.567996 -0.228,-0.816 -0.12,-0.255995 -0.276,-0.471995 -0.468,-0.648 -0.184,-0.175995 -0.4,-0.311995 -0.648,-0.408 -0.248,-0.103994 -0.512,-0.155994 -0.792,-0.156 -0.28,6e-6 -0.544,0.05201 -0.792,0.156 -0.248,0.096 -0.468,0.236005 -0.66,0.42 -0.184,0.176005 -0.336,0.388005 -0.456,0.636 -0.112,0.248004 -0.18,0.520004 -0.204,0.816 l 4.248,0"
       style="fill:#373b41;fill-opacity:0.75294118;"
       id="path3738" />
    <path
       d="m 157.1535,51.863499 c -0.064,0.032 -0.148,0.072 -0.252,0.12 -0.104,0.04 -0.224,0.084 -0.36,0.132 -0.128,0.04 -0.272,0.072 -0.432,0.096 -0.152,0.032 -0.312,0.048 -0.48,0.048 -0.384,0 -0.716,-0.104 -0.996,-0.312 -0.28,-0.216 -0.42,-0.547999 -0.42,-0.996 l 0,-4.212 -0.852,0 0,-0.828 0.852,0 0,-2.088 1.056,0 0,2.088 1.404,0 0,0.828 -1.404,0 0,3.888 c 0.016,0.232001 0.092,0.400001 0.228,0.504 0.136,0.104001 0.296,0.156001 0.48,0.156 0.208,1e-6 0.396,-0.032 0.564,-0.096 0.176,-0.072 0.296,-0.127999 0.36,-0.168 l 0.252,0.84"
       style="fill:#373b41;fill-opacity:0.75294118;"
       id="path3740" />
    <path
       d="m 157.82138,52.367499 c 0.056,0 0.12,-0.02 0.192,-0.06 0.072,-0.032 0.108,-0.108 0.108,-0.228 l 0,-1.248 0.876,0 0,1.416 c -1e-5,0.168 -0.036,0.308 -0.108,0.42 -0.072,0.119999 -0.164,0.211999 -0.276,0.276 -0.112,0.072 -0.24,0.123999 -0.384,0.156 -0.136,0.032 -0.272,0.048 -0.408,0.048 l 0,-0.78"
       style="fill:#373b41;fill-opacity:0.75294118;"
       id="path3742" />
    <path
       d="m 166.98694,46.835499 c -0.528,0.016 -0.996,0.152005 -1.404,0.408 -0.4,0.256005 -0.684,0.612004 -0.852,1.068 l 0,3.864 -1.056,0 0,-6.264 0.984,0 0,1.452 c 0.216,-0.431995 0.5,-0.787994 0.852,-1.068 0.352,-0.287994 0.728,-0.431994 1.128,-0.432 0.08,6e-6 0.148,6e-6 0.204,0 0.056,6e-6 0.10399,0.004 0.144,0.012 l 0,0.96"
       style="fill:#373b41;fill-opacity:0.75294118;"
       id="path3744" />
    <path
       d="m 170.80688,52.295499 c -0.47201,0 -0.90401,-0.084 -1.296,-0.252 -0.39201,-0.176 -0.72801,-0.411999 -1.008,-0.708 -0.28,-0.295999 -0.5,-0.639999 -0.66,-1.032 -0.152,-0.399998 -0.228,-0.819997 -0.228,-1.26 0,-0.439996 0.076,-0.855996 0.228,-1.248 0.16,-0.391995 0.38,-0.735995 0.66,-1.032 0.28799,-0.295994 0.62799,-0.527994 1.02,-0.696 0.39199,-0.175994 0.82399,-0.263994 1.296,-0.264 0.47199,6e-6 0.89999,0.08801 1.284,0.264 0.39199,0.176006 0.72399,0.412006 0.996,0.708 0.27199,0.288005 0.47999,0.628005 0.624,1.02 0.15199,0.384004 0.22799,0.784004 0.228,1.2 -1e-5,0.088 -0.004,0.168003 -0.012,0.24 -1e-5,0.072 -0.004,0.128003 -0.012,0.168 l -5.196,0 c 0.024,0.312002 0.096,0.596002 0.216,0.852 0.11999,0.256002 0.27599,0.476001 0.468,0.66 0.19199,0.184001 0.40799,0.328001 0.648,0.432 0.24799,0.104001 0.50799,0.156001 0.78,0.156 0.19199,1e-6 0.37999,-0.024 0.564,-0.072 0.18399,-0.056 0.35599,-0.127999 0.516,-0.216 0.15999,-0.088 0.29999,-0.195999 0.42,-0.324 0.12799,-0.127999 0.22399,-0.271998 0.288,-0.432 l 0.912,0.252 c -0.10401,0.232001 -0.24801,0.444001 -0.432,0.636 -0.17601,0.192001 -0.38401,0.36 -0.624,0.504 -0.23201,0.136 -0.49201,0.244 -0.78,0.324 -0.28801,0.08 -0.58801,0.12 -0.9,0.12 m 2.148,-3.672 c -0.024,-0.295996 -0.10001,-0.567996 -0.228,-0.816 -0.12001,-0.255995 -0.27601,-0.471995 -0.468,-0.648 -0.18401,-0.175995 -0.40001,-0.311995 -0.648,-0.408 -0.24801,-0.103994 -0.51201,-0.155994 -0.792,-0.156 -0.28001,6e-6 -0.54401,0.05201 -0.792,0.156 -0.24801,0.096 -0.46801,0.236005 -0.66,0.42 -0.18401,0.176005 -0.33601,0.388005 -0.456,0.636 -0.11201,0.248004 -0.18,0.520004 -0.204,0.816 l 4.248,0"
       style="fill:#373b41;fill-opacity:0.75294118;"
       id="path3746" />
    <path
       d="m 175.13644,43.415499 1.056,0 0,7.14 c 0,0.232001 0.06,0.416001 0.18,0.552 0.128,0.128001 0.304,0.192001 0.528,0.192 0.088,1e-6 0.192,-0.012 0.312,-0.036 0.12,-0.032 0.232,-0.068 0.336,-0.108 l 0.168,0.852 c -0.176,0.072 -0.384,0.132 -0.624,0.18 -0.24,0.048 -0.452,0.072 -0.636,0.072 -0.408,0 -0.732,-0.116 -0.972,-0.348 -0.232,-0.232 -0.348,-0.555999 -0.348,-0.972 l 0,-7.524"
       style="fill:#373b41;fill-opacity:0.75294118;"
       id="path3748" />
    <path
       d="m 181.26,52.295499 c -0.472,0 -0.904,-0.084 -1.296,-0.252 -0.392,-0.176 -0.728,-0.411999 -1.008,-0.708 -0.28,-0.295999 -0.5,-0.639999 -0.66,-1.032 -0.152,-0.399998 -0.228,-0.819997 -0.228,-1.26 0,-0.439996 0.076,-0.855996 0.228,-1.248 0.16,-0.391995 0.38,-0.735995 0.66,-1.032 0.288,-0.295994 0.628,-0.527994 1.02,-0.696 0.392,-0.175994 0.824,-0.263994 1.296,-0.264 0.472,6e-6 0.9,0.08801 1.284,0.264 0.392,0.176006 0.724,0.412006 0.996,0.708 0.272,0.288005 0.48,0.628005 0.624,1.02 0.15199,0.384004 0.22799,0.784004 0.228,1.2 -1e-5,0.088 -0.004,0.168003 -0.012,0.24 -1e-5,0.072 -0.004,0.128003 -0.012,0.168 l -5.196,0 c 0.024,0.312002 0.096,0.596002 0.216,0.852 0.12,0.256002 0.276,0.476001 0.468,0.66 0.192,0.184001 0.408,0.328001 0.648,0.432 0.248,0.104001 0.508,0.156001 0.78,0.156 0.192,1e-6 0.38,-0.024 0.564,-0.072 0.184,-0.056 0.356,-0.127999 0.516,-0.216 0.16,-0.088 0.3,-0.195999 0.42,-0.324 0.128,-0.127999 0.224,-0.271998 0.288,-0.432 l 0.912,0.252 c -0.104,0.232001 -0.248,0.444001 -0.432,0.636 -0.176,0.192001 -0.384,0.36 -0.624,0.504 -0.232,0.136 -0.492,0.244 -0.78,0.324 -0.288,0.08 -0.588,0.12 -0.9,0.12 m 2.148,-3.672 c -0.024,-0.295996 -0.1,-0.567996 -0.228,-0.816 -0.12,-0.255995 -0.276,-0.471995 -0.468,-0.648 -0.184,-0.175995 -0.4,-0.311995 -0.648,-0.408 -0.248,-0.103994 -0.512,-0.155994 -0.792,-0.156 -0.28,6e-6 -0.544,0.05201 -0.792,0.156 -0.248,0.096 -0.468,0.236005 -0.66,0.42 -0.184,0.176005 -0.336,0.388005 -0.456,0.636 -0.112,0.248004 -0.18,0.520004 -0.204,0.816 l 4.248,0"
       style="fill:#373b41;fill-opacity:0.75294118;"
       id="path3750" />
    <path
       d="m 187.25756,52.295499 c -0.312,0 -0.6,-0.048 -0.864,-0.144 -0.264,-0.104 -0.492,-0.24 -0.684,-0.408 -0.192,-0.175999 -0.344,-0.379999 -0.456,-0.612 -0.104,-0.239999 -0.156,-0.491998 -0.156,-0.756 0,-0.295998 0.064,-0.563998 0.192,-0.804 0.128,-0.247997 0.308,-0.455997 0.54,-0.624 0.24,-0.175997 0.52,-0.307996 0.84,-0.396 0.328,-0.096 0.684,-0.143996 1.068,-0.144 0.304,4e-6 0.612,0.028 0.924,0.084 0.312,0.056 0.588,0.132004 0.828,0.228 l 0,-0.504 c 0,-0.511996 -0.144,-0.911995 -0.432,-1.2 -0.288,-0.295995 -0.696,-0.443994 -1.224,-0.444 -0.632,6e-6 -1.296,0.244005 -1.992,0.732 l -0.348,-0.684 c 0.408,-0.271994 0.812,-0.475994 1.212,-0.612 0.4,-0.135994 0.816,-0.203994 1.248,-0.204 0.8,6e-6 1.432,0.220006 1.896,0.66 0.464,0.440005 0.696,1.060005 0.696,1.86 l 0,2.556 c 0,0.248001 0.112,0.376001 0.336,0.384 l 0,0.912 c -0.08,0.016 -0.156,0.028 -0.228,0.036 -0.072,0.008 -0.14,0.012 -0.204,0.012 -0.176,0 -0.348,-0.048 -0.516,-0.144 -0.168,-0.096 -0.26,-0.26 -0.276,-0.492 l -0.024,-0.444 c -0.144,0.192001 -0.308,0.360001 -0.492,0.504 -0.184,0.144 -0.38,0.264 -0.588,0.36 -0.208,0.096 -0.424,0.168 -0.648,0.216 -0.216,0.048 -0.432,0.072 -0.648,0.072 m 0.264,-0.792 c 0.336,1e-6 0.664,-0.072 0.984,-0.216 0.32,-0.143999 0.572,-0.319999 0.756,-0.528 0.152,-0.175998 0.228,-0.339998 0.228,-0.492 l 0,-0.924 c -0.248,-0.096 -0.512,-0.167997 -0.792,-0.216 -0.272,-0.056 -0.536,-0.084 -0.792,-0.084 -0.544,3e-6 -0.98,0.112003 -1.308,0.336 -0.328,0.216003 -0.492,0.516002 -0.492,0.9 0,0.160002 0.032,0.316002 0.096,0.468 0.064,0.144001 0.156,0.272001 0.276,0.384 0.12,0.112001 0.268,0.204001 0.444,0.276 0.176,0.064 0.376,0.096 0.6,0.096"
       style="fill:#373b41;fill-opacity:0.75294118;"
       id="path3752" />
    <path
       d="m 194.46525,52.295499 c -0.504,0 -1,-0.076 -1.488,-0.228 -0.488,-0.16 -0.908,-0.388 -1.26,-0.684 l 0.456,-0.708 c 0.368,0.280001 0.736,0.492001 1.104,0.636 0.368,0.136001 0.756,0.204001 1.164,0.204 0.456,1e-6 0.816,-0.088 1.08,-0.264 0.272,-0.183999 0.408,-0.439999 0.408,-0.768 0,-0.151998 -0.036,-0.279998 -0.108,-0.384 -0.072,-0.111998 -0.18,-0.207998 -0.324,-0.288 -0.144,-0.08 -0.328,-0.151997 -0.552,-0.216 -0.224,-0.064 -0.484,-0.131997 -0.78,-0.204 -0.376,-0.096 -0.7,-0.187997 -0.972,-0.276 -0.272,-0.088 -0.496,-0.191997 -0.672,-0.312 -0.176,-0.119997 -0.304,-0.263996 -0.384,-0.432 -0.08,-0.167996 -0.12,-0.375996 -0.12,-0.624 0,-0.311995 0.06,-0.587995 0.18,-0.828 0.128,-0.247994 0.3,-0.451994 0.516,-0.612 0.216,-0.167994 0.468,-0.291994 0.756,-0.372 0.296,-0.08799 0.612,-0.131994 0.948,-0.132 0.472,6e-6 0.912,0.07601 1.32,0.228 0.408,0.152006 0.752,0.352006 1.032,0.6 l -0.48,0.636 c -0.264,-0.231995 -0.56,-0.403995 -0.888,-0.516 -0.328,-0.119994 -0.664,-0.179994 -1.008,-0.18 -0.384,6e-6 -0.712,0.08401 -0.984,0.252 -0.264,0.160005 -0.396,0.420005 -0.396,0.78 0,0.144004 0.024,0.264004 0.072,0.36 0.056,0.096 0.144,0.180004 0.264,0.252 0.12,0.072 0.272,0.136004 0.456,0.192 0.192,0.056 0.42,0.116004 0.684,0.18 0.416,0.096 0.776,0.196003 1.08,0.3 0.312,0.096 0.568,0.212003 0.768,0.348 0.208,0.136003 0.36,0.296003 0.456,0.48 0.104,0.184002 0.156,0.408002 0.156,0.672 0,0.584001 -0.224,1.048001 -0.672,1.392 -0.448,0.344 -1.052,0.516 -1.812,0.516"
       style="fill:#373b41;fill-opacity:0.75294118;"
       id="path3754" />
    <path
       d="m 200.9475,52.295499 c -0.472,0 -0.904,-0.084 -1.296,-0.252 -0.392,-0.176 -0.728,-0.411999 -1.008,-0.708 -0.28,-0.295999 -0.5,-0.639999 -0.66,-1.032 -0.152,-0.399998 -0.228,-0.819997 -0.228,-1.26 0,-0.439996 0.076,-0.855996 0.228,-1.248 0.16,-0.391995 0.38,-0.735995 0.66,-1.032 0.288,-0.295994 0.628,-0.527994 1.02,-0.696 0.392,-0.175994 0.824,-0.263994 1.296,-0.264 0.472,6e-6 0.9,0.08801 1.284,0.264 0.392,0.176006 0.724,0.412006 0.996,0.708 0.272,0.288005 0.48,0.628005 0.624,1.02 0.15199,0.384004 0.22799,0.784004 0.228,1.2 -1e-5,0.088 -0.004,0.168003 -0.012,0.24 -1e-5,0.072 -0.004,0.128003 -0.012,0.168 l -5.196,0 c 0.024,0.312002 0.096,0.596002 0.216,0.852 0.12,0.256002 0.276,0.476001 0.468,0.66 0.192,0.184001 0.408,0.328001 0.648,0.432 0.248,0.104001 0.508,0.156001 0.78,0.156 0.192,1e-6 0.38,-0.024 0.564,-0.072 0.184,-0.056 0.356,-0.127999 0.516,-0.216 0.16,-0.088 0.3,-0.195999 0.42,-0.324 0.128,-0.127999 0.224,-0.271998 0.288,-0.432 l 0.912,0.252 c -0.104,0.232001 -0.248,0.444001 -0.432,0.636 -0.176,0.192001 -0.384,0.36 -0.624,0.504 -0.232,0.136 -0.492,0.244 -0.78,0.324 -0.288,0.08 -0.588,0.12 -0.9,0.12 m 2.148,-3.672 c -0.024,-0.295996 -0.1,-0.567996 -0.228,-0.816 -0.12,-0.255995 -0.276,-0.471995 -0.468,-0.648 -0.184,-0.175995 -0.4,-0.311995 -0.648,-0.408 -0.248,-0.103994 -0.512,-0.155994 -0.792,-0.156 -0.28,6e-6 -0.544,0.05201 -0.792,0.156 -0.248,0.096 -0.468,0.236005 -0.66,0.42 -0.184,0.176005 -0.336,0.388005 -0.456,0.636 -0.112,0.248004 -0.18,0.520004 -0.204,0.816 l 4.248,0"
       style="fill:#373b41;fill-opacity:0.75294118;"
       id="path3756" />
    <path
       d="m 207.84506,52.295499 c -0.432,0 -0.832,-0.088 -1.2,-0.264 -0.368,-0.176 -0.684,-0.411999 -0.948,-0.708 -0.264,-0.295999 -0.472,-0.639999 -0.624,-1.032 -0.144,-0.391998 -0.216,-0.803997 -0.216,-1.236 0,-0.439996 0.068,-0.855996 0.204,-1.248 0.144,-0.399995 0.34,-0.747995 0.588,-1.044 0.256,-0.295994 0.556,-0.527994 0.9,-0.696 0.352,-0.175994 0.736,-0.263994 1.152,-0.264 0.504,6e-6 0.952,0.132006 1.344,0.396 0.4,0.264006 0.716,0.584005 0.948,0.96 l 0,-3.744 1.056,0 0,7.464 c 0,0.248001 0.112,0.376001 0.336,0.384 l 0,0.912 c -0.088,0.016 -0.168,0.028 -0.24,0.036 -0.064,0.008 -0.124,0.012 -0.18,0.012 -0.24,0 -0.432,-0.06 -0.576,-0.18 -0.144,-0.128 -0.22,-0.28 -0.228,-0.456 l -0.024,-0.588 c -0.248,0.408001 -0.58,0.728 -0.996,0.96 -0.408,0.224 -0.84,0.336 -1.296,0.336 m 0.252,-0.912 c 0.192,10e-7 0.388,-0.036 0.588,-0.108 0.208,-0.072 0.4,-0.171999 0.576,-0.3 0.184,-0.127999 0.34,-0.275999 0.468,-0.444 0.136,-0.175998 0.224,-0.359998 0.264,-0.552 l 0,-1.8 c -0.072,-0.199996 -0.18,-0.387996 -0.324,-0.564 -0.144,-0.183995 -0.308,-0.339995 -0.492,-0.468 -0.176,-0.135995 -0.368,-0.239995 -0.576,-0.312 -0.2,-0.07999 -0.4,-0.119995 -0.6,-0.12 -0.312,5e-6 -0.596,0.068 -0.852,0.204 -0.248,0.128005 -0.464,0.304005 -0.648,0.528 -0.176,0.216005 -0.312,0.468004 -0.408,0.756 -0.096,0.280004 -0.144,0.568003 -0.144,0.864 0,0.312003 0.056,0.612002 0.168,0.9 0.112,0.280002 0.264,0.524002 0.456,0.732 0.192,0.208001 0.416,0.376001 0.672,0.504 0.264,0.120001 0.548,0.180001 0.852,0.18"
       style="fill:#373b41;fill-opacity:0.75294118;"
       id="path3758" />
    <path
       d="m 217.77881,52.295499 c -0.656,0 -1.152,-0.22 -1.488,-0.66 -0.336,-0.439999 -0.504,-1.095998 -0.504,-1.968 l 0,-3.756 1.056,0 0,3.552 c 0,1.280001 0.444,1.920001 1.332,1.92 0.432,10e-7 0.836,-0.135999 1.212,-0.408 0.384,-0.279999 0.668,-0.659998 0.852,-1.14 l 0,-3.924 1.056,0 0,4.968 c 0,0.248001 0.112,0.376001 0.336,0.384 l 0,0.912 c -0.088,0.016 -0.168,0.028 -0.24,0.036 -0.064,0.008 -0.124,0.012 -0.18,0.012 -0.24,0 -0.428,-0.056 -0.564,-0.168 -0.136,-0.12 -0.212,-0.276 -0.228,-0.468 l -0.036,-0.756 c -0.28,0.472001 -0.648,0.836001 -1.104,1.092 -0.456,0.248 -0.956,0.372 -1.5,0.372"
       style="fill:#373b41;fill-opacity:0.75294118;"
       id="path3760" />
    <path
       d="m 228.525,52.175499 -1.056,0 0,-3.504 c 0,-0.671996 -0.104,-1.159995 -0.312,-1.464 -0.2,-0.303995 -0.508,-0.455995 -0.924,-0.456 -0.216,5e-6 -0.432,0.044 -0.648,0.132 -0.216,0.08 -0.42,0.192005 -0.612,0.336 -0.192,0.144005 -0.36,0.316005 -0.504,0.516 -0.144,0.200004 -0.252,0.420004 -0.324,0.66 l 0,3.78 -1.056,0 0,-6.264 0.96,0 0,1.344 c 0.248,-0.439995 0.604,-0.791994 1.068,-1.056 0.472,-0.263994 0.984,-0.395994 1.536,-0.396 0.36,6e-6 0.66,0.06801 0.9,0.204 0.24,0.128006 0.432,0.312006 0.576,0.552 0.144,0.232005 0.244,0.508005 0.3,0.828 0.064,0.320004 0.096,0.668004 0.096,1.044 l 0,3.744"
       style="fill:#373b41;fill-opacity:0.75294118;"
       id="path3762" />
    <path
       d="m 232.71225,52.295499 c -0.432,0 -0.832,-0.088 -1.2,-0.264 -0.368,-0.176 -0.684,-0.411999 -0.948,-0.708 -0.264,-0.295999 -0.472,-0.639999 -0.624,-1.032 -0.144,-0.391998 -0.216,-0.803997 -0.216,-1.236 0,-0.439996 0.068,-0.855996 0.204,-1.248 0.144,-0.399995 0.34,-0.747995 0.588,-1.044 0.256,-0.295994 0.556,-0.527994 0.9,-0.696 0.352,-0.175994 0.736,-0.263994 1.152,-0.264 0.504,6e-6 0.952,0.132006 1.344,0.396 0.4,0.264006 0.716,0.584005 0.948,0.96 l 0,-3.744 1.056,0 0,7.464 c -1e-5,0.248001 0.11199,0.376001 0.336,0.384 l 0,0.912 c -0.088,0.016 -0.16801,0.028 -0.24,0.036 -0.064,0.008 -0.12401,0.012 -0.18,0.012 -0.24,0 -0.432,-0.06 -0.576,-0.18 -0.144,-0.128 -0.22,-0.28 -0.228,-0.456 l -0.024,-0.588 c -0.248,0.408001 -0.58,0.728 -0.996,0.96 -0.408,0.224 -0.84,0.336 -1.296,0.336 m 0.252,-0.912 c 0.192,10e-7 0.388,-0.036 0.588,-0.108 0.208,-0.072 0.4,-0.171999 0.576,-0.3 0.184,-0.127999 0.34,-0.275999 0.468,-0.444 0.136,-0.175998 0.224,-0.359998 0.264,-0.552 l 0,-1.8 c -0.072,-0.199996 -0.18,-0.387996 -0.324,-0.564 -0.144,-0.183995 -0.308,-0.339995 -0.492,-0.468 -0.176,-0.135995 -0.368,-0.239995 -0.576,-0.312 -0.2,-0.07999 -0.4,-0.119995 -0.6,-0.12 -0.312,5e-6 -0.596,0.068 -0.852,0.204 -0.248,0.128005 -0.464,0.304005 -0.648,0.528 -0.176,0.216005 -0.312,0.468004 -0.408,0.756 -0.096,0.280004 -0.144,0.568003 -0.144,0.864 0,0.312003 0.056,0.612002 0.168,0.9 0.112,0.280002 0.264,0.524002 0.456,0.732 0.192,0.208001 0.416,0.376001 0.672,0.504 0.264,0.120001 0.548,0.180001 0.852,0.18"
       style="fill:#373b41;fill-opacity:0.75294118;"
       id="path3764" />
    <path
       d="m 240.48656,52.295499 c -0.472,0 -0.904,-0.084 -1.296,-0.252 -0.392,-0.176 -0.728,-0.411999 -1.008,-0.708 -0.28,-0.295999 -0.5,-0.639999 -0.66,-1.032 -0.152,-0.399998 -0.228,-0.819997 -0.228,-1.26 0,-0.439996 0.076,-0.855996 0.228,-1.248 0.16,-0.391995 0.38,-0.735995 0.66,-1.032 0.288,-0.295994 0.628,-0.527994 1.02,-0.696 0.392,-0.175994 0.824,-0.263994 1.296,-0.264 0.472,6e-6 0.9,0.08801 1.284,0.264 0.392,0.176006 0.724,0.412006 0.996,0.708 0.272,0.288005 0.48,0.628005 0.624,1.02 0.152,0.384004 0.228,0.784004 0.228,1.2 0,0.088 -0.004,0.168003 -0.012,0.24 0,0.072 -0.004,0.128003 -0.012,0.168 l -5.196,0 c 0.024,0.312002 0.096,0.596002 0.216,0.852 0.12,0.256002 0.276,0.476001 0.468,0.66 0.192,0.184001 0.408,0.328001 0.648,0.432 0.248,0.104001 0.508,0.156001 0.78,0.156 0.192,1e-6 0.38,-0.024 0.564,-0.072 0.184,-0.056 0.356,-0.127999 0.516,-0.216 0.16,-0.088 0.3,-0.195999 0.42,-0.324 0.128,-0.127999 0.224,-0.271998 0.288,-0.432 l 0.912,0.252 c -0.104,0.232001 -0.248,0.444001 -0.432,0.636 -0.176,0.192001 -0.384,0.36 -0.624,0.504 -0.232,0.136 -0.492,0.244 -0.78,0.324 -0.288,0.08 -0.588,0.12 -0.9,0.12 m 2.148,-3.672 c -0.024,-0.295996 -0.1,-0.567996 -0.228,-0.816 -0.12,-0.255995 -0.276,-0.471995 -0.468,-0.648 -0.184,-0.175995 -0.4,-0.311995 -0.648,-0.408 -0.248,-0.103994 -0.512,-0.155994 -0.792,-0.156 -0.28,6e-6 -0.544,0.05201 -0.792,0.156 -0.248,0.096 -0.468,0.236005 -0.66,0.42 -0.184,0.176005 -0.336,0.388005 -0.456,0.636 -0.112,0.248004 -0.18,0.520004 -0.204,0.816 l 4.248,0"
       style="fill:#373b41;fill-opacity:0.75294118;"
       id="path3766" />
    <path
       d="m 248.10413,46.835499 c -0.52801,0.016 -0.99601,0.152005 -1.404,0.408 -0.40001,0.256005 -0.68401,0.612004 -0.852,1.068 l 0,3.864 -1.056,0 0,-6.264 0.984,0 0,1.452 c 0.21599,-0.431995 0.49999,-0.787994 0.852,-1.068 0.35199,-0.287994 0.72799,-0.431994 1.128,-0.432 0.08,6e-6 0.14799,6e-6 0.204,0 0.056,6e-6 0.10399,0.004 0.144,0.012 l 0,0.96"
       style="fill:#373b41;fill-opacity:0.75294118;"
       id="path3768" />
    <path
       d="m 255.14569,51.863499 c -0.064,0.032 -0.148,0.072 -0.252,0.12 -0.104,0.04 -0.224,0.084 -0.36,0.132 -0.128,0.04 -0.272,0.072 -0.432,0.096 -0.152,0.032 -0.312,0.048 -0.48,0.048 -0.384,0 -0.716,-0.104 -0.996,-0.312 -0.28,-0.216 -0.42,-0.547999 -0.42,-0.996 l 0,-4.212 -0.852,0 0,-0.828 0.852,0 0,-2.088 1.056,0 0,2.088 1.404,0 0,0.828 -1.404,0 0,3.888 c 0.016,0.232001 0.092,0.400001 0.228,0.504 0.136,0.104001 0.296,0.156001 0.48,0.156 0.208,1e-6 0.396,-0.032 0.564,-0.096 0.176,-0.072 0.296,-0.127999 0.36,-0.168 l 0.252,0.84"
       style="fill:#373b41;fill-opacity:0.75294118;"
       id="path3770" />
    <path
       d="m 261.50156,52.175499 -1.056,0 0,-3.504 c 0,-0.647996 -0.112,-1.127995 -0.336,-1.44 -0.224,-0.319995 -0.552,-0.479995 -0.984,-0.48 -0.208,5e-6 -0.416,0.044 -0.624,0.132 -0.208,0.08 -0.404,0.192005 -0.588,0.336 -0.176,0.144005 -0.336,0.316005 -0.48,0.516 -0.136,0.200004 -0.24,0.420004 -0.312,0.66 l 0,3.78 -1.056,0 0,-8.76 1.056,0 0,3.84 c 0.248,-0.455995 0.584,-0.811994 1.008,-1.068 0.424,-0.255994 0.888,-0.383994 1.392,-0.384 0.368,6e-6 0.68,0.06801 0.936,0.204 0.256,0.136006 0.46,0.320006 0.612,0.552 0.152,0.232005 0.26,0.512005 0.324,0.84 0.072,0.320004 0.108,0.664004 0.108,1.032 l 0,3.744"
       style="fill:#373b41;fill-opacity:0.75294118;"
       id="path3772" />
    <path
       d="m 265.89281,52.295499 c -0.472,0 -0.904,-0.084 -1.296,-0.252 -0.392,-0.176 -0.728,-0.411999 -1.008,-0.708 -0.28,-0.295999 -0.5,-0.639999 -0.66,-1.032 -0.152,-0.399998 -0.228,-0.819997 -0.228,-1.26 0,-0.439996 0.076,-0.855996 0.228,-1.248 0.16,-0.391995 0.38,-0.735995 0.66,-1.032 0.288,-0.295994 0.628,-0.527994 1.02,-0.696 0.392,-0.175994 0.824,-0.263994 1.296,-0.264 0.472,6e-6 0.9,0.08801 1.284,0.264 0.392,0.176006 0.724,0.412006 0.996,0.708 0.272,0.288005 0.48,0.628005 0.624,1.02 0.152,0.384004 0.228,0.784004 0.228,1.2 0,0.088 -0.004,0.168003 -0.012,0.24 0,0.072 -0.004,0.128003 -0.012,0.168 l -5.196,0 c 0.024,0.312002 0.096,0.596002 0.216,0.852 0.12,0.256002 0.276,0.476001 0.468,0.66 0.192,0.184001 0.408,0.328001 0.648,0.432 0.248,0.104001 0.508,0.156001 0.78,0.156 0.192,1e-6 0.38,-0.024 0.564,-0.072 0.184,-0.056 0.356,-0.127999 0.516,-0.216 0.16,-0.088 0.3,-0.195999 0.42,-0.324 0.128,-0.127999 0.224,-0.271998 0.288,-0.432 l 0.912,0.252 c -0.104,0.232001 -0.248,0.444001 -0.432,0.636 -0.176,0.192001 -0.384,0.36 -0.624,0.504 -0.232,0.136 -0.492,0.244 -0.78,0.324 -0.288,0.08 -0.588,0.12 -0.9,0.12 m 2.148,-3.672 c -0.024,-0.295996 -0.1,-0.567996 -0.228,-0.816 -0.12,-0.255995 -0.276,-0.471995 -0.468,-0.648 -0.184,-0.175995 -0.4,-0.311995 -0.648,-0.408 -0.248,-0.103994 -0.512,-0.155994 -0.792,-0.156 -0.28,6e-6 -0.544,0.05201 -0.792,0.156 -0.248,0.096 -0.468,0.236005 -0.66,0.42 -0.184,0.176005 -0.336,0.388005 -0.456,0.636 -0.112,0.248004 -0.18,0.520004 -0.204,0.816 l 4.248,0"
       style="fill:#373b41;fill-opacity:0.75294118;"
       id="path3774" />
    <path
       d="m 272.82581,49.031499 c 0,-0.439996 0.076,-0.855996 0.228,-1.248 0.152,-0.391995 0.368,-0.731995 0.648,-1.02 0.28,-0.295994 0.612,-0.527994 0.996,-0.696 0.392,-0.175994 0.828,-0.263994 1.308,-0.264 0.624,6e-6 1.16,0.140006 1.608,0.42 0.456,0.272006 0.8,0.640005 1.032,1.104 l -1.032,0.324 c -0.16,-0.295995 -0.384,-0.523995 -0.672,-0.684 -0.288,-0.167995 -0.608,-0.251995 -0.96,-0.252 -0.288,5e-6 -0.56,0.06 -0.816,0.18 -0.256,0.112005 -0.476,0.272005 -0.66,0.48 -0.184,0.208005 -0.332,0.452004 -0.444,0.732 -0.104,0.280004 -0.156,0.588003 -0.156,0.924 0,0.328003 0.056,0.636003 0.168,0.924 0.112,0.288002 0.26,0.540002 0.444,0.756 0.192,0.208001 0.412,0.372001 0.66,0.492 0.256,0.120001 0.528,0.180001 0.816,0.18 0.184,10e-7 0.364,-0.024 0.54,-0.072 0.184,-0.056 0.348,-0.127999 0.492,-0.216 0.152,-0.088 0.284,-0.187999 0.396,-0.3 0.112,-0.119998 0.192,-0.247998 0.24,-0.384 l 1.032,0.312 c -0.096,0.232001 -0.232,0.444001 -0.408,0.636 -0.168,0.192001 -0.368,0.356 -0.6,0.492 -0.232,0.136 -0.492,0.244 -0.78,0.324 -0.28,0.08 -0.576,0.12 -0.888,0.12 -0.472,0 -0.904,-0.088 -1.296,-0.264 -0.392,-0.176 -0.728,-0.411999 -1.008,-0.708 -0.28,-0.295999 -0.5,-0.639999 -0.66,-1.032 -0.152,-0.399998 -0.228,-0.819997 -0.228,-1.26"
       style="fill:#373b41;fill-opacity:0.75294118;"
       id="path3777" />
    <path
       d="m 279.48206,49.031499 c 0,-0.439996 0.076,-0.855996 0.228,-1.248 0.152,-0.391995 0.368,-0.731995 0.648,-1.02 0.28,-0.295994 0.612,-0.527994 0.996,-0.696 0.392,-0.175994 0.828,-0.263994 1.308,-0.264 0.624,6e-6 1.16,0.140006 1.608,0.42 0.456,0.272006 0.8,0.640005 1.032,1.104 l -1.032,0.324 c -0.16,-0.295995 -0.384,-0.523995 -0.672,-0.684 -0.288,-0.167995 -0.608,-0.251995 -0.96,-0.252 -0.288,5e-6 -0.56,0.06 -0.816,0.18 -0.256,0.112005 -0.476,0.272005 -0.66,0.48 -0.184,0.208005 -0.332,0.452004 -0.444,0.732 -0.104,0.280004 -0.156,0.588003 -0.156,0.924 0,0.328003 0.056,0.636003 0.168,0.924 0.112,0.288002 0.26,0.540002 0.444,0.756 0.192,0.208001 0.412,0.372001 0.66,0.492 0.256,0.120001 0.528,0.180001 0.816,0.18 0.184,10e-7 0.364,-0.024 0.54,-0.072 0.184,-0.056 0.348,-0.127999 0.492,-0.216 0.152,-0.088 0.284,-0.187999 0.396,-0.3 0.112,-0.119998 0.192,-0.247998 0.24,-0.384 l 1.032,0.312 c -0.096,0.232001 -0.232,0.444001 -0.408,0.636 -0.168,0.192001 -0.368,0.356 -0.6,0.492 -0.232,0.136 -0.492,0.244 -0.78,0.324 -0.28,0.08 -0.576,0.12 -0.888,0.12 -0.472,0 -0.904,-0.088 -1.296,-0.264 -0.392,-0.176 -0.728,-0.411999 -1.008,-0.708 -0.28,-0.295999 -0.5,-0.639999 -0.66,-1.032 -0.152,-0.399998 -0.228,-0.819997 -0.228,-1.26"
       style="fill:#373b41;fill-opacity:0.75294118;"
       id="path3779" />
    <path
       d="m 286.29825,49.379499 0,-0.96 3.54,0 0,0.96 -3.54,0"
       style="fill:#373b41;fill-opacity:0.75294118;"
       id="path3781" />
    <path
       d="m 294.64875,52.295499 c -0.488,0 -0.932,-0.12 -1.332,-0.36 -0.4,-0.24 -0.716,-0.551999 -0.948,-0.936 l 0,1.176 -0.936,0 0,-8.76 1.056,0 0,3.744 c 0.264,-0.407995 0.588,-0.735994 0.972,-0.984 0.384,-0.247994 0.832,-0.371994 1.344,-0.372 0.432,6e-6 0.82,0.09201 1.164,0.276 0.344,0.184006 0.636,0.428006 0.876,0.732 0.248,0.296005 0.43599,0.644005 0.564,1.044 0.13599,0.392004 0.20399,0.796004 0.204,1.212 -1e-5,0.440003 -0.076,0.856002 -0.228,1.248 -0.15201,0.392001 -0.36,0.736001 -0.624,1.032 -0.264,0.288001 -0.58,0.52 -0.948,0.696 -0.36,0.168 -0.748,0.252 -1.164,0.252 m -0.264,-0.912 c 0.312,10e-7 0.6,-0.064 0.864,-0.192 0.264,-0.127999 0.492,-0.299999 0.684,-0.516 0.192,-0.215998 0.34,-0.459998 0.444,-0.732 0.104,-0.279997 0.156,-0.571997 0.156,-0.876 0,-0.303997 -0.052,-0.595996 -0.156,-0.876 -0.096,-0.287996 -0.236,-0.539995 -0.42,-0.756 -0.176,-0.215995 -0.392,-0.387995 -0.648,-0.516 -0.248,-0.135995 -0.524,-0.203995 -0.828,-0.204 -0.224,5e-6 -0.436,0.04001 -0.636,0.12 -0.2,0.08 -0.388,0.188005 -0.564,0.324 -0.168,0.128005 -0.32,0.280005 -0.456,0.456 -0.128,0.176004 -0.24,0.364004 -0.336,0.564 l 0,1.812 c 0.04,0.200002 0.124,0.384002 0.252,0.552 0.136,0.168001 0.292,0.316001 0.468,0.444 0.184,0.120001 0.376,0.216001 0.576,0.288 0.208,0.072 0.408,0.108001 0.6,0.108"
       style="fill:#373b41;fill-opacity:0.75294118;"
       id="path3783" />
    <path
       d="m 298.95094,53.891499 c 0.216,0.024 0.408,0.036 0.576,0.036 0.072,-2e-6 0.14,-0.016 0.204,-0.048 0.064,-0.032 0.136,-0.108002 0.216,-0.228 0.08,-0.120001 0.172,-0.296001 0.276,-0.528 0.104,-0.232001 0.232,-0.548 0.384,-0.948 l -2.652,-6.264 1.092,0 2.136,5.316 1.944,-5.316 1.008,0 -3.072,7.908 c -0.144,0.375998 -0.352,0.643998 -0.624,0.804 -0.272,0.167997 -0.592,0.251997 -0.96,0.252 -0.088,-3e-6 -0.176,-0.004 -0.264,-0.012 -0.088,-0.008 -0.176,-0.024 -0.264,-0.048 l 0,-0.924"
       style="fill:#373b41;fill-opacity:0.75294118;"
       id="path3785" />
    <path
       d="m 304.88419,49.379499 0,-0.96 3.54,0 0,0.96 -3.54,0"
       style="fill:#373b41;fill-opacity:0.75294118;"
       id="path3787" />
    <path
       d="m 312.16838,52.295499 c -0.50401,0 -1.00001,-0.076 -1.488,-0.228 -0.488,-0.16 -0.908,-0.388 -1.26,-0.684 l 0.456,-0.708 c 0.368,0.280001 0.736,0.492001 1.104,0.636 0.36799,0.136001 0.75599,0.204001 1.164,0.204 0.45599,1e-6 0.81599,-0.088 1.08,-0.264 0.27199,-0.183999 0.40799,-0.439999 0.408,-0.768 -1e-5,-0.151998 -0.036,-0.279998 -0.108,-0.384 -0.072,-0.111998 -0.18001,-0.207998 -0.324,-0.288 -0.14401,-0.08 -0.32801,-0.151997 -0.552,-0.216 -0.22401,-0.064 -0.48401,-0.131997 -0.78,-0.204 -0.37601,-0.096 -0.70001,-0.187997 -0.972,-0.276 -0.272,-0.088 -0.496,-0.191997 -0.672,-0.312 -0.176,-0.119997 -0.304,-0.263996 -0.384,-0.432 -0.08,-0.167996 -0.12,-0.375996 -0.12,-0.624 0,-0.311995 0.06,-0.587995 0.18,-0.828 0.128,-0.247994 0.3,-0.451994 0.516,-0.612 0.216,-0.167994 0.46799,-0.291994 0.756,-0.372 0.29599,-0.08799 0.61199,-0.131994 0.948,-0.132 0.47199,6e-6 0.91199,0.07601 1.32,0.228 0.40799,0.152006 0.75199,0.352006 1.032,0.6 l -0.48,0.636 c -0.26401,-0.231995 -0.56001,-0.403995 -0.888,-0.516 -0.32801,-0.119994 -0.66401,-0.179994 -1.008,-0.18 -0.38401,6e-6 -0.71201,0.08401 -0.984,0.252 -0.26401,0.160005 -0.39601,0.420005 -0.396,0.78 -1e-5,0.144004 0.024,0.264004 0.072,0.36 0.056,0.096 0.14399,0.180004 0.264,0.252 0.11999,0.072 0.27199,0.136004 0.456,0.192 0.19199,0.056 0.41999,0.116004 0.684,0.18 0.41599,0.096 0.77599,0.196003 1.08,0.3 0.31199,0.096 0.56799,0.212003 0.768,0.348 0.20799,0.136003 0.35999,0.296003 0.456,0.48 0.10399,0.184002 0.15599,0.408002 0.156,0.672 -10e-6,0.584001 -0.22401,1.048001 -0.672,1.392 -0.44801,0.344 -1.05201,0.516 -1.812,0.516"
       style="fill:#373b41;fill-opacity:0.75294118;"
       id="path3789" />
    <path
       d="m 317.54663,52.295499 c -0.31201,0 -0.60001,-0.048 -0.864,-0.144 -0.264,-0.104 -0.492,-0.24 -0.684,-0.408 -0.192,-0.175999 -0.344,-0.379999 -0.456,-0.612 -0.104,-0.239999 -0.156,-0.491998 -0.156,-0.756 0,-0.295998 0.064,-0.563998 0.192,-0.804 0.128,-0.247997 0.308,-0.455997 0.54,-0.624 0.24,-0.175997 0.51999,-0.307996 0.84,-0.396 0.32799,-0.096 0.68399,-0.143996 1.068,-0.144 0.30399,4e-6 0.61199,0.028 0.924,0.084 0.31199,0.056 0.58799,0.132004 0.828,0.228 l 0,-0.504 c -1e-5,-0.511996 -0.14401,-0.911995 -0.432,-1.2 -0.28801,-0.295995 -0.69601,-0.443994 -1.224,-0.444 -0.63201,6e-6 -1.29601,0.244005 -1.992,0.732 l -0.348,-0.684 c 0.408,-0.271994 0.812,-0.475994 1.212,-0.612 0.39999,-0.135994 0.81599,-0.203994 1.248,-0.204 0.79999,6e-6 1.43199,0.220006 1.896,0.66 0.46399,0.440005 0.69599,1.060005 0.696,1.86 l 0,2.556 c -1e-5,0.248001 0.11199,0.376001 0.336,0.384 l 0,0.912 c -0.08,0.016 -0.15601,0.028 -0.228,0.036 -0.072,0.008 -0.14001,0.012 -0.204,0.012 -0.17601,0 -0.34801,-0.048 -0.516,-0.144 -0.16801,-0.096 -0.26001,-0.26 -0.276,-0.492 l -0.024,-0.444 c -0.14401,0.192001 -0.30801,0.360001 -0.492,0.504 -0.18401,0.144 -0.38001,0.264 -0.588,0.36 -0.20801,0.096 -0.42401,0.168 -0.648,0.216 -0.21601,0.048 -0.43201,0.072 -0.648,0.072 m 0.264,-0.792 c 0.33599,1e-6 0.66399,-0.072 0.984,-0.216 0.31999,-0.143999 0.57199,-0.319999 0.756,-0.528 0.15199,-0.175998 0.22799,-0.339998 0.228,-0.492 l 0,-0.924 c -0.24801,-0.096 -0.51201,-0.167997 -0.792,-0.216 -0.27201,-0.056 -0.53601,-0.084 -0.792,-0.084 -0.54401,3e-6 -0.98001,0.112003 -1.308,0.336 -0.328,0.216003 -0.492,0.516002 -0.492,0.9 0,0.160002 0.032,0.316002 0.096,0.468 0.064,0.144001 0.15599,0.272001 0.276,0.384 0.11999,0.112001 0.26799,0.204001 0.444,0.276 0.17599,0.064 0.37599,0.096 0.6,0.096"
       style="fill:#373b41;fill-opacity:0.75294118;"
       id="path3791" />
    <path
       d="m 329.03775,49.343499 c 0.512,0.088 0.916,0.324003 1.212,0.708 0.304,0.384002 0.456,0.860001 0.456,1.428 0,0.368 -0.068,0.704 -0.204,1.008 -0.136,0.303999 -0.332,0.563999 -0.588,0.78 -0.248,0.215999 -0.548,0.379999 -0.9,0.492 -0.352,0.119998 -0.744,0.179998 -1.176,0.18 -0.608,-2e-6 -1.144,-0.116002 -1.608,-0.348 -0.456,-0.224001 -0.812,-0.544001 -1.068,-0.96 l 0.708,-0.708 c 0.184,0.328 0.432,0.584 0.744,0.768 0.312,0.191999 0.72,0.287999 1.224,0.288 0.552,-10e-7 0.984,-0.124001 1.296,-0.372 0.32,-0.248 0.48,-0.624 0.48,-1.128 0,-0.503999 -0.172,-0.903998 -0.516,-1.2 -0.336,-0.303998 -0.828,-0.455998 -1.476,-0.456 l -0.312,0 0,-0.888 0.336,0 c 0.576,3e-6 1.016,-0.135997 1.32,-0.408 0.312,-0.279996 0.468,-0.631996 0.468,-1.056 0,-0.423995 -0.148,-0.739995 -0.444,-0.948 -0.296,-0.207994 -0.668,-0.311994 -1.116,-0.312 -0.44,6e-6 -0.828,0.09601 -1.164,0.288 -0.328,0.184005 -0.584,0.444005 -0.768,0.78 l -0.648,-0.672 c 0.104,-0.199994 0.244,-0.379994 0.42,-0.54 0.184,-0.167994 0.392,-0.311994 0.624,-0.432 0.24,-0.119993 0.496,-0.211993 0.768,-0.276 0.28,-0.06399 0.572,-0.09599 0.876,-0.096 0.376,7e-6 0.72,0.05201 1.032,0.156 0.32,0.104007 0.592,0.248007 0.816,0.432 0.232,0.184006 0.408,0.408006 0.528,0.672 0.128,0.264005 0.192,0.556005 0.192,0.876 0,0.240005 -0.036,0.468004 -0.108,0.684 -0.064,0.216004 -0.164,0.412004 -0.3,0.588 -0.128,0.176003 -0.288,0.324003 -0.48,0.444 -0.184,0.112003 -0.392,0.188003 -0.624,0.228"
       style="fill:#373b41;fill-opacity:0.75294118;"
       id="path3793" />
    <path
       d="m 335.12081,43.415499 1.056,0 0,7.14 c 0,0.232001 0.06,0.416001 0.18,0.552 0.128,0.128001 0.304,0.192001 0.528,0.192 0.088,1e-6 0.192,-0.012 0.312,-0.036 0.12,-0.032 0.232,-0.068 0.336,-0.108 l 0.168,0.852 c -0.176,0.072 -0.384,0.132 -0.624,0.18 -0.24,0.048 -0.452,0.072 -0.636,0.072 -0.408,0 -0.732,-0.116 -0.972,-0.348 -0.232,-0.232 -0.348,-0.555999 -0.348,-0.972 l 0,-7.524"
       style="fill:#373b41;fill-opacity:0.75294118;"
       id="path3795" />
    <path
       d="m 338.44838,52.175499 0,-6.264 1.056,0 0,6.264 -1.056,0 m 0,-7.44 0,-1.32 1.056,0 0,1.32 -1.056,0"
       style="fill:#373b41;fill-opacity:0.75294118;"
       id="path3797" />
    <path
       d="m 340.77113,49.031499 c 0,-0.439996 0.076,-0.855996 0.228,-1.248 0.152,-0.391995 0.368,-0.731995 0.648,-1.02 0.27999,-0.295994 0.61199,-0.527994 0.996,-0.696 0.39199,-0.175994 0.82799,-0.263994 1.308,-0.264 0.62399,6e-6 1.15999,0.140006 1.608,0.42 0.45599,0.272006 0.79999,0.640005 1.032,1.104 l -1.032,0.324 c -0.16001,-0.295995 -0.38401,-0.523995 -0.672,-0.684 -0.28801,-0.167995 -0.60801,-0.251995 -0.96,-0.252 -0.28801,5e-6 -0.56001,0.06 -0.816,0.18 -0.25601,0.112005 -0.47601,0.272005 -0.66,0.48 -0.18401,0.208005 -0.33201,0.452004 -0.444,0.732 -0.104,0.280004 -0.156,0.588003 -0.156,0.924 0,0.328003 0.056,0.636003 0.168,0.924 0.11199,0.288002 0.25999,0.540002 0.444,0.756 0.19199,0.208001 0.41199,0.372001 0.66,0.492 0.25599,0.120001 0.52799,0.180001 0.816,0.18 0.18399,10e-7 0.36399,-0.024 0.54,-0.072 0.18399,-0.056 0.34799,-0.127999 0.492,-0.216 0.15199,-0.088 0.28399,-0.187999 0.396,-0.3 0.11199,-0.119998 0.19199,-0.247998 0.24,-0.384 l 1.032,0.312 c -0.096,0.232001 -0.23201,0.444001 -0.408,0.636 -0.16801,0.192001 -0.36801,0.356 -0.6,0.492 -0.23201,0.136 -0.49201,0.244 -0.78,0.324 -0.28001,0.08 -0.57601,0.12 -0.888,0.12 -0.47201,0 -0.90401,-0.088 -1.296,-0.264 -0.39201,-0.176 -0.72801,-0.411999 -1.008,-0.708 -0.28,-0.295999 -0.5,-0.639999 -0.66,-1.032 -0.152,-0.399998 -0.228,-0.819997 -0.228,-1.26"
       style="fill:#373b41;fill-opacity:0.75294118;"
       id="path3799" />
    <path
       d="m 350.61938,52.295499 c -0.47201,0 -0.90401,-0.084 -1.296,-0.252 -0.39201,-0.176 -0.72801,-0.411999 -1.008,-0.708 -0.28,-0.295999 -0.5,-0.639999 -0.66,-1.032 -0.152,-0.399998 -0.228,-0.819997 -0.228,-1.26 0,-0.439996 0.076,-0.855996 0.228,-1.248 0.16,-0.391995 0.38,-0.735995 0.66,-1.032 0.28799,-0.295994 0.62799,-0.527994 1.02,-0.696 0.39199,-0.175994 0.82399,-0.263994 1.296,-0.264 0.47199,6e-6 0.89999,0.08801 1.284,0.264 0.39199,0.176006 0.72399,0.412006 0.996,0.708 0.27199,0.288005 0.47999,0.628005 0.624,1.02 0.15199,0.384004 0.22799,0.784004 0.228,1.2 -10e-6,0.088 -0.004,0.168003 -0.012,0.24 -10e-6,0.072 -0.004,0.128003 -0.012,0.168 l -5.196,0 c 0.024,0.312002 0.096,0.596002 0.216,0.852 0.11999,0.256002 0.27599,0.476001 0.468,0.66 0.19199,0.184001 0.40799,0.328001 0.648,0.432 0.24799,0.104001 0.50799,0.156001 0.78,0.156 0.19199,1e-6 0.37999,-0.024 0.564,-0.072 0.18399,-0.056 0.35599,-0.127999 0.516,-0.216 0.15999,-0.088 0.29999,-0.195999 0.42,-0.324 0.12799,-0.127999 0.22399,-0.271998 0.288,-0.432 l 0.912,0.252 c -0.10401,0.232001 -0.24801,0.444001 -0.432,0.636 -0.17601,0.192001 -0.38401,0.36 -0.624,0.504 -0.23201,0.136 -0.49201,0.244 -0.78,0.324 -0.28801,0.08 -0.58801,0.12 -0.9,0.12 m 2.148,-3.672 c -0.024,-0.295996 -0.10001,-0.567996 -0.228,-0.816 -0.12001,-0.255995 -0.27601,-0.471995 -0.468,-0.648 -0.18401,-0.175995 -0.40001,-0.311995 -0.648,-0.408 -0.24801,-0.103994 -0.51201,-0.155994 -0.792,-0.156 -0.28001,6e-6 -0.54401,0.05201 -0.792,0.156 -0.24801,0.096 -0.46801,0.236005 -0.66,0.42 -0.18401,0.176005 -0.33601,0.388005 -0.456,0.636 -0.11201,0.248004 -0.18,0.520004 -0.204,0.816 l 4.248,0"
       style="fill:#373b41;fill-opacity:0.75294118;"
       id="path3801" />
    <path
       d="m 360.36094,52.175499 -1.056,0 0,-3.504 c -10e-6,-0.671996 -0.10401,-1.159995 -0.312,-1.464 -0.20001,-0.303995 -0.50801,-0.455995 -0.924,-0.456 -0.216,5e-6 -0.432,0.044 -0.648,0.132 -0.216,0.08 -0.42,0.192005 -0.612,0.336 -0.192,0.144005 -0.36,0.316005 -0.504,0.516 -0.144,0.200004 -0.252,0.420004 -0.324,0.66 l 0,3.78 -1.056,0 0,-6.264 0.96,0 0,1.344 c 0.248,-0.439995 0.604,-0.791994 1.068,-1.056 0.472,-0.263994 0.984,-0.395994 1.536,-0.396 0.35999,6e-6 0.65999,0.06801 0.9,0.204 0.23999,0.128006 0.43199,0.312006 0.576,0.552 0.14399,0.232005 0.24399,0.508005 0.3,0.828 0.064,0.320004 0.096,0.668004 0.096,1.044 l 0,3.744"
       style="fill:#373b41;fill-opacity:0.75294118;"
       id="path3803" />
    <path
       d="m 364.17619,52.295499 c -0.504,0 -1,-0.076 -1.488,-0.228 -0.488,-0.16 -0.908,-0.388 -1.26,-0.684 l 0.456,-0.708 c 0.368,0.280001 0.736,0.492001 1.104,0.636 0.368,0.136001 0.756,0.204001 1.164,0.204 0.456,1e-6 0.816,-0.088 1.08,-0.264 0.27199,-0.183999 0.40799,-0.439999 0.408,-0.768 -1e-5,-0.151998 -0.036,-0.279998 -0.108,-0.384 -0.072,-0.111998 -0.18001,-0.207998 -0.324,-0.288 -0.144,-0.08 -0.328,-0.151997 -0.552,-0.216 -0.224,-0.064 -0.484,-0.131997 -0.78,-0.204 -0.376,-0.096 -0.7,-0.187997 -0.972,-0.276 -0.272,-0.088 -0.496,-0.191997 -0.672,-0.312 -0.176,-0.119997 -0.304,-0.263996 -0.384,-0.432 -0.08,-0.167996 -0.12,-0.375996 -0.12,-0.624 0,-0.311995 0.06,-0.587995 0.18,-0.828 0.128,-0.247994 0.3,-0.451994 0.516,-0.612 0.216,-0.167994 0.468,-0.291994 0.756,-0.372 0.296,-0.08799 0.612,-0.131994 0.948,-0.132 0.472,6e-6 0.912,0.07601 1.32,0.228 0.40799,0.152006 0.75199,0.352006 1.032,0.6 l -0.48,0.636 c -0.26401,-0.231995 -0.56001,-0.403995 -0.888,-0.516 -0.328,-0.119994 -0.664,-0.179994 -1.008,-0.18 -0.384,6e-6 -0.712,0.08401 -0.984,0.252 -0.264,0.160005 -0.396,0.420005 -0.396,0.78 0,0.144004 0.024,0.264004 0.072,0.36 0.056,0.096 0.144,0.180004 0.264,0.252 0.12,0.072 0.272,0.136004 0.456,0.192 0.192,0.056 0.42,0.116004 0.684,0.18 0.416,0.096 0.776,0.196003 1.08,0.3 0.31199,0.096 0.56799,0.212003 0.768,0.348 0.20799,0.136003 0.35999,0.296003 0.456,0.48 0.10399,0.184002 0.15599,0.408002 0.156,0.672 -10e-6,0.584001 -0.22401,1.048001 -0.672,1.392 -0.44801,0.344 -1.052,0.516 -1.812,0.516"
       style="fill:#373b41;fill-opacity:0.75294118;"
       id="path3805" />
    <path
       d="m 370.65844,52.295499 c -0.472,0 -0.904,-0.084 -1.296,-0.252 -0.392,-0.176 -0.728,-0.411999 -1.008,-0.708 -0.28,-0.295999 -0.5,-0.639999 -0.66,-1.032 -0.152,-0.399998 -0.228,-0.819997 -0.228,-1.26 0,-0.439996 0.076,-0.855996 0.228,-1.248 0.16,-0.391995 0.38,-0.735995 0.66,-1.032 0.288,-0.295994 0.628,-0.527994 1.02,-0.696 0.392,-0.175994 0.824,-0.263994 1.296,-0.264 0.47199,6e-6 0.89999,0.08801 1.284,0.264 0.39199,0.176006 0.72399,0.412006 0.996,0.708 0.27199,0.288005 0.47999,0.628005 0.624,1.02 0.15199,0.384004 0.22799,0.784004 0.228,1.2 -10e-6,0.088 -0.004,0.168003 -0.012,0.24 -10e-6,0.072 -0.004,0.128003 -0.012,0.168 l -5.196,0 c 0.024,0.312002 0.096,0.596002 0.216,0.852 0.12,0.256002 0.276,0.476001 0.468,0.66 0.192,0.184001 0.408,0.328001 0.648,0.432 0.248,0.104001 0.508,0.156001 0.78,0.156 0.192,1e-6 0.38,-0.024 0.564,-0.072 0.18399,-0.056 0.35599,-0.127999 0.516,-0.216 0.15999,-0.088 0.29999,-0.195999 0.42,-0.324 0.12799,-0.127999 0.22399,-0.271998 0.288,-0.432 l 0.912,0.252 c -0.10401,0.232001 -0.24801,0.444001 -0.432,0.636 -0.17601,0.192001 -0.38401,0.36 -0.624,0.504 -0.23201,0.136 -0.49201,0.244 -0.78,0.324 -0.28801,0.08 -0.588,0.12 -0.9,0.12 m 2.148,-3.672 c -0.024,-0.295996 -0.10001,-0.567996 -0.228,-0.816 -0.12001,-0.255995 -0.27601,-0.471995 -0.468,-0.648 -0.18401,-0.175995 -0.40001,-0.311995 -0.648,-0.408 -0.24801,-0.103994 -0.512,-0.155994 -0.792,-0.156 -0.28,6e-6 -0.544,0.05201 -0.792,0.156 -0.248,0.096 -0.468,0.236005 -0.66,0.42 -0.184,0.176005 -0.336,0.388005 -0.456,0.636 -0.112,0.248004 -0.18,0.520004 -0.204,0.816 l 4.248,0"
       style="fill:#373b41;fill-opacity:0.75294118;"
       id="path3807" />
    <text
       xml:space="preserve"
       style="font-size:16px;font-style:normal;font-variant:normal;font-weight:normal;font-stretch:normal;line-height:125%;letter-spacing:0px;word-spacing:0px;fill:#ee5137;fill-opacity:1;stroke:none;font-family:Raleway;-inkscape-font-specification:Raleway"
       x="307.8313"
       y="27.000031"
       id="text3686"
       sodipodi:linespacing="125%"><tspan
         sodipodi:role="line"
         id="tspan3688"
         x="307.8313"
         y="27.000031"
         style="font-size:36px;fill:#ee5137;fill-opacity:1">8x8</tspan></text>
  </g>
  <g
     inkscape:groupmode="layer"
     id="actions"
     inkscape:label="actions"
     transform="translate(-35,-20)"
     style="display:inline">
    <g
       style="display:inline"
       transform="matrix(1,0,0,-1,21.000064,407.99999)"
       inkscape:label="window-close"
       id="window-close">
      <rect
         style="color:#bebebe;fill:none;stroke:none;stroke-width:2;marker:none;visibility:visible;display:inline;overflow:visible"
         id="rect4416"
         width="8"
         height="8"
         x="19.99975"
         y="304" />
      <g
         id="g4418"
         style="opacity:0.25"
         transform="matrix(0.5,0,0,0.5,9.9998751,148)" />
      <path
         style="fill:#595f67;fill-opacity:1;stroke:none"
         d="m 19.99975,312 0,-1 c 0,0 0,-0.5 0.5,-1 l 2,-2 -2,-2 c -0.5,-0.5 -0.5,-1 -0.5,-1 l 0,-1 1,0 c 0.5,0 1,0.5 1,0.5 l 2,2 2,-2 c 0,0 0.5,-0.5 1,-0.5 l 1,0 0,1 c 0,0 0,0.5 -0.5,1 l -2,2 2,2 c 0.5,0.5 0.5,1 0.5,1 l 0,1 -1,0 c -0.5,0 -1,-0.5 -1,-0.5 l -2,-2 -2,2 c 0,0 -0.5,0.5 -1,0.5 l -1,0 z"
         id="path3776"
         inkscape:connector-curvature="0" />
    </g>
    <g
       style="display:inline"
       transform="matrix(1,0,0,-1,41.000064,399.99999)"
       inkscape:label="window-float"
       id="window-float">
      <rect
         style="color:#bebebe;fill:none;stroke:none;stroke-width:2;marker:none;visibility:visible;display:inline;overflow:visible"
         id="rect8305"
         width="8"
         height="8"
         x="19.99975"
         y="296" />
      <g
         id="g8307"
         style="opacity:0.25"
         transform="matrix(0.5,0,0,0.5,9.9998751,148)" />
      <path
         id="path3118"
         style="fill:#595f67;fill-opacity:1;stroke-width:2;enable-background:new"
         d="m 21.99975,304 c 0,0 0,-0.67185 0,-1 5e-5,-0.52358 0.47642,-0.99995 1,-1 l 3.000186,0 c 0,0 -1.86e-4,-2.00008 -1.86e-4,-3 -0.011,-0.4581 0.3341,-0.89986 0.78125,-1 0.40517,-0.0224 0.79402,0 1.21875,0 l 0,6 z"
         inkscape:connector-curvature="0"
         sodipodi:nodetypes="ccccccccc" />
      <path
         sodipodi:nodetypes="ccccccccc"
         inkscape:connector-curvature="0"
         d="m 25.99975,296 c 0,0 0,0.67185 0,1 -5e-5,0.52358 -0.47642,0.99995 -1,1 l -3.000186,0 c 0,0 1.86e-4,2.00008 1.86e-4,3 0.011,0.4581 -0.3341,0.89986 -0.78125,1 -0.40517,0.0224 -0.79402,0 -1.21875,0 l 0,-6 z"
         style="fill:#595f67;fill-opacity:1;stroke-width:2;enable-background:new"
         id="path3120" />
      <g
         id="g5036">
        <path
           id="path5030"
           style="fill:#595f67;fill-opacity:1;stroke-width:2;enable-background:new"
           d="m 42.99975,304 c 0,0 0,-0.67185 0,-1 5e-5,-0.52358 0.47642,-0.99995 1,-1 l 2.000186,0 c 0,0 -1.86e-4,-1.00008 -1.86e-4,-2 -0.011,-0.4581 0.3341,-0.89986 0.78125,-1 0.40517,-0.0224 0.79402,0 1.21875,0 l 0,5 z"
           inkscape:connector-curvature="0"
           sodipodi:nodetypes="ccccccccc" />
        <path
           sodipodi:nodetypes="ccccccccc"
           inkscape:connector-curvature="0"
           d="m 44.99975,296 c 0,0 0,0.67185 0,1 -5e-5,0.52358 -0.47642,0.99995 -1,1 l -2.000186,0 c 0,0 1.86e-4,1.00008 1.86e-4,2 0.011,0.4581 -0.3341,0.89986 -0.78125,1 -0.40517,0.0224 -0.79402,0 -1.21875,0 l 0,-5 z"
           style="fill:#595f67;fill-opacity:1;stroke-width:2;enable-background:new"
           id="path5034" />
      </g>
    </g>
  </g>
</svg>
