<?xml version="1.0" encoding="UTF-8" standalone="no"?>
<!-- Created with Inkscape (http://www.inkscape.org/) -->

<svg
   xmlns:dc="http://purl.org/dc/elements/1.1/"
   xmlns:cc="http://creativecommons.org/ns#"
   xmlns:rdf="http://www.w3.org/1999/02/22-rdf-syntax-ns#"
   xmlns:svg="http://www.w3.org/2000/svg"
   xmlns="http://www.w3.org/2000/svg"
   xmlns:inkscape="http://www.inkscape.org/namespaces/inkscape"
   version="1.1"
   width="24"
   height="24"
   id="svg7384">
  <title
     id="title9167">MuseScore Icon Theme</title>
  <metadata
     id="metadata90">
    <rdf:RDF>
      <cc:Work
         rdf:about="">
        <dc:format>image/svg+xml</dc:format>
        <dc:type
           rdf:resource="http://purl.org/dc/dcmitype/StillImage" />
        <dc:title>MuseScore Icon Theme</dc:title>
      </cc:Work>
    </rdf:RDF>
  </metadata>
  <defs
     id="defs7386" />
  <g
     transform="translate(-293.0004,-195.00001)"
     id="actions"
     style="display:inline">
    <path
       d="m 293.84375,208 0.5,0 1,0 0.5,0 0,-1 -0.5,0 -1,0 -0.5,0 z m 3,0 0.5,0 1,0 0.5,0 0,-1 -0.5,0 -1,0 -0.5,0 z m 3,0 0.5,0 1,0 0.5,0 0,-1 -0.5,0 -1,0 -0.5,0 z m 3,0 0.5,0 1,0 0.5,0 0,-1 -0.5,0 -1,0 -0.5,0 z m 3,0 0.5,0 1,0 0.5,0 0,-1 -0.5,0 -1,0 -0.5,0 z m 3,0 0.5,0 1,0 0.5,0 0,-1 -0.5,0 -1,0 -0.5,0 z m 3,0 0.5,0 1,0 0.5,0 0,-1 -0.5,0 -1,0 -0.5,0 z m 3,0 0.5,0 0.3125,0 0.5,0 0,-1 -0.5,0 -0.3125,0 -0.5,0 z"
       
       id="path11689"
       style="font-size:medium;font-style:normal;font-variant:normal;font-weight:normal;font-stretch:normal;text-indent:0;text-align:start;text-decoration:none;line-height:normal;letter-spacing:normal;word-spacing:normal;text-transform:none;direction:ltr;block-progression:tb;writing-mode:lr-tb;text-anchor:start;baseline-shift:baseline;color:#000000;fill:#666666;fill-opacity:1;stroke:none;stroke-width:1;marker:none;visibility:visible;display:inline;overflow:visible;enable-background:accumulate;font-family:Sans;-inkscape-font-specification:Sans" />
    <path
       d="m 301,196 0,2 6,0 c 0.42819,0 1,0.61413 1,1 l 0,1 -5,0 c -0.91926,0 -1.73561,0.38396 -2.25,0.96875 -0.51439,0.58479 -0.75639,1.31063 -0.75,2.03125 0.006,0.72062 0.26893,1.45271 0.78125,2.03125 C 301.29357,205.60979 302.09172,206 303,206 l 6,0 1,0 0,-1 0,-6 c 0,-1.63433 -1.31979,-3 -3,-3 l -6,0 z m 2,6 5,0 0,2 -5,0 c -0.39787,0 -0.56692,-0.10979 -0.71875,-0.28125 C 302.12942,203.54729 302.00248,203.27938 302,203 c -0.002,-0.27938 0.10467,-0.55353 0.25,-0.71875 C 302.39533,202.11603 302.57766,202 303,202 z"
       
       id="path11691"
       style="font-size:medium;font-style:normal;font-variant:normal;font-weight:normal;font-stretch:normal;text-indent:0;text-align:start;text-decoration:none;line-height:normal;letter-spacing:normal;word-spacing:normal;text-transform:none;direction:ltr;block-progression:tb;writing-mode:lr-tb;text-anchor:start;baseline-shift:baseline;color:#000000;fill:#666666;fill-opacity:1;stroke:none;stroke-width:2;marker:none;visibility:visible;display:inline;overflow:visible;enable-background:accumulate;font-family:Sans;-inkscape-font-specification:Sans" />
  </g>
</svg>
