<?xml version="1.0" encoding="UTF-8" standalone="no"?>
<!-- Created with Inkscape (http://www.inkscape.org/) -->

<svg
   xmlns:dc="http://purl.org/dc/elements/1.1/"
   xmlns:cc="http://creativecommons.org/ns#"
   xmlns:rdf="http://www.w3.org/1999/02/22-rdf-syntax-ns#"
   xmlns:svg="http://www.w3.org/2000/svg"
   xmlns="http://www.w3.org/2000/svg"
   xmlns:inkscape="http://www.inkscape.org/namespaces/inkscape"
   version="1.1"
   width="24"
   height="24"
   id="svg7384">
  <title
     id="title9167">MuseScore Icon Theme</title>
  <metadata
     id="metadata90">
    <rdf:RDF>
      <cc:Work
         rdf:about="">
        <dc:format>image/svg+xml</dc:format>
        <dc:type
           rdf:resource="http://purl.org/dc/dcmitype/StillImage" />
        <dc:title>MuseScore Icon Theme</dc:title>
      </cc:Work>
    </rdf:RDF>
  </metadata>
  <defs
     id="defs7386" />
  <g
     transform="translate(-113.00038,-122.99993)"
     id="actions"
     style="display:inline">
    <path
       d="m 116.62501,126 c -0.75142,0 -1.625,0.7169 -1.625,1.625 l 0,15.75 c 0,0.90825 0.7168,1.625 1.625,1.625 l 0.375,0 15.99999,0 0.375,0 c 0.90819,0 1.625,-0.71675 1.625,-1.625 l 0,-14.75 c -0.37982,-0.6579 -1.79455,-2.15625 -2.625,-2.625 l -1.375,0 0,5.5 c 0,0.8229 -0.6772,1.5 -1.5,1.5 l -9.99999,0 c -0.8228,0 -1.5,-0.6771 -1.5,-1.5 l 0,-5.5 -1.375,0 z m 2.90625,9 10.93749,0 c 0.84468,0 1.53125,0.68658 1.53125,1.53125 l 0,4.9375 C 132,142.31342 131.31343,143 130.46875,143 l -10.93749,0 c -0.84468,0 -1.53125,-0.68658 -1.53125,-1.53125 l 0,-4.9375 c 0,-0.84467 0.68657,-1.53125 1.53125,-1.53125 z"
       inkscape:connector-curvature="0"
       id="rect4362"
       style="fill:#666666;fill-opacity:1;stroke:none" />
    <rect
       width="2"
       height="4"
       rx="0"
       ry="0"
       x="121.00035"
       y="126.99986"
       id="rect6129"
       style="fill:#666666;fill-opacity:1;stroke:none;display:inline" />
  </g>
</svg>
