<?xml version="1.0" encoding="UTF-8" standalone="no"?>
<!-- Created with Inkscape (http://www.inkscape.org/) -->

<svg
   xmlns:dc="http://purl.org/dc/elements/1.1/"
   xmlns:cc="http://creativecommons.org/ns#"
   xmlns:rdf="http://www.w3.org/1999/02/22-rdf-syntax-ns#"
   xmlns:svg="http://www.w3.org/2000/svg"
   xmlns="http://www.w3.org/2000/svg"
   xmlns:sodipodi="http://sodipodi.sourceforge.net/DTD/sodipodi-0.dtd"
   xmlns:inkscape="http://www.inkscape.org/namespaces/inkscape"
   version="1.1"
   width="24"
   height="24.009777"
   id="svg7384"
   inkscape:version="0.48.4 r9939"
   sodipodi:docname="document-print.svg">
  <metadata
     id="metadata90">
    <rdf:RDF>
      <cc:Work
         rdf:about="">
        <dc:format>image/svg+xml</dc:format>
        <dc:type
           rdf:resource="http://purl.org/dc/dcmitype/StillImage" />
        <dc:title>MuseScore Icon Theme</dc:title>
      </cc:Work>
    </rdf:RDF>
  </metadata>
  <sodipodi:namedview
     pagecolor="#222222"
     bordercolor="#666666"
     borderopacity="1"
     objecttolerance="10"
     gridtolerance="10"
     guidetolerance="10"
     inkscape:pageopacity="1"
     inkscape:pageshadow="2"
     inkscape:window-width="1920"
     inkscape:window-height="1021"
     id="namedview88"
     showgrid="false"
     inkscape:zoom="1"
     inkscape:cx="380.87501"
     inkscape:cy="-177.3798"
     inkscape:window-x="0"
     inkscape:window-y="27"
     inkscape:window-maximized="1"
     inkscape:current-layer="actions"
     showborder="false"
     inkscape:snap-nodes="false"
     inkscape:snap-bbox="true"
     inkscape:bbox-paths="true"
     showguides="true"
     inkscape:guide-bbox="true"
     inkscape:snap-to-guides="true"
     inkscape:snap-grids="true"
     inkscape:snap-global="false"
     inkscape:object-nodes="false"
     inkscape:snap-bbox-midpoints="false"
     inkscape:object-paths="false"
     inkscape:snap-others="false"
     inkscape:bbox-nodes="false"
     fit-margin-top="6"
     fit-margin-left="6"
     fit-margin-right="6"
     fit-margin-bottom="6">
    <inkscape:grid
       type="xygrid"
       id="grid4866"
       empspacing="2"
       visible="true"
       enabled="true"
       snapvisiblegridlinesonly="true"
       spacingx="1px"
       spacingy="1px"
       originx="-149.99999px"
       originy="-221.99999px" />
  </sodipodi:namedview>
  <title
     id="title9167">MuseScore Icon Theme</title>
  <defs
     id="defs7386" />
  <g
     inkscape:groupmode="layer"
     id="actions"
     inkscape:label="actions"
     transform="translate(-184.99999,-122.99023)"
     style="display:inline">
    <path
       style="fill:#ffffff;stroke:none"
       d="m 187.99999,129.99955 c -1.10457,0 -2,0.89544 -2,2.00001 l 0,4.99999 c 0,1.10458 0.89543,2 2,2 l 1,0 0,-3 16,0 0,3 1,0 c 1.10457,0 2,-0.89542 2,-2 l 0,-4.99999 c 0,-1.10457 -0.89543,-2.00001 -2,-2.00001 l -18,0 z"
       id="path4371"
       inkscape:connector-curvature="0" />
    <path
       inkscape:connector-curvature="0"
       sodipodi:nodetypes="ccccc"
       id="path4373"
       d="m 191,124.99385 0,3 12,0 0,-3 z"
       style="fill:#ffffff;stroke:none" />
    <path
       inkscape:connector-curvature="0"
       id="path4375"
       d="m 191,138 0,7 12,0 0,-7 -12,0 z m 2,1 8,0 0,1 -8,0 0,-1 z m 0,2 8,0 0,1 -8,0 0,-1 z m 0,2 8,0 0,1 -8,0 0,-1 z"
       style="fill:#ffffff;stroke:none" />
    <rect
       y="-147"
       x="185"
       height="24.009777"
       width="24"
       id="rect5759-5"
       style="fill:none;stroke:none;stroke-width:2;marker:none;visibility:visible;display:inline;overflow:visible"
       transform="scale(1,-1)" />
  </g>
</svg>
