<?xml version="1.0" encoding="UTF-8" standalone="no"?>
<!-- Created with Inkscape (http://www.inkscape.org/) -->

<svg
   xmlns:dc="http://purl.org/dc/elements/1.1/"
   xmlns:cc="http://creativecommons.org/ns#"
   xmlns:rdf="http://www.w3.org/1999/02/22-rdf-syntax-ns#"
   xmlns:svg="http://www.w3.org/2000/svg"
   xmlns="http://www.w3.org/2000/svg"
   xmlns:inkscape="http://www.inkscape.org/namespaces/inkscape"
   version="1.1"
   width="24"
   height="24.009777"
   id="svg7384">
  <title
     id="title9167">MuseScore Icon Theme</title>
  <metadata
     id="metadata90">
    <rdf:RDF>
      <cc:Work
         rdf:about="">
        <dc:format>image/svg+xml</dc:format>
        <dc:type
           rdf:resource="http://purl.org/dc/dcmitype/StillImage" />
        <dc:title>MuseScore Icon Theme</dc:title>
      </cc:Work>
    </rdf:RDF>
  </metadata>
  <defs
     id="defs7386" />
  <g
     transform="translate(-184.99999,-122.99023)"
     id="actions"
     style="display:inline">
    <path
       d="m 187.99999,129.99955 c -1.10457,0 -2,0.89544 -2,2.00001 l 0,4.99999 c 0,1.10458 0.89543,2 2,2 l 1,0 0,-3 16,0 0,3 1,0 c 1.10457,0 2,-0.89542 2,-2 l 0,-4.99999 c 0,-1.10457 -0.89543,-2.00001 -2,-2.00001 l -18,0 z"
       
       id="path4371"
       style="fill:#666666;stroke:none" />
    <path
       d="m 191,124.99385 0,3 12,0 0,-3 z"
       
       id="path4373"
       style="fill:#666666;stroke:none" />
    <path
       d="m 191,138 0,7 12,0 0,-7 -12,0 z m 2,1 8,0 0,1 -8,0 0,-1 z m 0,2 8,0 0,1 -8,0 0,-1 z m 0,2 8,0 0,1 -8,0 0,-1 z"
       
       id="path4375"
       style="fill:#666666;stroke:none" />
  </g>
</svg>
