<?xml version="1.0" encoding="UTF-8" standalone="no"?>
<!-- Created with Inkscape (http://www.inkscape.org/) -->

<svg
   xmlns:dc="http://purl.org/dc/elements/1.1/"
   xmlns:cc="http://creativecommons.org/ns#"
   xmlns:rdf="http://www.w3.org/1999/02/22-rdf-syntax-ns#"
   xmlns:svg="http://www.w3.org/2000/svg"
   xmlns="http://www.w3.org/2000/svg"
   xmlns:inkscape="http://www.inkscape.org/namespaces/inkscape"
   version="1.1"
   width="23.999975"
   height="23.999975"
   id="svg7384">
  <title
     id="title9167">MuseScore Icon Theme</title>
  <metadata
     id="metadata90">
    <rdf:RDF>
      <cc:Work
         rdf:about="">
        <dc:format>image/svg+xml</dc:format>
        <dc:type
           rdf:resource="http://purl.org/dc/dcmitype/StillImage" />
        <dc:title>MuseScore Icon Theme</dc:title>
      </cc:Work>
    </rdf:RDF>
  </metadata>
  <defs
     id="defs7386" />
  <g
     transform="translate(-41.000407,-122.99996)"
     id="actions"
     style="display:inline">
    <path
       d="m 62.394876,131.96983 c -0.517394,0.39315 -2.225832,-1.41015 -2.869107,-1.41285 -0.654404,0 -2.268012,1.78065 -2.800482,1.38945 -0.523409,-0.3846 0.659414,-2.47665 0.463155,-3.10665 -0.19965,-0.6408 -2.232103,-1.69064 -2.034823,-2.33219 0.19392,-0.63075 2.378802,-0.0975 2.900772,-0.48405 0.531014,-0.3933 0.816989,-2.81145 1.471378,-2.8167 0.64326,0 0.882284,2.4021 1.401149,2.79315 0.527834,0.3978 2.852742,-0.0705 3.059891,0.5685 0.20364,0.62745 -1.949232,1.60514 -2.150532,2.23334 -0.204795,0.63915 1.084964,2.76825 0.558599,3.168 z"
       inkscape:connector-curvature="0"
       id="path8980"
       style="color:#000000;fill:#666666;fill-rule:nonzero;stroke:none;stroke-width:2;marker:none;visibility:visible;display:inline;overflow:visible;enable-background:accumulate" />
    <path
       d="m 43.219347,127.00004 c -0.6876,0.1305 -1.231079,0.80009 -1.218749,1.49999 l 0,14.99999 c 7.5e-5,0.7854 0.714629,1.49985 1.499998,1.5 l 12.999991,0 c 0.78537,-1.5e-4 1.499924,-0.7146 1.499999,-1.5 l 0,-9.15629 c 0.009,-0.39615 -0.14625,-0.7935 -0.421875,-1.0782 l -5.343744,-5.84369 c -0.284685,-0.27555 -0.682049,-0.43095 -1.078124,-0.4218 -3.299861,0 -4.659835,0 -7.937496,0 z m 1.781248,2.99999 5.999603,0 0,3.9999 4.000391,0 0,8.00009 -9.999994,0 z"
       inkscape:connector-curvature="0"
       id="path1234-4"
       style="font-size:medium;font-style:normal;font-variant:normal;font-weight:normal;font-stretch:normal;text-indent:0;text-align:start;text-decoration:none;line-height:normal;letter-spacing:normal;word-spacing:normal;text-transform:none;direction:ltr;block-progression:tb;writing-mode:lr-tb;text-anchor:start;baseline-shift:baseline;color:#000000;fill:#666666;fill-rule:nonzero;stroke:none;stroke-width:2;marker:none;visibility:visible;display:inline;overflow:visible;enable-background:accumulate;font-family:Sans;-inkscape-font-specification:Sans" />
  </g>
</svg>
