<?xml version="1.0" encoding="UTF-8" standalone="no"?>
<!-- Created with Inkscape (http://www.inkscape.org/) -->

<svg
   xmlns:dc="http://purl.org/dc/elements/1.1/"
   xmlns:cc="http://creativecommons.org/ns#"
   xmlns:rdf="http://www.w3.org/1999/02/22-rdf-syntax-ns#"
   xmlns:svg="http://www.w3.org/2000/svg"
   xmlns="http://www.w3.org/2000/svg"
   xmlns:inkscape="http://www.inkscape.org/namespaces/inkscape"
   version="1.1"
   width="24"
   height="24"
   id="svg7384">
  <title
     id="title9167">MuseScore Icon Theme</title>
  <metadata
     id="metadata90">
    <rdf:RDF>
      <cc:Work
         rdf:about="">
        <dc:format>image/svg+xml</dc:format>
        <dc:type
           rdf:resource="http://purl.org/dc/dcmitype/StillImage" />
        <dc:title>MuseScore Icon Theme</dc:title>
      </cc:Work>
    </rdf:RDF>
  </metadata>
  <defs
     id="defs7386" />
  <g
     transform="translate(-77.000389,-122.99997)"
     id="actions"
     style="display:inline">
    <path
       d="m 78.72943,126 c -0.39678,0 -0.729045,0.3189 -0.729045,0.69975 l 0,16.60065 c 0,0.393 0.319275,0.6996 0.729045,0.6996 l 18.95517,0 c 0.40977,0 0.72903,-0.30645 0.72903,-0.6996 l 1.58676,-7.5999 c 0,-0.38085 -0.332325,-0.70635 -0.72903,-0.7008 l -15.73881,0 -1.415205,5.7075 c 0,0.36495 -0.306015,0.65865 -0.68616,0.65865 -0.380115,0 -0.684075,-0.2937 -0.68616,-0.65865 l -0.0465,-7.70715 16.54443,0 c 0,0 0.324855,-3 -0.66255,-3 l -10.58067,0 0,-3.3 c 0,-0.38085 -0.33258,-0.69975 -0.72906,-0.69975 L 82.07434,126 l -2.658855,0 z"
       inkscape:connector-curvature="0"
       id="path12212"
       style="color:#000000;fill:#666666;fill-rule:nonzero;stroke:none;marker:none;visibility:visible;display:inline;overflow:visible;enable-background:accumulate" />
  </g>
</svg>
