<?xml version="1.0" encoding="UTF-8" standalone="no"?>
<!-- Created with Inkscape (http://www.inkscape.org/) -->

<svg
   xmlns:dc="http://purl.org/dc/elements/1.1/"
   xmlns:cc="http://creativecommons.org/ns#"
   xmlns:rdf="http://www.w3.org/1999/02/22-rdf-syntax-ns#"
   xmlns:svg="http://www.w3.org/2000/svg"
   xmlns="http://www.w3.org/2000/svg"
   xmlns:inkscape="http://www.inkscape.org/namespaces/inkscape"
   version="1.1"
   width="24"
   height="24"
   id="svg7384">
  <title
     id="title9167">MuseScore Icon Theme</title>
  <metadata
     id="metadata90">
    <rdf:RDF>
      <cc:Work
         rdf:about="">
        <dc:format>image/svg+xml</dc:format>
        <dc:type
           rdf:resource="http://purl.org/dc/dcmitype/StillImage" />
        <dc:title>MuseScore Icon Theme</dc:title>
      </cc:Work>
    </rdf:RDF>
  </metadata>
  <defs
     id="defs7386" />
  <g
     transform="translate(-149.00038,-122.99993)"
     id="actions"
     style="display:inline">
    <rect
       width="2"
       height="4"
       rx="0"
       ry="0"
       x="157.00035"
       y="126.99986"
       id="rect6139"
       style="fill:#666666;fill-opacity:1;stroke:none;display:inline" />
    <rect
       width="16"
       height="2"
       rx="0"
       ry="0"
       x="153.00037"
       y="-145.00005"
       transform="scale(1,-1)"
       id="rect6141"
       style="fill:#666666;fill-opacity:1;stroke:none;display:inline" />
    <rect
       width="10"
       height="1"
       rx="0"
       ry="0"
       x="156.00037"
       y="-140.99992"
       transform="scale(1,-1)"
       id="rect6143"
       style="fill:#666666;fill-opacity:1;stroke:none;display:inline" />
    <rect
       width="10"
       height="1"
       rx="0"
       ry="0"
       x="156.00037"
       y="-138.99986"
       transform="scale(1,-1)"
       id="rect6145"
       style="fill:#666666;fill-opacity:1;stroke:none;display:inline" />
    <path
       d="m 152.62537,126.00005 c -0.75141,0 -1.62499,0.71685 -1.62499,1.62495 l 0,15.75 c 0,0.90825 0.7168,1.62495 1.62499,1.62495 l 0.375,0 16.00001,0 0.375,0 c 0.90818,0 1.62499,-0.7167 1.62499,-1.62495 l 0,-14.74995 c -0.37983,-0.6579 -1.79456,-2.15625 -2.625,-2.625 l -1.37501,0 0,5.4999 c 0,0.8229 -0.6772,1.5 -1.5,1.5 l -9.99998,0 c -0.8228,0 -1.5,-0.6771 -1.5,-1.5 l 0,-5.4999 -1.37501,0 z m 2.90625,9 10.93751,0 c 0.84466,0 1.53124,0.68655 1.53124,1.5312 l 0,4.93755 c 0,0.84465 -0.68658,1.5312 -1.53124,1.5312 l -10.93751,0 c -0.84468,0 -1.53124,-0.68655 -1.53124,-1.5312 l 0,-4.93755 c 0,-0.84465 0.68656,-1.5312 1.53124,-1.5312 z"
       inkscape:connector-curvature="0"
       id="path4877"
       style="fill:#666666;fill-opacity:1;stroke:none;display:inline" />
  </g>
</svg>
