<?xml version="1.0" encoding="UTF-8" standalone="no"?>
<!-- Created with Inkscape (http://www.inkscape.org/) -->

<svg
   xmlns:dc="http://purl.org/dc/elements/1.1/"
   xmlns:cc="http://creativecommons.org/ns#"
   xmlns:rdf="http://www.w3.org/1999/02/22-rdf-syntax-ns#"
   xmlns:svg="http://www.w3.org/2000/svg"
   xmlns="http://www.w3.org/2000/svg"
   xmlns:inkscape="http://www.inkscape.org/namespaces/inkscape"
   version="1.1"
   width="24"
   height="24"
   id="svg7384">
  <title
     id="title9167">MuseScore Icon Theme</title>
  <metadata
     id="metadata90">
    <rdf:RDF>
      <cc:Work
         rdf:about="">
        <dc:format>image/svg+xml</dc:format>
        <dc:type
           rdf:resource="http://purl.org/dc/dcmitype/StillImage" />
        <dc:title>MuseScore Icon Theme</dc:title>
      </cc:Work>
    </rdf:RDF>
  </metadata>
  <defs
     id="defs7386" />
  <g
     transform="translate(-113,-158.99999)"
     id="actions"
     style="display:inline">
    <path
       d="m 121.00001,160.02086 c -0.61508,0.024 -1,0.38242 -1,0.99477 l 0,1.98958 c 0,0.61235 0.38443,0.99629 1,0.99479 l 8.00001,-0.0194 c 0.61553,-0.001 1,-0.38241 1,-0.99478 l 0,-1.98957 c 0,-0.61236 -0.38492,-0.97075 -1,-0.99477 -2.33337,-0.006 -5.66668,0.007 -8.00001,0.0193 z"
       
       id="rect4492-7"
       style="fill:#666666;stroke:none;display:inline" />
    <path
       d="m 117,161 c -1.19486,0.037 -2,0.79665 -2,2 l 0,16.96875 c 0,1.2268 0.7727,2.03125 2,2.03125 1.73155,0 3.10648,0 4.96875,0 l -2.0625,-2.03125 -2.90625,0 0,-5.03125 0,-0.96875 0,-3.96875 0,-7 2,0 0,-2 -2,0 z m 14,0 0,2 2,0 0,7 0,3.96875 0,0.96875 0,5.03125 -2.90625,0 -2.0625,2.03125 c 1.60251,0 3.92276,0 4.96875,0 1.2273,0 2,-0.80445 2,-2.03125 L 135,163 c 0,-1.22681 -0.77287,-1.97973 -2,-2 l -2,0 z"
       
       id="path9727-3"
       style="font-size:medium;font-style:normal;font-variant:normal;font-weight:normal;font-stretch:normal;text-indent:0;text-align:start;text-decoration:none;line-height:normal;letter-spacing:normal;word-spacing:normal;text-transform:none;direction:ltr;block-progression:tb;writing-mode:lr-tb;text-anchor:start;baseline-shift:baseline;color:#000000;fill:#666666;stroke:none;stroke-width:2;marker:none;visibility:visible;display:inline;overflow:visible;enable-background:accumulate;font-family:Sans;-inkscape-font-specification:Sans" />
    <path
       d="m 121.00002,175.96876 0,1 c 0,0.26527 0.093,0.53056 0.28125,0.71875 l 3.71875,3.71875 c 0,0 2.47917,-2.47918 3.71875,-3.71875 0.18814,-0.18818 0.28122,-0.45345 0.28125,-0.71875 l 0,-1 -1,0 c -0.2653,0 -0.53058,0.0931 -0.71875,0.28124 l -2.28125,2.28126 -2.28125,-2.28126 c -0.18818,-0.1881 -0.45344,-0.28129 -0.71875,-0.28124 z"
       
       id="path3613-6-6-5-4"
       style="font-size:medium;font-style:normal;font-variant:normal;font-weight:normal;font-stretch:normal;text-indent:0;text-align:start;text-decoration:none;line-height:normal;letter-spacing:normal;word-spacing:normal;text-transform:none;direction:ltr;block-progression:tb;writing-mode:lr-tb;text-anchor:start;color:#000000;fill:#666666;fill-opacity:1;stroke:none;stroke-width:2;marker:none;visibility:visible;display:inline;overflow:visible;enable-background:accumulate;font-family:Bitstream Vera Sans;-inkscape-font-specification:Bitstream Vera Sans" />
    <rect
       width="2"
       height="8"
       x="124.00002"
       y="171.99998"
       id="rect9854"
       style="color:#000000;fill:#666666;fill-opacity:1;stroke:none;stroke-width:1;marker:none;visibility:visible;display:inline;overflow:visible;enable-background:accumulate" />
  </g>
</svg>
