<?xml version="1.0" encoding="UTF-8" standalone="no"?>
<!-- Created with Inkscape (http://www.inkscape.org/) -->

<svg
   xmlns:dc="http://purl.org/dc/elements/1.1/"
   xmlns:cc="http://creativecommons.org/ns#"
   xmlns:rdf="http://www.w3.org/1999/02/22-rdf-syntax-ns#"
   xmlns:svg="http://www.w3.org/2000/svg"
   xmlns="http://www.w3.org/2000/svg"
   xmlns:inkscape="http://www.inkscape.org/namespaces/inkscape"
   version="1.1"
   width="24"
   height="24.009777"
   id="svg7384">
  <title
     id="title9167">MuseScore Icon Theme</title>
  <metadata
     id="metadata90">
    <rdf:RDF>
      <cc:Work
         rdf:about="">
        <dc:format>image/svg+xml</dc:format>
        <dc:type
           rdf:resource="http://purl.org/dc/dcmitype/StillImage" />
        <dc:title>MuseScore Icon Theme</dc:title>
      </cc:Work>
    </rdf:RDF>
  </metadata>
  <defs
     id="defs7386" />
  <g
     transform="translate(-365,-122.80945)"
     id="actions"
     style="display:inline">
    <path
       d="m 379.62463,127 c 0.49886,0 0.86881,0.1296 1.1875,0.4375 l 6.1875,6.06249 -6.1875,6.06251 c -0.31869,0.30807 -0.68864,0.4375 -1.1875,0.4375 l -1.625,0 0,-1.59375 c 0,-0.4143 0.20552,-0.88062 0.5,-1.1875 l 2.6875,-2.21876 -8.5625,0 c -1.39848,0 -2.625,1.15757 -2.625,2.50001 0,1.34245 1.22652,2.5 2.625,2.5 l 0.375,0 0,3 -0.375,0 c -3.0198,0 -5.625,-2.42236 -5.625,-5.5 0,-3.07763 2.6052,-5.50001 5.625,-5.50001 l 8.5625,0 -2.6875,-2.21874 c -0.29448,-0.30687 -0.5,-0.74197 -0.5,-1.15626 l 0,-1.62499 1.625,0 z"
       
       id="path12832"
       style="font-size:medium;font-style:normal;font-variant:normal;font-weight:normal;font-stretch:normal;text-indent:0;text-align:start;text-decoration:none;line-height:normal;letter-spacing:normal;word-spacing:normal;text-transform:none;direction:ltr;block-progression:tb;writing-mode:lr-tb;text-anchor:start;baseline-shift:baseline;color:#000000;fill:#666666;stroke:none;stroke-width:3.375;marker:none;visibility:visible;display:inline;overflow:visible;enable-background:accumulate;font-family:Sans;-inkscape-font-specification:Sans" />
  </g>
</svg>
