<?xml version="1.0" encoding="UTF-8" standalone="no"?>
<!-- Created with Inkscape (http://www.inkscape.org/) -->

<svg
   xmlns:dc="http://purl.org/dc/elements/1.1/"
   xmlns:cc="http://creativecommons.org/ns#"
   xmlns:rdf="http://www.w3.org/1999/02/22-rdf-syntax-ns#"
   xmlns:svg="http://www.w3.org/2000/svg"
   xmlns="http://www.w3.org/2000/svg"
   xmlns:inkscape="http://www.inkscape.org/namespaces/inkscape"
   version="1.1"
   width="23.999985"
   height="24"
   id="svg7384">
  <title
     id="title9167">MuseScore Icon Theme</title>
  <metadata
     id="metadata90">
    <rdf:RDF>
      <cc:Work
         rdf:about="">
        <dc:format>image/svg+xml</dc:format>
        <dc:type
           rdf:resource="http://purl.org/dc/dcmitype/StillImage" />
        <dc:title>MuseScore Icon Theme</dc:title>
      </cc:Work>
    </rdf:RDF>
  </metadata>
  <defs
     id="defs7386" />
  <g
     transform="translate(-41.000402,-158.99999)"
     id="actions"
     style="display:inline">
    <path
       d="m 45,160.96875 c -1.194844,0.037 -2,0.79665 -2,2 l 0,17 c 0,1.2268 0.772701,2 2,2 2.810215,0.0446 5.445454,0.0416 8,0.0312 l 0,-2.03125 -8,0 0,-17 2,0 0,-2 c -0.763888,10e-6 -1.236112,3e-5 -2,0 z m 14,0 0,2 2,0 0,8.03125 2,0 0,-8.03125 c 0,-1.22681 -0.772702,-1.99999 -2,-2 l -2,0 z"
       
       id="path15024"
       style="font-size:medium;font-style:normal;font-variant:normal;font-weight:normal;font-stretch:normal;text-indent:0;text-align:start;text-decoration:none;line-height:normal;letter-spacing:normal;word-spacing:normal;text-transform:none;direction:ltr;block-progression:tb;writing-mode:lr-tb;text-anchor:start;baseline-shift:baseline;color:#000000;fill:#666666;stroke:none;stroke-width:2.00000143;marker:none;visibility:visible;display:inline;overflow:visible;enable-background:accumulate;font-family:Sans;-inkscape-font-specification:Sans" />
    <path
       d="m 49.000407,160.02086 c -0.615081,0.024 -1,0.38242 -1,0.99477 l 0,1.98958 c 0,0.61235 0.384432,0.99629 1,0.99479 l 8,-0.0194 c 0.615536,-0.001 1,-0.38241 1,-0.99478 l 0,-1.98957 c 0,-0.61236 -0.384921,-0.97075 -1,-0.99477 -2.333369,-0.006 -5.666674,0.007 -8,0.0193 z"
       
       id="path15026"
       style="fill:#666666;stroke:none;display:inline" />
    <path
       d="m 57,174.99994 0,6 c 0,0 0.670819,-0.003 1,0 0.53428,1.1e-4 1,-0.51036 1,-0.99999 l 0,-1.59376 2.78125,2.78125 c 0.351133,0.43539 1.090697,0.47487 1.486226,0.0793 0.395529,-0.39554 0.355732,-1.13478 -0.07998,-1.4856 l -2.812501,-2.78124 1.625002,0 c 0.52262,-0.005 0.995949,-0.47759 0.999999,-1 l 0,-1.00001 z"
       
       id="path12113"
       style="font-size:medium;font-style:normal;font-variant:normal;font-weight:normal;font-stretch:normal;text-indent:0;text-align:start;text-decoration:none;line-height:normal;letter-spacing:normal;word-spacing:normal;text-transform:none;direction:ltr;block-progression:tb;writing-mode:lr-tb;text-anchor:start;baseline-shift:baseline;color:#000000;fill:#666666;stroke:none;stroke-width:1.33360577;marker:none;visibility:visible;display:inline;overflow:visible;enable-background:new;font-family:Sans;-inkscape-font-specification:Sans" />
  </g>
</svg>
