<?xml version="1.0" encoding="UTF-8" standalone="no"?>
<!-- Created with Inkscape (http://www.inkscape.org/) -->

<svg
   xmlns:dc="http://purl.org/dc/elements/1.1/"
   xmlns:cc="http://creativecommons.org/ns#"
   xmlns:rdf="http://www.w3.org/1999/02/22-rdf-syntax-ns#"
   xmlns:svg="http://www.w3.org/2000/svg"
   xmlns="http://www.w3.org/2000/svg"
   xmlns:inkscape="http://www.inkscape.org/namespaces/inkscape"
   version="1.1"
   width="24"
   height="24"
   id="svg7384">
  <title
     id="title9167">MuseScore Icon Theme</title>
  <metadata
     id="metadata90">
    <rdf:RDF>
      <cc:Work
         rdf:about="">
        <dc:format>image/svg+xml</dc:format>
        <dc:type
           rdf:resource="http://purl.org/dc/dcmitype/StillImage" />
        <dc:title>MuseScore Icon Theme</dc:title>
      </cc:Work>
    </rdf:RDF>
  </metadata>
  <defs
     id="defs7386" />
  <g
     transform="translate(-149.0001,-195.00001)"
     id="actions"
     style="display:inline">
    <path
       d="m 158.00057,199 -1.00001,2.99953 7.7499,4.7e-4 c 0.64224,3e-5 0.89076,0.40099 0.70314,1.07812 L 164.93796,205 l -6.87499,0 c -2.75781,0 -4.68771,1.98168 -5.25,4.07812 -0.28115,1.04822 -0.24329,2.21825 0.375,3.23438 0.61828,1.01613 1.87195,1.6875 3.23437,1.6875 l 8.00001,0 1.125,0 0.32811,-1.125 2.48439,-9 C 169.01187,201.52183 167.27076,199 164.75046,199 z m 0.0624,9 6.03124,0 -0.84375,3 -6.82812,0 c -0.5968,0 -0.63688,-0.12555 -0.70312,-0.23438 -0.0663,-0.1089 -0.1212,-0.43884 0,-0.89062 0.24235,-0.90356 1.07667,-1.875 2.34375,-1.875 z"
       
       id="path11643-3-5-3"
       style="font-size:medium;font-style:normal;font-variant:normal;font-weight:normal;font-stretch:normal;text-indent:0;text-align:start;text-decoration:none;line-height:normal;letter-spacing:normal;word-spacing:normal;text-transform:none;direction:ltr;block-progression:tb;writing-mode:lr-tb;text-anchor:start;baseline-shift:baseline;color:#000000;fill:#666666;fill-opacity:1;stroke:none;stroke-width:2;marker:none;visibility:visible;display:inline;overflow:visible;enable-background:accumulate;font-family:Sans;-inkscape-font-specification:Sans" />
  </g>
</svg>
