<?xml version="1.0" encoding="UTF-8" standalone="no"?>
<!-- Created with Inkscape (http://www.inkscape.org/) -->

<svg
   xmlns:dc="http://purl.org/dc/elements/1.1/"
   xmlns:cc="http://creativecommons.org/ns#"
   xmlns:rdf="http://www.w3.org/1999/02/22-rdf-syntax-ns#"
   xmlns:svg="http://www.w3.org/2000/svg"
   xmlns="http://www.w3.org/2000/svg"
   xmlns:sodipodi="http://sodipodi.sourceforge.net/DTD/sodipodi-0.dtd"
   xmlns:inkscape="http://www.inkscape.org/namespaces/inkscape"
   version="1.1"
   width="24"
   height="24"
   id="svg7384"
   inkscape:version="0.48.4 r9939"
   sodipodi:docname="format-text-superscript.svg">
  <metadata
     id="metadata90">
    <rdf:RDF>
      <cc:Work
         rdf:about="">
        <dc:format>image/svg+xml</dc:format>
        <dc:type
           rdf:resource="http://purl.org/dc/dcmitype/StillImage" />
        <dc:title>MuseScore Icon Theme</dc:title>
      </cc:Work>
    </rdf:RDF>
  </metadata>
  <sodipodi:namedview
     pagecolor="#ffffff"
     bordercolor="#303338"
     borderopacity="1"
     objecttolerance="10"
     gridtolerance="10"
     guidetolerance="10"
     inkscape:pageopacity="0"
     inkscape:pageshadow="2"
     inkscape:window-width="1920"
     inkscape:window-height="1014"
     id="namedview88"
     showgrid="false"
     inkscape:zoom="22.627417"
     inkscape:cx="-200.46863"
     inkscape:cy="84.910824"
     inkscape:window-x="0"
     inkscape:window-y="27"
     inkscape:window-maximized="1"
     inkscape:current-layer="actions"
     showborder="false"
     inkscape:snap-nodes="true"
     inkscape:snap-bbox="true"
     inkscape:bbox-paths="true"
     showguides="true"
     inkscape:guide-bbox="true"
     inkscape:snap-to-guides="true"
     inkscape:snap-grids="true"
     inkscape:snap-global="true"
     inkscape:object-nodes="true"
     inkscape:snap-bbox-midpoints="true"
     inkscape:object-paths="true"
     inkscape:snap-others="false"
     inkscape:bbox-nodes="true"
     fit-margin-top="6"
     fit-margin-left="6"
     fit-margin-right="6"
     fit-margin-bottom="6"
     inkscape:snap-bbox-edge-midpoints="true"
     inkscape:snap-intersection-paths="true"
     inkscape:snap-smooth-nodes="true"
     inkscape:snap-midpoints="false">
    <inkscape:grid
       type="xygrid"
       id="grid4866"
       empspacing="2"
       visible="true"
       enabled="true"
       snapvisiblegridlinesonly="true"
       spacingx="1px"
       spacingy="1px"
       originx="-402.00039px"
       originy="-174.00003px" />
  </sodipodi:namedview>
  <title
     id="title9167">MuseScore Icon Theme</title>
  <defs
     id="defs7386" />
  <g
     inkscape:groupmode="layer"
     id="actions"
     inkscape:label="actions"
     transform="translate(-437.00039,-170.99997)"
     style="display:inline">
    <rect
       style="fill:none;stroke:none"
       id="rect15829"
       width="24"
       height="24"
       x="437.0004"
       y="170.99997" />
    <path
       inkscape:connector-curvature="0"
       sodipodi:nodetypes="ccccsscsscccssccccczc"
       id="path19696"
       d="m 450.99999,174 0,2 4.10988,0 c 0.86899,0.0276 0.89014,0.13784 0.89014,1 l -3.57727,0 c -0.73542,0 -1.4166,0.50091 -1.82812,0.96875 -0.41153,0.46783 -0.56762,1.06413 -0.5625,1.64062 0.005,0.5765 0.19951,1.13093 0.60937,1.59375 0.40986,0.46282 1.05464,0.79688 1.78125,0.79688 l 4.78125,0 0.79601,0 0,-0.79688 0,-4.82812 c 0,-1.30748 -1.04561,-2.37046 -2.38976,-2.375 z m 1.42275,5 3.57737,0 0,1 -3.57737,0 c 0,0 -0.42274,-0.0558 -0.42274,-0.50001 0,-0.44421 0.42274,-0.5 0.42274,-0.5 z"
       style="fill:#303338;stroke:none;stroke-width:1.06666565;marker:none;visibility:visible;display:inline;overflow:visible;enable-background:accumulate" />
    <path
       style="font-size:medium;font-style:normal;font-variant:normal;font-weight:normal;font-stretch:normal;text-indent:0;text-align:start;text-decoration:none;line-height:normal;letter-spacing:normal;word-spacing:normal;text-transform:none;direction:ltr;block-progression:tb;writing-mode:lr-tb;text-anchor:start;baseline-shift:baseline;color:#000000;fill:#303338;fill-opacity:1;stroke:none;stroke-width:2;marker:none;visibility:visible;display:inline;overflow:visible;enable-background:accumulate;font-family:Sans;-inkscape-font-specification:Sans"
       d="m 441,178 0,2 5,0 c 0.42815,0 1,0.61414 1,1 l 0,1 -4,0 c -0.91927,0 -1.7356,0.38397 -2.25,0.96875 -0.5144,0.58478 -0.75639,1.31063 -0.75,2.03125 0.006,0.72062 0.26893,1.45271 0.78125,2.03125 C 441.29357,187.60979 442.09172,188 443,188 l 5,0 1,0 0,-1 0,-6 c 0,-1.63434 -1.31981,-3 -3,-3 l -5,0 z m 2,6 4,0 0,2 -4,0 c -0.39787,0 -0.56691,-0.10979 -0.71875,-0.28125 C 442.12941,185.54729 442.00248,185.27938 442,185 c -0.002,-0.27938 0.10467,-0.55354 0.25,-0.71875 C 442.39533,184.11604 442.57764,184 443,184 z"
       id="path11643-3-2-9"
       inkscape:connector-curvature="0" />
  </g>
</svg>
