<?xml version="1.0" encoding="UTF-8" standalone="no"?>
<!-- Created with Inkscape (http://www.inkscape.org/) -->

<svg
   xmlns:dc="http://purl.org/dc/elements/1.1/"
   xmlns:cc="http://creativecommons.org/ns#"
   xmlns:rdf="http://www.w3.org/1999/02/22-rdf-syntax-ns#"
   xmlns:svg="http://www.w3.org/2000/svg"
   xmlns="http://www.w3.org/2000/svg"
   xmlns:inkscape="http://www.inkscape.org/namespaces/inkscape"
   version="1.1"
   width="24"
   height="24"
   id="svg7384">
  <title
     id="title9167">MuseScore Icon Theme</title>
  <metadata
     id="metadata90">
    <rdf:RDF>
      <cc:Work
         rdf:about="">
        <dc:format>image/svg+xml</dc:format>
        <dc:type
           rdf:resource="http://purl.org/dc/dcmitype/StillImage" />
        <dc:title>MuseScore Icon Theme</dc:title>
      </cc:Work>
    </rdf:RDF>
  </metadata>
  <defs
     id="defs7386" />
  <g
     transform="translate(-113.0001,-195.00001)"
     id="actions"
     style="display:inline">
    <path
       d="m 116.0001,216.00982 0,1.99999 18,0 0,-1.99999 -18,0 z"
       
       id="path5100"
       style="font-size:medium;font-style:normal;font-variant:normal;font-weight:normal;font-stretch:normal;text-indent:0;text-align:start;text-decoration:none;line-height:normal;letter-spacing:normal;word-spacing:normal;text-transform:none;direction:ltr;block-progression:tb;writing-mode:lr-tb;text-anchor:start;baseline-shift:baseline;color:#000000;fill:#666666;stroke:none;stroke-width:2;marker:none;visibility:visible;display:inline;overflow:visible;enable-background:accumulate;font-family:Sans;-inkscape-font-specification:Sans" />
    <path
       d="m 118.9999,199 0,3 7.50009,0 c 0.64224,0 1.17894,1.01842 1.5,1.5 l 0,1.5 -6.00009,0 c -1.37892,0 -2.6034,0.57594 -3.375,1.45312 -0.77159,0.87719 -1.1346,1.96595 -1.125,3.04688 0.009,1.08093 0.4034,2.17907 1.17188,3.04687 0.76847,0.86781 1.9657,1.45313 3.32812,1.45313 3.33336,0 5.66673,0 9.00009,0 l 0,-1.5 0,-9 c 0,-2.45151 -1.9797,-4.5 -4.5,-4.5 z m 3,9 6.00009,0 0,3 -6.00009,0 c -0.59681,0 -0.85038,-0.16468 -1.07812,-0.42188 -0.22776,-0.25719 -0.41816,-0.65905 -0.42188,-1.07812 -0.003,-0.41907 0.15701,-0.83031 0.375,-1.07813 0.218,-0.24781 0.49147,-0.42187 1.125,-0.42187 z"
       
       id="path11643-3-2"
       style="font-size:medium;font-style:normal;font-variant:normal;font-weight:normal;font-stretch:normal;text-indent:0;text-align:start;text-decoration:none;line-height:normal;letter-spacing:normal;word-spacing:normal;text-transform:none;direction:ltr;block-progression:tb;writing-mode:lr-tb;text-anchor:start;baseline-shift:baseline;color:#000000;fill:#666666;fill-opacity:1;stroke:none;stroke-width:2;marker:none;visibility:visible;display:inline;overflow:visible;enable-background:accumulate;font-family:Sans;-inkscape-font-specification:Sans" />
  </g>
</svg>
