<?xml version="1.0" encoding="UTF-8" standalone="no"?>
<!-- Created with Inkscape (http://www.inkscape.org/) -->

<svg
   xmlns:dc="http://purl.org/dc/elements/1.1/"
   xmlns:cc="http://creativecommons.org/ns#"
   xmlns:rdf="http://www.w3.org/1999/02/22-rdf-syntax-ns#"
   xmlns:svg="http://www.w3.org/2000/svg"
   xmlns="http://www.w3.org/2000/svg"
   xmlns:sodipodi="http://sodipodi.sourceforge.net/DTD/sodipodi-0.dtd"
   xmlns:inkscape="http://www.inkscape.org/namespaces/inkscape"
   version="1.1"
   width="24"
   height="24"
   id="svg7384"
   inkscape:version="0.48.4 r9939"
   sodipodi:docname="format-text-bold.svg">
  <metadata
     id="metadata90">
    <rdf:RDF>
      <cc:Work
         rdf:about="">
        <dc:format>image/svg+xml</dc:format>
        <dc:type
           rdf:resource="http://purl.org/dc/dcmitype/StillImage" />
        <dc:title>MuseScore Icon Theme</dc:title>
      </cc:Work>
    </rdf:RDF>
  </metadata>
  <sodipodi:namedview
     pagecolor="#ffffff"
     bordercolor="#303338"
     borderopacity="1"
     objecttolerance="10"
     gridtolerance="10"
     guidetolerance="10"
     inkscape:pageopacity="0"
     inkscape:pageshadow="2"
     inkscape:window-width="1920"
     inkscape:window-height="1014"
     id="namedview88"
     showgrid="false"
     inkscape:zoom="1"
     inkscape:cx="-15.004647"
     inkscape:cy="-200.1749"
     inkscape:window-x="0"
     inkscape:window-y="27"
     inkscape:window-maximized="1"
     inkscape:current-layer="actions"
     showborder="false"
     inkscape:snap-nodes="true"
     inkscape:snap-bbox="true"
     inkscape:bbox-paths="true"
     showguides="true"
     inkscape:guide-bbox="true"
     inkscape:snap-to-guides="true"
     inkscape:snap-grids="true"
     inkscape:snap-global="true"
     inkscape:object-nodes="true"
     inkscape:snap-bbox-midpoints="true"
     inkscape:object-paths="true"
     inkscape:snap-others="false"
     inkscape:bbox-nodes="true"
     fit-margin-top="6"
     fit-margin-left="6"
     fit-margin-right="6"
     fit-margin-bottom="6"
     inkscape:snap-bbox-edge-midpoints="true"
     inkscape:snap-intersection-paths="true"
     inkscape:snap-smooth-nodes="true"
     inkscape:snap-midpoints="false">
    <inkscape:grid
       type="xygrid"
       id="grid4866"
       empspacing="2"
       visible="true"
       enabled="true"
       snapvisiblegridlinesonly="true"
       spacingx="1px"
       spacingy="1px"
       originx="-42.00039px"
       originy="-173.99999px" />
  </sodipodi:namedview>
  <title
     id="title9167">MuseScore Icon Theme</title>
  <defs
     id="defs7386" />
  <g
     inkscape:groupmode="layer"
     id="actions"
     inkscape:label="actions"
     transform="translate(-77.00039,-171.00001)"
     style="display:inline">
    <rect
       inkscape:label="a"
       y="171.00002"
       x="77.000389"
       height="24"
       width="24"
       id="rect3613"
       style="fill:none;stroke:none;stroke-width:1;marker:none;visibility:visible;display:inline;overflow:visible" />
    <path
       inkscape:connector-curvature="0"
       style="fill:#303338;fill-opacity:1;stroke:none;stroke-width:2;marker:none;visibility:visible;display:inline;overflow:visible;enable-background:accumulate"
       sodipodi:nodetypes="cccssccsscssccccsscccsccsscss"
       id="path11643-3-2-4"
       d="m 80.99999,175 0,3 2.00001,0 5.49999,0 c 0.64224,0 1.5,1.02513 1.5,1.5 l 0,1.5 -3.99999,0 -2.00001,0 c -1.378905,0 -2.6034,0.59155 -3.375,1.46874 -0.7716,0.8772 -1.134585,1.95033 -1.125,3.03126 0.009,1.08093 0.419025,2.19469 1.187505,3.06249 C 81.455975,189.4303 82.63757,190 83.99999,190 L 86,190 l 7.999995,0 1.999995,0 0,-1.5 0,-9 c 0,-2.45151 -1.9797,-4.5 -4.5,-4.5 L 89.499995,175 83,175 z m 6,9 3,0 0,3 -3,0 c -0.596805,0 -0.834735,-0.1491 -1.062495,-0.40626 -0.22776,-0.25719 -0.433785,-0.67467 -0.437505,-1.09374 -0.003,-0.41907 0.157005,-0.8147 0.375,-1.06251 C 86.092985,184.18969 86.36645,184 86.99999,184 z" />
  </g>
</svg>
