<?xml version="1.0" encoding="UTF-8" standalone="no"?>
<!-- Created with Inkscape (http://www.inkscape.org/) -->

<svg
   xmlns:dc="http://purl.org/dc/elements/1.1/"
   xmlns:cc="http://creativecommons.org/ns#"
   xmlns:rdf="http://www.w3.org/1999/02/22-rdf-syntax-ns#"
   xmlns:svg="http://www.w3.org/2000/svg"
   xmlns="http://www.w3.org/2000/svg"
   xmlns:inkscape="http://www.inkscape.org/namespaces/inkscape"
   version="1.1"
   width="24"
   height="24"
   id="svg7384">
  <title
     id="title9167">MuseScore Icon Theme</title>
  <metadata
     id="metadata90">
    <rdf:RDF>
      <cc:Work
         rdf:about="">
        <dc:format>image/svg+xml</dc:format>
        <dc:type
           rdf:resource="http://purl.org/dc/dcmitype/StillImage" />
        <dc:title>MuseScore Icon Theme</dc:title>
      </cc:Work>
    </rdf:RDF>
  </metadata>
  <defs
     id="defs7386" />
  <g
     transform="translate(-77.00039,-195.00001)"
     id="actions"
     style="display:inline">
    <path
       d="m 80.99999,199 0,3 2.00001,0 5.49999,0 c 0.64224,0 1.5,1.02513 1.5,1.5 l 0,1.5 -3.99999,0 -2.00001,0 c -1.378905,0 -2.6034,0.59155 -3.375,1.46874 -0.7716,0.8772 -1.134585,1.95033 -1.125,3.03126 0.009,1.08093 0.419025,2.19469 1.187505,3.06249 C 81.455975,213.4303 82.63757,214 83.99999,214 L 86,214 l 7.999995,0 1.999995,0 0,-1.5 0,-9 c 0,-2.45151 -1.9797,-4.5 -4.5,-4.5 L 89.499995,199 83,199 z m 6,9 3,0 0,3 -3,0 c -0.596805,0 -0.834735,-0.1491 -1.062495,-0.40626 -0.22776,-0.25719 -0.433785,-0.67467 -0.437505,-1.09374 -0.003,-0.41907 0.157005,-0.8147 0.375,-1.06251 C 86.092985,208.18969 86.36645,208 86.99999,208 z"
       
       id="path11643-3-2-4"
       style="font-size:medium;font-style:normal;font-variant:normal;font-weight:normal;font-stretch:normal;text-indent:0;text-align:start;text-decoration:none;line-height:normal;letter-spacing:normal;word-spacing:normal;text-transform:none;direction:ltr;block-progression:tb;writing-mode:lr-tb;text-anchor:start;baseline-shift:baseline;color:#000000;fill:#666666;fill-opacity:1;stroke:none;stroke-width:2;marker:none;visibility:visible;display:inline;overflow:visible;enable-background:accumulate;font-family:Sans;-inkscape-font-specification:Sans" />
  </g>
</svg>
