<?xml version="1.0" encoding="UTF-8" standalone="no"?>
<!-- Created with Inkscape (http://www.inkscape.org/) -->

<svg
   xmlns:dc="http://purl.org/dc/elements/1.1/"
   xmlns:cc="http://creativecommons.org/ns#"
   xmlns:rdf="http://www.w3.org/1999/02/22-rdf-syntax-ns#"
   xmlns:svg="http://www.w3.org/2000/svg"
   xmlns="http://www.w3.org/2000/svg"
   xmlns:inkscape="http://www.inkscape.org/namespaces/inkscape"
   version="1.1"
   width="23.999969"
   height="24"
   id="svg7384">
  <title
     id="title9167">MuseScore Icon Theme</title>
  <metadata
     id="metadata90">
    <rdf:RDF>
      <cc:Work
         rdf:about="">
        <dc:format>image/svg+xml</dc:format>
        <dc:type
           rdf:resource="http://purl.org/dc/dcmitype/StillImage" />
        <dc:title>MuseScore Icon Theme</dc:title>
      </cc:Work>
    </rdf:RDF>
  </metadata>
  <defs
     id="defs7386" />
  <g
     transform="translate(-185.00043,-376.00015)"
     id="actions"
     style="display:inline">
    <g
       transform="matrix(0,1.5,-1.4999981,0,1348.8536,139.93012)"
       id="g9200">
      <title
         id="title9202">go-home</title>
      <g
         transform="matrix(0.02603569,0,0,0.02603569,345.96663,902.07624)"
         id="g9204"
         style="fill:#666666">
        <g
           id="g9206"
           style="fill:#666666" />
        <g
           id="g9208"
           style="fill:#666666" />
      </g>
      <g
         transform="matrix(0,1,1,0,-360.61998,639.9031)"
         id="g9210">
        <rect
           width="16"
           height="16"
           x="120"
           y="518"
           id="rect9212"
           style="color:#666666;fill:none;stroke:none;stroke-width:1;marker:none;visibility:visible;display:inline;overflow:visible;enable-background:new" />
      </g>
    </g>
    <path
       d="m 186.5,378 2,0 0,-1 -2,0 z m 4,0 2,0 0,-1 -2,0 z m 4,0 2,0 0,-1 -2,0 z m 4,0 2,0 0,-1 -2,0 z m 4,0 2,0 0,-1 -2,0 z m 4,0 0.5,0 0,0.5 1,0 0,-1 0,-0.5 -0.5,0 -1,0 z m -20.5,3.5 1,0 0,-2 -1,0 z m 21,1 1,0 0,-2 -1,0 z m -21,3 1,0 0,-2 -1,0 z m 21,1 1,0 0,-2 -1,0 z m -21,3 1,0 0,-2 -1,0 z m 21,1 1,0 0,-2 -1,0 z m -21,3 1,0 0,-2 -1,0 z m 21,1 1,0 0,-2 -1,0 z m -21,3 1,0 0,-2 -1,0 z m 21,1 1,0 0,-2 -1,0 z m -19.5,0.5 2,0 0,-1 -2,0 z m 4,0 2,0 0,-1 -2,0 z m 4,0 2,0 0,-1 -2,0 z m 4,0 2,0 0,-1 -2,0 z m 4,0 2,0 0,-1 -2,0 z"
       
       id="rect9216"
       style="font-size:medium;font-style:normal;font-variant:normal;font-weight:normal;font-stretch:normal;text-indent:0;text-align:start;text-decoration:none;line-height:normal;letter-spacing:normal;word-spacing:normal;text-transform:none;direction:ltr;block-progression:tb;writing-mode:lr-tb;text-anchor:start;baseline-shift:baseline;color:#000000;fill:#5999db;fill-opacity:1;stroke:none;stroke-width:1;marker:none;visibility:visible;display:inline;overflow:visible;enable-background:accumulate;font-family:Sans;-inkscape-font-specification:Sans" />
    <path
       d="m 189,380.00001 0,16 0.99999,0 0,-4 2.00001,0 0,4 0.99999,0 0,-4 2.00001,0 0,4 0.99999,0 0,-4 2.00001,0 0,4 0.99999,0 0,-4 2.00001,0 0,4 0.99999,0 0,-4 2.00001,0 0,4 0.99999,0 0,-4 0,-1 0,-9 0,-2 z m 0.99999,2 2.00001,0 0,4 -2.00001,0 z m 3,0 2.00001,0 0,4 -2.00001,0 z m 3,0 2.00001,0 0,4 -2.00001,0 z m 3,0 2.00001,0 0,4 -2.00001,0 z m 3,0 2.00001,0 0,4 -2.00001,0 z m -12,5 2.00001,0 0,4 -2.00001,0 z m 3,0 2.00001,0 0,4 -2.00001,0 z m 3,0 2.00001,0 0,4 -2.00001,0 z m 3,0 2.00001,0 0,4 -2.00001,0 z m 3,0 2.00001,0 0,4 -2.00001,0 z"
       
       id="rect5528-0"
       style="color:#000000;fill:#2e3136;fill-opacity:1;fill-rule:nonzero;stroke:none;stroke-width:2;marker:none;visibility:visible;display:inline;overflow:visible;enable-background:accumulate" />
    <path
       d="m 162.03125,364.51562 a 1.265625,1.265625 0 1 1 -2.53125,0 1.265625,1.265625 0 1 1 2.53125,0 z"
       transform="matrix(1.382716,0,0,1.382716,-20.79321,-115.02161)"
       id="path9244"
       style="color:#000000;fill:#2e3136;fill-opacity:1;fill-rule:nonzero;stroke:none;stroke-width:4;marker:none;visibility:visible;display:inline;overflow:visible;enable-background:new" />
    <path
       d="m 162.03125,364.51562 a 1.265625,1.265625 0 1 1 -2.53125,0 1.265625,1.265625 0 1 1 2.53125,0 z"
       transform="matrix(1.382716,0,0,1.382716,-26.79321,-120.02161)"
       id="path9754"
       style="color:#000000;fill:#2e3136;fill-opacity:1;fill-rule:nonzero;stroke:none;stroke-width:4;marker:none;visibility:visible;display:inline;overflow:visible;enable-background:new" />
  </g>
</svg>
