<?xml version="1.0" encoding="UTF-8" standalone="no"?>
<!-- Created with Inkscape (http://www.inkscape.org/) -->

<svg
   xmlns:dc="http://purl.org/dc/elements/1.1/"
   xmlns:cc="http://creativecommons.org/ns#"
   xmlns:rdf="http://www.w3.org/1999/02/22-rdf-syntax-ns#"
   xmlns:svg="http://www.w3.org/2000/svg"
   xmlns="http://www.w3.org/2000/svg"
   xmlns:inkscape="http://www.inkscape.org/namespaces/inkscape"
   version="1.1"
   width="23.999969"
   height="24"
   id="svg7384">
  <title
     id="title9167">MuseScore Icon Theme</title>
  <metadata
     id="metadata90">
    <rdf:RDF>
      <cc:Work
         rdf:about="">
        <dc:format>image/svg+xml</dc:format>
        <dc:type
           rdf:resource="http://purl.org/dc/dcmitype/StillImage" />
        <dc:title>MuseScore Icon Theme</dc:title>
      </cc:Work>
    </rdf:RDF>
  </metadata>
  <defs
     id="defs7386" />
  <g
     transform="translate(-113.00083,-376.00015)"
     id="actions"
     style="display:inline">
    <g
       transform="matrix(0,1.5,-1.4999981,0,1276.854,139.93012)"
       id="g5486">
      <title
         id="title5488">go-home</title>
      <g
         transform="matrix(0.02603569,0,0,0.02603569,345.96663,902.07624)"
         id="g5490"
         style="fill:#666666">
        <g
           id="g5492"
           style="fill:#666666" />
        <g
           id="g5494"
           style="fill:#666666" />
      </g>
      <g
         transform="matrix(0,1,1,0,-360.61998,639.9031)"
         id="g5496">
        <rect
           width="16"
           height="16"
           x="120"
           y="518"
           id="rect5498"
           style="color:#666666;fill:none;stroke:none;stroke-width:1;marker:none;visibility:visible;display:inline;overflow:visible;enable-background:new" />
      </g>
    </g>
    <path
       d="m 133.6258,388 -3.96875,-4.03125 c 0,0 -0.54369,0.48119 -0.84375,0.78125 -0.30006,0.30006 -0.39054,0.79701 0.0937,1.28125 l 0.9688,0.96875 -9.53125,0 0.96875,-0.96875 c 0.48425,-0.48424 0.39381,-0.98118 0.0937,-1.28125 -0.30006,-0.30007 -0.84375,-0.78125 -0.84375,-0.78125 l -3.9687,4.03125 3.96875,4.03125 c 0,0 0.54369,-0.48118 0.84375,-0.78125 0.30006,-0.30006 0.39054,-0.79701 -0.0937,-1.28125 l -0.96875,-1 9.5,0.0625 -0.9375,0.9375 c -0.48424,0.48424 -0.39381,0.98118 -0.0937,1.28125 0.30006,0.30007 0.84375,0.78125 0.84375,0.78125 L 133.6258,388 z"
       inkscape:connector-curvature="0"
       id="path5502"
       style="font-size:medium;font-style:normal;font-variant:normal;font-weight:normal;font-stretch:normal;text-indent:0;text-align:start;text-decoration:none;line-height:normal;letter-spacing:normal;word-spacing:normal;text-transform:none;direction:ltr;block-progression:tb;writing-mode:lr-tb;text-anchor:start;baseline-shift:baseline;color:#000000;fill:#5999db;fill-opacity:1;stroke:none;stroke-width:1.33333337;marker:none;visibility:visible;display:inline;overflow:visible;enable-background:new;font-family:Sans;-inkscape-font-specification:Sans" />
    <path
       d="m 114.5,378 2,0 0,-1 -2,0 z m 4,0 2,0 0,-1 -2,0 z m 4,0 2,0 0,-1 -2,0 z m 4,0 2,0 0,-1 -2,0 z m 4,0 2,0 0,-1 -2,0 z m 4,0 0.5,0 0,0.5 1,0 0,-1 0,-0.5 -0.5,0 -1,0 z m -20.5,3.5 1,0 0,-2 -1,0 z m 21,1 1,0 0,-2 -1,0 z m -21,3 1,0 0,-2 -1,0 z m 21,1 1,0 0,-2 -1,0 z m -21,3 1,0 0,-2 -1,0 z m 21,1 1,0 0,-2 -1,0 z m -21,3 1,0 0,-2 -1,0 z m 21,1 1,0 0,-2 -1,0 z m -21,3 1,0 0,-2 -1,0 z m 21,1 1,0 0,-2 -1,0 z m -19.5,0.5 2,0 0,-1 -2,0 z m 4,0 2,0 0,-1 -2,0 z m 4,0 2,0 0,-1 -2,0 z m 4,0 2,0 0,-1 -2,0 z m 4,0 2,0 0,-1 -2,0 z"
       inkscape:connector-curvature="0"
       id="rect5617-31"
       style="font-size:medium;font-style:normal;font-variant:normal;font-weight:normal;font-stretch:normal;text-indent:0;text-align:start;text-decoration:none;line-height:normal;letter-spacing:normal;word-spacing:normal;text-transform:none;direction:ltr;block-progression:tb;writing-mode:lr-tb;text-anchor:start;baseline-shift:baseline;color:#000000;fill:#5999db;fill-opacity:1;stroke:none;stroke-width:1;marker:none;visibility:visible;display:inline;overflow:visible;enable-background:accumulate;font-family:Sans;-inkscape-font-specification:Sans" />
  </g>
</svg>
