<?xml version="1.0" encoding="UTF-8" standalone="no"?>
<!-- Created with Inkscape (http://www.inkscape.org/) -->

<svg
   xmlns:dc="http://purl.org/dc/elements/1.1/"
   xmlns:cc="http://creativecommons.org/ns#"
   xmlns:rdf="http://www.w3.org/1999/02/22-rdf-syntax-ns#"
   xmlns:svg="http://www.w3.org/2000/svg"
   xmlns="http://www.w3.org/2000/svg"
   xmlns:inkscape="http://www.inkscape.org/namespaces/inkscape"
   version="1.1"
   width="24"
   height="23.999969"
   id="svg7384">
  <title
     id="title9167">MuseScore Icon Theme</title>
  <metadata
     id="metadata90">
    <rdf:RDF>
      <cc:Work
         rdf:about="">
        <dc:format>image/svg+xml</dc:format>
        <dc:type
           rdf:resource="http://purl.org/dc/dcmitype/StillImage" />
        <dc:title>MuseScore Icon Theme</dc:title>
      </cc:Work>
    </rdf:RDF>
  </metadata>
  <defs
     id="defs7386" />
  <g
     transform="translate(-41.00041,-376)"
     id="actions"
     style="display:inline">
    <g
       transform="matrix(1.5,0,0,1.4999981,-195.06962,-763.85318)"
       id="g3541">
      <title
         id="title3543">go-home</title>
      <g
         transform="matrix(0.02603569,0,0,0.02603569,345.96663,902.07624)"
         id="g3545"
         style="fill:#666666">
        <g
           id="g3547"
           style="fill:#666666" />
        <g
           id="g3549"
           style="fill:#666666" />
      </g>
      <g
         transform="matrix(0,1,1,0,-360.61998,639.9031)"
         id="g3551">
        <rect
           width="16"
           height="16"
           x="120"
           y="518"
           id="rect3553"
           style="color:#666666;fill:none;stroke:none;stroke-width:1;marker:none;visibility:visible;display:inline;overflow:visible;enable-background:new" />
      </g>
    </g>
    <path
       d="m 49.015735,382.98437 0,2.01563 4.96875,0 c 0.42819,0 1.03125,0.5985 1.03125,0.98437 l 0,1.03125 -4.03125,0 c -0.91926,0 -1.735607,0.35272 -2.25,0.9375 -0.514393,0.58479 -0.709512,1.34189 -0.703125,2.0625 0.0065,0.72062 0.237681,1.4371 0.75,2.01563 0.512319,0.57853 1.294847,0.98437 2.203125,0.98437 l 5.015625,0 0.984375,0 0,-1.03125 0,-6 c 0,-1.63432 -1.31979,-3 -3,-3 l -4.96875,0 z m 1.96875,6 4.03125,0 0,2.01563 -4.03125,0 c -0.397872,0 -0.551291,-0.1098 -0.703125,-0.28125 -0.151834,-0.17147 -0.278774,-0.47062 -0.28125,-0.75 -0.0025,-0.27938 0.08904,-0.53791 0.234375,-0.70313 0.145335,-0.16521 0.32766,-0.28125 0.75,-0.28125 z"
       inkscape:connector-curvature="0"
       id="path11691-2"
       style="font-size:medium;font-style:normal;font-variant:normal;font-weight:normal;font-stretch:normal;text-indent:0;text-align:start;text-decoration:none;line-height:normal;letter-spacing:normal;word-spacing:normal;text-transform:none;direction:ltr;block-progression:tb;writing-mode:lr-tb;text-anchor:start;baseline-shift:baseline;color:#000000;fill:#2e3136;fill-opacity:1;stroke:none;stroke-width:1.33333337;marker:none;visibility:visible;display:inline;overflow:visible;enable-background:accumulate;font-family:Sans;-inkscape-font-specification:Sans" />
    <path
       d="m 42.5,378 2,0 0,-1 -2,0 z m 4,0 2,0 0,-1 -2,0 z m 4,0 2,0 0,-1 -2,0 z m 4,0 2,0 0,-1 -2,0 z m 4,0 2,0 0,-1 -2,0 z m 4,0 0.5,0 0,0.5 1,0 0,-1 0,-0.5 -0.5,0 -1,0 z m -20.5,3.5 1,0 0,-2 -1,0 z m 21,1 1,0 0,-2 -1,0 z m -21,3 1,0 0,-2 -1,0 z m 21,1 1,0 0,-2 -1,0 z m -21,3 1,0 0,-2 -1,0 z m 21,1 1,0 0,-2 -1,0 z m -21,3 1,0 0,-2 -1,0 z m 21,1 1,0 0,-2 -1,0 z m -21,3 1,0 0,-2 -1,0 z m 21,1 1,0 0,-2 -1,0 z m -19.5,0.5 2,0 0,-1 -2,0 z m 4,0 2,0 0,-1 -2,0 z m 4,0 2,0 0,-1 -2,0 z m 4,0 2,0 0,-1 -2,0 z m 4,0 2,0 0,-1 -2,0 z"
       inkscape:connector-curvature="0"
       id="rect5617"
       style="font-size:medium;font-style:normal;font-variant:normal;font-weight:normal;font-stretch:normal;text-indent:0;text-align:start;text-decoration:none;line-height:normal;letter-spacing:normal;word-spacing:normal;text-transform:none;direction:ltr;block-progression:tb;writing-mode:lr-tb;text-anchor:start;baseline-shift:baseline;color:#000000;fill:#5999db;fill-opacity:1;stroke:none;stroke-width:1;marker:none;visibility:visible;display:inline;overflow:visible;enable-background:accumulate;font-family:Sans;-inkscape-font-specification:Sans" />
  </g>
</svg>
