<?xml version="1.0" encoding="UTF-8" standalone="no"?>
<!-- Created with Inkscape (http://www.inkscape.org/) -->

<svg
   xmlns:dc="http://purl.org/dc/elements/1.1/"
   xmlns:cc="http://creativecommons.org/ns#"
   xmlns:rdf="http://www.w3.org/1999/02/22-rdf-syntax-ns#"
   xmlns:svg="http://www.w3.org/2000/svg"
   xmlns="http://www.w3.org/2000/svg"
   xmlns:inkscape="http://www.inkscape.org/namespaces/inkscape"
   version="1.1"
   width="24"
   height="23.999969"
   id="svg7384">
  <title
     id="title9167">MuseScore Icon Theme</title>
  <metadata
     id="metadata90">
    <rdf:RDF>
      <cc:Work
         rdf:about="">
        <dc:format>image/svg+xml</dc:format>
        <dc:type
           rdf:resource="http://purl.org/dc/dcmitype/StillImage" />
        <dc:title>MuseScore Icon Theme</dc:title>
      </cc:Work>
    </rdf:RDF>
  </metadata>
  <defs
     id="defs7386" />
  <g
     transform="translate(-41.00041,-340)"
     id="actions"
     style="display:inline">
    <g
       transform="matrix(1.5,0,0,1.4999981,-195.06962,-799.85318)"
       id="g11938">
      <title
         id="title11940">go-home</title>
      <g
         transform="matrix(0.02603569,0,0,0.02603569,345.96663,902.07624)"
         id="g11942"
         style="fill:#666666">
        <g
           id="g11944"
           style="fill:#666666" />
        <g
           id="g11946"
           style="fill:#666666" />
      </g>
      <g
         transform="matrix(0,1,1,0,-360.61998,639.9031)"
         id="g11948">
        <rect
           width="16"
           height="16"
           x="120"
           y="518"
           id="rect11950"
           style="color:#666666;fill:none;stroke:none;stroke-width:1;marker:none;visibility:visible;display:inline;overflow:visible;enable-background:new" />
      </g>
    </g>
    <path
       d="m 53.00041,342.49954 c -0.265035,0 -0.611145,0.0856 -0.796875,0.1875 l -10.265625,5.8125 c -0.80478,0.32906 -1.17027,1.44464 -0.75,2.20313 0.42027,0.75846 1.54128,0.97116 2.25,0.46875 l 0.5625,-0.32813 0,9.12505 c -0.003,0.53494 0.490455,1.03429 1.03125,1.03125 l 3.9375,0 c 0.540795,0.003 1.03431,-0.49631 1.03125,-1.03125 l 0,-5.96879 6,0 0,5.92192 c -0.003,0.51974 0.45936,1.05731 0.984375,1.07812 2.254425,0.0257 1.332795,0 3.984375,0 0.540795,0.003 1.03431,-0.49631 1.03125,-1.03125 l 0,-9.17192 0.65625,0.375 c 0.705315,0.39957 1.754955,0.13965 2.15625,-0.5625 0.401295,-0.70229 0.096,-1.70978 -0.609375,-2.10938 l -10.265625,-5.8125 c -0.28038,-0.15554 -0.672465,-0.1875 -0.9375,-0.1875 z"
       
       id="path11952"
       style="font-size:medium;font-style:normal;font-variant:normal;font-weight:normal;font-stretch:normal;text-indent:0;text-align:start;text-decoration:none;line-height:normal;letter-spacing:normal;word-spacing:normal;text-transform:none;direction:ltr;block-progression:tb;writing-mode:lr-tb;text-anchor:start;baseline-shift:baseline;color:#000000;fill:#666666;stroke:none;stroke-width:1.3671602;marker:none;visibility:visible;display:inline;overflow:visible;enable-background:accumulate;font-family:Sans;-inkscape-font-specification:Sans" />
  </g>
</svg>
