<?xml version="1.0" encoding="UTF-8" standalone="no"?>
<!-- Created with Inkscape (http://www.inkscape.org/) -->

<svg
   xmlns:dc="http://purl.org/dc/elements/1.1/"
   xmlns:cc="http://creativecommons.org/ns#"
   xmlns:rdf="http://www.w3.org/1999/02/22-rdf-syntax-ns#"
   xmlns:svg="http://www.w3.org/2000/svg"
   xmlns="http://www.w3.org/2000/svg"
   xmlns:inkscape="http://www.inkscape.org/namespaces/inkscape"
   version="1.1"
   width="24"
   height="24"
   id="svg7384">
  <title
     id="title9167">MuseScore Icon Theme</title>
  <metadata
     id="metadata90">
    <rdf:RDF>
      <cc:Work
         rdf:about="">
        <dc:format>image/svg+xml</dc:format>
        <dc:type
           rdf:resource="http://purl.org/dc/dcmitype/StillImage" />
        <dc:title>MuseScore Icon Theme</dc:title>
      </cc:Work>
    </rdf:RDF>
  </metadata>
  <defs
     id="defs7386" />
  <g
     transform="translate(-148.99999,-340)"
     id="actions"
     style="display:inline">
    <path
       d="m 161.99988,344 c -0.51339,0 -1.03745,0 -1.54695,0 -0.38243,0.0168 -0.76481,0.19287 -1.03125,0.46875 l -8.4219,7.53128 8.42197,7.57812 c 0.28224,0.28228 0.68019,0.42188 1.07813,0.42188 l 1.4995,0 5e-4,-1.5 c 0,-0.39794 -0.13965,-0.79587 -0.42188,-1.07813 l -6.22305,-5.42187 6.22305,-5.37503 c 0.31611,-0.29194 0.45474,-0.70387 0.42188,-1.125 z"
       
       id="path3601"
       style="font-size:medium;font-style:normal;font-variant:normal;font-weight:normal;font-stretch:normal;text-indent:0;text-align:start;text-decoration:none;line-height:normal;letter-spacing:normal;word-spacing:normal;text-transform:none;direction:ltr;block-progression:tb;writing-mode:lr-tb;text-anchor:start;color:#666666;fill:#666666;fill-rule:nonzero;stroke:none;stroke-width:1.78124988;marker:none;visibility:visible;display:inline;overflow:visible;enable-background:new;font-family:Andale Mono;-inkscape-font-specification:Andale Mono" />
    <path
       d="m -74.375,98.625 a 1.625,1.625 0 1 1 -3.25,0 1.625,1.625 0 1 1 3.25,0 z"
       transform="matrix(1.2307692,0,0,1.2307692,257.53824,230.61542)"
       id="path3603"
       style="fill:#666666;stroke:none" />
    <path
       d="m -74.375,98.625 a 1.625,1.625 0 1 1 -3.25,0 1.625,1.625 0 1 1 3.25,0 z"
       transform="matrix(1.2307692,0,0,1.2307692,263.53822,230.61542)"
       id="path3605"
       style="fill:#666666;stroke:none" />
  </g>
</svg>
