<?xml version="1.0" encoding="UTF-8" standalone="no"?>
<!-- Created with Inkscape (http://www.inkscape.org/) -->

<svg
   xmlns:dc="http://purl.org/dc/elements/1.1/"
   xmlns:cc="http://creativecommons.org/ns#"
   xmlns:rdf="http://www.w3.org/1999/02/22-rdf-syntax-ns#"
   xmlns:svg="http://www.w3.org/2000/svg"
   xmlns="http://www.w3.org/2000/svg"
   xmlns:inkscape="http://www.inkscape.org/namespaces/inkscape"
   version="1.1"
   width="24"
   height="24"
   id="svg7384">
  <title
     id="title9167">MuseScore Icon Theme</title>
  <metadata
     id="metadata90">
    <rdf:RDF>
      <cc:Work
         rdf:about="">
        <dc:format>image/svg+xml</dc:format>
        <dc:type
           rdf:resource="http://purl.org/dc/dcmitype/StillImage" />
        <dc:title>MuseScore Icon Theme</dc:title>
      </cc:Work>
    </rdf:RDF>
  </metadata>
  <defs
     id="defs7386" />
  <g
     transform="translate(-257.0004,-340)"
     id="actions"
     style="display:inline">
    <path
       d="m 269,342.00002 c -5.51629,0 -10,4.48372 -10,10 0,5.5163 4.48371,10 10,10 5.51628,0 10,-4.4837 10,-10 0,-5.51628 -4.48372,-10 -10,-10 z m 0,2.6875 c 4.04861,0 7.3125,3.2639 7.3125,7.3125 0,4.04863 -3.2639,7.3125 -7.3125,7.3125 -4.04862,0 -7.3125,-3.26387 -7.3125,-7.3125 0,-4.0486 3.26388,-7.3125 7.3125,-7.3125 z"
       inkscape:connector-curvature="0"
       id="path9470"
       style="fill:#666666;stroke:none" />
    <path
       d="m 267.7662,353.36506 c -0.05,-0.32 -0.0401,-0.615 0.03,-0.885 0.07,-0.27 0.17,-0.515 0.3,-0.735 0.13995,-0.23 0.29499,-0.43999 0.465,-0.63 0.17999,-0.19001 0.34498,-0.37001 0.495,-0.54 0.15,-0.17 0.275,-0.33 0.375,-0.48 0.10995,-0.16001 0.16499,-0.32 0.165,-0.48 -1e-5,-0.27 -0.0851,-0.45999 -0.255,-0.57 -0.16,-0.12 -0.355,-0.18 -0.585,-0.18 -0.26001,0 -0.48001,0.06 -0.66,0.18 -0.18001,0.12 -0.37,0.27 -0.57,0.45 l -1.41,-1.29 c 0.35,-0.42 0.765,-0.75999 1.245,-1.02 0.47999,-0.26 1.00499,-0.39 1.575,-0.39 0.42999,0 0.83499,0.05 1.215,0.15 0.38,0.10005 0.71,0.255 0.99,0.465 0.29,0.21 0.515,0.48501 0.675,0.825 0.15999,0.33 0.23999,0.73 0.24,1.2 -10e-6,0.3 -0.055,0.57 -0.165,0.81 -0.10995,0.22999 -0.24501,0.445 -0.405,0.645 -0.15001,0.19999 -0.32001,0.39 -0.51,0.57 -0.18001,0.18 -0.34501,0.36499 -0.495,0.555 -0.15001,0.19 -0.27501,0.39499 -0.375,0.615 -0.09,0.22 -0.12,0.465 -0.09,0.735 l -2.25,0 m -0.39,2.28 c -10e-6,-0.44001 0.13995,-0.81 0.42,-1.11 0.27999,-0.3 0.63999,-0.45 1.08,-0.45 0.44,0 0.8,0.15 1.08,0.45 0.27999,0.3 0.41999,0.66999 0.42,1.11 -10e-6,0.43999 -0.13995,0.81 -0.42,1.11 -0.28,0.3 -0.64,0.45 -1.08,0.45 -0.44001,0 -0.80001,-0.15 -1.08,-0.45 -0.28,-0.3 -0.42001,-0.67001 -0.42,-1.11"
       inkscape:connector-curvature="0"
       id="path9484"
       style="font-size:10px;font-style:normal;font-variant:normal;font-weight:900;font-stretch:normal;text-align:start;line-height:125%;letter-spacing:0px;word-spacing:0px;writing-mode:lr-tb;text-anchor:start;fill:#666666;stroke:none;font-family:Source Sans Pro;-inkscape-font-specification:Source Sans Pro Heavy" />
  </g>
</svg>
