<?xml version="1.0" encoding="UTF-8" standalone="no"?>
<!-- Created with Inkscape (http://www.inkscape.org/) -->

<svg
   xmlns:dc="http://purl.org/dc/elements/1.1/"
   xmlns:cc="http://creativecommons.org/ns#"
   xmlns:rdf="http://www.w3.org/1999/02/22-rdf-syntax-ns#"
   xmlns:svg="http://www.w3.org/2000/svg"
   xmlns="http://www.w3.org/2000/svg"
   xmlns:inkscape="http://www.inkscape.org/namespaces/inkscape"
   version="1.1"
   width="24"
   height="24"
   id="svg7384">
  <title
     id="title9167">MuseScore Icon Theme</title>
  <metadata
     id="metadata90">
    <rdf:RDF>
      <cc:Work
         rdf:about="">
        <dc:format>image/svg+xml</dc:format>
        <dc:type
           rdf:resource="http://purl.org/dc/dcmitype/StillImage" />
        <dc:title>MuseScore Icon Theme</dc:title>
      </cc:Work>
    </rdf:RDF>
  </metadata>
  <defs
     id="defs7386" />
  <g
     transform="translate(-41,-195.00001)"
     id="actions"
     style="display:inline">
    <path
       d="m 57.09375,201.46876 -0.25,0.4375 c -0.098,0.15236 -0.16812,0.26168 -0.25,0.46875 -0.0819,0.20706 -0.17488,0.48255 -0.28125,0.78125 -0.11894,0.334 -0.24072,0.75717 -0.375,1.15625 -0.33552,-0.52493 -0.63846,-1.0785 -1.09375,-1.46875 -0.71178,-0.6101 -1.59979,-1 -2.625,-1 -2.87128,0 -5.09375,2.46872 -5.09375,5.375 0,2.76282 2.31874,4.9375 5.09375,4.9375 1.61309,0 2.78884,-1.0073 3.6875,-2.25 0.29092,0.80825 0.57067,1.64458 0.9375,2.1875 l 0.28125,0.4375 1.96094,-1.3164 -0.27344,-0.40235 c -0.64225,-0.95591 -1.05922,-2.30178 -1.46875,-3.59375 0.23769,-0.72819 0.50975,-1.58433 0.78125,-2.34375 0.28997,-0.81108 0.60427,-1.56464 0.6875,-1.6875 l 0.28125,-0.40625 -0.4375,-0.28125 -1.125,-0.75 z m -4.875,2.65625 c 0.70398,0 1.22327,0.34171 1.6875,0.9375 0.43132,0.55356 0.72849,1.35632 1,2.15625 -0.26053,0.70124 -0.56598,1.37555 -1,1.84375 -0.4717,0.50883 -1.01592,0.8125 -1.6875,0.8125 -1.48563,0 -2.71875,-1.18358 -2.71875,-2.65625 0,-1.68207 1.18522,-3.09375 2.71875,-3.09375 z"
       
       id="text11012"
       style="font-size:40px;font-style:normal;font-variant:normal;font-weight:normal;font-stretch:normal;text-indent:0;text-align:start;text-decoration:none;line-height:125%;letter-spacing:0px;word-spacing:0px;text-transform:none;direction:ltr;block-progression:tb;writing-mode:lr-tb;text-anchor:start;baseline-shift:baseline;color:#000000;fill:#666666;fill-opacity:1;fill-rule:nonzero;stroke:none;stroke-width:1;marker:none;visibility:visible;display:inline;overflow:visible;enable-background:accumulate;font-family:Sans;-inkscape-font-specification:Sans" />
    <path
       d="m 44.375,196 c -1.229204,0 -2.25,1.0208 -2.25,2.25 l 0,17.5 c 0,1.2292 1.020796,2.25 2.25,2.25 l 17.46875,0 c 1.229204,0 2.28125,-1.0208 2.28125,-2.25 l 0,-17.5 c 0,-1.2292 -1.052046,-2.25 -2.28125,-2.25 L 44.375,196 z m 0,2 17.46875,0 c 0.155799,0 0.28125,0.0942 0.28125,0.25 l 0,17.5 c 0,0.1558 -0.125451,0.25 -0.28125,0.25 L 44.375,216 c -0.155799,0 -0.25,-0.0942 -0.25,-0.25 l 0,-17.5 c 0,-0.1558 0.0942,-0.25 0.25,-0.25 z"
       
       id="rect3539"
       style="font-size:medium;font-style:normal;font-variant:normal;font-weight:normal;font-stretch:normal;text-indent:0;text-align:start;text-decoration:none;line-height:normal;letter-spacing:normal;word-spacing:normal;text-transform:none;direction:ltr;block-progression:tb;writing-mode:lr-tb;text-anchor:start;baseline-shift:baseline;color:#000000;fill:#666666;fill-opacity:1;stroke:none;stroke-width:2;marker:none;visibility:visible;display:inline;overflow:visible;enable-background:accumulate;font-family:Sans;-inkscape-font-specification:Sans" />
  </g>
</svg>
