<?xml version="1.0" encoding="UTF-8" standalone="no"?>
<!-- Created with Inkscape (http://www.inkscape.org/) -->

<svg
   xmlns:dc="http://purl.org/dc/elements/1.1/"
   xmlns:cc="http://creativecommons.org/ns#"
   xmlns:rdf="http://www.w3.org/1999/02/22-rdf-syntax-ns#"
   xmlns:svg="http://www.w3.org/2000/svg"
   xmlns="http://www.w3.org/2000/svg"
   xmlns:inkscape="http://www.inkscape.org/namespaces/inkscape"
   version="1.1"
   width="24"
   height="24"
   id="svg7384">
  <title
     id="title9167">MuseScore Icon Theme</title>
  <metadata
     id="metadata90">
    <rdf:RDF>
      <cc:Work
         rdf:about="">
        <dc:format>image/svg+xml</dc:format>
        <dc:type
           rdf:resource="http://purl.org/dc/dcmitype/StillImage" />
        <dc:title>MuseScore Icon Theme</dc:title>
      </cc:Work>
    </rdf:RDF>
  </metadata>
  <defs
     id="defs7386" />
  <g
     transform="translate(-508.00038,-195.00001)"
     id="actions"
     style="display:inline">
    <rect
       width="13.999998"
       height="1.9999388"
       x="516.00037"
       y="207.00006"
       id="rect17549"
       style="fill:#666666;stroke:none;stroke-width:1;marker:none;visibility:visible;display:inline;overflow:visible" />
    <rect
       width="14.00001"
       height="1.9998676"
       x="516.00037"
       y="199.00012"
       id="rect17557"
       style="fill:#666666;stroke:none;stroke-width:1;marker:none;visibility:visible;display:inline;overflow:visible" />
    <rect
       width="8"
       height="1.9998676"
       x="516.00037"
       y="203.00012"
       id="rect5421"
       style="fill:#666666;stroke:none;stroke-width:1;marker:none;visibility:visible;display:inline;overflow:visible" />
    <rect
       width="4.0000086"
       height="1.9999388"
       x="516.00037"
       y="211.00006"
       id="rect5423"
       style="fill:#666666;stroke:none;stroke-width:1;marker:none;visibility:visible;display:inline;overflow:visible" />
    <path
       d="m 514,204 0,0.99999 -4,1e-5 0,-0.99999 2,-1e-5 0,-3.52907 c -0.06,0.08 -0.20021,0.16334 -0.32687,0.25 -0.12667,0.08 -0.31355,0.15667 -0.46688,0.23 -0.15334,0.0733 -0.36021,0.13334 -0.52687,0.18 -0.16667,0.0467 -0.36022,0.07 -0.48688,0.07 l 0,-1.25 c 0.12,1e-5 0.31354,-0.0367 0.48688,-0.11 0.17333,-0.08 0.3902,-0.17333 0.55687,-0.28 0.16666,-0.10666 0.36021,-0.20999 0.48688,-0.31 0.12666,-0.10666 0.2502,-0.19092 0.27687,-0.25093 l 1,0 0,5"
       
       id="path11539"
       style="font-size:10px;font-style:normal;font-variant:normal;font-weight:bold;font-stretch:normal;line-height:125%;letter-spacing:0px;word-spacing:0px;fill:#666666;fill-opacity:1;stroke:none;font-family:Raleway;-inkscape-font-specification:Raleway" />
    <path
       d="m 510,212.99998 c 0,-0.30981 0.0193,-0.33865 0.0581,-0.5865 0.0387,-0.25472 0.10788,-0.52005 0.20747,-0.73348 0.0996,-0.21342 0.23236,-0.44433 0.39834,-0.63022 0.16597,-0.18589 0.37898,-0.39957 0.639,-0.57858 0.2213,-0.15146 0.4177,-0.31352 0.58921,-0.42368 0.17704,-0.11703 0.32366,-0.25499 0.43984,-0.35139 0.12171,-0.0964 0.21299,-0.19276 0.27386,-0.28915 0.0608,-0.10327 0.0913,-0.25156 0.0913,-0.38237 0,-0.20653 -0.0664,-0.41334 -0.19917,-0.55793 -0.13278,-0.15145 -0.32365,-0.25843 -0.57261,-0.25844 -0.13278,1e-5 -0.2545,0.0241 -0.36515,0.0723 -0.11065,0.0413 -0.21576,0.0999 -0.31535,0.17556 -0.0941,0.0757 -0.18257,0.16179 -0.26556,0.25817 -0.0774,0.0895 -0.14938,0.1859 -0.21577,0.28916 l -0.71369,-1.02238 c 0.072,-0.0964 0.17427,-0.19965 0.30705,-0.30981 0.13278,-0.11703 0.2877,-0.22374 0.46473,-0.32014 0.18258,-0.10327 0.38175,-0.18587 0.59751,-0.24784 0.2213,-0.0689 0.45644,-0.10327 0.7054,-0.10327 0.28216,1e-5 0.53388,0.0447 0.75519,0.13425 0.22129,0.0826 0.40663,0.2031 0.55601,0.36144 0.15491,0.15147 0.27109,0.33736 0.34855,0.55766 0.083,0.21343 0.12447,0.47876 0.12448,0.73349 -10e-6,0.24097 -0.0359,0.48565 -0.10788,0.67152 -0.072,0.1859 -0.16321,0.38238 -0.27386,0.52695 -0.11066,0.14459 -0.23237,0.27195 -0.36515,0.3821 -0.12725,0.10328 -0.25173,0.22747 -0.37344,0.31008 -0.0996,0.0689 -0.20747,0.17583 -0.32365,0.25844 -0.11066,0.0826 -0.22131,0.20681 -0.33195,0.31008 -0.11066,0.0964 -0.21301,0.23435 -0.30706,0.35139 -0.0885,0.11705 -0.15767,0.27222 -0.20747,0.40302 l 2.38175,0 0,0.99958 -4,0"
       
       id="path11542"
       style="font-size:10px;font-style:normal;font-variant:normal;font-weight:bold;font-stretch:normal;line-height:125%;letter-spacing:0px;word-spacing:0px;fill:#666666;fill-opacity:1;stroke:none;font-family:Raleway;-inkscape-font-specification:Raleway" />
  </g>
</svg>
