<?xml version="1.0" encoding="UTF-8" standalone="no"?>
<!-- Created with Inkscape (http://www.inkscape.org/) -->

<svg
   xmlns:dc="http://purl.org/dc/elements/1.1/"
   xmlns:cc="http://creativecommons.org/ns#"
   xmlns:rdf="http://www.w3.org/1999/02/22-rdf-syntax-ns#"
   xmlns:svg="http://www.w3.org/2000/svg"
   xmlns="http://www.w3.org/2000/svg"
   version="1.1"
   width="24"
   height="24"
   id="svg7384">
  <title
     id="title9167">MuseScore Icon Theme</title>
  <metadata
     id="metadata90">
    <rdf:RDF>
      <cc:Work
         rdf:about="">
        <dc:format>image/svg+xml</dc:format>
        <dc:type
           rdf:resource="http://purl.org/dc/dcmitype/StillImage" />
        <dc:title>MuseScore Icon Theme</dc:title>
      </cc:Work>
    </rdf:RDF>
  </metadata>
  <defs
     id="defs7386" />
  <g
     transform="translate(-544.00038,-195.00001)"
     id="actions"
     style="display:inline">
    <rect
       width="14.999999"
       height="1.999949"
       x="551.00037"
       y="207.00006"
       id="rect5990-1"
       style="fill:#666666;stroke:none;stroke-width:1;marker:none;visibility:visible;display:inline;overflow:visible" />
    <rect
       width="14.999999"
       height="1.9998981"
       x="551.00037"
       y="199.00009"
       id="rect5994-8"
       style="fill:#666666;stroke:none;stroke-width:1;marker:none;visibility:visible;display:inline;overflow:visible" />
    <rect
       width="8"
       height="1.9999185"
       x="551.00037"
       y="203.00006"
       id="rect5996-28"
       style="fill:#666666;stroke:none;stroke-width:1;marker:none;visibility:visible;display:inline;overflow:visible" />
    <path
       d="m 503,-513 a 1,1 0 1 1 -2,0 1,1 0 1 1 2,0 z"
       transform="matrix(1.499995,0,0,1.4999934,-205.49711,977.99661)"
       id="path6084"
       style="fill:#666666;stroke:none" />
    <path
       d="m 503,-513 a 1,1 0 1 1 -2,0 1,1 0 1 1 2,0 z"
       transform="matrix(1.499995,0,0,1.4999934,-205.49711,969.99661)"
       id="path6086"
       style="fill:#666666;stroke:none" />
    <rect
       width="4"
       height="1.999949"
       x="551.00037"
       y="211.00006"
       id="rect5417"
       style="fill:#666666;stroke:none;stroke-width:1;marker:none;visibility:visible;display:inline;overflow:visible" />
  </g>
</svg>
