<?xml version="1.0" encoding="UTF-8" standalone="no"?>
<!-- Created with Inkscape (http://www.inkscape.org/) -->

<svg
   xmlns:dc="http://purl.org/dc/elements/1.1/"
   xmlns:cc="http://creativecommons.org/ns#"
   xmlns:rdf="http://www.w3.org/1999/02/22-rdf-syntax-ns#"
   xmlns:svg="http://www.w3.org/2000/svg"
   xmlns="http://www.w3.org/2000/svg"
   xmlns:inkscape="http://www.inkscape.org/namespaces/inkscape"
   version="1.1"
   width="24"
   height="23.999969"
   id="svg7384">
  <title
     id="title9167">MuseScore Icon Theme</title>
  <metadata
     id="metadata90">
    <rdf:RDF>
      <cc:Work
         rdf:about="">
        <dc:format>image/svg+xml</dc:format>
        <dc:type
           rdf:resource="http://purl.org/dc/dcmitype/StillImage" />
        <dc:title>MuseScore Icon Theme</dc:title>
      </cc:Work>
    </rdf:RDF>
  </metadata>
  <defs
     id="defs7386" />
  <g
     transform="translate(-149.00014,-376)"
     id="actions"
     style="display:inline">
    <g
       transform="matrix(1.5,0,0,1.4999981,-87.069886,-763.85318)"
       id="g5510">
      <title
         id="title5512">go-home</title>
      <g
         transform="matrix(0.02603569,0,0,0.02603569,345.96663,902.07624)"
         id="g5514"
         style="fill:#666666">
        <g
           id="g5516"
           style="fill:#666666" />
        <g
           id="g5518"
           style="fill:#666666" />
      </g>
      <g
         transform="matrix(0,1,1,0,-360.61998,639.9031)"
         id="g5520">
        <rect
           width="16"
           height="16"
           x="120"
           y="518"
           id="rect5522"
           style="color:#666666;fill:none;stroke:none;stroke-width:1;marker:none;visibility:visible;display:inline;overflow:visible;enable-background:new" />
      </g>
    </g>
    <path
       d="m 150,379.00002 0,0.99998 2,0 0,3 -2,0 0,1.00001 2,0 0,3 -2,0 0,1 2,0 0,3 -2,0 0,0.99999 2,0 0,3 -2,0 0,1.00001 22,0 0,-1.00001 -2,0 0,-3 2,0 0,-0.99999 -2,0 0,-3 2,0 0,-1 -2,0 0,-3 2,0 0,-1.00001 -2,0 0,-3 2,0 0,-0.99998 -2,0 -1,0 -16,0 -1,0 z m 3,0.99998 16,0 0,3 -16,0 z m 0,4.00001 16,0 0,3 -16,0 z m 0,4 16,0 0,3 -16,0 z m 0,3.99999 16,0 0,3 -16,0 z"
       inkscape:connector-curvature="0"
       id="rect5528"
       style="color:#000000;fill:#666666;fill-opacity:1;fill-rule:nonzero;stroke:none;stroke-width:2;marker:none;visibility:visible;display:inline;overflow:visible;enable-background:accumulate" />
  </g>
</svg>
