<?xml version="1.0" encoding="UTF-8" standalone="no"?>
<!-- Created with Inkscape (http://www.inkscape.org/) -->

<svg
   xmlns:dc="http://purl.org/dc/elements/1.1/"
   xmlns:cc="http://creativecommons.org/ns#"
   xmlns:rdf="http://www.w3.org/1999/02/22-rdf-syntax-ns#"
   xmlns:svg="http://www.w3.org/2000/svg"
   xmlns="http://www.w3.org/2000/svg"
   xmlns:inkscape="http://www.inkscape.org/namespaces/inkscape"
   version="1.1"
   width="24"
   height="24"
   id="svg7384">
  <title
     id="title9167">MuseScore Icon Theme</title>
  <metadata
     id="metadata90">
    <rdf:RDF>
      <cc:Work
         rdf:about="">
        <dc:format>image/svg+xml</dc:format>
        <dc:type
           rdf:resource="http://purl.org/dc/dcmitype/StillImage" />
        <dc:title>MuseScore Icon Theme</dc:title>
      </cc:Work>
    </rdf:RDF>
  </metadata>
  <defs
     id="defs7386" />
  <g
     transform="translate(-256.9999,-231)"
     id="actions"
     style="display:inline">
    <path
       d="m 265.5625,233 -3.75,20 13.84375,0 -1.53125,-8 -1.6875,2.90625 L 273,251 l -8.53125,0 2.9375,-16 2.65625,0 0.34375,2 c 0.48059,-0.54077 1.10145,-0.96278 1.8125,-1.21875 0.0526,-0.0189 0.10257,-0.0455 0.15625,-0.0625 C 272.33258,235.56041 271.90625,233 271.90625,233 z"
       
       id="path17616-0"
       style="font-size:medium;font-style:normal;font-variant:normal;font-weight:normal;font-stretch:normal;text-indent:0;text-align:start;text-decoration:none;line-height:normal;letter-spacing:normal;word-spacing:normal;text-transform:none;direction:ltr;block-progression:tb;writing-mode:lr-tb;text-anchor:start;baseline-shift:baseline;color:#000000;fill:#666666;fill-opacity:1;stroke:none;stroke-width:2;marker:none;visibility:visible;display:inline;overflow:visible;enable-background:accumulate;font-family:Sans;-inkscape-font-specification:Sans" />
    <path
       d="M 274.71875,236.59375 268.125,248 l 1.96875,0 6.09375,-10.5625 -1.46875,-0.84375 z"
       
       id="rect17622-4"
       style="fill:#666666;fill-opacity:1;stroke:none" />
    <path
       d="m 241.07921,216.08603 a 2.0550292,2.0550292 0 1 1 -4.11005,0 2.0550292,2.0550292 0 1 1 4.11005,0 z"
       transform="matrix(0.31478243,1.174784,-1.174784,0.31478243,452.34848,-108.79999)"
       id="path17657-3-4"
       style="fill:#666666;fill-opacity:1;stroke:none;display:inline" />
  </g>
</svg>
