<?xml version="1.0" encoding="UTF-8" standalone="no"?>
<!-- Created with Inkscape (http://www.inkscape.org/) -->

<svg
   xmlns:dc="http://purl.org/dc/elements/1.1/"
   xmlns:cc="http://creativecommons.org/ns#"
   xmlns:rdf="http://www.w3.org/1999/02/22-rdf-syntax-ns#"
   xmlns:svg="http://www.w3.org/2000/svg"
   xmlns="http://www.w3.org/2000/svg"
   xmlns:inkscape="http://www.inkscape.org/namespaces/inkscape"
   version="1.1"
   width="24"
   height="24"
   id="svg7384">
  <title
     id="title9167">MuseScore Icon Theme</title>
  <metadata
     id="metadata90">
    <rdf:RDF>
      <cc:Work
         rdf:about="">
        <dc:format>image/svg+xml</dc:format>
        <dc:type
           rdf:resource="http://purl.org/dc/dcmitype/StillImage" />
        <dc:title>MuseScore Icon Theme</dc:title>
      </cc:Work>
    </rdf:RDF>
  </metadata>
  <defs
     id="defs7386" />
  <g
     transform="translate(-149.0001,-230.99997)"
     id="actions"
     style="display:inline">
    <path
       d="m 161.00036,234.75001 c -4.55396,0.001 -8.24718,3.69593 -8.25,8.25 0,1.8836 0.65193,3.63856 1.71875,5.02735 -0.45834,0.45833 -1.5039,1.5039 -1.5039,1.5039 l 0.62359,0.5324 4.664,0.91661 c 1.37256,0.26974 1.37256,0.26974 1.08533,-1.09934 l -0.9229,-4.39896 -0.59455,-0.80618 c 0,0 -0.931,0.93099 -1.33204,1.33204 -0.58419,-0.87232 -0.98828,-1.87666 -0.98828,-3.00782 0.006,-3.04493 2.4553,-5.49602 5.5,-5.5 3.04341,0.005 5.4947,2.45505 5.5,5.5 -0.006,3.04359 -2.45657,5.4947 -5.5,5.5 4.6e-4,-0.001 -0.007,2.75 0,2.75 4.55465,0 8.25,-3.69583 8.25,-8.25 0,-4.55416 -3.69541,-8.24868 -8.25,-8.25 z"
       inkscape:connector-curvature="0"
       id="path4-1-0"
       style="fill:#666666;fill-opacity:1;stroke:none;display:inline" />
  </g>
</svg>
