<?xml version="1.0" encoding="UTF-8" standalone="no"?>
<!-- Created with Inkscape (http://www.inkscape.org/) -->

<svg
   xmlns:dc="http://purl.org/dc/elements/1.1/"
   xmlns:cc="http://creativecommons.org/ns#"
   xmlns:rdf="http://www.w3.org/1999/02/22-rdf-syntax-ns#"
   xmlns:svg="http://www.w3.org/2000/svg"
   xmlns="http://www.w3.org/2000/svg"
   xmlns:inkscape="http://www.inkscape.org/namespaces/inkscape"
   version="1.1"
   width="24"
   height="24"
   id="svg7384">
  <title
     id="title9167">MuseScore Icon Theme</title>
  <metadata
     id="metadata90">
    <rdf:RDF>
      <cc:Work
         rdf:about="">
        <dc:format>image/svg+xml</dc:format>
        <dc:type
           rdf:resource="http://purl.org/dc/dcmitype/StillImage" />
        <dc:title>MuseScore Icon Theme</dc:title>
      </cc:Work>
    </rdf:RDF>
  </metadata>
  <defs
     id="defs7386" />
  <g
     transform="translate(-185,-231)"
     id="actions"
     style="display:inline">
    <rect
       width="2"
       height="20"
       x="204.9998"
       y="233"
       id="rect10424"
       style="fill:#666666;stroke:none" />
    <path
       d="m 202.9998,233 0,7.375 0.15625,0.0937 c 0.37212,0.21541 0.63387,0.49781 0.84375,0.8125 l 0,-8.28125 -1,0 z m 1,11.71875 c -0.20988,0.31469 -0.47164,0.59709 -0.84375,0.8125 l -0.15625,0.0937 0,7.375 1,0 0,-8.28125 z"
       inkscape:connector-curvature="0"
       id="rect10465"
       style="fill:#666666;fill-opacity:1;stroke:none" />
    <path
       d="m 200.9998,233 0,6.1875 1,0.59375 0,-6.78125 -1,0 z m 0,9.6875 0,0.625 0.5,-0.3125 -0.5,-0.3125 z m 1,3.53125 -1,0.59375 0,6.1875 1,0 0,-6.78125 z"
       inkscape:connector-curvature="0"
       id="rect10467"
       style="fill:#666666;fill-opacity:1;stroke:none" />
    <path
       d="m 190.9998,236.00004 0,13.99993 1.21254,0 0.12543,0 c 0.23403,0.001 0.46533,-0.0543 0.66899,-0.17498 l 9.36585,-5.59999 c 0.41571,-0.24064 0.62718,-0.73282 0.62718,-1.22498 0,-0.49217 -0.21147,-0.98436 -0.62718,-1.22501 l -9.36585,-5.59996 c -0.20366,-0.1206 -0.43496,-0.17684 -0.66899,-0.17501 l -0.12543,0 z"
       inkscape:connector-curvature="0"
       id="path3807-1-1-9-38-4-1"
       style="font-size:medium;font-style:normal;font-variant:normal;font-weight:normal;font-stretch:normal;text-indent:0;text-align:start;text-decoration:none;line-height:normal;letter-spacing:normal;word-spacing:normal;text-transform:none;direction:ltr;block-progression:tb;writing-mode:lr-tb;text-anchor:start;color:#000000;fill:#666666;fill-rule:nonzero;stroke:none;stroke-width:2;marker:none;visibility:visible;display:inline;overflow:visible;enable-background:accumulate;font-family:Bitstream Vera Sans;-inkscape-font-specification:Bitstream Vera Sans" />
    <rect
       width="1"
       height="14"
       x="188.99979"
       y="236"
       id="rect10471"
       style="fill:#666666;fill-opacity:1;stroke:none" />
    <rect
       width="1"
       height="14"
       x="186.99979"
       y="236"
       id="rect10477"
       style="fill:#666666;fill-opacity:1;stroke:none" />
  </g>
</svg>
