<?xml version="1.0" encoding="UTF-8" standalone="no"?>
<!-- Created with Inkscape (http://www.inkscape.org/) -->

<svg
   xmlns:dc="http://purl.org/dc/elements/1.1/"
   xmlns:cc="http://creativecommons.org/ns#"
   xmlns:rdf="http://www.w3.org/1999/02/22-rdf-syntax-ns#"
   xmlns:svg="http://www.w3.org/2000/svg"
   xmlns="http://www.w3.org/2000/svg"
   xmlns:inkscape="http://www.inkscape.org/namespaces/inkscape"
   version="1.1"
   width="24"
   height="24"
   id="svg7384">
  <title
     id="title9167">MuseScore Icon Theme</title>
  <metadata
     id="metadata90">
    <rdf:RDF>
      <cc:Work
         rdf:about="">
        <dc:format>image/svg+xml</dc:format>
        <dc:type
           rdf:resource="http://purl.org/dc/dcmitype/StillImage" />
        <dc:title>MuseScore Icon Theme</dc:title>
      </cc:Work>
    </rdf:RDF>
  </metadata>
  <defs
     id="defs7386" />
  <g
     transform="translate(-473.00038,-123)"
     id="actions"
     style="display:inline">
    <path
       d="m 430.62804,43.793491 a 1.016466,1.016466 0 1 1 -2.03293,0 1.016466,1.016466 0 1 1 2.03293,0 z"
       transform="matrix(1.4757011,0,0,1.4757011,-154.47827,70.373895)"
       id="path4340-1"
       style="fill:#666666;stroke:none;display:inline" />
    <path
       d="m 430.62804,43.793491 a 1.016466,1.016466 0 1 1 -2.03293,0 1.016466,1.016466 0 1 1 2.03293,0 z"
       transform="matrix(1.4757011,0,0,1.4757011,-148.97715,64.87389)"
       id="path13787-3"
       style="fill:#666666;stroke:none;display:inline" />
    <path
       d="m 430.62804,43.793491 a 1.016466,1.016466 0 1 1 -2.03293,0 1.016466,1.016466 0 1 1 2.03293,0 z"
       transform="matrix(-1.4757011,0,0,1.4757011,1124.4783,70.373895)"
       id="path13789-5"
       style="fill:#666666;stroke:none;display:inline" />
    <path
       d="m 430.62804,43.793491 a 1.016466,1.016466 0 1 1 -2.03293,0 1.016466,1.016466 0 1 1 2.03293,0 z"
       transform="matrix(1.4757011,0,0,1.4757011,-152.97827,66.8739)"
       id="path27671-4"
       style="fill:#666666;stroke:none;display:inline" />
    <path
       d="m 430.62804,43.793491 a 1.016466,1.016466 0 1 1 -2.03293,0 1.016466,1.016466 0 1 1 2.03293,0 z"
       transform="matrix(1.4757011,0,0,1.4757011,-144.97827,66.8739)"
       id="path27675-1"
       style="fill:#666666;stroke:none;display:inline" />
    <rect
       width="4"
       height="4"
       x="483.00021"
       y="139.99994"
       id="rect5501"
       style="color:#000000;fill:#666666;fill-opacity:1;fill-rule:nonzero;stroke:none;stroke-width:2;marker:none;visibility:visible;display:inline;overflow:visible;enable-background:accumulate" />
    <path
       d="m 485.00799,125 c -5.52285,0 -10,4.47715 -10,10 0,5.52285 4.47715,9.99999 10,9.99999 5.52285,0 10,-4.47714 10,-9.99999 0,-5.52285 -4.47715,-10 -10,-10 z m 0,1.99999 c 4.41828,0 8,3.58173 8,8.00001 0,4.41828 -3.58172,7.99999 -8,7.99999 -4.41828,0 -8,-3.58171 -8,-7.99999 0,-4.41828 3.58172,-8.00001 8,-8.00001 z"
       inkscape:connector-curvature="0"
       id="path3546"
       style="fill:#666666;fill-opacity:1;stroke:none" />
  </g>
</svg>
