<?xml version="1.0" encoding="UTF-8" standalone="no"?>
<!-- Created with Inkscape (http://www.inkscape.org/) -->

<svg
   xmlns:dc="http://purl.org/dc/elements/1.1/"
   xmlns:cc="http://creativecommons.org/ns#"
   xmlns:rdf="http://www.w3.org/1999/02/22-rdf-syntax-ns#"
   xmlns:svg="http://www.w3.org/2000/svg"
   xmlns="http://www.w3.org/2000/svg"
   xmlns:inkscape="http://www.inkscape.org/namespaces/inkscape"
   version="1.1"
   width="24"
   height="24"
   id="svg7384">
  <title
     id="title9167">MuseScore Icon Theme</title>
  <metadata
     id="metadata90">
    <rdf:RDF>
      <cc:Work
         rdf:about="">
        <dc:format>image/svg+xml</dc:format>
        <dc:type
           rdf:resource="http://purl.org/dc/dcmitype/StillImage" />
        <dc:title>MuseScore Icon Theme</dc:title>
      </cc:Work>
    </rdf:RDF>
  </metadata>
  <defs
     id="defs7386" />
  <g
     transform="translate(-401.00039,-123)"
     id="actions"
     style="display:inline">
    <path
       d="m 419.00019,126.91604 0,1.09375 -14.9375,0 c -1.15073,0 -2.0625,0.91177 -2.0625,2.0625 l 0,10.875 c 0,1.15073 0.91177,2.0625 2.0625,2.0625 l 17.875,0 c 1.15073,0 2.0625,-0.91177 2.0625,-2.0625 l 0,-10.875 c 0,-1.12873 -0.87994,-2.02801 -2,-2.0625 l 0,-1.09375 -3,0 z m -13,4.09375 3,0 0,2 -3,0 0,-2 z m 10,0 c 2.76142,0 5,2.23858 5,5 0,2.76142 -2.23858,5 -5,5 -2.76142,0 -5,-2.23858 -5,-5 0,-2.76142 2.23858,-5 5,-5 z"
       
       id="rect5957"
       style="fill:#666666;stroke:none" />
    <path
       d="m -73.8125,-9.5625 a 4.1875,4.1875 0 1 1 -8.375,0 4.1875,4.1875 0 1 1 8.375,0 z"
       transform="matrix(0.71641791,0,0,0.71641791,471.88079,142.86052)"
       id="path5970"
       style="fill:#666666;stroke:none" />
  </g>
</svg>
