<?xml version="1.0" encoding="UTF-8" standalone="no"?>
<!-- Created with Inkscape (http://www.inkscape.org/) -->

<svg
   xmlns:dc="http://purl.org/dc/elements/1.1/"
   xmlns:cc="http://creativecommons.org/ns#"
   xmlns:rdf="http://www.w3.org/1999/02/22-rdf-syntax-ns#"
   xmlns:svg="http://www.w3.org/2000/svg"
   xmlns="http://www.w3.org/2000/svg"
   xmlns:inkscape="http://www.inkscape.org/namespaces/inkscape"
   version="1.1"
   width="24"
   height="24"
   id="svg7384">
  <title
     id="title9167">MuseScore Icon Theme</title>
  <metadata
     id="metadata90">
    <rdf:RDF>
      <cc:Work
         rdf:about="">
        <dc:format>image/svg+xml</dc:format>
        <dc:type
           rdf:resource="http://purl.org/dc/dcmitype/StillImage" />
        <dc:title>MuseScore Icon Theme</dc:title>
      </cc:Work>
    </rdf:RDF>
  </metadata>
  <defs
     id="defs7386" />
  <g
     transform="translate(-40.999807,-267)"
     id="actions"
     style="display:inline">
    <path
       d="m 49.506274,281.71771 c -1.217042,0 -2.356126,0.44556 -3.417306,1.33666 -1.061179,0.8911 -1.591768,1.84904 -1.591767,2.87381 -10e-7,0.62377 0.230045,1.12501 0.690138,1.50373 C 45.647431,287.81063 46.248516,288 46.9906,288 c 1.217025,0 2.356099,-0.44556 3.417286,-1.33666 1.061188,-0.8911 1.591781,-1.84904 1.591781,-2.87381 0,-0.62377 -0.230047,-1.12502 -0.690141,-1.50373 -0.460094,-0.37873 -1.061187,-0.56809 -1.803252,-0.56809"
       inkscape:connector-curvature="0"
       id="path3541"
       style="font-size:83.33329773px;font-style:normal;font-weight:400;fill:#666666;fill-opacity:1;fill-rule:nonzero;stroke:none;font-family:MScore" />
    <path
       d="m 52.035425,276.99 -0.036,6.79906 -3,0 0,-12.40906 2.35401,0 7.64598,10.252 0,-10.23 3,0 0,15.598 -2.43399,0"
       inkscape:connector-curvature="0"
       id="path4374"
       style="font-size:14.66666698px;font-style:normal;font-variant:normal;font-weight:bold;font-stretch:normal;line-height:125%;letter-spacing:0px;word-spacing:0px;fill:#666666;fill-opacity:1;stroke:none;font-family:Raleway;-inkscape-font-specification:Raleway" />
  </g>
</svg>
