<?xml version="1.0" encoding="UTF-8" standalone="no"?>
<!-- Created with Inkscape (http://www.inkscape.org/) -->

<svg
   xmlns:dc="http://purl.org/dc/elements/1.1/"
   xmlns:cc="http://creativecommons.org/ns#"
   xmlns:rdf="http://www.w3.org/1999/02/22-rdf-syntax-ns#"
   xmlns:svg="http://www.w3.org/2000/svg"
   xmlns="http://www.w3.org/2000/svg"
   xmlns:inkscape="http://www.inkscape.org/namespaces/inkscape"
   version="1.1"
   width="24"
   height="24"
   id="svg7384">
  <title
     id="title9167">MuseScore Icon Theme</title>
  <metadata
     id="metadata90">
    <rdf:RDF>
      <cc:Work
         rdf:about="">
        <dc:format>image/svg+xml</dc:format>
        <dc:type
           rdf:resource="http://purl.org/dc/dcmitype/StillImage" />
        <dc:title>MuseScore Icon Theme</dc:title>
      </cc:Work>
    </rdf:RDF>
  </metadata>
  <defs
     id="defs7386" />
  <g
     transform="translate(-617.00061,-267)"
     id="actions"
     style="display:inline">
    <path
       d="m 629.66672,279 c 0.55206,0.55308 0.54102,0.82962 2.76457,0.82963 0.19716,0 0.29575,0.0988 0.29575,0.29629 l 0.26618,2.57778 c 0.0197,0.079 -10e-6,0.14815 -0.0591,0.20741 -0.0592,0.0593 -0.12817,0.0889 -0.20703,0.0889 l -0.0296,0 -2.57302,-0.26667 c -0.19717,0 -0.29575,-0.0988 -0.29574,-0.29629 -10e-6,-2.20495 -0.27604,-2.21723 -0.8281,-2.77031 -0.55207,0.55308 -0.8281,0.5862 -0.8281,2.77031 0,0.19752 -0.0887,0.29629 -0.26617,0.29629 L 625.30375,283 l -0.0296,0 c -0.0789,-10e-6 -0.14788,-0.0296 -0.20703,-0.0889 -0.0591,-0.0593 -0.0789,-0.1284 -0.0591,-0.20741 l 0.26618,-2.57778 c 0,-0.19753 0.0986,-0.29629 0.29574,-0.29629 2.19708,-10e-6 2.2114,-0.27655 2.76347,-0.82963 -0.55207,-0.55309 -0.55166,-0.82963 -2.76347,-0.82963 -0.19716,0 -0.29574,-0.0988 -0.29574,-0.2963 l -0.26618,-2.57778 c -0.0197,-0.079 0,-0.14814 0.0591,-0.2074 0.0592,-0.0593 0.12816,-0.0889 0.20703,-0.0889 l 0.0296,0 2.60259,0.26666 c 0.17745,1e-5 0.26617,0.0988 0.26617,0.2963 0,2.22185 0.27603,2.21735 0.8281,2.77043 0.55206,-0.55308 0.82809,-0.57112 0.8281,-2.77043 -10e-6,-0.19753 0.0986,-0.29629 0.29574,-0.2963 L 632.69747,275 l 0.0296,0 c 0.0789,0 0.14786,0.0296 0.20703,0.0889 0.0591,0.0593 0.0789,0.1284 0.0591,0.2074 l -0.26618,2.57778 c 0,0.19753 -0.0986,0.2963 -0.29575,0.2963 -2.22355,0 -2.21251,0.27654 -2.76457,0.82963"
       inkscape:connector-curvature="0"
       id="path2815"
       style="font-size:20px;font-style:normal;font-variant:normal;font-weight:normal;font-stretch:normal;text-align:start;line-height:125%;writing-mode:lr-tb;text-anchor:start;fill:#666666;fill-opacity:1;stroke:none;font-family:MScore;-inkscape-font-specification:MScore" />
  </g>
</svg>
