<?xml version="1.0" encoding="UTF-8" standalone="no"?>
<!-- Created with Inkscape (http://www.inkscape.org/) -->

<svg
   xmlns:dc="http://purl.org/dc/elements/1.1/"
   xmlns:cc="http://creativecommons.org/ns#"
   xmlns:rdf="http://www.w3.org/1999/02/22-rdf-syntax-ns#"
   xmlns:svg="http://www.w3.org/2000/svg"
   xmlns="http://www.w3.org/2000/svg"
   xmlns:inkscape="http://www.inkscape.org/namespaces/inkscape"
   version="1.1"
   width="24"
   height="24"
   id="svg7384">
  <title
     id="title9167">MuseScore Icon Theme</title>
  <metadata
     id="metadata90">
    <rdf:RDF>
      <cc:Work
         rdf:about="">
        <dc:format>image/svg+xml</dc:format>
        <dc:type
           rdf:resource="http://purl.org/dc/dcmitype/StillImage" />
        <dc:title>MuseScore Icon Theme</dc:title>
      </cc:Work>
    </rdf:RDF>
  </metadata>
  <defs
     id="defs7386" />
  <g
     transform="translate(-582.0002,-267)"
     id="actions"
     style="display:inline">
    <path
       d="m 586,271.40622 c 0,0 0.0479,-3.40622 6.51564,-3.40622 6.46773,0 7.5156,3.40622 7.5156,3.40622 l -1.03125,0.1875 c 0,0 0.20901,-1.60937 -6.48428,-1.60937 -6.69328,0 -5.48431,1.60937 -5.48431,1.60937 z"
       
       id="path4304"
       style="font-size:medium;font-style:normal;font-variant:normal;font-weight:normal;font-stretch:normal;text-indent:0;text-align:start;text-decoration:none;line-height:normal;letter-spacing:normal;word-spacing:normal;text-transform:none;direction:ltr;block-progression:tb;writing-mode:lr-tb;text-anchor:start;baseline-shift:baseline;color:#000000;fill:#666666;fill-opacity:1;stroke:none;stroke-width:0.66666669;marker:none;visibility:visible;display:inline;overflow:visible;enable-background:accumulate;font-family:Sans;-inkscape-font-specification:Sans" />
    <path
       d="m 598.4935,279.58956 c 1.21704,0 2.35613,-0.44556 3.41731,-1.33666 1.06118,-0.8911 1.59177,-1.84904 1.59176,-2.87381 0,-0.62377 -0.23004,-1.12501 -0.69013,-1.50373 -0.4601,-0.37872 -1.06118,-0.56809 -1.80327,-0.56809 -1.21702,0 -2.35609,0.44556 -3.41728,1.33666 -1.06119,0.8911 -1.59178,1.84904 -1.59178,2.87381 0,0.62377 0.23004,1.12502 0.69014,1.50373 0.46009,0.37873 1.06119,0.56809 1.80325,0.56809"
       
       id="path3540"
       style="font-size:83.33329773px;font-style:normal;font-weight:400;fill:#666666;fill-opacity:1;fill-rule:nonzero;stroke:none;font-family:MScore" />
    <path
       d="m 597.99962,288.36211 c 0,0 -0.99963,0.63755 -1.99963,0.63755 -2.6e-4,-0.006 0,-11.337 0,-11.337 l 2.00001,0 z"
       
       id="use3512"
       style="color:#000000;fill:#666666;fill-opacity:1;fill-rule:nonzero;stroke:none;stroke-width:1.50800002;marker:none;visibility:visible;display:inline;overflow:visible;enable-background:new" />
  </g>
</svg>
