<?xml version="1.0" encoding="UTF-8" standalone="no"?>
<!-- Created with Inkscape (http://www.inkscape.org/) -->

<svg
   xmlns:dc="http://purl.org/dc/elements/1.1/"
   xmlns:cc="http://creativecommons.org/ns#"
   xmlns:rdf="http://www.w3.org/1999/02/22-rdf-syntax-ns#"
   xmlns:svg="http://www.w3.org/2000/svg"
   xmlns="http://www.w3.org/2000/svg"
   xmlns:inkscape="http://www.inkscape.org/namespaces/inkscape"
   version="1.1"
   width="24"
   height="24"
   id="svg7384">
  <title
     id="title9167">MuseScore Icon Theme</title>
  <metadata
     id="metadata90">
    <rdf:RDF>
      <cc:Work
         rdf:about="">
        <dc:format>image/svg+xml</dc:format>
        <dc:type
           rdf:resource="http://purl.org/dc/dcmitype/StillImage" />
        <dc:title>MuseScore Icon Theme</dc:title>
      </cc:Work>
    </rdf:RDF>
  </metadata>
  <defs
     id="defs7386" />
  <g
     transform="translate(-725.0006,-267)"
     id="actions"
     style="display:inline">
    <path
       d="m 736,271 c -1.00025,-3e-5 -2,1 -2,1 l 0,1.40625 0,15.09375 c 0,0 6.62358,-3.49633 7.25,-6.28125 0.62641,-2.78493 -1.39032,-3.95356 -2.9375,-3.65625 -1.54717,0.2973 -2.3125,0.78125 -2.3125,0.78125 0,0 10e-6,-0.661 0,-0.84375 0,0 -5e-5,-4.08002 0,-6 2e-5,-0.47999 -5e-5,-1.5 0,-1.5 z m 1.625,9.71875 c 0.7676,-0.0828 1.31108,0.32807 1.28125,1.125 -0.0299,0.79692 -0.7315,1.40489 -1.34375,1.96875 C 736.94606,284.32206 736,285.125 736,285.125 l 0,-3.46875 c 0,0 0.85741,-0.85465 1.625,-0.9375 z"
       
       id="path10222-7-4"
       style="font-size:20px;font-style:normal;font-variant:normal;font-weight:normal;font-stretch:normal;text-align:start;line-height:125%;writing-mode:lr-tb;text-anchor:start;fill:#666666;stroke:none;display:inline;font-family:MScore1;-inkscape-font-specification:MScore1" />
  </g>
</svg>
