<?xml version="1.0" encoding="UTF-8" standalone="no"?>
<!-- Created with Inkscape (http://www.inkscape.org/) -->

<svg
   xmlns:dc="http://purl.org/dc/elements/1.1/"
   xmlns:cc="http://creativecommons.org/ns#"
   xmlns:rdf="http://www.w3.org/1999/02/22-rdf-syntax-ns#"
   xmlns:svg="http://www.w3.org/2000/svg"
   xmlns="http://www.w3.org/2000/svg"
   xmlns:inkscape="http://www.inkscape.org/namespaces/inkscape"
   version="1.1"
   width="24"
   height="24"
   id="svg7384">
  <title
     id="title9167">MuseScore Icon Theme</title>
  <metadata
     id="metadata90">
    <rdf:RDF>
      <cc:Work
         rdf:about="">
        <dc:format>image/svg+xml</dc:format>
        <dc:type
           rdf:resource="http://purl.org/dc/dcmitype/StillImage" />
        <dc:title>MuseScore Icon Theme</dc:title>
      </cc:Work>
    </rdf:RDF>
  </metadata>
  <defs
     id="defs7386" />
  <g
     transform="translate(-761.0006,-267)"
     id="actions"
     style="display:inline">
    <path
       d="m 768.99988,270.99997 c -1.00025,-1e-5 -2,1.00001 -2,1.00001 l 0,1.40625 0,15.09375 c 0,0 6.62358,-3.49632 7.25,-6.28125 0.62641,-2.78493 -1.39033,-3.95355 -2.9375,-3.65625 -1.54717,0.2973 -2.3125,0.78124 -2.3125,0.78124 0,0 1e-5,-0.66098 0,-0.84375 0,0 -6e-5,-4.08001 0,-6 1e-5,-0.47998 -5e-5,-1.5 0,-1.5 z m 1.625,9.71876 c 0.76759,-0.0828 1.31108,0.32808 1.28125,1.125 -0.0299,0.79692 -0.73151,1.4049 -1.34375,1.96875 -0.61644,0.50957 -1.5625,1.3125 -1.5625,1.3125 l 0,-3.46875 c 0,0 0.85741,-0.85465 1.625,-0.9375 z"
       inkscape:connector-curvature="0"
       id="use4916"
       style="font-size:20px;font-style:normal;font-variant:normal;font-weight:normal;font-stretch:normal;text-align:start;line-height:125%;writing-mode:lr-tb;text-anchor:start;fill:#666666;stroke:none;display:inline;font-family:MScore1;-inkscape-font-specification:MScore1" />
    <path
       d="m 774.99988,270.99997 c -1.00025,-1e-5 -2,1.00001 -2,1.00001 l 0,1.40625 0,15.09375 c 0,0 6.62358,-3.49632 7.25,-6.28125 0.62641,-2.78493 -1.39033,-3.95355 -2.9375,-3.65625 -1.54717,0.2973 -2.3125,0.78124 -2.3125,0.78124 0,0 1e-5,-0.66098 0,-0.84375 0,0 -6e-5,-4.08001 0,-6 1e-5,-0.47998 -5e-5,-1.5 0,-1.5 z m 1.625,9.71876 c 0.76759,-0.0828 1.31108,0.32808 1.28125,1.125 -0.0299,0.79692 -0.73151,1.4049 -1.34375,1.96875 -0.61644,0.50957 -1.5625,1.3125 -1.5625,1.3125 l 0,-3.46875 c 0,0 0.85741,-0.85465 1.625,-0.9375 z"
       inkscape:connector-curvature="0"
       id="use4936"
       style="font-size:20px;font-style:normal;font-variant:normal;font-weight:normal;font-stretch:normal;text-align:start;line-height:125%;writing-mode:lr-tb;text-anchor:start;fill:#666666;stroke:none;display:inline;font-family:MScore1;-inkscape-font-specification:MScore1" />
  </g>
</svg>
