<?xml version="1.0" encoding="UTF-8" standalone="no"?>
<!-- Created with Inkscape (http://www.inkscape.org/) -->

<svg
   xmlns:dc="http://purl.org/dc/elements/1.1/"
   xmlns:cc="http://creativecommons.org/ns#"
   xmlns:rdf="http://www.w3.org/1999/02/22-rdf-syntax-ns#"
   xmlns:svg="http://www.w3.org/2000/svg"
   xmlns="http://www.w3.org/2000/svg"
   xmlns:sodipodi="http://sodipodi.sourceforge.net/DTD/sodipodi-0.dtd"
   xmlns:inkscape="http://www.inkscape.org/namespaces/inkscape"
   version="1.1"
   width="24"
   height="24"
   id="svg7384"
   inkscape:version="0.48.4 r9939"
   sodipodi:docname="note-1.svg">
  <metadata
     id="metadata90">
    <rdf:RDF>
      <cc:Work
         rdf:about="">
        <dc:format>image/svg+xml</dc:format>
        <dc:type
           rdf:resource="http://purl.org/dc/dcmitype/StillImage" />
        <dc:title>MuseScore Icon Theme</dc:title>
      </cc:Work>
    </rdf:RDF>
  </metadata>
  <sodipodi:namedview
     pagecolor="#ffffff"
     bordercolor="#303338"
     borderopacity="1"
     objecttolerance="10"
     gridtolerance="10"
     guidetolerance="10"
     inkscape:pageopacity="0"
     inkscape:pageshadow="2"
     inkscape:window-width="1920"
     inkscape:window-height="1014"
     id="namedview88"
     showgrid="false"
     inkscape:zoom="1"
     inkscape:cx="-338.00384"
     inkscape:cy="-128.17491"
     inkscape:window-x="0"
     inkscape:window-y="27"
     inkscape:window-maximized="1"
     inkscape:current-layer="actions"
     showborder="false"
     inkscape:snap-nodes="true"
     inkscape:snap-bbox="true"
     inkscape:bbox-paths="true"
     showguides="true"
     inkscape:guide-bbox="true"
     inkscape:snap-to-guides="true"
     inkscape:snap-grids="true"
     inkscape:snap-global="true"
     inkscape:object-nodes="true"
     inkscape:snap-bbox-midpoints="true"
     inkscape:object-paths="true"
     inkscape:snap-others="false"
     inkscape:bbox-nodes="true"
     fit-margin-top="6"
     fit-margin-left="6"
     fit-margin-right="6"
     fit-margin-bottom="6"
     inkscape:snap-bbox-edge-midpoints="true"
     inkscape:snap-intersection-paths="true"
     inkscape:snap-smooth-nodes="true"
     inkscape:snap-midpoints="false">
    <inkscape:grid
       type="xygrid"
       id="grid4866"
       empspacing="2"
       visible="true"
       enabled="true"
       snapvisiblegridlinesonly="true"
       spacingx="1px"
       spacingy="1px"
       originx="-364.99959px"
       originy="-102px" />
  </sodipodi:namedview>
  <title
     id="title9167">MuseScore Icon Theme</title>
  <defs
     id="defs7386" />
  <g
     inkscape:groupmode="layer"
     id="actions"
     inkscape:label="actions"
     transform="translate(-399.99959,-243)"
     style="display:inline">
    <rect
       y="242.99995"
       x="399.99957"
       height="24"
       width="24"
       id="rect4327-4-4"
       style="fill:none;stroke:none;stroke-width:2;marker:none;visibility:visible;display:inline;overflow:visible;enable-background:accumulate" />
    <path
       inkscape:connector-curvature="0"
       id="path2814-7-1"
       d="m 412.00018,259.75 c -1.50966,0 -2.82034,0.30239 -3.9375,0.90625 -1.11714,0.58877 -1.65625,1.32805 -1.65625,2.21875 0,0.84541 0.53804,1.56853 1.625,2.1875 1.08696,0.61898 2.3987,0.9375 3.96875,0.9375 1.50966,0 2.83544,-0.28623 3.9375,-0.875 1.11714,-0.60387 1.65625,-1.35931 1.65625,-2.25 -2e-5,-0.8454 -0.52189,-1.56854 -1.59375,-2.1875 -1.07187,-0.61897 -2.41486,-0.9375 -4,-0.9375 z m -0.6875,0.75 c 0.37551,0 0.8021,0.0945 1.21875,0.28125 0.39596,0.16385 0.77843,0.46096 1.125,0.9375 l 0,0.0312 c 0.34878,0.44646 0.53125,0.99804 0.53125,1.65625 0,0.57387 -0.13529,0.99284 -0.375,1.3125 -0.22031,0.31099 -0.53379,0.46875 -1,0.46875 -0.378,0 -0.80122,-0.10845 -1.21875,-0.28125 -0.40149,-0.17998 -0.76258,-0.47362 -1.125,-0.9375 -0.33633,-0.46245 -0.5,-1.02783 -0.5,-1.6875 0,-0.57552 0.14865,-0.99294 0.375,-1.3125 0.23547,-0.31395 0.50251,-0.46875 0.96875,-0.46875 z"
       style="fill:#303338;fill-opacity:1;stroke:none" />
    <path
       inkscape:connector-curvature="0"
       id="path5079"
       d="m 411.31268,259.99999 c -0.59434,2e-5 -1.07469,0.21417 -1.40625,0.65625 l 0,0.0312 c -0.30643,0.4326 -0.4375,0.94479 -0.4375,1.59375 0,0.75048 0.18519,1.46946 0.59376,2.03126 0.4042,0.51741 0.84855,0.87178 1.34375,1.09376 0.47242,0.1955 0.95035,0.28125 1.40625,0.28125 0.57816,0 1.0536,-0.22127 1.375,-0.65625 l 0.0312,0 c 0.31349,-0.43069 0.46875,-0.98378 0.46875,-1.62502 0,-0.75732 -0.23105,-1.45572 -0.65625,-1.99999 -0.38592,-0.53064 -0.77046,-0.91363 -1.28125,-1.125 -0.47927,-0.21485 -0.98256,-0.28124 -1.4375,-0.28125 z m 0,0.25001 c 0.42443,0 0.87387,0.0846 1.3125,0.28125 0.44847,0.18558 0.84851,0.55344 1.21875,1.06249 0.38684,0.49517 0.59375,1.10846 0.59375,1.8125 0,0.61512 -0.12435,1.09287 -0.40625,1.46875 l 0,0.0312 c -0.26557,0.37491 -0.68698,0.53126 -1.21875,0.53126 -0.4186,0 -0.83755,-0.0976 -1.28125,-0.28125 -0.45309,-0.20308 -0.90061,-0.54403 -1.28124,-1.03125 -0.36807,-0.50609 -0.53125,-1.13574 -0.53125,-1.84376 0,-0.60312 0.1188,-1.06414 0.375,-1.43749 0.28446,-0.37926 0.6924,-0.59374 1.21875,-0.59374 z m 0,0.12495 c -0.49575,10e-6 -0.81061,0.16417 -1.06249,0.49999 l 0,0.0312 c -0.2421,0.34178 -0.40626,0.77652 -0.40626,1.37499 0,0.68172 0.17662,1.29363 0.53125,1.78125 0.37208,0.47624 0.73259,0.77885 1.15625,0.96876 0.42873,0.17744 0.87775,0.28125 1.28125,0.28125 0.48482,0 0.81986,-0.20407 1.0625,-0.53125 l 0.0312,0 c 0.24882,-0.34238 0.40624,-0.79238 0.40624,-1.37501 0,-0.64612 -0.20125,-1.1993 -0.53125,-1.65624 -0.006,-0.007 0.006,-0.0236 0,-0.0312 l 0,-0.0312 -0.0312,-0.0312 0,-0.0312 c -0.35852,-0.49296 -0.7357,-0.79471 -1.15625,-0.96874 -0.43233,-0.19379 -0.88338,-0.28124 -1.28125,-0.28125 z m 0,0.25001 c 0.35315,0 0.75528,0.10155 1.15625,0.28125 0.35986,0.14895 0.73661,0.43994 1.06251,0.87499 0.0105,0.0135 0.0209,0.017 0.0312,0.0312 l 0,0.0312 c 0.32987,0.42225 0.5,0.92893 0.5,1.56249 0,0.55291 -0.12315,0.92457 -0.34374,1.21875 l 0,0.0312 c -0.19812,0.27966 -0.47013,0.40625 -0.90626,0.40625 -0.3525,0 -0.74992,-0.11311 -1.15624,-0.28125 -0.37932,-0.17003 -0.74099,-0.45473 -1.09376,-0.90626 -0.31803,-0.43728 -0.46875,-0.95613 -0.46875,-1.59375 0,-0.53971 0.1413,-0.92427 0.34376,-1.21875 0.21906,-0.29207 0.43827,-0.43749 0.87499,-0.43749 z"
       style="fill:#303338;fill-opacity:1;fill-rule:nonzero;stroke:none;stroke-width:0.26666668;marker:none;visibility:visible;display:inline;overflow:visible;enable-background:accumulate" />
  </g>
</svg>
