<?xml version="1.0" encoding="UTF-8" standalone="no"?>
<!-- Created with Inkscape (http://www.inkscape.org/) -->

<svg
   xmlns:dc="http://purl.org/dc/elements/1.1/"
   xmlns:cc="http://creativecommons.org/ns#"
   xmlns:rdf="http://www.w3.org/1999/02/22-rdf-syntax-ns#"
   xmlns:svg="http://www.w3.org/2000/svg"
   xmlns="http://www.w3.org/2000/svg"
   xmlns:inkscape="http://www.inkscape.org/namespaces/inkscape"
   version="1.1"
   width="24"
   height="24"
   id="svg7384">
  <title
     id="title9167">MuseScore Icon Theme</title>
  <metadata
     id="metadata90">
    <rdf:RDF>
      <cc:Work
         rdf:about="">
        <dc:format>image/svg+xml</dc:format>
        <dc:type
           rdf:resource="http://purl.org/dc/dcmitype/StillImage" />
        <dc:title>MuseScore Icon Theme</dc:title>
      </cc:Work>
    </rdf:RDF>
  </metadata>
  <defs
     id="defs7386" />
  <g
     transform="translate(-221.00039,-122.99998)"
     id="actions"
     style="display:inline">
    <path
       d="m 241.4375,126.06203 c -2.03002,0 -3.65625,1.65747 -3.65625,3.6875 0,2.03002 1.62623,3.65625 3.65625,3.65625 0.99879,0 1.90002,-0.38474 2.5625,-1.03125 l 0,-5.28125 c -0.66248,-0.64653 -1.56371,-1.03125 -2.5625,-1.03125 z"
       
       id="path12099"
       style="fill:#666666;fill-opacity:1;stroke:none" />
    <path
       d="m 237.23125,135.40437 a 1.2253487,1.2253487 0 0 1 0.22973,0.0382 1.2253487,1.2253487 0 0 1 0.80406,1.87613 l -3.10136,4.6329 c -0.0656,-0.16595 -0.12585,-0.34193 -0.22973,-0.49776 l -1.18693,-1.76126 2.45045,-3.75226 a 1.2253487,1.2253487 0 0 1 1.03378,-0.53603 z"
       
       id="path12103"
       style="font-size:medium;font-style:normal;font-variant:normal;font-weight:normal;font-stretch:normal;text-indent:0;text-align:start;text-decoration:none;line-height:normal;letter-spacing:normal;word-spacing:normal;text-transform:none;direction:ltr;block-progression:tb;writing-mode:lr-tb;text-anchor:start;baseline-shift:baseline;color:#000000;fill:#666666;fill-opacity:1;fill-rule:nonzero;stroke:none;stroke-width:1.33333337;marker:none;visibility:visible;display:inline;overflow:visible;enable-background:accumulate;font-family:Sans;-inkscape-font-specification:Sans" />
    <path
       d="m 224.53125,126.06203 c -0.98378,0 -1.87156,0.37058 -2.53125,0.99999 l 0,5.34375 c 0.65969,0.62943 1.54747,1.00001 2.53125,1.00001 2.03002,0 3.6875,-1.62623 3.6875,-3.65625 0,-2.03003 -1.65748,-3.6875 -3.6875,-3.6875 z"
       
       id="path18635"
       style="fill:#666666;fill-opacity:1;stroke:none" />
    <path
       d="m 227.84375,134.78078 c -0.94336,0.55644 -2.0307,0.9375 -3.28125,0.9375 -0.93791,0 -1.79684,-0.22581 -2.5625,-0.5625 l 0,6.84375 7.375,0 -1.25,-1.875 c -0.7731,-1.15968 -0.47215,-2.69565 0.6875,-3.46875 0.17865,-0.1191 0.33982,-0.18115 0.53125,-0.25 0.17535,-0.0965 0.35654,-0.19526 0.5625,-0.25001 -0.52072,-0.65256 -1.24847,-1.13637 -2.0625,-1.37499 z"
       
       id="path18637"
       style="color:#bebebe;fill:#666666;fill-opacity:1;fill-rule:nonzero;stroke:none;stroke-width:2;marker:none;visibility:visible;display:inline;overflow:visible;enable-background:accumulate" />
    <path
       d="m 228.5,135.4375 a 1.2253487,1.2253487 0 0 0 -0.78125,1.90625 l 4.125,6.1875 a 1.2264381,1.2264381 0 1 0 2.03125,-1.375 l -4.09375,-6.1875 A 1.2253487,1.2253487 0 0 0 228.5,135.4375 z"
       
       id="path18639"
       style="font-size:medium;font-style:normal;font-variant:normal;font-weight:normal;font-stretch:normal;text-indent:0;text-align:start;text-decoration:none;line-height:normal;letter-spacing:normal;word-spacing:normal;text-transform:none;direction:ltr;block-progression:tb;writing-mode:lr-tb;text-anchor:start;baseline-shift:baseline;color:#000000;fill:#666666;fill-opacity:1;fill-rule:nonzero;stroke:none;stroke-width:2.45045233;marker:none;visibility:visible;display:inline;overflow:visible;enable-background:accumulate;font-family:Sans;-inkscape-font-specification:Sans" />
    <path
       d="m 238.15625,134.78078 c -0.81403,0.23862 -1.54178,0.72243 -2.0625,1.37499 0.20596,0.0548 0.38715,0.15348 0.5625,0.25001 0.19143,0.0687 0.3526,0.1308 0.53125,0.25 1.15965,0.7731 1.46061,2.3091 0.6875,3.46875 l -1.25,1.875 7.375,0 0,-6.84375 c -0.76566,0.33669 -1.62459,0.5625 -2.5625,0.5625 -1.25055,0 -2.33789,-0.38106 -3.28125,-0.9375 z"
       
       id="path18691"
       style="color:#bebebe;fill:#666666;fill-opacity:1;fill-rule:nonzero;stroke:none;stroke-width:2;marker:none;visibility:visible;display:inline;overflow:visible;enable-background:accumulate" />
  </g>
</svg>
