<?xml version="1.0" encoding="UTF-8" standalone="no"?>
<!-- Created with Inkscape (http://www.inkscape.org/) -->

<svg
   xmlns:dc="http://purl.org/dc/elements/1.1/"
   xmlns:cc="http://creativecommons.org/ns#"
   xmlns:rdf="http://www.w3.org/1999/02/22-rdf-syntax-ns#"
   xmlns:svg="http://www.w3.org/2000/svg"
   xmlns="http://www.w3.org/2000/svg"
   xmlns:inkscape="http://www.inkscape.org/namespaces/inkscape"
   version="1.1"
   width="24"
   height="24"
   id="svg7384">
  <title
     id="title9167">MuseScore Icon Theme</title>
  <metadata
     id="metadata90">
    <rdf:RDF>
      <cc:Work
         rdf:about="">
        <dc:format>image/svg+xml</dc:format>
        <dc:type
           rdf:resource="http://purl.org/dc/dcmitype/StillImage" />
        <dc:title>MuseScore Icon Theme</dc:title>
      </cc:Work>
    </rdf:RDF>
  </metadata>
  <defs
     id="defs7386" />
  <g
     transform="translate(-327.99999,-304)"
     id="actions"
     style="display:inline">
    <path
       d="m 339.53084,307.37502 c -0.98134,0.28152 -0.37292,1.4677 0.10905,1.94828 0.47152,0.56389 0.66046,1.37638 0.28194,2.04092 -0.58319,1.11593 -1.79252,1.70719 -2.46788,2.7585 -0.67302,0.67451 -0.42789,1.52988 0.15801,2.16226 0.55822,0.77728 1.25251,1.44064 1.8877,2.15254 0.21791,0.31752 0.30944,0.63288 -0.20208,0.4146 -0.73182,-0.14145 -1.6474,-0.40429 -2.23305,0.22289 -0.68692,0.66831 -0.65886,1.73791 -0.30015,2.56165 0.31977,0.84077 0.87471,1.55967 1.29378,2.34932 0.0572,0.96598 1.48607,0.5761 1.12932,-0.31038 -0.13665,-0.73286 -0.7638,-1.66595 0.0615,-2.23968 0.69119,-0.54396 1.73897,-0.61946 2.43959,-0.0486 0.83064,0.64881 1.49137,-0.5243 0.95207,-1.20425 -0.28968,-0.71335 -1.08405,-0.95428 -1.50478,-1.55899 -0.78565,-0.99945 -0.85644,-2.70177 0.24463,-3.50226 0.88378,-0.70203 1.92888,-1.47746 2.08474,-2.68119 0.1065,-0.61836 -0.24711,-1.16533 -0.64654,-1.59816 -0.97565,-1.21488 -1.97939,-2.42957 -3.14588,-3.4616 l -0.14205,-0.006 6e-5,-1.5e-4 z"
       
       id="path4901"
       style="font-size:20px;font-style:normal;font-variant:normal;font-weight:normal;font-stretch:normal;text-align:start;line-height:125%;writing-mode:lr-tb;text-anchor:start;fill:#666666;stroke:none;font-family:MScore;-inkscape-font-specification:MScore" />
  </g>
</svg>
