<?xml version="1.0" encoding="UTF-8" standalone="no"?>
<!-- Created with Inkscape (http://www.inkscape.org/) -->

<svg
   xmlns:dc="http://purl.org/dc/elements/1.1/"
   xmlns:cc="http://creativecommons.org/ns#"
   xmlns:rdf="http://www.w3.org/1999/02/22-rdf-syntax-ns#"
   xmlns:svg="http://www.w3.org/2000/svg"
   xmlns="http://www.w3.org/2000/svg"
   xmlns:inkscape="http://www.inkscape.org/namespaces/inkscape"
   version="1.1"
   width="24"
   height="24"
   id="svg7384">
  <title
     id="title9167">MuseScore Icon Theme</title>
  <metadata
     id="metadata90">
    <rdf:RDF>
      <cc:Work
         rdf:about="">
        <dc:format>image/svg+xml</dc:format>
        <dc:type
           rdf:resource="http://purl.org/dc/dcmitype/StillImage" />
        <dc:title>MuseScore Icon Theme</dc:title>
      </cc:Work>
    </rdf:RDF>
  </metadata>
  <defs
     id="defs7386" />
  <g
     transform="translate(-221.0004,-340)"
     id="actions"
     style="display:inline">
    <path
       d="m 240.35978,342.95312 a 1.50015,1.50015 0 0 0 -0.1875,0.0469 1.50015,1.50015 0 0 0 -1.17188,1.5 l 0,2.53125 c -0.57337,-0.86694 -1.27391,-1.62334 -2.10937,-2.25 -1.73345,-1.30015 -3.79798,-1.87841 -5.8125,-1.78125 -0.28779,0.0135 -0.55835,0.053 -0.84375,0.0937 -2.28327,0.32611 -4.46723,1.53456 -5.95313,3.51562 -2.97179,3.96217 -2.13401,9.63758 1.82813,12.60938 3.9622,2.97183 9.63756,2.134 12.60937,-1.82813 a 1.5094914,1.5094914 0 0 0 0.28125,-0.89062 1.5094914,1.5094914 0 0 0 0,-0.23438 l 0,-1.26562 -1.21875,0 -0.14062,0 a 1.5094914,1.5094914 0 0 0 -0.14063,0 1.5094914,1.5094914 0 0 0 -1.21875,0.60937 c -1.99898,2.66512 -5.72553,3.17081 -8.39062,1.17188 -2.66511,-1.99896 -3.17086,-5.72548 -1.17188,-8.39063 1.99898,-2.66511 5.7255,-3.17083 8.39063,-1.17187 0.64419,0.48318 1.15431,1.09942 1.54687,1.78125 l -2.15625,0 a 1.50015,1.50015 0 0 0 -1.5,1.5 1.50015,1.50015 0 0 0 0,0.32812 l 0,1.17188 1.26563,0 0.23437,0 6,0 1.5,0 0,-1.5 0,-6 a 1.50015,1.50015 0 0 0 0,-0.28125 l 0,-1.21875 -1.21875,0 a 1.50015,1.50015 0 0 0 -0.42187,-0.0468 z"
       inkscape:connector-curvature="0"
       id="path4597"
       style="font-size:medium;font-style:normal;font-variant:normal;font-weight:normal;font-stretch:normal;text-indent:0;text-align:start;text-decoration:none;line-height:normal;letter-spacing:normal;word-spacing:normal;text-transform:none;direction:ltr;block-progression:tb;writing-mode:lr-tb;text-anchor:start;baseline-shift:baseline;color:#666666;fill:#666666;stroke:none;stroke-width:2;marker:none;visibility:visible;display:inline;overflow:visible;enable-background:accumulate;font-family:Sans;-inkscape-font-specification:Sans" />
  </g>
</svg>
