<?xml version="1.0" encoding="UTF-8" standalone="no"?>
<!-- Created with Inkscape (http://www.inkscape.org/) -->

<svg
   xmlns:dc="http://purl.org/dc/elements/1.1/"
   xmlns:cc="http://creativecommons.org/ns#"
   xmlns:rdf="http://www.w3.org/1999/02/22-rdf-syntax-ns#"
   xmlns:svg="http://www.w3.org/2000/svg"
   xmlns="http://www.w3.org/2000/svg"
   xmlns:sodipodi="http://sodipodi.sourceforge.net/DTD/sodipodi-0.dtd"
   xmlns:inkscape="http://www.inkscape.org/namespaces/inkscape"
   version="1.1"
   width="47.999996"
   height="47.999996"
   id="svg7384"
   inkscape:version="0.48.4 r9939"
   sodipodi:docname="dialog-question.svg">
  <metadata
     id="metadata90">
    <rdf:RDF>
      <cc:Work
         rdf:about="">
        <dc:format>image/svg+xml</dc:format>
        <dc:type
           rdf:resource="http://purl.org/dc/dcmitype/StillImage" />
        <dc:title>MuseScore Icon Theme</dc:title>
      </cc:Work>
    </rdf:RDF>
  </metadata>
  <sodipodi:namedview
     pagecolor="#222222"
     bordercolor="#666666"
     borderopacity="1"
     objecttolerance="10"
     gridtolerance="10"
     guidetolerance="10"
     inkscape:pageopacity="0"
     inkscape:pageshadow="2"
     inkscape:window-width="1920"
     inkscape:window-height="1014"
     id="namedview88"
     showgrid="false"
     inkscape:zoom="1"
     inkscape:cx="91.952884"
     inkscape:cy="-39.350838"
     inkscape:window-x="0"
     inkscape:window-y="27"
     inkscape:window-maximized="1"
     inkscape:current-layer="actions"
     showborder="false"
     inkscape:snap-nodes="true"
     inkscape:snap-bbox="true"
     inkscape:bbox-paths="true"
     showguides="true"
     inkscape:guide-bbox="true"
     inkscape:snap-to-guides="true"
     inkscape:snap-grids="true"
     inkscape:snap-global="true"
     inkscape:object-nodes="true"
     inkscape:snap-bbox-midpoints="true"
     inkscape:object-paths="true"
     inkscape:snap-others="false"
     inkscape:bbox-nodes="true"
     fit-margin-top="6"
     fit-margin-left="6"
     fit-margin-right="6"
     fit-margin-bottom="6"
     inkscape:snap-bbox-edge-midpoints="true"
     inkscape:snap-intersection-paths="true"
     inkscape:snap-smooth-nodes="true"
     inkscape:snap-midpoints="false">
    <inkscape:grid
       type="xygrid"
       id="grid4866"
       empspacing="2"
       visible="true"
       enabled="true"
       snapvisiblegridlinesonly="true"
       spacingx="1px"
       spacingy="1px"
       originx="-66.001176px"
       originy="-198.00004px" />
  </sodipodi:namedview>
  <title
     id="title9167">MuseScore Icon Theme</title>
  <defs
     id="defs7386" />
  <g
     inkscape:groupmode="layer"
     id="actions"
     inkscape:label="actions"
     transform="translate(-101.00118,-122.99996)"
     style="display:inline">
    <rect
       style="color:#bebebe;fill:none;stroke:none;stroke-width:1;marker:none;visibility:visible;display:inline;overflow:visible"
       id="rect19590"
       width="47.999996"
       height="47.999996"
       x="101.00117"
       y="122.99996"
       inkscape:label="a" />
    <path
       inkscape:connector-curvature="0"
       id="path19592"
       d="m 125.00057,123.09371 c -1.20054,0 -2.44602,0.47733 -3.375,1.40625 l -19.125,19.125 c -1.85796,1.85787 -1.85796,4.89213 0,6.75 l 19.125,19.125 c 1.85793,1.85787 4.89204,1.85787 6.75,0 l 19.125,-19.125 c 1.85796,-1.85787 1.85793,-4.89213 0,-6.75 l -19.125,-19.125 c -0.92898,-0.92892 -2.17446,-1.40625 -3.375,-1.40625 z m -0.5625,8.90625 c 4.92729,-0.276 9.2865,3.51024 9.5625,8.4375 -3e-4,4.20408 -1.13313,5.76531 -4.78125,8.53125 -0.57279,0.43092 -0.9768,0.7518 -1.125,0.9375 -0.1482,0.1863 -0.0937,0.0998 -0.0937,0.0937 0.021,1.58493 -1.41489,3 -3,3 -1.58511,0 -3.021,-1.41507 -3,-3 0,-1.50717 0.67272,-2.83026 1.40625,-3.75 0.73353,-0.91989 1.4739,-1.54914 2.15625,-2.0625 0.61215,-0.48168 1.38249,-1.15362 2.0625,-1.96875 0.2805,-0.3363 0.387,-0.92298 0.375,-1.3125 l 0,-0.0936 c -0.0948,-1.68972 -1.49778,-2.9073 -3.1875,-2.8125 -1.68972,0.0948 -2.9073,1.31028 -2.8125,3 l -6,0 c -0.276,-4.92729 3.51021,-8.7237 8.4375,-9 z m 0.5625,24 c 1.65684,0 3,1.34316 3,3 0,1.65684 -1.34316,3 -3,3 -1.65684,0 -3,-1.34316 -3,-3 0,-1.65684 1.34316,-3 3,-3 z"
       style="color:#bebebe;fill:#666666;fill-opacity:1;stroke:none;stroke-width:2;marker:none;visibility:visible;display:inline;overflow:visible" />
  </g>
</svg>
