<?xml version="1.0" encoding="UTF-8" standalone="no"?>
<!-- Created with Inkscape (http://www.inkscape.org/) -->

<svg
   xmlns:dc="http://purl.org/dc/elements/1.1/"
   xmlns:cc="http://creativecommons.org/ns#"
   xmlns:rdf="http://www.w3.org/1999/02/22-rdf-syntax-ns#"
   xmlns:svg="http://www.w3.org/2000/svg"
   xmlns="http://www.w3.org/2000/svg"
   xmlns:sodipodi="http://sodipodi.sourceforge.net/DTD/sodipodi-0.dtd"
   xmlns:inkscape="http://www.inkscape.org/namespaces/inkscape"
   version="1.1"
   width="24"
   height="24"
   id="svg7384"
   inkscape:version="0.48.4 r9939"
   sodipodi:docname="midi-input.svg">
  <metadata
     id="metadata90">
    <rdf:RDF>
      <cc:Work
         rdf:about="">
        <dc:format>image/svg+xml</dc:format>
        <dc:type
           rdf:resource="http://purl.org/dc/dcmitype/StillImage" />
        <dc:title>MuseScore Icon Theme</dc:title>
      </cc:Work>
    </rdf:RDF>
  </metadata>
  <sodipodi:namedview
     pagecolor="#333333"
     bordercolor="#666666"
     borderopacity="1"
     objecttolerance="10"
     gridtolerance="10"
     guidetolerance="10"
     inkscape:pageopacity="1"
     inkscape:pageshadow="2"
     inkscape:window-width="1920"
     inkscape:window-height="1021"
     id="namedview88"
     showgrid="false"
     inkscape:zoom="1"
     inkscape:cx="-315.34552"
     inkscape:cy="-68.06727"
     inkscape:window-x="0"
     inkscape:window-y="27"
     inkscape:window-maximized="1"
     inkscape:current-layer="actions"
     showborder="false"
     inkscape:snap-nodes="false"
     inkscape:snap-bbox="true"
     inkscape:bbox-paths="true"
     showguides="true"
     inkscape:guide-bbox="true"
     inkscape:snap-to-guides="true"
     inkscape:snap-grids="true"
     inkscape:snap-global="false"
     inkscape:object-nodes="false"
     inkscape:snap-bbox-midpoints="false"
     inkscape:object-paths="false"
     inkscape:snap-others="false"
     inkscape:bbox-nodes="false"
     fit-margin-top="6"
     fit-margin-left="6"
     fit-margin-right="6"
     fit-margin-bottom="6">
    <inkscape:grid
       type="xygrid"
       id="grid4866"
       empspacing="2"
       visible="true"
       enabled="true"
       snapvisiblegridlinesonly="true"
       spacingx="1px"
       spacingy="1px"
       originx="-65.81007px"
       originy="43.99994px" />
  </sodipodi:namedview>
  <title
     id="title9167">MuseScore Icon Theme</title>
  <defs
     id="defs7386" />
  <g
     inkscape:groupmode="layer"
     id="actions"
     inkscape:label="actions"
     transform="translate(-509.00038,-123)"
     style="display:inline">
    <rect
       style="color:#ffffff;fill:none;stroke:none;stroke-width:1;marker:none;visibility:visible;display:inline;overflow:visible"
       id="rect27607"
       width="24"
       height="24"
       x="509.00037"
       y="123"
       inkscape:label="audio-volume-high" />
    <rect
       inkscape:label="audio-volume-high"
       y="123"
       x="509.00037"
       height="24"
       width="24"
       id="rect27609"
       style="color:#ffffff;fill:none;stroke:none;stroke-width:1;marker:none;visibility:visible;display:inline;overflow:visible" />
    <path
       inkscape:connector-curvature="0"
       id="path2768"
       d="m 520.99997,124 c -6.06329,0 -11,4.93672 -11,11 0,6.06329 4.93671,11 11,11 6.06329,0 11,-4.93672 11,-11 0,-6.06329 -4.93671,-11 -11,-11 z m 0,2 c 4.98241,0 9,4.01759 9,9 0,3.53596 -2.0458,6.55994 -5,8.03125 l 0,-3.03125 -8,0 0,3.03125 c -2.9542,-1.47131 -5,-4.49529 -5,-8.03125 0,-4.98242 4.01759,-9 9,-9 z m -2,16 4,0 0,1.75 c -0.64542,0.14616 -1.30916,0.25 -2,0.25 -0.69084,0 -1.35458,-0.10384 -2,-0.25 l 0,-1.75 z"
       style="font-size:medium;font-style:normal;font-variant:normal;font-weight:normal;font-stretch:normal;text-indent:0;text-align:start;text-decoration:none;line-height:normal;letter-spacing:normal;word-spacing:normal;text-transform:none;direction:ltr;block-progression:tb;writing-mode:lr-tb;text-anchor:start;baseline-shift:baseline;color:#000000;fill:#ffffff;stroke:none;stroke-width:1px;marker:none;visibility:visible;display:inline;overflow:visible;enable-background:accumulate;font-family:Sans;-inkscape-font-specification:Sans" />
    <path
       transform="matrix(1.4757011,0,0,1.4757011,-119.47809,70.373895)"
       d="m 430.62804,43.793491 a 1.016466,1.016466 0 1 1 -2.03293,0 1.016466,1.016466 0 1 1 2.03293,0 z"
       sodipodi:ry="1.016466"
       sodipodi:rx="1.016466"
       sodipodi:cy="43.793491"
       sodipodi:cx="429.61157"
       id="path4340"
       style="fill:#ffffff;stroke:none"
       sodipodi:type="arc" />
    <path
       sodipodi:type="arc"
       style="fill:#ffffff;stroke:none"
       id="path13787"
       sodipodi:cx="429.61157"
       sodipodi:cy="43.793491"
       sodipodi:rx="1.016466"
       sodipodi:ry="1.016466"
       d="m 430.62804,43.793491 a 1.016466,1.016466 0 1 1 -2.03293,0 1.016466,1.016466 0 1 1 2.03293,0 z"
       transform="matrix(1.4757011,0,0,1.4757011,-112.97789,63.8739)" />
    <path
       sodipodi:type="arc"
       style="fill:#ffffff;stroke:none"
       id="path13789"
       sodipodi:cx="429.61157"
       sodipodi:cy="43.793491"
       sodipodi:rx="1.016466"
       sodipodi:ry="1.016466"
       d="m 430.62804,43.793491 a 1.016466,1.016466 0 1 1 -2.03293,0 1.016466,1.016466 0 1 1 2.03293,0 z"
       transform="matrix(-1.4757011,0,0,1.4757011,1161.4785,70.373895)" />
    <path
       transform="matrix(1.4757011,0,0,1.4757011,-117.97788,65.873895)"
       d="m 430.62804,43.793491 a 1.016466,1.016466 0 1 1 -2.03293,0 1.016466,1.016466 0 1 1 2.03293,0 z"
       sodipodi:ry="1.016466"
       sodipodi:rx="1.016466"
       sodipodi:cy="43.793491"
       sodipodi:cx="429.61157"
       id="path27671"
       style="fill:#ffffff;stroke:none"
       sodipodi:type="arc" />
    <path
       sodipodi:type="arc"
       style="fill:#ffffff;stroke:none"
       id="path27675"
       sodipodi:cx="429.61157"
       sodipodi:cy="43.793491"
       sodipodi:rx="1.016466"
       sodipodi:ry="1.016466"
       d="m 430.62804,43.793491 a 1.016466,1.016466 0 1 1 -2.03293,0 1.016466,1.016466 0 1 1 2.03293,0 z"
       transform="matrix(1.4757011,0,0,1.4757011,-107.97789,65.873895)" />
  </g>
</svg>
